<svg width="1092" height="245" viewBox="0 0 1092 245" fill="none" xmlns="http://www.w3.org/2000/svg">
<g style="mix-blend-mode:soft-light" opacity="0.6">
<path d="M231.717 2.97656C229.368 2.97656 227.224 4.31011 226.236 6.39266L144.296 177.581C138.032 190.296 134.564 197.859 133.893 200.27C131.656 193.036 128.636 185.364 124.832 177.253L51.5993 6.70321C50.6298 4.45625 48.3739 2.97656 45.8757 2.97656C42.8367 2.97656 40.2452 5.13217 39.7418 8.0733L1 240.058H17.4438L44.9621 62.1646L48.318 37.1741C50.779 44.189 54.023 52.3 58.0501 61.507L126.417 223.69C127.498 226.229 130.015 227.891 132.83 227.891C135.534 227.891 137.976 226.357 139.113 223.964L216.448 61.8358C218.461 57.2323 220.419 52.7932 222.321 48.5185C224.222 44.2438 225.565 41.1748 226.348 39.3115C227.131 37.4482 227.634 36.4069 227.858 36.1876C227.858 41.8872 228.753 50.3271 230.543 61.507L256.719 240.058H273.498L237.702 8.0185C237.254 5.1139 234.7 2.97656 231.717 2.97656Z" fill="#242124" stroke="#242124" stroke-miterlimit="10"/>
<path d="M516.126 4.94824C511.67 4.94824 508.072 8.47394 508.072 12.84V143.383C508.072 201.255 482.175 230.192 430.383 230.192C378.59 230.192 352.694 201.255 352.694 143.383V12.84C352.694 8.47394 349.096 4.94824 344.64 4.94824C340.184 4.94824 336.586 8.47394 336.586 12.84V143.383C336.586 174.511 344.36 199.063 359.909 217.039C375.458 235.015 399.005 244.002 430.551 244.002C462.096 244.002 485.587 235.069 501.024 217.203C516.461 199.337 524.18 174.73 524.18 143.383V12.84C524.18 8.47394 520.582 4.94824 516.126 4.94824Z" fill="#242124" stroke="#242124" stroke-miterlimit="10"/>
<path d="M1068.17 31.7473C1052.73 13.8813 1029.24 4.94824 997.695 4.94824C966.15 4.94824 942.603 13.9361 927.054 31.9117C911.505 49.8873 903.73 74.4395 903.73 105.568V236.111C903.73 240.477 907.329 244.002 911.785 244.002C916.24 244.002 919.839 240.477 919.839 236.111V105.568C919.839 47.6952 945.735 18.7588 997.527 18.7588C1049.32 18.7588 1075.22 47.6952 1075.22 105.568V236.111C1075.22 240.477 1078.81 244.002 1083.27 244.002C1087.73 244.002 1091.32 240.477 1091.32 236.111V105.568C1091.32 74.2202 1083.61 49.6133 1068.17 31.7473Z" fill="#242124" stroke="#242124" stroke-miterlimit="10"/>
<path d="M713.796 1C679.789 1 651.656 12.6732 629.395 36.0196C607.134 59.366 596.004 88.138 596.004 122.336C596.004 156.533 607.134 185.36 629.395 208.816C651.656 232.272 679.789 244 713.796 244C747.802 244 775.991 232.272 798.364 208.816C820.736 185.36 831.923 156.533 831.923 122.336C831.923 88.138 820.736 59.366 798.364 36.0196C775.991 12.6732 747.802 1 713.796 1ZM786.451 198.622C767.769 219.229 743.607 229.532 713.963 229.532C684.32 229.532 660.157 219.229 641.476 198.622C622.795 178.016 613.455 152.587 613.455 122.336C613.455 92.0839 622.739 66.7097 641.308 46.2131C659.878 25.7165 684.04 15.4682 713.796 15.4682C743.551 15.4682 767.769 25.7165 786.451 46.2131C805.132 66.7097 814.472 92.0839 814.472 122.336C814.472 152.587 805.132 178.016 786.451 198.622Z" fill="#242124" stroke="#242124" stroke-miterlimit="10"/>
</g>
</svg>
