<svg width="824" height="189" viewBox="0 0 824 189" fill="none" xmlns="http://www.w3.org/2000/svg">
<g style="mix-blend-mode:soft-light" opacity="0.6">
<path d="M174.95 2.51758C173.178 2.51758 171.562 3.5437 170.817 5.14614L109.039 136.87C104.316 146.653 101.701 152.473 101.195 154.328C99.5082 148.762 97.231 142.858 94.3635 136.617L39.1494 5.3851C38.4185 3.65615 36.7176 2.51758 34.8341 2.51758C32.5429 2.51758 30.589 4.17624 30.2095 6.43934L1 184.943H13.3979L34.1453 48.0607L36.6755 28.8314C38.5309 34.2291 40.9768 40.4702 44.013 47.5547L95.5583 172.349C96.3736 174.302 98.2712 175.582 100.394 175.582C102.432 175.582 104.273 174.401 105.131 172.559L163.437 47.8077C164.955 44.2655 166.431 40.8497 167.865 37.5605C169.299 34.2713 170.311 31.9098 170.901 30.476C171.492 29.0423 171.871 28.241 172.04 28.0723C172.04 32.458 172.715 38.9521 174.064 47.5547L193.799 184.943H206.45L179.462 6.39717C179.124 4.16218 177.199 2.51758 174.95 2.51758Z" fill="#242124" stroke="#242124" stroke-miterlimit="10"/>
<path d="M389.382 4.03711C386.022 4.03711 383.31 6.75001 383.31 10.1095V110.557C383.31 155.089 363.785 177.354 324.736 177.354C285.687 177.354 266.162 155.089 266.162 110.557V10.1095C266.162 6.75001 263.449 4.03711 260.09 4.03711C256.73 4.03711 254.018 6.75001 254.018 10.1095V110.557C254.018 134.51 259.879 153.402 271.602 167.233C283.325 181.065 301.079 187.981 324.862 187.981C348.646 187.981 366.357 181.107 377.996 167.36C389.635 153.613 395.454 134.678 395.454 110.557V10.1095C395.454 6.75001 392.741 4.03711 389.382 4.03711Z" fill="#242124" stroke="#242124" stroke-miterlimit="10"/>
<path d="M805.596 24.658C793.957 10.9108 776.246 4.03711 752.462 4.03711C728.678 4.03711 710.925 10.9529 699.202 24.7845C687.479 38.6162 681.617 57.5082 681.617 81.4605V181.908C681.617 185.268 684.33 187.981 687.69 187.981C691.049 187.981 693.762 185.268 693.762 181.908V81.4605C693.762 36.9294 713.287 14.6638 752.336 14.6638C791.385 14.6638 810.909 36.9294 810.909 81.4605V181.908C810.909 185.268 813.622 187.981 816.982 187.981C820.341 187.981 823.054 185.268 823.054 181.908V81.4605C823.054 57.3395 817.235 38.4053 805.596 24.658Z" fill="#242124" stroke="#242124" stroke-miterlimit="10"/>
<path d="M538.41 1C512.771 1 491.559 9.98212 474.776 27.9464C457.992 45.9106 449.601 68.0497 449.601 94.3635C449.601 120.677 457.992 142.859 474.776 160.907C491.559 178.956 512.771 187.98 538.41 187.98C564.049 187.98 585.302 178.956 602.17 160.907C619.038 142.859 627.472 120.677 627.472 94.3635C627.472 68.0497 619.038 45.9106 602.17 27.9464C585.302 9.98212 564.049 1 538.41 1ZM593.188 153.064C579.103 168.919 560.886 176.847 538.536 176.847C516.186 176.847 497.969 168.919 483.884 153.064C469.8 137.208 462.758 117.641 462.758 94.3635C462.758 71.0859 469.758 51.5613 483.758 35.7899C497.758 20.0185 515.976 12.1328 538.41 12.1328C560.844 12.1328 579.103 20.0185 593.188 35.7899C607.273 51.5613 614.315 71.0859 614.315 94.3635C614.315 117.641 607.273 137.208 593.188 153.064Z" fill="#242124" stroke="#242124" stroke-miterlimit="10"/>
</g>
</svg>
