<svg width="42" height="35" viewBox="0 0 42 35" fill="none" xmlns="http://www.w3.org/2000/svg">
<path fill-rule="evenodd" clip-rule="evenodd" d="M7.14506 1.751C7.14506 2.71806 6.3609 3.50201 5.39357 3.50201C4.42626 3.50201 3.64209 2.71806 3.64209 1.751C3.64209 0.783949 4.42626 0 5.39357 0C6.3609 0 7.14506 0.783949 7.14506 1.751ZM1.11462 2.86523C1.45537 2.86523 1.73162 2.58908 1.73162 2.24841C1.73162 1.90774 1.45537 1.63158 1.11462 1.63158C0.773856 1.63158 0.497617 1.90774 0.497617 2.24841C0.497617 2.58908 0.773856 2.86523 1.11462 2.86523ZM9.8123 20.3156C9.8123 20.6563 9.53605 20.9325 9.1953 20.9325C8.85454 20.9325 8.5783 20.6563 8.5783 20.3156C8.5783 19.9749 8.85454 19.6988 9.1953 19.6988C9.53605 19.6988 9.8123 19.9749 9.8123 20.3156ZM1.234 21.0618C1.234 21.4025 0.957757 21.6787 0.616998 21.6787C0.27624 21.6787 0 21.4025 0 21.0618C0 20.7211 0.27624 20.445 0.616998 20.445C0.957757 20.445 1.234 20.7211 1.234 21.0618ZM11.6732 24.4641C12.014 24.4641 12.2902 24.188 12.2902 23.8474C12.2902 23.5067 12.014 23.2306 11.6732 23.2306C11.3324 23.2306 11.0562 23.5067 11.0562 23.8474C11.0562 24.188 11.3324 24.4641 11.6732 24.4641ZM19.6046 21.2607C19.6046 21.6014 19.3283 21.8775 18.9875 21.8775C18.6468 21.8775 18.3705 21.6014 18.3705 21.2607C18.3705 20.92 18.6468 20.6438 18.9875 20.6438C19.3283 20.6438 19.6046 20.92 19.6046 21.2607ZM2.71684 9.71004C2.71684 10.2375 2.28912 10.6651 1.76148 10.6651C1.23386 10.6651 0.806137 10.2375 0.806137 9.71004C0.806137 9.18256 1.23386 8.75496 1.76148 8.75496C2.28912 8.75496 2.71684 9.18256 2.71684 9.71004ZM17.2858 19.6193C17.7254 19.6193 18.0819 19.263 18.0819 18.8233C18.0819 18.3838 17.7254 18.0274 17.2858 18.0274C16.846 18.0274 16.4896 18.3838 16.4896 18.8233C16.4896 19.263 16.846 19.6193 17.2858 19.6193ZM2.02993 28.5234C2.02993 28.9631 1.6735 29.3194 1.2338 29.3194C0.794115 29.3194 0.437675 28.9631 0.437675 28.5234C0.437675 28.0839 0.794115 27.7275 1.2338 27.7275C1.6735 27.7275 2.02993 28.0839 2.02993 28.5234ZM7.36397 25.091C7.84764 25.091 8.23972 24.6991 8.23972 24.2155C8.23972 23.732 7.84764 23.34 7.36397 23.34C6.88031 23.34 6.48823 23.732 6.48823 24.2155C6.48823 24.6991 6.88031 25.091 7.36397 25.091ZM17.5049 30.9111C17.5049 31.3947 17.1128 31.7866 16.6291 31.7866C16.1455 31.7866 15.7534 31.3947 15.7534 30.9111C15.7534 30.4276 16.1455 30.0356 16.6291 30.0356C17.1128 30.0356 17.5049 30.4276 17.5049 30.9111ZM14.1411 28.0756C14.5259 28.0756 14.8378 27.7639 14.8378 27.3792C14.8378 26.9946 14.5259 26.6829 14.1411 26.6829C13.7564 26.6829 13.4445 26.9946 13.4445 27.3792C13.4445 27.7639 13.7564 28.0756 14.1411 28.0756ZM4.76702 32.0752C4.76702 32.652 4.29918 33.1198 3.7221 33.1198C3.145 33.1198 2.67718 32.652 2.67718 32.0752C2.67718 31.4981 3.145 31.0305 3.7221 31.0305C4.29918 31.0305 4.76702 31.4981 4.76702 32.0752ZM7.89155 7.26273C8.77642 7.26273 9.49376 6.5456 9.49376 5.66097C9.49376 4.77634 8.77642 4.0592 7.89155 4.0592C7.00666 4.0592 6.28934 4.77634 6.28934 5.66097C6.28934 6.5456 7.00666 7.26273 7.89155 7.26273ZM6.0408 11.2024C6.87071 11.2024 7.54349 10.5298 7.54349 9.70013C7.54349 8.87045 6.87071 8.19786 6.0408 8.19786C5.21089 8.19786 4.5381 8.87045 4.5381 9.70013C4.5381 10.5298 5.21089 11.2024 6.0408 11.2024ZM11.9519 8.95391C11.9519 9.82755 11.2435 10.5358 10.3696 10.5358C9.49572 10.5358 8.78729 9.82755 8.78729 8.95391C8.78729 8.08026 9.49572 7.37205 10.3696 7.37205C11.2435 7.37205 11.9519 8.08026 11.9519 8.95391ZM4.24923 14.7343C5.08464 14.7343 5.76187 14.0572 5.76187 13.2221C5.76187 12.3869 5.08464 11.7098 4.24923 11.7098C3.41381 11.7098 2.73659 12.3869 2.73659 13.2221C2.73659 14.0572 3.41381 14.7343 4.24923 14.7343ZM9.98143 12.8639C9.98143 13.6606 9.33539 14.3065 8.53846 14.3065C7.74152 14.3065 7.09548 13.6606 7.09548 12.8639C7.09548 12.0672 7.74152 11.4213 8.53846 11.4213C9.33539 11.4213 9.98143 12.0672 9.98143 12.8639ZM12.8572 13.7394C13.5498 13.7394 14.1111 13.1781 14.1111 12.4858C14.1111 11.7935 13.5498 11.2322 12.8572 11.2322C12.1647 11.2322 11.6033 11.7935 11.6033 12.4858C11.6033 13.1781 12.1647 13.7394 12.8572 13.7394ZM12.2805 16.4056C12.2805 17.0979 11.7191 17.6592 11.0266 17.6592C10.334 17.6592 9.77266 17.0979 9.77266 16.4056C9.77266 15.7133 10.334 15.1521 11.0266 15.1521C11.7191 15.1521 12.2805 15.7133 12.2805 16.4056ZM6.70725 18.0373C7.39975 18.0373 7.96115 17.476 7.96115 16.7838C7.96115 16.0915 7.39975 15.5302 6.70725 15.5302C6.01474 15.5302 5.45334 16.0915 5.45334 16.7838C5.45334 17.476 6.01474 18.0373 6.70725 18.0373ZM6.31944 20.6738C6.31944 21.4649 5.67786 22.1063 4.88641 22.1063C4.09497 22.1063 3.45337 21.4649 3.45337 20.6738C3.45337 19.8825 4.09497 19.2411 4.88641 19.2411C5.67786 19.2411 6.31944 19.8825 6.31944 20.6738ZM3.06484 25.8572C3.76834 25.8572 4.33864 25.2869 4.33864 24.5836C4.33864 23.8803 3.76834 23.3102 3.06484 23.3102C2.36134 23.3102 1.79104 23.8803 1.79104 24.5836C1.79104 25.2869 2.36134 25.8572 3.06484 25.8572ZM17.3951 23.4495C17.3951 24.2352 16.758 24.8721 15.972 24.8721C15.1862 24.8721 14.549 24.2352 14.549 23.4495C14.549 22.6637 15.1862 22.0268 15.972 22.0268C16.758 22.0268 17.3951 22.6637 17.3951 23.4495ZM13.4746 21.3701C14.266 21.3701 14.9076 20.7287 14.9076 19.9374C14.9076 19.1463 14.266 18.5049 13.4746 18.5049C12.6831 18.5049 12.0416 19.1463 12.0416 19.9374C12.0416 20.7287 12.6831 21.3701 13.4746 21.3701ZM6.96596 28.1454C6.96596 28.9367 6.32438 29.5781 5.53293 29.5781C4.74149 29.5781 4.09991 28.9367 4.09991 28.1454C4.09991 27.3541 4.74149 26.7127 5.53293 26.7127C6.32438 26.7127 6.96596 27.3541 6.96596 28.1454ZM2.3783 18.2163C2.96639 18.2163 3.44312 17.7397 3.44312 17.1518C3.44312 16.5638 2.96639 16.0873 2.3783 16.0873C1.79022 16.0873 1.31348 16.5638 1.31348 17.1518C1.31348 17.7397 1.79022 18.2163 2.3783 18.2163ZM16.4004 16.0177C16.4004 16.6057 15.9237 17.0822 15.3356 17.0822C14.7475 17.0822 14.2708 16.6057 14.2708 16.0177C14.2708 15.4298 14.7475 14.9532 15.3356 14.9532C15.9237 14.9532 16.4004 15.4298 16.4004 16.0177ZM3.59253 7.36216C4.4664 7.36216 5.17483 6.65393 5.17483 5.78029C5.17483 4.90664 4.4664 4.19843 3.59253 4.19843C2.71863 4.19843 2.01022 4.90664 2.01022 5.78029C2.01022 6.65393 2.71863 7.36216 3.59253 7.36216ZM41.2293 21.6787C41.57 21.6787 41.8462 21.4025 41.8462 21.0618C41.8462 20.7211 41.57 20.445 41.2293 20.445C40.8885 20.445 40.6123 20.7211 40.6123 21.0618C40.6123 21.4025 40.8885 21.6787 41.2293 21.6787ZM33.2583 20.3156C33.2583 20.6563 32.982 20.9325 32.6413 20.9325C32.3005 20.9325 32.0242 20.6563 32.0242 20.3156C32.0242 19.9749 32.3005 19.6988 32.6413 19.6988C32.982 19.6988 33.2583 19.9749 33.2583 20.3156ZM30.1733 24.4641C30.5141 24.4641 30.7903 24.188 30.7903 23.8474C30.7903 23.5067 30.5141 23.2306 30.1733 23.2306C29.8327 23.2306 29.5564 23.5067 29.5564 23.8474C29.5564 24.188 29.8327 24.4641 30.1733 24.4641ZM23.4757 21.2607C23.4757 21.6014 23.1994 21.8775 22.8587 21.8775C22.5179 21.8775 22.2418 21.6014 22.2418 21.2607C22.2418 20.92 22.5179 20.6438 22.8587 20.6438C23.1994 20.6438 23.4757 20.92 23.4757 21.2607ZM40.7318 2.86523C41.0726 2.86523 41.3488 2.58908 41.3488 2.24841C41.3488 1.90774 41.0726 1.63158 40.7318 1.63158C40.391 1.63158 40.1148 1.90774 40.1148 2.24841C40.1148 2.58908 40.391 2.86523 40.7318 2.86523ZM41.0403 9.71012C41.0403 10.2376 40.6126 10.6652 40.085 10.6652C39.5574 10.6652 39.1296 10.2376 39.1296 9.71012C39.1296 9.18264 39.5574 8.75502 40.085 8.75502C40.6126 8.75502 41.0403 9.18264 41.0403 9.71012ZM24.5607 19.6193C25.0005 19.6193 25.3569 19.263 25.3569 18.8233C25.3569 18.3838 25.0005 18.0274 24.5607 18.0274C24.1211 18.0274 23.7646 18.3838 23.7646 18.8233C23.7646 19.263 24.1211 19.6193 24.5607 19.6193ZM41.3986 28.5234C41.3986 28.9631 41.042 29.3194 40.6024 29.3194C40.1627 29.3194 39.8063 28.9631 39.8063 28.5234C39.8063 28.0839 40.1627 27.7275 40.6024 27.7275C41.042 27.7275 41.3986 28.0839 41.3986 28.5234ZM34.4723 25.091C34.9559 25.091 35.3481 24.6991 35.3481 24.2155C35.3481 23.732 34.9559 23.34 34.4723 23.34C33.9887 23.34 33.5966 23.732 33.5966 24.2155C33.5966 24.6991 33.9887 25.091 34.4723 25.091ZM26.0931 30.9111C26.0931 31.3947 25.7009 31.7866 25.2173 31.7866C24.7337 31.7866 24.3416 31.3947 24.3416 30.9111C24.3416 30.4276 24.7337 30.0356 25.2173 30.0356C25.7009 30.0356 26.0931 30.4276 26.0931 30.9111ZM27.6953 28.0756C28.0801 28.0756 28.3918 27.7639 28.3918 27.3792C28.3918 26.9946 28.0801 26.6829 27.6953 26.6829C27.3105 26.6829 26.9987 26.9946 26.9987 27.3792C26.9987 27.7639 27.3105 28.0756 27.6953 28.0756ZM39.1594 32.0752C39.1594 32.652 38.6917 33.1198 38.1145 33.1198C37.5375 33.1198 37.0696 32.652 37.0696 32.0752C37.0696 31.4981 37.5375 31.0305 38.1145 31.0305C38.6917 31.0305 39.1594 31.4981 39.1594 32.0752ZM33.9448 7.26273C34.8297 7.26273 35.547 6.5456 35.547 5.66097C35.547 4.77634 34.8297 4.0592 33.9448 4.0592C33.06 4.0592 32.3426 4.77634 32.3426 5.66097C32.3426 6.5456 33.06 7.26273 33.9448 7.26273ZM38.1941 1.751C38.1941 2.71806 37.41 3.50201 36.4426 3.50201C35.4753 3.50201 34.6912 2.71806 34.6912 1.751C34.6912 0.783949 35.4753 0 36.4426 0C37.41 0 38.1941 0.783949 38.1941 1.751ZM35.7959 11.2024C36.6257 11.2024 37.2985 10.5298 37.2985 9.70013C37.2985 8.87045 36.6257 8.19786 35.7959 8.19786C34.9659 8.19786 34.2932 8.87045 34.2932 9.70013C34.2932 10.5298 34.9659 11.2024 35.7959 11.2024ZM33.0591 8.95391C33.0591 9.82755 32.3506 10.5358 31.4768 10.5358C30.6029 10.5358 29.8946 9.82755 29.8946 8.95391C29.8946 8.08026 30.6029 7.37205 31.4768 7.37205C32.3506 7.37205 33.0591 8.08026 33.0591 8.95391ZM37.5872 14.7343C38.4226 14.7343 39.0998 14.0572 39.0998 13.2221C39.0998 12.3869 38.4226 11.7098 37.5872 11.7098C36.7519 11.7098 36.0746 12.3869 36.0746 13.2221C36.0746 14.0572 36.7519 14.7343 37.5872 14.7343ZM34.7508 12.8639C34.7508 13.6606 34.1048 14.3065 33.3078 14.3065C32.5109 14.3065 31.8649 13.6606 31.8649 12.8639C31.8649 12.0672 32.5109 11.4213 33.3078 11.4213C34.1048 11.4213 34.7508 12.0672 34.7508 12.8639ZM28.9888 13.7394C29.6813 13.7394 30.2428 13.1781 30.2428 12.4858C30.2428 11.7935 29.6813 11.2322 28.9888 11.2322C28.2963 11.2322 27.735 11.7935 27.735 12.4858C27.735 13.1781 28.2963 13.7394 28.9888 13.7394ZM32.0642 16.4056C32.0642 17.0979 31.5028 17.6592 30.8102 17.6592C30.1177 17.6592 29.5564 17.0979 29.5564 16.4056C29.5564 15.7133 30.1177 15.1521 30.8102 15.1521C31.5028 15.1521 32.0642 15.7133 32.0642 16.4056ZM35.139 18.0374C35.8316 18.0374 36.393 17.4761 36.393 16.7838C36.393 16.0915 35.8316 15.5302 35.139 15.5302C34.4465 15.5302 33.8852 16.0915 33.8852 16.7838C33.8852 17.4761 34.4465 18.0374 35.139 18.0374ZM38.3834 20.6738C38.3834 21.4649 37.7418 22.1063 36.9503 22.1063C36.1589 22.1063 35.5173 21.4649 35.5173 20.6738C35.5173 19.8825 36.1589 19.2411 36.9503 19.2411C37.7418 19.2411 38.3834 19.8825 38.3834 20.6738ZM38.7716 25.8572C39.4751 25.8572 40.0453 25.2869 40.0453 24.5836C40.0453 23.8803 39.4751 23.3102 38.7716 23.3102C38.0681 23.3102 37.4977 23.8803 37.4977 24.5836C37.4977 25.2869 38.0681 25.8572 38.7716 25.8572ZM27.2873 23.4495C27.2873 24.2352 26.6502 24.8721 25.8643 24.8721C25.0783 24.8721 24.4412 24.2352 24.4412 23.4495C24.4412 22.6637 25.0783 22.0268 25.8643 22.0268C26.6502 22.0268 27.2873 22.6637 27.2873 23.4495ZM28.362 21.3701C29.1534 21.3701 29.795 20.7287 29.795 19.9374C29.795 19.1463 29.1534 18.5049 28.362 18.5049C27.5705 18.5049 26.9289 19.1463 26.9289 19.9374C26.9289 20.7287 27.5705 21.3701 28.362 21.3701ZM37.7463 28.1454C37.7463 28.9367 37.1047 29.5781 36.3133 29.5781C35.5218 29.5781 34.8802 28.9367 34.8802 28.1454C34.8802 27.3541 35.5218 26.7127 36.3133 26.7127C37.1047 26.7127 37.7463 27.3541 37.7463 28.1454ZM39.4582 18.2163C40.0462 18.2163 40.523 17.7397 40.523 17.1518C40.523 16.5638 40.0462 16.0873 39.4582 16.0873C38.8701 16.0873 38.3934 16.5638 38.3934 17.1518C38.3934 17.7397 38.8701 18.2163 39.4582 18.2163ZM27.5759 16.0177C27.5759 16.6057 27.0991 17.0822 26.5111 17.0822C25.923 17.0822 25.4463 16.6057 25.4463 16.0177C25.4463 15.4298 25.923 14.9532 26.5111 14.9532C27.0991 14.9532 27.5759 15.4298 27.5759 16.0177ZM38.2538 7.36216C39.1276 7.36216 39.8361 6.65393 39.8361 5.78029C39.8361 4.90664 39.1276 4.19843 38.2538 4.19843C37.3798 4.19843 36.6714 4.90664 36.6714 5.78029C36.6714 6.65393 37.3798 7.36216 38.2538 7.36216ZM20.9183 25.0514C21.6108 25.0514 22.1723 24.4901 22.1723 23.7977C22.1723 23.1054 21.6108 22.5442 20.9183 22.5442C20.2258 22.5442 19.6645 23.1054 19.6645 23.7977C19.6645 24.4901 20.2258 25.0514 20.9183 25.0514ZM22.1723 30.6326C22.1723 31.3249 21.6108 31.8861 20.9183 31.8861C20.2258 31.8861 19.6645 31.3249 19.6645 30.6326C19.6645 29.9402 20.2258 29.3789 20.9183 29.3789C21.6108 29.3789 22.1723 29.9402 22.1723 30.6326ZM18.4403 28.2548C19.1328 28.2548 19.6941 27.6935 19.6941 27.0012C19.6941 26.3088 19.1328 25.7476 18.4403 25.7476C17.7478 25.7476 17.1863 26.3088 17.1863 27.0012C17.1863 27.6935 17.7478 28.2548 18.4403 28.2548ZM24.6501 27.0012C24.6501 27.6935 24.0887 28.2548 23.3962 28.2548C22.7038 28.2548 22.1423 27.6935 22.1423 27.0012C22.1423 26.3088 22.7038 25.7476 23.3962 25.7476C24.0887 25.7476 24.6501 26.3088 24.6501 27.0012ZM19.097 35C19.3938 35 19.6344 34.7595 19.6344 34.4628C19.6344 34.1661 19.3938 33.9256 19.097 33.9256C18.8001 33.9256 18.5595 34.1661 18.5595 34.4628C18.5595 34.7595 18.8001 35 19.097 35ZM23.2867 34.4628C23.2867 34.7595 23.0461 35 22.7493 35C22.4525 35 22.212 34.7595 22.212 34.4628C22.212 34.1661 22.4525 33.9256 22.7493 33.9256C23.0461 33.9256 23.2867 34.1661 23.2867 34.4628Z" fill="#EDEDED"/>
</svg>
