<svg width="109" height="30" viewBox="0 0 109 30" fill="none" xmlns="http://www.w3.org/2000/svg">
<path fill-rule="evenodd" clip-rule="evenodd" d="M4.62306 3.00172C5.4522 3.00172 6.12434 2.32976 6.12434 1.50085C6.12434 0.671956 5.4522 0 4.62306 0C3.79394 0 3.12179 0.671956 3.12179 1.50085C3.12179 2.32976 3.79394 3.00172 4.62306 3.00172ZM1.48425 1.92721C1.48425 2.21921 1.24746 2.45592 0.955384 2.45592C0.663305 2.45592 0.426529 2.21921 0.426529 1.92721C0.426529 1.63521 0.663305 1.39849 0.955384 1.39849C1.24746 1.39849 1.48425 1.63521 1.48425 1.92721ZM7.88168 17.9421C8.17376 17.9421 8.41054 17.7054 8.41054 17.4134C8.41054 17.1214 8.17376 16.8847 7.88168 16.8847C7.58961 16.8847 7.35283 17.1214 7.35283 17.4134C7.35283 17.7054 7.58961 17.9421 7.88168 17.9421ZM0.528856 18.5817C0.820935 18.5817 1.05771 18.345 1.05771 18.053C1.05771 17.761 0.820935 17.5243 0.528856 17.5243C0.236777 17.5243 0 17.761 0 18.053C0 18.345 0.236777 18.5817 0.528856 18.5817ZM10.5345 20.4407C10.5345 20.7325 10.2977 20.9693 10.0056 20.9693C9.71351 20.9693 9.47675 20.7325 9.47675 20.4407C9.47675 20.1486 9.71351 19.9119 10.0056 19.9119C10.2977 19.9119 10.5345 20.1486 10.5345 20.4407ZM16.275 18.7522C16.5671 18.7522 16.8039 18.5155 16.8039 18.2234C16.8039 17.9314 16.5671 17.6947 16.275 17.6947C15.9829 17.6947 15.7462 17.9314 15.7462 18.2234C15.7462 18.5155 15.9829 18.7522 16.275 18.7522ZM1.50984 9.14155C1.96211 9.14155 2.32872 8.77502 2.32872 8.3229C2.32872 7.87077 1.96211 7.50425 1.50984 7.50425C1.0576 7.50425 0.690974 7.87077 0.690974 8.3229C0.690974 8.77502 1.0576 9.14155 1.50984 9.14155ZM15.4988 16.1343C15.4988 16.5111 15.1932 16.8165 14.8164 16.8165C14.4394 16.8165 14.134 16.5111 14.134 16.1343C14.134 15.7576 14.4394 15.4521 14.8164 15.4521C15.1932 15.4521 15.4988 15.7576 15.4988 16.1343ZM1.05755 25.1309C1.43443 25.1309 1.73994 24.8255 1.73994 24.4487C1.73994 24.072 1.43443 23.7664 1.05755 23.7664C0.68067 23.7664 0.37515 24.072 0.37515 24.4487C0.37515 24.8255 0.68067 25.1309 1.05755 25.1309ZM7.06262 20.7561C7.06262 21.1707 6.72655 21.5066 6.31198 21.5066C5.89741 21.5066 5.56134 21.1707 5.56134 20.7561C5.56134 20.3417 5.89741 20.0057 6.31198 20.0057C6.72655 20.0057 7.06262 20.3417 7.06262 20.7561ZM14.2535 27.2457C14.6681 27.2457 15.0042 26.9097 15.0042 26.4952C15.0042 26.0808 14.6681 25.7448 14.2535 25.7448C13.839 25.7448 13.5029 26.0808 13.5029 26.4952C13.5029 26.9097 13.839 27.2457 14.2535 27.2457ZM12.7181 23.4679C12.7181 23.7977 12.4507 24.0648 12.121 24.0648C11.7912 24.0648 11.5239 23.7977 11.5239 23.4679C11.5239 23.1382 11.7912 22.871 12.121 22.871C12.4507 22.871 12.7181 23.1382 12.7181 23.4679ZM3.19037 28.3884C3.68501 28.3884 4.08601 27.9875 4.08601 27.493C4.08601 26.9984 3.68501 26.5976 3.19037 26.5976C2.69571 26.5976 2.29472 26.9984 2.29472 27.493C2.29472 27.9875 2.69571 28.3884 3.19037 28.3884ZM8.13751 4.85226C8.13751 5.61051 7.52265 6.2252 6.76419 6.2252C6.00571 6.2252 5.39087 5.61051 5.39087 4.85226C5.39087 4.09401 6.00571 3.47932 6.76419 3.47932C7.52265 3.47932 8.13751 4.09401 8.13751 4.85226ZM6.46585 8.3144C6.46585 9.02556 5.88918 9.60207 5.17783 9.60207C4.46648 9.60207 3.8898 9.02556 3.8898 8.3144C3.8898 7.60324 4.46648 7.02674 5.17783 7.02674C5.88918 7.02674 6.46585 7.60324 6.46585 8.3144ZM8.88823 9.03067C9.63727 9.03067 10.2445 8.42362 10.2445 7.67478C10.2445 6.92594 9.63727 6.3189 8.88823 6.3189C8.13919 6.3189 7.53197 6.92594 7.53197 7.67478C7.53197 8.42362 8.13919 9.03067 8.88823 9.03067ZM4.93875 11.3332C4.93875 12.0491 4.35826 12.6294 3.64219 12.6294C2.92612 12.6294 2.34565 12.0491 2.34565 11.3332C2.34565 10.6173 2.92612 10.037 3.64219 10.037C4.35826 10.037 4.93875 10.6173 4.93875 11.3332ZM7.31868 12.2627C8.00177 12.2627 8.55552 11.7091 8.55552 11.0262C8.55552 10.3433 8.00177 9.78968 7.31868 9.78968C6.63559 9.78968 6.08184 10.3433 6.08184 11.0262C6.08184 11.7091 6.63559 12.2627 7.31868 12.2627ZM12.0953 10.7021C12.0953 11.2955 11.6141 11.7766 11.0205 11.7766C10.4269 11.7766 9.94573 11.2955 9.94573 10.7021C9.94573 10.1087 10.4269 9.62764 11.0205 9.62764C11.6141 9.62764 12.0953 10.1087 12.0953 10.7021ZM9.45134 15.1365C10.0449 15.1365 10.5261 14.6554 10.5261 14.0619C10.5261 13.4685 10.0449 12.9875 9.45134 12.9875C8.85775 12.9875 8.37656 13.4685 8.37656 14.0619C8.37656 14.6554 8.85775 15.1365 9.45134 15.1365ZM6.82384 14.3861C6.82384 14.9794 6.34264 15.4605 5.74907 15.4605C5.15549 15.4605 4.6743 14.9794 4.6743 14.3861C4.6743 13.7927 5.15549 13.3116 5.74907 13.3116C6.34264 13.3116 6.82384 13.7927 6.82384 14.3861ZM4.18835 18.9483C4.86674 18.9483 5.41666 18.3985 5.41666 17.7204C5.41666 17.0421 4.86674 16.4923 4.18835 16.4923C3.50997 16.4923 2.96003 17.0421 2.96003 17.7204C2.96003 18.3985 3.50997 18.9483 4.18835 18.9483ZM3.71884 21.0717C3.71884 21.6745 3.23001 22.1633 2.62701 22.1633C2.02401 22.1633 1.53517 21.6745 1.53517 21.0717C1.53517 20.4688 2.02401 19.9802 2.62701 19.9802C3.23001 19.9802 3.71884 20.4688 3.71884 21.0717ZM13.6903 21.319C14.364 21.319 14.9101 20.773 14.9101 20.0995C14.9101 19.4261 14.364 18.8801 13.6903 18.8801C13.0167 18.8801 12.4706 19.4261 12.4706 20.0995C12.4706 20.773 13.0167 21.319 13.6903 21.319ZM12.7779 17.0892C12.7779 17.7675 12.228 18.3172 11.5496 18.3172C10.8713 18.3172 10.3213 17.7675 10.3213 17.0892C10.3213 16.4111 10.8713 15.8613 11.5496 15.8613C12.228 15.8613 12.7779 16.4111 12.7779 17.0892ZM4.74251 25.3526C5.4209 25.3526 5.97082 24.8029 5.97082 24.1246C5.97082 23.4464 5.4209 22.8966 4.74251 22.8966C4.06413 22.8966 3.51421 23.4464 3.51421 24.1246C3.51421 24.8029 4.06413 25.3526 4.74251 25.3526ZM2.95125 14.7016C2.95125 15.2054 2.54262 15.614 2.03854 15.614C1.53447 15.614 1.12584 15.2054 1.12584 14.7016C1.12584 14.1976 1.53447 13.7891 2.03854 13.7891C2.54262 13.7891 2.95125 14.1976 2.95125 14.7016ZM13.1448 14.6419C13.6489 14.6419 14.0575 14.2334 14.0575 13.7294C14.0575 13.2255 13.6489 12.817 13.1448 12.817C12.6408 12.817 12.2321 13.2255 12.2321 13.7294C12.2321 14.2334 12.6408 14.6419 13.1448 14.6419ZM4.43557 4.95454C4.43557 5.70337 3.82835 6.31043 3.07931 6.31043C2.33026 6.31043 1.72305 5.70337 1.72305 4.95454C1.72305 4.20569 2.33026 3.59865 3.07931 3.59865C3.82835 3.59865 4.43557 4.20569 4.43557 4.95454ZM35.8682 18.053C35.8682 18.345 35.6314 18.5817 35.3394 18.5817C35.0473 18.5817 34.8105 18.345 34.8105 18.053C34.8105 17.761 35.0473 17.5243 35.3394 17.5243C35.6314 17.5243 35.8682 17.761 35.8682 18.053ZM27.9782 17.9421C28.2703 17.9421 28.5071 17.7054 28.5071 17.4134C28.5071 17.1214 28.2703 16.8847 27.9782 16.8847C27.6861 16.8847 27.4493 17.1214 27.4493 17.4134C27.4493 17.7054 27.6861 17.9421 27.9782 17.9421ZM26.3917 20.4407C26.3917 20.7325 26.1549 20.9693 25.8628 20.9693C25.5709 20.9693 25.3341 20.7325 25.3341 20.4407C25.3341 20.1486 25.5709 19.9119 25.8628 19.9119C26.1549 19.9119 26.3917 20.1486 26.3917 20.4407ZM19.5931 18.7522C19.8852 18.7522 20.122 18.5155 20.122 18.2234C20.122 17.9314 19.8852 17.6947 19.5931 17.6947C19.301 17.6947 19.0644 17.9314 19.0644 18.2234C19.0644 18.5155 19.301 18.7522 19.5931 18.7522ZM35.4419 1.92721C35.4419 2.21921 35.2051 2.45592 34.913 2.45592C34.6209 2.45592 34.3841 2.21921 34.3841 1.92721C34.3841 1.63521 34.6209 1.39849 34.913 1.39849C35.2051 1.39849 35.4419 1.63521 35.4419 1.92721ZM34.3586 9.1416C34.8108 9.1416 35.1774 8.77509 35.1774 8.32296C35.1774 7.87084 34.8108 7.50431 34.3586 7.50431C33.9063 7.50431 33.5397 7.87084 33.5397 8.32296C33.5397 8.77509 33.9063 9.1416 34.3586 9.1416ZM21.7345 16.1343C21.7345 16.5111 21.429 16.8165 21.0521 16.8165C20.6753 16.8165 20.3696 16.5111 20.3696 16.1343C20.3696 15.7576 20.6753 15.4521 21.0521 15.4521C21.429 15.4521 21.7345 15.7576 21.7345 16.1343ZM34.8021 25.1309C35.1789 25.1309 35.4845 24.8255 35.4845 24.4487C35.4845 24.072 35.1789 23.7664 34.8021 23.7664C34.4251 23.7664 34.1197 24.072 34.1197 24.4487C34.1197 24.8255 34.4251 25.1309 34.8021 25.1309ZM30.2984 20.7561C30.2984 21.1707 29.9622 21.5066 29.5477 21.5066C29.1331 21.5066 28.7971 21.1707 28.7971 20.7561C28.7971 20.3417 29.1331 20.0057 29.5477 20.0057C29.9622 20.0057 30.2984 20.3417 30.2984 20.7561ZM21.6148 27.2457C22.0294 27.2457 22.3655 26.9097 22.3655 26.4952C22.3655 26.0808 22.0294 25.7448 21.6148 25.7448C21.2003 25.7448 20.8643 26.0808 20.8643 26.4952C20.8643 26.9097 21.2003 27.2457 21.6148 27.2457ZM24.3359 23.4679C24.3359 23.7977 24.0686 24.0648 23.7388 24.0648C23.409 24.0648 23.1418 23.7977 23.1418 23.4679C23.1418 23.1382 23.409 22.871 23.7388 22.871C24.0686 22.871 24.3359 23.1382 24.3359 23.4679ZM32.6696 28.3884C33.1643 28.3884 33.5652 27.9875 33.5652 27.493C33.5652 26.9984 33.1643 26.5976 32.6696 26.5976C32.175 26.5976 31.774 26.9984 31.774 27.493C31.774 27.9875 32.175 28.3884 32.6696 28.3884ZM30.4688 4.85226C30.4688 5.61051 29.8541 6.2252 29.0955 6.2252C28.3372 6.2252 27.7222 5.61051 27.7222 4.85226C27.7222 4.09401 28.3372 3.47932 29.0955 3.47932C29.8541 3.47932 30.4688 4.09401 30.4688 4.85226ZM31.2365 3.00172C32.0657 3.00172 32.7378 2.32976 32.7378 1.50085C32.7378 0.671956 32.0657 0 31.2365 0C30.4074 0 29.7353 0.671956 29.7353 1.50085C29.7353 2.32976 30.4074 3.00172 31.2365 3.00172ZM31.9701 8.3144C31.9701 9.02556 31.3935 9.60207 30.6822 9.60207C29.9708 9.60207 29.3941 9.02556 29.3941 8.3144C29.3941 7.60324 29.9708 7.02674 30.6822 7.02674C31.3935 7.02674 31.9701 7.60324 31.9701 8.3144ZM26.9801 9.03067C27.7291 9.03067 28.3364 8.42362 28.3364 7.67478C28.3364 6.92594 27.7291 6.3189 26.9801 6.3189C26.231 6.3189 25.6239 6.92594 25.6239 7.67478C25.6239 8.42362 26.231 9.03067 26.9801 9.03067ZM33.5142 11.3332C33.5142 12.0491 32.9337 12.6294 32.2176 12.6294C31.5016 12.6294 30.9211 12.0491 30.9211 11.3332C30.9211 10.6173 31.5016 10.037 32.2176 10.037C32.9337 10.037 33.5142 10.6173 33.5142 11.3332ZM28.5496 12.2627C29.2327 12.2627 29.7864 11.7091 29.7864 11.0262C29.7864 10.3433 29.2327 9.78968 28.5496 9.78968C27.8665 9.78968 27.3127 10.3433 27.3127 11.0262C27.3127 11.7091 27.8665 12.2627 28.5496 12.2627ZM25.9224 10.7021C25.9224 11.2955 25.4411 11.7766 24.8475 11.7766C24.2539 11.7766 23.7728 11.2955 23.7728 10.7021C23.7728 10.1087 24.2539 9.62764 24.8475 9.62764C25.4411 9.62764 25.9224 10.1087 25.9224 10.7021ZM26.4088 15.1365C27.0024 15.1365 27.4836 14.6554 27.4836 14.0619C27.4836 13.4685 27.0024 12.9875 26.4088 12.9875C25.8152 12.9875 25.3341 13.4685 25.3341 14.0619C25.3341 14.6554 25.8152 15.1365 26.4088 15.1365ZM31.194 14.3861C31.194 14.9796 30.7128 15.4607 30.1192 15.4607C29.5256 15.4607 29.0445 14.9796 29.0445 14.3861C29.0445 13.7927 29.5256 13.3116 30.1192 13.3116C30.7128 13.3116 31.194 13.7927 31.194 14.3861ZM31.6717 18.9483C32.3501 18.9483 32.9 18.3985 32.9 17.7204C32.9 17.0421 32.3501 16.4923 31.6717 16.4923C30.9934 16.4923 30.4434 17.0421 30.4434 17.7204C30.4434 18.3985 30.9934 18.9483 31.6717 18.9483ZM34.3246 21.0717C34.3246 21.6745 33.8358 22.1633 33.2328 22.1633C32.6298 22.1633 32.1409 21.6745 32.1409 21.0717C32.1409 20.4688 32.6298 19.9802 33.2328 19.9802C33.8358 19.9802 34.3246 20.4688 34.3246 21.0717ZM22.1694 21.319C22.8431 21.319 23.3891 20.773 23.3891 20.0995C23.3891 19.4261 22.8431 18.8801 22.1694 18.8801C21.4957 18.8801 20.9496 19.4261 20.9496 20.0995C20.9496 20.773 21.4957 21.319 22.1694 21.319ZM25.5386 17.0892C25.5386 17.7675 24.9886 18.3172 24.3103 18.3172C23.6319 18.3172 23.082 17.7675 23.082 17.0892C23.082 16.4111 23.6319 15.8613 24.3103 15.8613C24.9886 15.8613 25.5386 16.4111 25.5386 17.0892ZM31.1257 25.3526C31.804 25.3526 32.3539 24.8029 32.3539 24.1246C32.3539 23.4464 31.804 22.8966 31.1257 22.8966C30.4473 22.8966 29.8973 23.4464 29.8973 24.1246C29.8973 24.8029 30.4473 25.3526 31.1257 25.3526ZM34.734 14.7016C34.734 15.2054 34.3253 15.614 33.8213 15.614C33.3172 15.614 32.9086 15.2054 32.9086 14.7016C32.9086 14.1976 33.3172 13.7891 33.8213 13.7891C34.3253 13.7891 34.734 14.1976 34.734 14.7016ZM22.7238 14.6419C23.2278 14.6419 23.6365 14.2334 23.6365 13.7294C23.6365 13.2255 23.2278 12.817 22.7238 12.817C22.2197 12.817 21.8111 13.2255 21.8111 13.7294C21.8111 14.2334 22.2197 14.6419 22.7238 14.6419ZM34.1452 4.95454C34.1452 5.70337 33.538 6.31043 32.789 6.31043C32.0399 6.31043 31.4326 5.70337 31.4326 4.95454C31.4326 4.20569 32.0399 3.59865 32.789 3.59865C33.538 3.59865 34.1452 4.20569 34.1452 4.95454ZM19.0048 20.3981C19.0048 20.9915 18.5236 21.4726 17.93 21.4726C17.3364 21.4726 16.8553 20.9915 16.8553 20.3981C16.8553 19.8046 17.3364 19.3236 17.93 19.3236C18.5236 19.3236 19.0048 19.8046 19.0048 20.3981ZM17.93 27.3309C18.5236 27.3309 19.0048 26.8499 19.0048 26.2565C19.0048 25.6631 18.5236 25.182 17.93 25.182C17.3364 25.182 16.8553 25.6631 16.8553 26.2565C16.8553 26.8499 17.3364 27.3309 17.93 27.3309ZM16.8807 23.1439C16.8807 23.7373 16.3996 24.2184 15.806 24.2184C15.2124 24.2184 14.7311 23.7373 14.7311 23.1439C14.7311 22.5504 15.2124 22.0693 15.806 22.0693C16.3996 22.0693 16.8807 22.5504 16.8807 23.1439ZM20.0539 24.2184C20.6475 24.2184 21.1287 23.7373 21.1287 23.1439C21.1287 22.5504 20.6475 22.0693 20.0539 22.0693C19.4604 22.0693 18.9791 22.5504 18.9791 23.1439C18.9791 23.7373 19.4604 24.2184 20.0539 24.2184ZM16.8295 29.5395C16.8295 29.7939 16.6233 30 16.3689 30C16.1144 30 15.9082 29.7939 15.9082 29.5395C15.9082 29.2852 16.1144 29.0791 16.3689 29.0791C16.6233 29.0791 16.8295 29.2852 16.8295 29.5395ZM19.4994 30C19.7538 30 19.96 29.7939 19.96 29.5395C19.96 29.2852 19.7538 29.0791 19.4994 29.0791C19.245 29.0791 19.0388 29.2852 19.0388 29.5395C19.0388 29.7939 19.245 30 19.4994 30ZM49.034 5.3V13H50.398V7.96496L52.928 12.12H53.566L56.0969 7.89847L56.107 13H57.46L57.449 5.3H56.272L53.2665 10.4024L50.211 5.3H49.034ZM60.3649 12.219C60.9662 12.813 61.7949 13.11 62.8509 13.11C63.8995 13.11 64.7209 12.813 65.3149 12.219C65.9162 11.625 66.2169 10.767 66.2169 9.645V5.3H64.8089V9.59C64.8089 10.382 64.6402 10.9577 64.3029 11.317C63.9655 11.6763 63.4852 11.856 62.8619 11.856C62.2385 11.856 61.7545 11.6763 61.4099 11.317C61.0725 10.9577 60.9039 10.382 60.9039 9.59V5.3H59.4739V9.645C59.4739 10.767 59.7709 11.625 60.3649 12.219ZM70.1665 12.813C70.6725 13.011 71.2262 13.11 71.8275 13.11C72.4215 13.11 72.9679 13.011 73.4665 12.813C73.9725 12.615 74.4125 12.34 74.7865 11.988C75.1605 11.636 75.4502 11.218 75.6555 10.734C75.8609 10.25 75.9635 9.722 75.9635 9.15C75.9635 8.578 75.8609 8.05367 75.6555 7.577C75.4502 7.093 75.1605 6.675 74.7865 6.323C74.4125 5.96367 73.9725 5.685 73.4665 5.487C72.9679 5.289 72.4179 5.19 71.8165 5.19C71.2225 5.19 70.6725 5.289 70.1665 5.487C69.6605 5.685 69.2206 5.96367 68.8465 6.323C68.4725 6.675 68.1829 7.093 67.9775 7.577C67.7722 8.05367 67.6695 8.578 67.6695 9.15C67.6695 9.722 67.7722 10.25 67.9775 10.734C68.1829 11.2107 68.4725 11.6287 68.8465 11.988C69.2206 12.34 69.6605 12.615 70.1665 12.813ZM72.8945 11.658C72.5645 11.79 72.2052 11.856 71.8165 11.856C71.4279 11.856 71.0686 11.79 70.7385 11.658C70.4085 11.526 70.1225 11.339 69.8805 11.097C69.6385 10.8477 69.4479 10.558 69.3085 10.228C69.1765 9.898 69.1105 9.53867 69.1105 9.15C69.1105 8.754 69.1765 8.39467 69.3085 8.072C69.4479 7.742 69.6385 7.456 69.8805 7.214C70.1299 6.96467 70.4159 6.774 70.7385 6.642C71.0686 6.51 71.4279 6.444 71.8165 6.444C72.2052 6.444 72.5645 6.51 72.8945 6.642C73.2245 6.774 73.5105 6.96467 73.7525 7.214C73.9945 7.456 74.1815 7.742 74.3135 8.072C74.4529 8.39467 74.5225 8.754 74.5225 9.15C74.5225 9.546 74.4529 9.909 74.3135 10.239C74.1815 10.5617 73.9945 10.8477 73.7525 11.097C73.5105 11.339 73.2245 11.526 72.8945 11.658ZM78.6563 5.3H77.4793V13H78.8983V7.7868L83.1443 13H84.3213V5.3H82.9023V10.5132L78.6563 5.3ZM49.034 18.3V26H50.453V20.7868L54.699 26H55.876V18.3H54.457V23.5132L50.211 18.3H49.034ZM59.3693 22.678V24.801H63.7143V26H57.9393V18.3H63.5603V19.499H59.3693V21.501H63.0873V22.678H59.3693ZM66.8704 19.51V26H68.3004V19.51H70.8524V18.3H64.3184V19.51H66.8704ZM71.0704 18.3L73.6224 26H75.1514L77.0859 20.3063L78.9904 26H80.5084L83.0604 18.3H81.6964L79.7245 24.188L77.7804 18.3H76.4604L74.4709 24.1575L72.5554 18.3H71.0704ZM86.0972 25.813C86.6032 26.011 87.1569 26.11 87.7582 26.11C88.3522 26.11 88.8985 26.011 89.3972 25.813C89.9032 25.615 90.3432 25.34 90.7172 24.988C91.0912 24.636 91.3809 24.218 91.5862 23.734C91.7915 23.25 91.8942 22.722 91.8942 22.15C91.8942 21.578 91.7915 21.0537 91.5862 20.577C91.3809 20.093 91.0912 19.675 90.7172 19.323C90.3432 18.9637 89.9032 18.685 89.3972 18.487C88.8985 18.289 88.3485 18.19 87.7472 18.19C87.1532 18.19 86.6032 18.289 86.0972 18.487C85.5912 18.685 85.1512 18.9637 84.7772 19.323C84.4032 19.675 84.1135 20.093 83.9082 20.577C83.7029 21.0537 83.6002 21.578 83.6002 22.15C83.6002 22.722 83.7029 23.25 83.9082 23.734C84.1135 24.2107 84.4032 24.6287 84.7772 24.988C85.1512 25.34 85.5912 25.615 86.0972 25.813ZM88.8252 24.658C88.4952 24.79 88.1359 24.856 87.7472 24.856C87.3585 24.856 86.9992 24.79 86.6692 24.658C86.3392 24.526 86.0532 24.339 85.8112 24.097C85.5692 23.8477 85.3785 23.558 85.2392 23.228C85.1072 22.898 85.0412 22.5387 85.0412 22.15C85.0412 21.754 85.1072 21.3947 85.2392 21.072C85.3785 20.742 85.5692 20.456 85.8112 20.214C86.0605 19.9647 86.3465 19.774 86.6692 19.642C86.9992 19.51 87.3585 19.444 87.7472 19.444C88.1359 19.444 88.4952 19.51 88.8252 19.642C89.1552 19.774 89.4412 19.9647 89.6832 20.214C89.9252 20.456 90.1122 20.742 90.2442 21.072C90.3835 21.3947 90.4532 21.754 90.4532 22.15C90.4532 22.546 90.3835 22.909 90.2442 23.239C90.1122 23.5617 89.9252 23.8477 89.6832 24.097C89.4412 24.339 89.1552 24.526 88.8252 24.658ZM96.578 18.3H93.41V26H94.84V23.756H96.578C96.6806 23.756 96.781 23.7536 96.8792 23.7488L98.448 26H99.988L98.2225 23.4807C98.2578 23.4666 98.2926 23.4521 98.327 23.437C98.8183 23.217 99.196 22.9053 99.46 22.502C99.724 22.0913 99.856 21.6037 99.856 21.039C99.856 20.4743 99.724 19.9867 99.46 19.576C99.196 19.1653 98.8183 18.85 98.327 18.63C97.843 18.41 97.26 18.3 96.578 18.3ZM94.84 22.579H96.512C97.1426 22.579 97.6156 22.4433 97.931 22.172C98.2536 21.9007 98.415 21.523 98.415 21.039C98.415 20.5477 98.2536 20.17 97.931 19.906C97.6156 19.642 97.1426 19.51 96.512 19.51H94.84V22.579ZM102.886 24.0274V26H101.456V18.3H102.886V22.2512L106.692 18.3H108.298L105.059 21.7403L108.496 26H106.824L104.112 22.7724L102.886 24.0274Z" fill="#EAEAEA"/>
</svg>
