<svg width="108" height="30" viewBox="0 0 108 30" fill="none" xmlns="http://www.w3.org/2000/svg">
<path fill-rule="evenodd" clip-rule="evenodd" d="M4.62306 3.00172C5.4522 3.00172 6.12434 2.32976 6.12434 1.50085C6.12434 0.671956 5.4522 0 4.62306 0C3.79394 0 3.12179 0.671956 3.12179 1.50085C3.12179 2.32976 3.79394 3.00172 4.62306 3.00172ZM1.48425 1.92721C1.48425 2.21921 1.24746 2.45592 0.955384 2.45592C0.663305 2.45592 0.426529 2.21921 0.426529 1.92721C0.426529 1.63521 0.663305 1.39849 0.955384 1.39849C1.24746 1.39849 1.48425 1.63521 1.48425 1.92721ZM7.88168 17.9421C8.17376 17.9421 8.41054 17.7054 8.41054 17.4134C8.41054 17.1214 8.17376 16.8847 7.88168 16.8847C7.58961 16.8847 7.35283 17.1214 7.35283 17.4134C7.35283 17.7054 7.58961 17.9421 7.88168 17.9421ZM0.528856 18.5817C0.820935 18.5817 1.05771 18.345 1.05771 18.053C1.05771 17.761 0.820935 17.5243 0.528856 17.5243C0.236777 17.5243 0 17.761 0 18.053C0 18.345 0.236777 18.5817 0.528856 18.5817ZM10.5345 20.4407C10.5345 20.7325 10.2977 20.9693 10.0056 20.9693C9.71351 20.9693 9.47675 20.7325 9.47675 20.4407C9.47675 20.1486 9.71351 19.9119 10.0056 19.9119C10.2977 19.9119 10.5345 20.1486 10.5345 20.4407ZM16.275 18.7522C16.5671 18.7522 16.8039 18.5155 16.8039 18.2234C16.8039 17.9314 16.5671 17.6947 16.275 17.6947C15.9829 17.6947 15.7462 17.9314 15.7462 18.2234C15.7462 18.5155 15.9829 18.7522 16.275 18.7522ZM1.50984 9.14155C1.96211 9.14155 2.32872 8.77502 2.32872 8.3229C2.32872 7.87077 1.96211 7.50425 1.50984 7.50425C1.0576 7.50425 0.690974 7.87077 0.690974 8.3229C0.690974 8.77502 1.0576 9.14155 1.50984 9.14155ZM15.4988 16.1343C15.4988 16.5111 15.1932 16.8165 14.8164 16.8165C14.4394 16.8165 14.134 16.5111 14.134 16.1343C14.134 15.7576 14.4394 15.4521 14.8164 15.4521C15.1932 15.4521 15.4988 15.7576 15.4988 16.1343ZM1.05755 25.1309C1.43443 25.1309 1.73994 24.8255 1.73994 24.4487C1.73994 24.072 1.43443 23.7664 1.05755 23.7664C0.68067 23.7664 0.37515 24.072 0.37515 24.4487C0.37515 24.8255 0.68067 25.1309 1.05755 25.1309ZM7.06262 20.7561C7.06262 21.1707 6.72655 21.5066 6.31198 21.5066C5.89741 21.5066 5.56134 21.1707 5.56134 20.7561C5.56134 20.3417 5.89741 20.0057 6.31198 20.0057C6.72655 20.0057 7.06262 20.3417 7.06262 20.7561ZM14.2535 27.2457C14.6681 27.2457 15.0042 26.9097 15.0042 26.4952C15.0042 26.0808 14.6681 25.7448 14.2535 25.7448C13.839 25.7448 13.5029 26.0808 13.5029 26.4952C13.5029 26.9097 13.839 27.2457 14.2535 27.2457ZM12.7181 23.4679C12.7181 23.7977 12.4507 24.0648 12.121 24.0648C11.7912 24.0648 11.5239 23.7977 11.5239 23.4679C11.5239 23.1382 11.7912 22.871 12.121 22.871C12.4507 22.871 12.7181 23.1382 12.7181 23.4679ZM3.19037 28.3884C3.68501 28.3884 4.08601 27.9875 4.08601 27.493C4.08601 26.9984 3.68501 26.5976 3.19037 26.5976C2.69571 26.5976 2.29472 26.9984 2.29472 27.493C2.29472 27.9875 2.69571 28.3884 3.19037 28.3884ZM8.13751 4.85226C8.13751 5.61051 7.52265 6.2252 6.76419 6.2252C6.00571 6.2252 5.39087 5.61051 5.39087 4.85226C5.39087 4.09401 6.00571 3.47932 6.76419 3.47932C7.52265 3.47932 8.13751 4.09401 8.13751 4.85226ZM6.46585 8.3144C6.46585 9.02556 5.88918 9.60207 5.17783 9.60207C4.46648 9.60207 3.8898 9.02556 3.8898 8.3144C3.8898 7.60324 4.46648 7.02674 5.17783 7.02674C5.88918 7.02674 6.46585 7.60324 6.46585 8.3144ZM8.88823 9.03067C9.63727 9.03067 10.2445 8.42362 10.2445 7.67478C10.2445 6.92594 9.63727 6.3189 8.88823 6.3189C8.13919 6.3189 7.53197 6.92594 7.53197 7.67478C7.53197 8.42362 8.13919 9.03067 8.88823 9.03067ZM4.93875 11.3332C4.93875 12.0491 4.35826 12.6294 3.64219 12.6294C2.92612 12.6294 2.34565 12.0491 2.34565 11.3332C2.34565 10.6173 2.92612 10.037 3.64219 10.037C4.35826 10.037 4.93875 10.6173 4.93875 11.3332ZM7.31868 12.2627C8.00177 12.2627 8.55552 11.7091 8.55552 11.0262C8.55552 10.3433 8.00177 9.78968 7.31868 9.78968C6.63559 9.78968 6.08184 10.3433 6.08184 11.0262C6.08184 11.7091 6.63559 12.2627 7.31868 12.2627ZM12.0953 10.7021C12.0953 11.2955 11.6141 11.7766 11.0205 11.7766C10.4269 11.7766 9.94573 11.2955 9.94573 10.7021C9.94573 10.1087 10.4269 9.62764 11.0205 9.62764C11.6141 9.62764 12.0953 10.1087 12.0953 10.7021ZM9.45134 15.1365C10.0449 15.1365 10.5261 14.6554 10.5261 14.0619C10.5261 13.4685 10.0449 12.9875 9.45134 12.9875C8.85775 12.9875 8.37656 13.4685 8.37656 14.0619C8.37656 14.6554 8.85775 15.1365 9.45134 15.1365ZM6.82384 14.3861C6.82384 14.9794 6.34264 15.4605 5.74907 15.4605C5.15549 15.4605 4.6743 14.9794 4.6743 14.3861C4.6743 13.7927 5.15549 13.3116 5.74907 13.3116C6.34264 13.3116 6.82384 13.7927 6.82384 14.3861ZM4.18835 18.9483C4.86674 18.9483 5.41666 18.3985 5.41666 17.7204C5.41666 17.0421 4.86674 16.4923 4.18835 16.4923C3.50997 16.4923 2.96003 17.0421 2.96003 17.7204C2.96003 18.3985 3.50997 18.9483 4.18835 18.9483ZM3.71884 21.0717C3.71884 21.6745 3.23001 22.1633 2.62701 22.1633C2.02401 22.1633 1.53517 21.6745 1.53517 21.0717C1.53517 20.4688 2.02401 19.9802 2.62701 19.9802C3.23001 19.9802 3.71884 20.4688 3.71884 21.0717ZM13.6903 21.319C14.364 21.319 14.9101 20.773 14.9101 20.0995C14.9101 19.4261 14.364 18.8801 13.6903 18.8801C13.0167 18.8801 12.4706 19.4261 12.4706 20.0995C12.4706 20.773 13.0167 21.319 13.6903 21.319ZM12.7779 17.0892C12.7779 17.7675 12.228 18.3172 11.5496 18.3172C10.8713 18.3172 10.3213 17.7675 10.3213 17.0892C10.3213 16.4111 10.8713 15.8613 11.5496 15.8613C12.228 15.8613 12.7779 16.4111 12.7779 17.0892ZM4.74251 25.3526C5.4209 25.3526 5.97082 24.8029 5.97082 24.1246C5.97082 23.4464 5.4209 22.8966 4.74251 22.8966C4.06413 22.8966 3.51421 23.4464 3.51421 24.1246C3.51421 24.8029 4.06413 25.3526 4.74251 25.3526ZM2.95125 14.7016C2.95125 15.2054 2.54262 15.614 2.03854 15.614C1.53447 15.614 1.12584 15.2054 1.12584 14.7016C1.12584 14.1976 1.53447 13.7891 2.03854 13.7891C2.54262 13.7891 2.95125 14.1976 2.95125 14.7016ZM13.1448 14.6419C13.6489 14.6419 14.0575 14.2334 14.0575 13.7294C14.0575 13.2255 13.6489 12.817 13.1448 12.817C12.6408 12.817 12.2321 13.2255 12.2321 13.7294C12.2321 14.2334 12.6408 14.6419 13.1448 14.6419ZM4.43557 4.95454C4.43557 5.70337 3.82835 6.31043 3.07931 6.31043C2.33026 6.31043 1.72305 5.70337 1.72305 4.95454C1.72305 4.20569 2.33026 3.59865 3.07931 3.59865C3.82835 3.59865 4.43557 4.20569 4.43557 4.95454ZM35.8682 18.053C35.8682 18.345 35.6314 18.5817 35.3394 18.5817C35.0473 18.5817 34.8105 18.345 34.8105 18.053C34.8105 17.761 35.0473 17.5243 35.3394 17.5243C35.6314 17.5243 35.8682 17.761 35.8682 18.053ZM27.9782 17.9421C28.2703 17.9421 28.5071 17.7054 28.5071 17.4134C28.5071 17.1214 28.2703 16.8847 27.9782 16.8847C27.6861 16.8847 27.4493 17.1214 27.4493 17.4134C27.4493 17.7054 27.6861 17.9421 27.9782 17.9421ZM26.3917 20.4407C26.3917 20.7325 26.1549 20.9693 25.8628 20.9693C25.5709 20.9693 25.3341 20.7325 25.3341 20.4407C25.3341 20.1486 25.5709 19.9119 25.8628 19.9119C26.1549 19.9119 26.3917 20.1486 26.3917 20.4407ZM19.5931 18.7522C19.8852 18.7522 20.122 18.5155 20.122 18.2234C20.122 17.9314 19.8852 17.6947 19.5931 17.6947C19.301 17.6947 19.0644 17.9314 19.0644 18.2234C19.0644 18.5155 19.301 18.7522 19.5931 18.7522ZM35.4419 1.92721C35.4419 2.21921 35.2051 2.45592 34.913 2.45592C34.6209 2.45592 34.3841 2.21921 34.3841 1.92721C34.3841 1.63521 34.6209 1.39849 34.913 1.39849C35.2051 1.39849 35.4419 1.63521 35.4419 1.92721ZM34.3586 9.1416C34.8108 9.1416 35.1774 8.77509 35.1774 8.32296C35.1774 7.87084 34.8108 7.50431 34.3586 7.50431C33.9063 7.50431 33.5397 7.87084 33.5397 8.32296C33.5397 8.77509 33.9063 9.1416 34.3586 9.1416ZM21.7345 16.1343C21.7345 16.5111 21.429 16.8165 21.0521 16.8165C20.6753 16.8165 20.3696 16.5111 20.3696 16.1343C20.3696 15.7576 20.6753 15.4521 21.0521 15.4521C21.429 15.4521 21.7345 15.7576 21.7345 16.1343ZM34.8021 25.1309C35.1789 25.1309 35.4845 24.8255 35.4845 24.4487C35.4845 24.072 35.1789 23.7664 34.8021 23.7664C34.4251 23.7664 34.1197 24.072 34.1197 24.4487C34.1197 24.8255 34.4251 25.1309 34.8021 25.1309ZM30.2984 20.7561C30.2984 21.1707 29.9622 21.5066 29.5477 21.5066C29.1331 21.5066 28.7971 21.1707 28.7971 20.7561C28.7971 20.3417 29.1331 20.0057 29.5477 20.0057C29.9622 20.0057 30.2984 20.3417 30.2984 20.7561ZM21.6148 27.2457C22.0294 27.2457 22.3655 26.9097 22.3655 26.4952C22.3655 26.0808 22.0294 25.7448 21.6148 25.7448C21.2003 25.7448 20.8643 26.0808 20.8643 26.4952C20.8643 26.9097 21.2003 27.2457 21.6148 27.2457ZM24.3359 23.4679C24.3359 23.7977 24.0686 24.0648 23.7388 24.0648C23.409 24.0648 23.1418 23.7977 23.1418 23.4679C23.1418 23.1382 23.409 22.871 23.7388 22.871C24.0686 22.871 24.3359 23.1382 24.3359 23.4679ZM32.6696 28.3884C33.1643 28.3884 33.5652 27.9875 33.5652 27.493C33.5652 26.9984 33.1643 26.5976 32.6696 26.5976C32.175 26.5976 31.774 26.9984 31.774 27.493C31.774 27.9875 32.175 28.3884 32.6696 28.3884ZM30.4688 4.85226C30.4688 5.61051 29.8541 6.2252 29.0955 6.2252C28.3372 6.2252 27.7222 5.61051 27.7222 4.85226C27.7222 4.09401 28.3372 3.47932 29.0955 3.47932C29.8541 3.47932 30.4688 4.09401 30.4688 4.85226ZM31.2365 3.00172C32.0657 3.00172 32.7378 2.32976 32.7378 1.50085C32.7378 0.671956 32.0657 0 31.2365 0C30.4074 0 29.7353 0.671956 29.7353 1.50085C29.7353 2.32976 30.4074 3.00172 31.2365 3.00172ZM31.9701 8.3144C31.9701 9.02556 31.3935 9.60207 30.6822 9.60207C29.9708 9.60207 29.3941 9.02556 29.3941 8.3144C29.3941 7.60324 29.9708 7.02674 30.6822 7.02674C31.3935 7.02674 31.9701 7.60324 31.9701 8.3144ZM26.9801 9.03067C27.7291 9.03067 28.3364 8.42362 28.3364 7.67478C28.3364 6.92594 27.7291 6.3189 26.9801 6.3189C26.231 6.3189 25.6239 6.92594 25.6239 7.67478C25.6239 8.42362 26.231 9.03067 26.9801 9.03067ZM33.5142 11.3332C33.5142 12.0491 32.9337 12.6294 32.2176 12.6294C31.5016 12.6294 30.9211 12.0491 30.9211 11.3332C30.9211 10.6173 31.5016 10.037 32.2176 10.037C32.9337 10.037 33.5142 10.6173 33.5142 11.3332ZM28.5496 12.2627C29.2327 12.2627 29.7864 11.7091 29.7864 11.0262C29.7864 10.3433 29.2327 9.78968 28.5496 9.78968C27.8665 9.78968 27.3127 10.3433 27.3127 11.0262C27.3127 11.7091 27.8665 12.2627 28.5496 12.2627ZM25.9224 10.7021C25.9224 11.2955 25.4411 11.7766 24.8475 11.7766C24.2539 11.7766 23.7728 11.2955 23.7728 10.7021C23.7728 10.1087 24.2539 9.62764 24.8475 9.62764C25.4411 9.62764 25.9224 10.1087 25.9224 10.7021ZM26.4088 15.1365C27.0024 15.1365 27.4836 14.6554 27.4836 14.0619C27.4836 13.4685 27.0024 12.9875 26.4088 12.9875C25.8152 12.9875 25.3341 13.4685 25.3341 14.0619C25.3341 14.6554 25.8152 15.1365 26.4088 15.1365ZM31.194 14.3861C31.194 14.9796 30.7128 15.4607 30.1192 15.4607C29.5256 15.4607 29.0445 14.9796 29.0445 14.3861C29.0445 13.7927 29.5256 13.3116 30.1192 13.3116C30.7128 13.3116 31.194 13.7927 31.194 14.3861ZM31.6717 18.9483C32.3501 18.9483 32.9 18.3985 32.9 17.7204C32.9 17.0421 32.3501 16.4923 31.6717 16.4923C30.9934 16.4923 30.4434 17.0421 30.4434 17.7204C30.4434 18.3985 30.9934 18.9483 31.6717 18.9483ZM34.3246 21.0717C34.3246 21.6745 33.8358 22.1633 33.2328 22.1633C32.6298 22.1633 32.1409 21.6745 32.1409 21.0717C32.1409 20.4688 32.6298 19.9802 33.2328 19.9802C33.8358 19.9802 34.3246 20.4688 34.3246 21.0717ZM22.1694 21.319C22.8431 21.319 23.3891 20.773 23.3891 20.0995C23.3891 19.4261 22.8431 18.8801 22.1694 18.8801C21.4957 18.8801 20.9496 19.4261 20.9496 20.0995C20.9496 20.773 21.4957 21.319 22.1694 21.319ZM25.5386 17.0892C25.5386 17.7675 24.9886 18.3172 24.3103 18.3172C23.6319 18.3172 23.082 17.7675 23.082 17.0892C23.082 16.4111 23.6319 15.8613 24.3103 15.8613C24.9886 15.8613 25.5386 16.4111 25.5386 17.0892ZM31.1257 25.3526C31.804 25.3526 32.3539 24.8029 32.3539 24.1246C32.3539 23.4464 31.804 22.8966 31.1257 22.8966C30.4473 22.8966 29.8973 23.4464 29.8973 24.1246C29.8973 24.8029 30.4473 25.3526 31.1257 25.3526ZM34.734 14.7016C34.734 15.2054 34.3253 15.614 33.8213 15.614C33.3172 15.614 32.9086 15.2054 32.9086 14.7016C32.9086 14.1976 33.3172 13.7891 33.8213 13.7891C34.3253 13.7891 34.734 14.1976 34.734 14.7016ZM22.7238 14.6419C23.2278 14.6419 23.6365 14.2334 23.6365 13.7294C23.6365 13.2255 23.2278 12.817 22.7238 12.817C22.2197 12.817 21.8111 13.2255 21.8111 13.7294C21.8111 14.2334 22.2197 14.6419 22.7238 14.6419ZM34.1452 4.95454C34.1452 5.70337 33.538 6.31043 32.789 6.31043C32.0399 6.31043 31.4326 5.70337 31.4326 4.95454C31.4326 4.20569 32.0399 3.59865 32.789 3.59865C33.538 3.59865 34.1452 4.20569 34.1452 4.95454ZM19.0048 20.3981C19.0048 20.9915 18.5236 21.4726 17.93 21.4726C17.3364 21.4726 16.8553 20.9915 16.8553 20.3981C16.8553 19.8046 17.3364 19.3236 17.93 19.3236C18.5236 19.3236 19.0048 19.8046 19.0048 20.3981ZM17.93 27.3309C18.5236 27.3309 19.0048 26.8499 19.0048 26.2565C19.0048 25.6631 18.5236 25.182 17.93 25.182C17.3364 25.182 16.8553 25.6631 16.8553 26.2565C16.8553 26.8499 17.3364 27.3309 17.93 27.3309ZM16.8807 23.1439C16.8807 23.7373 16.3996 24.2184 15.806 24.2184C15.2124 24.2184 14.7311 23.7373 14.7311 23.1439C14.7311 22.5504 15.2124 22.0693 15.806 22.0693C16.3996 22.0693 16.8807 22.5504 16.8807 23.1439ZM20.0539 24.2184C20.6475 24.2184 21.1287 23.7373 21.1287 23.1439C21.1287 22.5504 20.6475 22.0693 20.0539 22.0693C19.4604 22.0693 18.9791 22.5504 18.9791 23.1439C18.9791 23.7373 19.4604 24.2184 20.0539 24.2184ZM16.8295 29.5395C16.8295 29.7939 16.6233 30 16.3689 30C16.1144 30 15.9082 29.7939 15.9082 29.5395C15.9082 29.2852 16.1144 29.0791 16.3689 29.0791C16.6233 29.0791 16.8295 29.2852 16.8295 29.5395ZM19.4994 30C19.7538 30 19.96 29.7939 19.96 29.5395C19.96 29.2852 19.7538 29.0791 19.4994 29.0791C19.245 29.0791 19.0388 29.2852 19.0388 29.5395C19.0388 29.7939 19.245 30 19.4994 30ZM49.342 5.30428V13.0043H49.892V6.4352L53.115 11.9813H53.39L56.6134 6.41641L56.624 13.0043H57.174L57.163 5.30428H56.701L53.2633 11.2566L49.815 5.30428H49.342ZM60.6176 12.2233C61.1676 12.7806 61.9193 13.0593 62.8726 13.0593C63.8333 13.0593 64.5886 12.7806 65.1386 12.2233C65.6886 11.6659 65.9636 10.8373 65.9636 9.73728V5.30428H65.4026V9.71528C65.4026 10.6759 65.1826 11.3873 64.7426 11.8493C64.3026 12.3113 63.6829 12.5423 62.8836 12.5423C62.0769 12.5423 61.4536 12.3113 61.0136 11.8493C60.5736 11.3873 60.3536 10.6759 60.3536 9.71528V5.30428H59.7926V9.73728C59.7926 10.8373 60.0676 11.6659 60.6176 12.2233ZM70.2533 12.7733C70.7446 12.9639 71.2763 13.0593 71.8483 13.0593C72.4203 13.0593 72.9483 12.9639 73.4323 12.7733C73.9236 12.5753 74.3489 12.3003 74.7083 11.9483C75.0676 11.5963 75.3463 11.1856 75.5443 10.7163C75.7496 10.2396 75.8523 9.71895 75.8523 9.15428C75.8523 8.58961 75.7496 8.07261 75.5443 7.60328C75.3463 7.12661 75.0676 6.71228 74.7083 6.36028C74.3489 6.00828 73.9236 5.73695 73.4323 5.54628C72.9483 5.34828 72.4203 5.24928 71.8483 5.24928C71.2763 5.24928 70.7446 5.34828 70.2533 5.54628C69.7693 5.73695 69.3439 6.01195 68.9773 6.37128C68.6179 6.72328 68.3393 7.13761 68.1413 7.61428C67.9433 8.08361 67.8443 8.59695 67.8443 9.15428C67.8443 9.71161 67.9433 10.2286 68.1413 10.7053C68.3393 11.1746 68.6179 11.5889 68.9773 11.9483C69.3439 12.3003 69.7693 12.5753 70.2533 12.7733ZM73.2123 12.2893C72.7943 12.4579 72.3396 12.5423 71.8483 12.5423C71.3569 12.5423 70.9023 12.4579 70.4843 12.2893C70.0663 12.1206 69.6996 11.8823 69.3843 11.5743C69.0763 11.2663 68.8343 10.9069 68.6583 10.4963C68.4896 10.0856 68.4053 9.63828 68.4053 9.15428C68.4053 8.66295 68.4896 8.21561 68.6583 7.81228C68.8343 7.40161 69.0763 7.04228 69.3843 6.73428C69.6996 6.42628 70.0663 6.18795 70.4843 6.01928C70.9023 5.85061 71.3569 5.76628 71.8483 5.76628C72.3396 5.76628 72.7943 5.85061 73.2123 6.01928C73.6303 6.18795 73.9933 6.42628 74.3013 6.73428C74.6093 7.04228 74.8476 7.40161 75.0163 7.81228C75.1923 8.21561 75.2803 8.66295 75.2803 9.15428C75.2803 9.63828 75.1923 10.0856 75.0163 10.4963C74.8476 10.9069 74.6093 11.2663 74.3013 11.5743C73.9933 11.8823 73.6303 12.1206 73.2123 12.2893ZM77.7981 5.30428V13.0043H78.3591V6.3196L83.6061 13.0043H84.0681V5.30428H83.5071V11.9883L78.2711 5.30428H77.7981ZM49.342 18.3043V26.0043H49.903V19.3196L55.15 26.0043H55.612V18.3043H55.051V24.9883L49.815 18.3043H49.342ZM58.862 22.3413V25.4983H63.614V26.0043H58.301V18.3043H63.449V18.8103H58.862V21.8463H62.965V22.3413H58.862ZM67.1334 18.8103V26.0043H67.6944V18.8103H70.4664V18.3043H64.3614V18.8103H67.1334ZM70.9234 18.3043L73.5414 26.0043H74.1354L76.5279 19.0938L78.9204 26.0043H79.5144L82.1214 18.3043H81.5714L79.2055 25.2464L76.8084 18.3043H76.2694L73.8572 25.2304L71.5174 18.3043H70.9234ZM85.346 25.7733C85.8374 25.9639 86.369 26.0593 86.941 26.0593C87.513 26.0593 88.041 25.9639 88.525 25.7733C89.0164 25.5753 89.4417 25.3003 89.801 24.9483C90.1604 24.5963 90.439 24.1856 90.637 23.7163C90.8424 23.2396 90.945 22.7189 90.945 22.1543C90.945 21.5896 90.8424 21.0726 90.637 20.6033C90.439 20.1266 90.1604 19.7123 89.801 19.3603C89.4417 19.0083 89.0164 18.7369 88.525 18.5463C88.041 18.3483 87.513 18.2493 86.941 18.2493C86.369 18.2493 85.8374 18.3483 85.346 18.5463C84.862 18.7369 84.4367 19.0119 84.07 19.3713C83.7107 19.7233 83.432 20.1376 83.234 20.6143C83.036 21.0836 82.937 21.5969 82.937 22.1543C82.937 22.7116 83.036 23.2286 83.234 23.7053C83.432 24.1746 83.7107 24.5889 84.07 24.9483C84.4367 25.3003 84.862 25.5753 85.346 25.7733ZM88.305 25.2893C87.887 25.4579 87.4324 25.5423 86.941 25.5423C86.4497 25.5423 85.995 25.4579 85.577 25.2893C85.159 25.1206 84.7924 24.8823 84.477 24.5743C84.169 24.2663 83.927 23.9069 83.751 23.4963C83.5824 23.0856 83.498 22.6383 83.498 22.1543C83.498 21.6629 83.5824 21.2156 83.751 20.8123C83.927 20.4016 84.169 20.0423 84.477 19.7343C84.7924 19.4263 85.159 19.1879 85.577 19.0193C85.995 18.8506 86.4497 18.7663 86.941 18.7663C87.4324 18.7663 87.887 18.8506 88.305 19.0193C88.723 19.1879 89.086 19.4263 89.394 19.7343C89.702 20.0423 89.9404 20.4016 90.109 20.8123C90.285 21.2156 90.373 21.6629 90.373 22.1543C90.373 22.6383 90.285 23.0856 90.109 23.4963C89.9404 23.9069 89.702 24.2663 89.394 24.5743C89.086 24.8823 88.723 25.1206 88.305 25.2893ZM95.6518 18.3043H92.8908V26.0043H93.4518V23.4853H95.6518C95.9148 23.4853 96.1626 23.4682 96.3952 23.4341L98.2368 26.0043H98.8748L96.9463 23.3129C97.0743 23.2742 97.1965 23.229 97.3128 23.1773C97.7748 22.9646 98.1305 22.6676 98.3798 22.2863C98.6292 21.8976 98.7538 21.4356 98.7538 20.9003C98.7538 20.3503 98.6292 19.8846 98.3798 19.5033C98.1305 19.1146 97.7748 18.8176 97.3128 18.6123C96.8508 18.4069 96.2972 18.3043 95.6518 18.3043ZM93.4518 22.9903H95.6518C96.4805 22.9903 97.1075 22.8069 97.5328 22.4403C97.9655 22.0736 98.1818 21.5603 98.1818 20.9003C98.1818 20.2329 97.9655 19.7196 97.5328 19.3603C97.1075 18.9936 96.4805 18.8103 95.6518 18.8103H93.4518V22.9903ZM101.369 23.9784V26.0043H100.808V18.3043H101.369V23.2514L106.176 18.3043H106.858L103.474 21.8077L107.089 26.0043H106.407L103.091 22.2146L101.369 23.9784Z" fill="#EAEAEA"/>
</svg>
