<svg width="98" height="8" viewBox="0 0 98 8" fill="none" xmlns="http://www.w3.org/2000/svg">
<path d="M-2.98023e-08 7.755V0.0550001H0.473L4.048 6.226H3.795L7.359 0.0550001H7.821L7.832 7.755H7.282L7.271 0.902H7.425L4.048 6.732H3.773L0.385 0.902H0.55V7.755H-2.98023e-08ZM13.5306 7.81C12.5773 7.81 11.8256 7.53133 11.2756 6.974C10.7256 6.41667 10.4506 5.588 10.4506 4.488V0.0550001H11.0116V4.466C11.0116 5.42667 11.2316 6.138 11.6716 6.6C12.1116 7.062 12.7349 7.293 13.5416 7.293C14.3409 7.293 14.9606 7.062 15.4006 6.6C15.8406 6.138 16.0606 5.42667 16.0606 4.466V0.0550001H16.6216V4.488C16.6216 5.588 16.3466 6.41667 15.7966 6.974C15.2466 7.53133 14.4913 7.81 13.5306 7.81ZM22.5063 7.81C21.9343 7.81 21.4026 7.71467 20.9113 7.524C20.4273 7.326 20.0019 7.051 19.6353 6.699C19.2759 6.33967 18.9973 5.92533 18.7993 5.456C18.6013 4.97933 18.5023 4.46233 18.5023 3.905C18.5023 3.34767 18.6013 2.83433 18.7993 2.365C18.9973 1.88833 19.2759 1.474 19.6353 1.122C20.0019 0.762667 20.4273 0.487667 20.9113 0.297C21.4026 0.0990002 21.9343 1.19209e-07 22.5063 1.19209e-07C23.0783 1.19209e-07 23.6063 0.0990002 24.0903 0.297C24.5816 0.487667 25.0069 0.759 25.3663 1.111C25.7256 1.463 26.0043 1.87733 26.2023 2.354C26.4076 2.82333 26.5103 3.34033 26.5103 3.905C26.5103 4.46967 26.4076 4.99033 26.2023 5.467C26.0043 5.93633 25.7256 6.347 25.3663 6.699C25.0069 7.051 24.5816 7.326 24.0903 7.524C23.6063 7.71467 23.0783 7.81 22.5063 7.81ZM22.5063 7.293C22.9976 7.293 23.4523 7.20867 23.8703 7.04C24.2883 6.87133 24.6513 6.633 24.9593 6.325C25.2673 6.017 25.5056 5.65767 25.6743 5.247C25.8503 4.83633 25.9383 4.389 25.9383 3.905C25.9383 3.41367 25.8503 2.96633 25.6743 2.563C25.5056 2.15233 25.2673 1.793 24.9593 1.485C24.6513 1.177 24.2883 0.938667 23.8703 0.77C23.4523 0.601333 22.9976 0.517 22.5063 0.517C22.0149 0.517 21.5603 0.601333 21.1423 0.77C20.7243 0.938667 20.3576 1.177 20.0423 1.485C19.7343 1.793 19.4923 2.15233 19.3163 2.563C19.1476 2.96633 19.0633 3.41367 19.0633 3.905C19.0633 4.389 19.1476 4.83633 19.3163 5.247C19.4923 5.65767 19.7343 6.017 20.0423 6.325C20.3576 6.633 20.7243 6.87133 21.1423 7.04C21.5603 7.20867 22.0149 7.293 22.5063 7.293ZM28.4561 7.755V0.0550001H28.9291L34.4181 7.062H34.1651V0.0550001H34.7261V7.755H34.2641L28.7641 0.748H29.0171V7.755H28.4561ZM40.2402 7.755V0.0550001H40.7132L46.2022 7.062H45.9492V0.0550001H46.5102V7.755H46.0482L40.5482 0.748H40.8012V7.755H40.2402ZM49.6942 3.597H53.8632V4.092H49.6942V3.597ZM49.7602 7.249H54.5122V7.755H49.1992V0.0550001H54.3472V0.561H49.7602V7.249ZM58.0316 7.755V0.561H55.2596V0.0550001H61.3646V0.561H58.5926V7.755H58.0316ZM64.4396 7.755L61.8216 0.0550001H62.4156L64.9016 7.414H64.6046L67.1676 0.0550001H67.7066L70.2476 7.414H69.9616L72.4696 0.0550001H73.0196L70.4126 7.755H69.8186L67.3546 0.638H67.4976L65.0336 7.755H64.4396ZM77.8393 7.81C77.2673 7.81 76.7356 7.71467 76.2443 7.524C75.7603 7.326 75.3349 7.051 74.9683 6.699C74.6089 6.33967 74.3303 5.92533 74.1323 5.456C73.9343 4.97933 73.8353 4.46233 73.8353 3.905C73.8353 3.34767 73.9343 2.83433 74.1323 2.365C74.3303 1.88833 74.6089 1.474 74.9683 1.122C75.3349 0.762667 75.7603 0.487667 76.2443 0.297C76.7356 0.0990002 77.2673 1.19209e-07 77.8393 1.19209e-07C78.4113 1.19209e-07 78.9393 0.0990002 79.4233 0.297C79.9146 0.487667 80.3399 0.759 80.6993 1.111C81.0586 1.463 81.3373 1.87733 81.5353 2.354C81.7406 2.82333 81.8433 3.34033 81.8433 3.905C81.8433 4.46967 81.7406 4.99033 81.5353 5.467C81.3373 5.93633 81.0586 6.347 80.6993 6.699C80.3399 7.051 79.9146 7.326 79.4233 7.524C78.9393 7.71467 78.4113 7.81 77.8393 7.81ZM77.8393 7.293C78.3306 7.293 78.7853 7.20867 79.2033 7.04C79.6213 6.87133 79.9843 6.633 80.2923 6.325C80.6003 6.017 80.8386 5.65767 81.0073 5.247C81.1833 4.83633 81.2713 4.389 81.2713 3.905C81.2713 3.41367 81.1833 2.96633 81.0073 2.563C80.8386 2.15233 80.6003 1.793 80.2923 1.485C79.9843 1.177 79.6213 0.938667 79.2033 0.77C78.7853 0.601333 78.3306 0.517 77.8393 0.517C77.3479 0.517 76.8933 0.601333 76.4753 0.77C76.0573 0.938667 75.6906 1.177 75.3753 1.485C75.0673 1.793 74.8253 2.15233 74.6493 2.563C74.4806 2.96633 74.3963 3.41367 74.3963 3.905C74.3963 4.389 74.4806 4.83633 74.6493 5.247C74.8253 5.65767 75.0673 6.017 75.3753 6.325C75.6906 6.633 76.0573 6.87133 76.4753 7.04C76.8933 7.20867 77.3479 7.293 77.8393 7.293ZM83.7891 7.755V0.0550001H86.5501C87.1954 0.0550001 87.7491 0.157667 88.2111 0.363C88.6731 0.568333 89.0287 0.865333 89.2781 1.254C89.5274 1.63533 89.6521 2.101 89.6521 2.651C89.6521 3.18633 89.5274 3.64833 89.2781 4.037C89.0287 4.41833 88.6731 4.71533 88.2111 4.928C87.7491 5.13333 87.1954 5.236 86.5501 5.236H84.0971L84.3501 4.972V7.755H83.7891ZM89.1351 7.755L87.1331 4.961H87.7711L89.7731 7.755H89.1351ZM84.3501 5.005L84.0971 4.741H86.5501C87.3787 4.741 88.0057 4.55767 88.4311 4.191C88.8637 3.82433 89.0801 3.311 89.0801 2.651C89.0801 1.98367 88.8637 1.47033 88.4311 1.111C88.0057 0.744334 87.3787 0.561 86.5501 0.561H84.0971L84.3501 0.286V5.005ZM92.1901 5.808L92.1681 5.104L97.0741 0.0550001H97.7561L94.3241 3.608L94.0051 3.949L92.1901 5.808ZM91.7061 7.755V0.0550001H92.2671V7.755H91.7061ZM97.3051 7.755L93.8401 3.795L94.2251 3.388L97.9871 7.755H97.3051Z" fill="#242124" fill-opacity="0.9"/>
</svg>
