<svg width="32" height="32" viewBox="0 0 32 32" fill="none" xmlns="http://www.w3.org/2000/svg">
<rect width="32" height="32" fill="#EDEDED"/>
<path fill-rule="evenodd" clip-rule="evenodd" d="M9.26631 8.80046C9.26631 9.24254 8.90784 9.60092 8.46563 9.60092C8.02343 9.60092 7.66496 9.24254 7.66496 8.80046C7.66496 8.35838 8.02343 8 8.46563 8C8.90784 8 9.26631 8.35838 9.26631 8.80046ZM6.50954 9.30982C6.66531 9.30982 6.7916 9.18358 6.7916 9.02784C6.7916 8.87211 6.66531 8.74586 6.50954 8.74586C6.35376 8.74586 6.22748 8.87211 6.22748 9.02784C6.22748 9.18358 6.35376 9.30982 6.50954 9.30982ZM10.4856 17.2871C10.4856 17.4429 10.3593 17.5691 10.2036 17.5691C10.0478 17.5691 9.92151 17.4429 9.92151 17.2871C9.92151 17.1314 10.0478 17.0051 10.2036 17.0051C10.3593 17.0051 10.4856 17.1314 10.4856 17.2871ZM6.56411 17.6283C6.56411 17.784 6.43783 17.9103 6.28206 17.9103C6.12628 17.9103 6 17.784 6 17.6283C6 17.4725 6.12628 17.3463 6.28206 17.3463C6.43783 17.3463 6.56411 17.4725 6.56411 17.6283ZM11.3363 19.1836C11.4921 19.1836 11.6184 19.0574 11.6184 18.9017C11.6184 18.7459 11.4921 18.6197 11.3363 18.6197C11.1805 18.6197 11.0543 18.7459 11.0543 18.9017C11.0543 19.0574 11.1805 19.1836 11.3363 19.1836ZM14.9621 17.7192C14.9621 17.8749 14.8358 18.0012 14.68 18.0012C14.5242 18.0012 14.398 17.8749 14.398 17.7192C14.398 17.5634 14.5242 17.4372 14.68 17.4372C14.8358 17.4372 14.9621 17.5634 14.9621 17.7192ZM7.24199 12.4389C7.24199 12.68 7.04646 12.8755 6.80525 12.8755C6.56405 12.8755 6.36852 12.68 6.36852 12.4389C6.36852 12.1977 6.56405 12.0023 6.80525 12.0023C7.04646 12.0023 7.24199 12.1977 7.24199 12.4389ZM13.9021 16.9688C14.103 16.9688 14.266 16.8059 14.266 16.6049C14.266 16.404 14.103 16.2411 13.9021 16.2411C13.701 16.2411 13.5381 16.404 13.5381 16.6049C13.5381 16.8059 13.701 16.9688 13.9021 16.9688ZM6.92797 21.0393C6.92797 21.2403 6.76503 21.4031 6.56402 21.4031C6.36302 21.4031 6.20008 21.2403 6.20008 21.0393C6.20008 20.8384 6.36302 20.6754 6.56402 20.6754C6.76503 20.6754 6.92797 20.8384 6.92797 21.0393ZM9.36639 19.4702C9.58749 19.4702 9.76673 19.291 9.76673 19.0699C9.76673 18.8489 9.58749 18.6697 9.36639 18.6697C9.14528 18.6697 8.96605 18.8489 8.96605 19.0699C8.96605 19.291 9.14528 19.4702 9.36639 19.4702ZM14.0022 22.1308C14.0022 22.3519 13.823 22.531 13.6019 22.531C13.3808 22.531 13.2016 22.3519 13.2016 22.1308C13.2016 21.9097 13.3808 21.7306 13.6019 21.7306C13.823 21.7306 14.0022 21.9097 14.0022 22.1308ZM12.4645 20.8346C12.6404 20.8346 12.783 20.6921 12.783 20.5162C12.783 20.3404 12.6404 20.1979 12.4645 20.1979C12.2886 20.1979 12.1461 20.3404 12.1461 20.5162C12.1461 20.6921 12.2886 20.8346 12.4645 20.8346ZM8.17921 22.6629C8.17921 22.9266 7.96534 23.1405 7.70153 23.1405C7.43771 23.1405 7.22385 22.9266 7.22385 22.6629C7.22385 22.3991 7.43771 22.1854 7.70153 22.1854C7.96534 22.1854 8.17921 22.3991 8.17921 22.6629ZM9.60757 11.3201C10.0121 11.3201 10.34 10.9923 10.34 10.5879C10.34 10.1835 10.0121 9.85563 9.60757 9.85563C9.20305 9.85563 8.87513 10.1835 8.87513 10.5879C8.87513 10.9923 9.20305 11.3201 9.60757 11.3201ZM8.76151 13.1211C9.14089 13.1211 9.44845 12.8136 9.44845 12.4343C9.44845 12.0551 9.14089 11.7476 8.76151 11.7476C8.38212 11.7476 8.07456 12.0551 8.07456 12.4343C8.07456 12.8136 8.38212 13.1211 8.76151 13.1211ZM11.4637 12.0932C11.4637 12.4926 11.1399 12.8164 10.7404 12.8164C10.3409 12.8164 10.017 12.4926 10.017 12.0932C10.017 11.6938 10.3409 11.3701 10.7404 11.3701C11.1399 11.3701 11.4637 11.6938 11.4637 12.0932ZM7.9425 14.7357C8.32441 14.7357 8.634 14.4262 8.634 14.0444C8.634 13.6626 8.32441 13.3531 7.9425 13.3531C7.5606 13.3531 7.25101 13.6626 7.25101 14.0444C7.25101 14.4262 7.5606 14.7357 7.9425 14.7357ZM10.5629 13.8806C10.5629 14.2448 10.2676 14.5401 9.90329 14.5401C9.53898 14.5401 9.24365 14.2448 9.24365 13.8806C9.24365 13.5164 9.53898 13.2212 9.90329 13.2212C10.2676 13.2212 10.5629 13.5164 10.5629 13.8806ZM11.8776 14.2808C12.1942 14.2808 12.4508 14.0243 12.4508 13.7078C12.4508 13.3913 12.1942 13.1347 11.8776 13.1347C11.561 13.1347 11.3044 13.3913 11.3044 13.7078C11.3044 14.0243 11.561 14.2808 11.8776 14.2808ZM11.6139 15.4997C11.6139 15.8162 11.3573 16.0728 11.0407 16.0728C10.7241 16.0728 10.4675 15.8162 10.4675 15.4997C10.4675 15.1832 10.7241 14.9267 11.0407 14.9267C11.3573 14.9267 11.6139 15.1832 11.6139 15.4997ZM9.06617 16.2456C9.38274 16.2456 9.63938 15.989 9.63938 15.6726C9.63938 15.3561 9.38274 15.0995 9.06617 15.0995C8.7496 15.0995 8.49296 15.3561 8.49296 15.6726C8.49296 15.989 8.7496 16.2456 9.06617 16.2456ZM8.88889 17.4509C8.88889 17.8125 8.59559 18.1057 8.23379 18.1057C7.87199 18.1057 7.57869 17.8125 7.57869 17.4509C7.57869 17.0891 7.87199 16.7959 8.23379 16.7959C8.59559 16.7959 8.88889 17.0891 8.88889 17.4509ZM7.40107 19.8204C7.72267 19.8204 7.98338 19.5597 7.98338 19.2382C7.98338 18.9167 7.72267 18.6561 7.40107 18.6561C7.07947 18.6561 6.81876 18.9167 6.81876 19.2382C6.81876 19.5597 7.07947 19.8204 7.40107 19.8204ZM13.952 18.7198C13.952 19.079 13.6608 19.3701 13.3015 19.3701C12.9422 19.3701 12.651 19.079 12.651 18.7198C12.651 18.3606 12.9422 18.0694 13.3015 18.0694C13.6608 18.0694 13.952 18.3606 13.952 18.7198ZM12.1598 17.7692C12.5216 17.7692 12.8149 17.476 12.8149 17.1142C12.8149 16.7526 12.5216 16.4594 12.1598 16.4594C11.798 16.4594 11.5047 16.7526 11.5047 17.1142C11.5047 17.476 11.798 17.7692 12.1598 17.7692ZM9.18444 20.8665C9.18444 21.2282 8.89114 21.5214 8.52934 21.5214C8.16754 21.5214 7.87424 21.2282 7.87424 20.8665C7.87424 20.5047 8.16754 20.2115 8.52934 20.2115C8.89114 20.2115 9.18444 20.5047 9.18444 20.8665ZM7.08722 16.3275C7.35606 16.3275 7.574 16.1096 7.574 15.8408C7.574 15.572 7.35606 15.3542 7.08722 15.3542C6.81839 15.3542 6.60045 15.572 6.60045 15.8408C6.60045 16.1096 6.81839 16.3275 7.08722 16.3275ZM13.4973 15.3224C13.4973 15.5912 13.2794 15.809 13.0106 15.809C12.7417 15.809 12.5238 15.5912 12.5238 15.3224C12.5238 15.0536 12.7417 14.8357 13.0106 14.8357C13.2794 14.8357 13.4973 15.0536 13.4973 15.3224ZM7.6423 11.3656C8.04178 11.3656 8.36564 11.0418 8.36564 10.6424C8.36564 10.243 8.04178 9.91928 7.6423 9.91928C7.2428 9.91928 6.91896 10.243 6.91896 10.6424C6.91896 11.0418 7.2428 11.3656 7.6423 11.3656ZM24.8477 17.9103C25.0034 17.9103 25.1297 17.784 25.1297 17.6283C25.1297 17.4725 25.0034 17.3463 24.8477 17.3463C24.6919 17.3463 24.5656 17.4725 24.5656 17.6283C24.5656 17.784 24.6919 17.9103 24.8477 17.9103ZM21.2038 17.2871C21.2038 17.4429 21.0775 17.5691 20.9217 17.5691C20.7659 17.5691 20.6396 17.4429 20.6396 17.2871C20.6396 17.1314 20.7659 17.0051 20.9217 17.0051C21.0775 17.0051 21.2038 17.1314 21.2038 17.2871ZM19.7935 19.1836C19.9493 19.1836 20.0756 19.0574 20.0756 18.9017C20.0756 18.7459 19.9493 18.6197 19.7935 18.6197C19.6378 18.6197 19.5115 18.7459 19.5115 18.9017C19.5115 19.0574 19.6378 19.1836 19.7935 19.1836ZM16.7317 17.7192C16.7317 17.8749 16.6055 18.0012 16.4497 18.0012C16.2939 18.0012 16.1677 17.8749 16.1677 17.7192C16.1677 17.5634 16.2939 17.4372 16.4497 17.4372C16.6055 17.4372 16.7317 17.5634 16.7317 17.7192ZM24.6203 9.30982C24.776 9.30982 24.9023 9.18358 24.9023 9.02784C24.9023 8.87211 24.776 8.74586 24.6203 8.74586C24.4645 8.74586 24.3382 8.87211 24.3382 9.02784C24.3382 9.18358 24.4645 9.30982 24.6203 9.30982ZM24.7613 12.4389C24.7613 12.68 24.5658 12.8755 24.3246 12.8755C24.0834 12.8755 23.8878 12.68 23.8878 12.4389C23.8878 12.1978 24.0834 12.0023 24.3246 12.0023C24.5658 12.0023 24.7613 12.1978 24.7613 12.4389ZM17.2278 16.9688C17.4288 16.9688 17.5917 16.8059 17.5917 16.6049C17.5917 16.404 17.4288 16.2411 17.2278 16.2411C17.0268 16.2411 16.8638 16.404 16.8638 16.6049C16.8638 16.8059 17.0268 16.9688 17.2278 16.9688ZM24.9251 21.0393C24.9251 21.2403 24.7621 21.4031 24.5611 21.4031C24.3601 21.4031 24.1972 21.2403 24.1972 21.0393C24.1972 20.8384 24.3601 20.6754 24.5611 20.6754C24.7621 20.6754 24.9251 20.8384 24.9251 21.0393ZM21.7588 19.4702C21.9798 19.4702 22.1591 19.291 22.1591 19.0699C22.1591 18.8489 21.9798 18.6697 21.7588 18.6697C21.5377 18.6697 21.3584 18.8489 21.3584 19.0699C21.3584 19.291 21.5377 19.4702 21.7588 19.4702ZM17.9283 22.1308C17.9283 22.3519 17.749 22.531 17.5279 22.531C17.3068 22.531 17.1276 22.3519 17.1276 22.1308C17.1276 21.9097 17.3068 21.7306 17.5279 21.7306C17.749 21.7306 17.9283 21.9097 17.9283 22.1308ZM18.6607 20.8346C18.8366 20.8346 18.9791 20.6921 18.9791 20.5162C18.9791 20.3404 18.8366 20.1979 18.6607 20.1979C18.4848 20.1979 18.3423 20.3404 18.3423 20.5162C18.3423 20.6921 18.4848 20.8346 18.6607 20.8346ZM23.9015 22.6629C23.9015 22.9266 23.6876 23.1405 23.4238 23.1405C23.16 23.1405 22.9461 22.9266 22.9461 22.6629C22.9461 22.3991 23.16 22.1854 23.4238 22.1854C23.6876 22.1854 23.9015 22.3991 23.9015 22.6629ZM21.5176 11.3201C21.9222 11.3201 22.25 10.9923 22.25 10.5879C22.25 10.1835 21.9222 9.85563 21.5176 9.85563C21.1131 9.85563 20.7852 10.1835 20.7852 10.5879C20.7852 10.9923 21.1131 11.3201 21.5176 11.3201ZM23.4601 8.80046C23.4601 9.24254 23.1017 9.60092 22.6595 9.60092C22.2173 9.60092 21.8588 9.24254 21.8588 8.80046C21.8588 8.35838 22.2173 8 22.6595 8C23.1017 8 23.4601 8.35838 23.4601 8.80046ZM22.3638 13.1211C22.7432 13.1211 23.0507 12.8136 23.0507 12.4343C23.0507 12.0551 22.7432 11.7476 22.3638 11.7476C21.9844 11.7476 21.6769 12.0551 21.6769 12.4343C21.6769 12.8136 21.9844 13.1211 22.3638 13.1211ZM21.1127 12.0932C21.1127 12.4926 20.7889 12.8164 20.3894 12.8164C19.9899 12.8164 19.6661 12.4926 19.6661 12.0932C19.6661 11.6938 19.9899 11.3701 20.3894 11.3701C20.7889 11.3701 21.1127 11.6938 21.1127 12.0932ZM23.1827 14.7357C23.5646 14.7357 23.8742 14.4262 23.8742 14.0444C23.8742 13.6626 23.5646 13.3531 23.1827 13.3531C22.8008 13.3531 22.4912 13.6626 22.4912 14.0444C22.4912 14.4262 22.8008 14.7357 23.1827 14.7357ZM21.8861 13.8806C21.8861 14.2448 21.5907 14.5401 21.2264 14.5401C20.8621 14.5401 20.5668 14.2448 20.5668 13.8806C20.5668 13.5164 20.8621 13.2212 21.2264 13.2212C21.5907 13.2212 21.8861 13.5164 21.8861 13.8806ZM19.252 14.2808C19.5686 14.2808 19.8253 14.0243 19.8253 13.7078C19.8253 13.3913 19.5686 13.1347 19.252 13.1347C18.9354 13.1347 18.6788 13.3913 18.6788 13.7078C18.6788 14.0243 18.9354 14.2808 19.252 14.2808ZM20.6579 15.4997C20.6579 15.8162 20.4013 16.0728 20.0847 16.0728C19.7681 16.0728 19.5115 15.8162 19.5115 15.4997C19.5115 15.1832 19.7681 14.9267 20.0847 14.9267C20.4013 14.9267 20.6579 15.1832 20.6579 15.4997ZM22.0635 16.2457C22.3801 16.2457 22.6368 15.9891 22.6368 15.6726C22.6368 15.3561 22.3801 15.0995 22.0635 15.0995C21.747 15.0995 21.4904 15.3561 21.4904 15.6726C21.4904 15.9891 21.747 16.2457 22.0635 16.2457ZM23.5467 17.4509C23.5467 17.8125 23.2534 18.1057 22.8916 18.1057C22.5298 18.1057 22.2365 17.8125 22.2365 17.4509C22.2365 17.0891 22.5298 16.7959 22.8916 16.7959C23.2534 16.7959 23.5467 17.0891 23.5467 17.4509ZM23.7241 19.8204C24.0457 19.8204 24.3064 19.5597 24.3064 19.2382C24.3064 18.9167 24.0457 18.6561 23.7241 18.6561C23.4025 18.6561 23.1418 18.9167 23.1418 19.2382C23.1418 19.5597 23.4025 19.8204 23.7241 19.8204ZM18.4742 18.7198C18.4742 19.079 18.183 19.3701 17.8237 19.3701C17.4644 19.3701 17.1731 19.079 17.1731 18.7198C17.1731 18.3606 17.4644 18.0694 17.8237 18.0694C18.183 18.0694 18.4742 18.3606 18.4742 18.7198ZM18.9655 17.7692C19.3273 17.7692 19.6206 17.476 19.6206 17.1142C19.6206 16.7526 19.3273 16.4594 18.9655 16.4594C18.6037 16.4594 18.3104 16.7526 18.3104 17.1142C18.3104 17.476 18.6037 17.7692 18.9655 17.7692ZM23.2554 20.8665C23.2554 21.2282 22.9621 21.5214 22.6004 21.5214C22.2385 21.5214 21.9452 21.2282 21.9452 20.8665C21.9452 20.5047 22.2385 20.2115 22.6004 20.2115C22.9621 20.2115 23.2554 20.5047 23.2554 20.8665ZM24.038 16.3275C24.3068 16.3275 24.5248 16.1096 24.5248 15.8408C24.5248 15.572 24.3068 15.3542 24.038 15.3542C23.7692 15.3542 23.5513 15.572 23.5513 15.8408C23.5513 16.1096 23.7692 16.3275 24.038 16.3275ZM18.6061 15.3224C18.6061 15.5912 18.3882 15.809 18.1194 15.809C17.8505 15.809 17.6326 15.5912 17.6326 15.3224C17.6326 15.0536 17.8505 14.8357 18.1194 14.8357C18.3882 14.8357 18.6061 15.0536 18.6061 15.3224ZM23.4875 11.3656C23.8869 11.3656 24.2108 11.0418 24.2108 10.6424C24.2108 10.243 23.8869 9.91928 23.4875 9.91928C23.0879 9.91928 22.7641 10.243 22.7641 10.6424C22.7641 11.0418 23.0879 11.3656 23.4875 11.3656ZM15.5627 19.452C15.8792 19.452 16.1359 19.1955 16.1359 18.879C16.1359 18.5625 15.8792 18.3059 15.5627 18.3059C15.2461 18.3059 14.9895 18.5625 14.9895 18.879C14.9895 19.1955 15.2461 19.452 15.5627 19.452ZM16.1359 22.0035C16.1359 22.32 15.8792 22.5765 15.5627 22.5765C15.2461 22.5765 14.9895 22.32 14.9895 22.0035C14.9895 21.687 15.2461 21.4304 15.5627 21.4304C15.8792 21.4304 16.1359 21.687 16.1359 22.0035ZM14.4299 20.9165C14.7464 20.9165 15.003 20.6599 15.003 20.3434C15.003 20.0269 14.7464 19.7703 14.4299 19.7703C14.1133 19.7703 13.8566 20.0269 13.8566 20.3434C13.8566 20.6599 14.1133 20.9165 14.4299 20.9165ZM17.2686 20.3434C17.2686 20.6599 17.012 20.9165 16.6954 20.9165C16.3789 20.9165 16.1222 20.6599 16.1222 20.3434C16.1222 20.0269 16.3789 19.7703 16.6954 19.7703C17.012 19.7703 17.2686 20.0269 17.2686 20.3434ZM14.7301 24C14.8657 24 14.9757 23.8901 14.9757 23.7544C14.9757 23.6188 14.8657 23.5088 14.7301 23.5088C14.5943 23.5088 14.4844 23.6188 14.4844 23.7544C14.4844 23.8901 14.5943 24 14.7301 24ZM16.6453 23.7544C16.6453 23.8901 16.5354 24 16.3997 24C16.264 24 16.154 23.8901 16.154 23.7544C16.154 23.6188 16.264 23.5088 16.3997 23.5088C16.5354 23.5088 16.6453 23.6188 16.6453 23.7544Z" fill="#242124"/>
</svg>
