<svg width="15" height="15" viewBox="0 0 15 15" fill="none" xmlns="http://www.w3.org/2000/svg">
<path fill-rule="evenodd" clip-rule="evenodd" d="M14.6072 0.853553C14.8025 0.658291 14.8025 0.341709 14.6072 0.146447C14.412 -0.0488155 14.0954 -0.0488155 13.9001 0.146447L7.38118 6.66541L0.862218 0.146447C0.666956 -0.0488155 0.350374 -0.0488155 0.155111 0.146447C-0.0401508 0.341709 -0.0401508 0.658291 0.155111 0.853553L6.67407 7.37252L0.146447 13.9001C-0.0488154 14.0954 -0.0488156 14.412 0.146447 14.6072C0.341709 14.8025 0.658291 14.8025 0.853553 14.6072L7.38118 8.07962L13.9088 14.6072C14.1041 14.8025 14.4207 14.8025 14.6159 14.6072C14.8112 14.412 14.8112 14.0954 14.6159 13.9001L8.08829 7.37252L14.6072 0.853553Z" fill="#242124"/>
</svg>
