<svg width="62" height="15" viewBox="0 0 62 15" fill="none" xmlns="http://www.w3.org/2000/svg">
<g style="mix-blend-mode:hard-light" opacity="0.9">
<path d="M13.6962 1.1084C13.5669 1.1084 13.4489 1.18043 13.3946 1.29291L8.88549 10.5392C8.54077 11.2259 8.34994 11.6344 8.31301 11.7647C8.18989 11.3739 8.02369 10.9595 7.81439 10.5214L3.78444 1.30968C3.73109 1.18832 3.60695 1.1084 3.46947 1.1084C3.30224 1.1084 3.15964 1.22483 3.13193 1.38368L1 13.9137H1.90489L3.4192 4.30528L3.60387 2.95548C3.7393 3.33437 3.91782 3.77247 4.13942 4.26976L7.9016 13.0296C7.96111 13.1668 8.09961 13.2565 8.25453 13.2565C8.40329 13.2565 8.53769 13.1737 8.60028 13.0444L12.8559 4.28752C12.9667 4.03887 13.0745 3.7991 13.1791 3.56822C13.2838 3.33733 13.3576 3.17157 13.4007 3.07093C13.4438 2.97028 13.4715 2.91404 13.4838 2.9022C13.4838 3.21005 13.5331 3.6659 13.6316 4.26976L15.072 13.9137H15.9954L14.0255 1.38072C14.0009 1.22384 13.8603 1.1084 13.6962 1.1084Z" fill="#242124" stroke="#242124" stroke-width="0.5" stroke-miterlimit="10"/>
<path d="M29.3487 1.21191C29.1035 1.21191 28.9055 1.40234 28.9055 1.63816V8.68906C28.9055 11.8149 27.4804 13.3778 24.6303 13.3778C21.7802 13.3778 20.3552 11.8149 20.3552 8.68906V1.63816C20.3552 1.40234 20.1572 1.21191 19.912 1.21191C19.6668 1.21191 19.4688 1.40234 19.4688 1.63816V8.68906C19.4688 10.3704 19.8966 11.6965 20.7522 12.6674C21.6079 13.6383 22.9036 14.1238 24.6396 14.1238C26.3755 14.1238 27.6682 13.6413 28.5177 12.6763C29.3672 11.7113 29.7919 10.3822 29.7919 8.68906V1.63816C29.7919 1.40234 29.5939 1.21191 29.3487 1.21191Z" fill="#242124" stroke="#242124" stroke-width="0.5" stroke-miterlimit="10"/>
<path d="M59.7247 2.65939C58.8752 1.69441 57.5825 1.21191 55.8466 1.21191C54.1107 1.21191 52.8149 1.69737 51.9593 2.66827C51.1036 3.63917 50.6758 4.96529 50.6758 6.64661V13.6975C50.6758 13.9333 50.8738 14.1238 51.119 14.1238C51.3642 14.1238 51.5622 13.9333 51.5622 13.6975V6.64661C51.5622 3.52077 52.9873 1.95785 55.8374 1.95785C58.6875 1.95785 60.1125 3.52077 60.1125 6.64661V13.6975C60.1125 13.9333 60.3105 14.1238 60.5557 14.1238C60.8009 14.1238 60.9989 13.9333 60.9989 13.6975V6.64661C60.9989 4.95345 60.5742 3.62437 59.7247 2.65939Z" fill="#242124" stroke="#242124" stroke-width="0.5" stroke-miterlimit="10"/>
<path d="M40.2242 1C38.3528 1 36.8047 1.6305 35.5797 2.89149C34.3547 4.15248 33.7422 5.70652 33.7422 7.5536C33.7422 9.40069 34.3547 10.9577 35.5797 12.2246C36.8047 13.4915 38.3528 14.125 40.2242 14.125C42.0955 14.125 43.6468 13.4915 44.8779 12.2246C46.1091 10.9577 46.7246 9.40069 46.7246 7.5536C46.7246 5.70652 46.1091 4.15248 44.8779 2.89149C43.6468 1.6305 42.0955 1 40.2242 1ZM44.2223 11.674C43.1943 12.787 41.8647 13.3435 40.2334 13.3435C38.6021 13.3435 37.2725 12.787 36.2445 11.674C35.2165 10.561 34.7025 9.18756 34.7025 7.5536C34.7025 5.91964 35.2134 4.54913 36.2353 3.44206C37.2571 2.33499 38.5867 1.78146 40.2242 1.78146C41.8616 1.78146 43.1943 2.33499 44.2223 3.44206C45.2503 4.54913 45.7643 5.91964 45.7643 7.5536C45.7643 9.18756 45.2503 10.561 44.2223 11.674Z" fill="#242124" stroke="#242124" stroke-width="0.5" stroke-miterlimit="10"/>
</g>
</svg>
