<svg width="364" height="93" viewBox="0 0 364 93" fill="none" xmlns="http://www.w3.org/2000/svg">
<g opacity="0.5">
<path d="M48.4694 53.2032L44.0311 65.4014C43.8425 65.7641 43.8425 66.1412 44.0311 66.5038L51.7909 87.5642L60.6531 82.3861L49.9344 53.2032C49.7603 52.4635 48.832 52.4635 48.4694 53.2032Z" fill="url(#paint0_linear_10015_342)"/>
<path d="M57.3309 32.5226C57.1424 31.7828 56.2286 31.7828 55.8515 32.5226L51.4131 44.7208C51.2246 45.0834 51.2246 45.4605 51.4131 45.8231L63.974 80.3726L72.8362 75.1946L57.3309 32.5226Z" fill="url(#paint1_linear_10015_342)"/>
<path d="M41.4483 5.72925C41.6369 5.72925 41.8109 5.72925 41.9995 5.9178L75.9833 25.4988C76.346 25.6873 76.5345 26.0499 76.5345 26.6011V65.763C76.5345 66.1256 76.346 66.6913 75.9833 66.8654L41.9995 86.4463C41.8109 86.6349 41.6369 86.6349 41.4483 86.6349C41.2598 86.6349 41.0857 86.6349 40.8972 86.4463L6.91331 66.8654C6.5507 66.6768 6.36214 66.3142 6.36214 65.763V26.6011C6.36214 26.2385 6.5507 25.6728 6.91331 25.4988L40.8972 5.9178C41.0712 5.72925 41.2598 5.72925 41.4483 5.72925ZM41.4483 0C40.1574 0 39.0406 0.36261 37.9383 0.928283L3.95441 20.5092C1.73523 21.8001 0.444336 24.0193 0.444336 26.6011V65.763C0.444336 68.1708 1.73523 70.564 3.95441 71.8549L37.9383 91.4359C39.0406 91.987 40.1574 92.3641 41.4483 92.3641C42.7392 92.3641 43.8561 92.0015 44.9584 91.4359L78.9422 71.8549C81.1614 70.564 82.4523 68.3448 82.4523 65.763V26.6011C82.4523 24.1934 81.1614 21.8001 78.9422 20.5092L45.1324 0.928283C44.0301 0.377115 42.9133 0 41.6224 0H41.4483Z" fill="url(#paint2_linear_10015_342)"/>
<path d="M38.6776 23.833H29.9895C29.4383 23.833 28.6986 24.1956 28.51 24.7613L10.0459 75.3672L18.9081 80.5453L39.2288 24.9353C39.4173 24.3842 39.0402 23.833 38.4891 23.833H38.6776Z" fill="url(#paint3_linear_10015_342)"/>
<path d="M53.6307 23.8332H44.9426C44.3914 23.8332 43.6517 24.1958 43.4631 24.7615L22.4172 82.3876L31.2794 87.5656L54.1819 24.7615C54.3705 24.2103 53.9934 23.6592 53.4422 23.6592L53.6307 23.8332Z" fill="url(#paint4_linear_10015_342)"/>
<path d="M119.034 34.3594C119.962 34.3594 120.702 34.5479 121.253 34.9105C121.804 35.2732 122.355 36.0129 122.921 36.9412L134.191 57.2619C134.379 57.4504 134.379 57.6245 134.191 57.813C134.191 58.0016 134.002 58.0016 133.64 58.0016H129.39C129.027 58.0016 128.839 57.813 128.65 57.639L126.228 53.2006H110.345L107.938 57.639C107.749 58.0016 107.575 58.0016 107.198 58.0016H102.76C102.397 58.0016 102.208 58.0016 102.208 57.813C102.208 57.6245 102.208 57.4504 102.208 57.2619L113.29 36.9412C113.841 35.8388 114.392 35.2732 114.958 34.9105C115.524 34.5479 116.06 34.3594 116.8 34.3594H118.831H119.034ZM112.376 49.3279H124.009L118.656 39.3489C118.468 39.1603 118.468 39.1603 118.294 39.1603H118.105C117.917 39.1603 117.743 39.1603 117.743 39.3489L112.376 49.3279Z" fill="url(#paint5_linear_10015_342)"/>
<path d="M158.746 34.3594C161.328 34.3594 163.184 34.9105 164.287 36.2014C165.389 37.3038 165.955 39.1603 165.955 41.3795V43.2216C165.955 45.2522 165.592 46.7316 164.852 47.834C164.113 48.9363 162.822 49.676 160.98 50.0532L166.709 57.2619C166.898 57.4504 166.898 57.6245 166.898 57.813C166.898 58.0016 166.709 58.1756 166.346 58.1756H161.908C161.545 58.1756 161.357 58.1756 161.357 57.9871C161.168 57.9871 161.168 57.7985 160.994 57.6245L155.642 50.6043H144.749V57.4359C144.749 57.9871 144.561 58.1756 144.01 58.1756H140.311C139.76 58.1756 139.571 57.9871 139.571 57.4359V35.4617C139.571 34.722 139.934 34.3594 140.674 34.3594H158.964H158.746ZM144.706 46.5431H157.629C158.732 46.5431 159.66 46.3545 160.037 45.8034C160.588 45.2522 160.777 44.5125 160.777 43.5842V42.1047C160.777 41.0024 160.588 40.2627 160.037 39.8856C159.486 39.3344 158.746 39.1458 157.629 39.1458H145.068C144.706 39.1458 144.706 39.3344 144.706 39.5084V46.5431Z" fill="url(#paint6_linear_10015_342)"/>
<path d="M194.398 34.3594C196.806 34.3594 198.459 34.9105 199.388 35.8388C200.316 36.7671 200.867 38.2466 200.867 40.0886V41.7566C200.867 43.5987 200.127 45.0781 198.648 46.0064C200.127 46.9347 201.056 48.4142 201.056 50.4448V52.4754C201.056 53.4037 200.867 54.1434 200.693 54.8831C200.519 55.6229 200.142 56.174 199.765 56.7252C199.214 57.2764 198.663 57.6535 197.923 57.8275C197.183 58.0161 196.255 58.1901 195.152 58.1901H175.02C174.281 58.1901 173.918 57.8275 173.918 57.0878V35.4762C173.918 34.7365 174.281 34.3739 175.02 34.3739H194.601H194.398V34.3594ZM179.067 44.1499H192.919C194.021 44.1499 194.761 43.9613 195.138 43.5987C195.515 43.2361 195.689 42.859 195.689 42.1192V41.0169C195.689 40.2772 195.501 39.726 195.138 39.5375C194.775 39.1748 194.036 38.9863 193.296 38.9863H179.444C179.082 38.9863 179.082 39.1748 179.082 39.3489V44.1499H179.067ZM179.067 47.8485V52.838C179.067 53.2006 179.256 53.2006 179.43 53.2006H193.281C194.21 53.2006 194.761 53.0121 195.123 52.6494C195.486 52.2868 195.675 51.7212 195.675 51.17V49.8791C195.675 49.1394 195.486 48.5882 195.123 48.2111C194.761 47.834 194.021 47.6599 192.716 47.6599H178.878L179.067 47.8485Z" fill="url(#paint7_linear_10015_342)"/>
<path d="M213.603 34.3594C214.154 34.3594 214.343 34.5479 214.343 35.0991V57.2619C214.343 57.813 214.154 58.0016 213.603 58.0016H209.904C209.353 58.0016 209.165 57.813 209.165 57.2619V35.0991C209.165 34.5479 209.353 34.3594 209.904 34.3594H213.603Z" fill="url(#paint8_linear_10015_342)"/>
<path d="M249.254 34.3594C249.805 34.3594 249.994 34.5479 249.994 35.0991V38.4206C249.994 38.9718 249.805 39.1603 249.254 39.1603H238.535V57.2619C238.535 57.813 238.346 58.0016 237.795 58.0016H234.097C233.545 58.0016 233.357 57.813 233.357 57.2619V39.1603H222.638C222.087 39.1603 221.898 38.9718 221.898 38.4206V35.0991C221.898 34.5479 222.087 34.3594 222.638 34.3594H249.051H249.254Z" fill="url(#paint9_linear_10015_342)"/>
<path d="M276.043 34.3594C278.625 34.3594 280.481 34.9105 281.584 36.2014C282.686 37.3038 283.252 39.1603 283.252 41.3795V43.2216C283.252 45.2522 282.889 46.7316 282.149 47.834C281.41 48.9363 280.119 49.676 278.277 50.0532L284.006 57.2619C284.195 57.4504 284.194 57.6245 284.194 57.813C284.194 58.0016 284.006 58.1756 283.643 58.1756H279.205C278.842 58.1756 278.654 58.1756 278.654 57.9871C278.465 57.9871 278.465 57.7985 278.291 57.6245L272.939 50.6043H262.046V57.4359C262.046 57.9871 261.858 58.1756 261.307 58.1756H257.608C257.057 58.1756 256.868 57.9871 256.868 57.4359V35.4617C256.868 34.722 257.231 34.3594 257.971 34.3594H276.261H276.043ZM262.003 46.5431H274.926C276.028 46.5431 276.957 46.3545 277.334 45.8034C277.885 45.2522 278.074 44.5125 278.074 43.5842V42.1047C278.074 41.0024 277.885 40.2627 277.334 39.8856C276.783 39.3344 276.043 39.1458 274.926 39.1458H262.365C262.003 39.1458 262.003 39.3344 262.003 39.5084V46.5431Z" fill="url(#paint10_linear_10015_342)"/>
<path d="M295.073 34.3594C295.624 34.3594 295.812 34.5479 295.812 35.0991V48.5882C295.812 49.5165 295.812 50.2562 296.001 50.8074C296.19 51.3586 296.364 51.9097 296.741 52.2868C297.118 52.664 297.48 52.838 298.032 53.0266C298.583 53.2151 299.322 53.2151 300.251 53.2151H309.679C310.607 53.2151 311.347 53.2151 311.898 53.0266C312.449 52.838 313 52.664 313.189 52.2868C313.551 51.9242 313.74 51.3586 313.928 50.8074C314.117 50.2562 314.117 49.5165 314.117 48.5882V35.0991C314.117 34.5479 314.306 34.3594 314.857 34.3594H318.555C319.107 34.3594 319.295 34.5479 319.295 35.0991V49.1394C319.295 50.8074 319.107 52.0983 318.744 53.2006C318.381 54.3029 317.816 55.2312 317.076 55.971C316.336 56.7107 315.408 57.2619 314.117 57.4504C312.826 57.813 311.535 58.0016 309.679 58.0016H299.888C298.22 58.0016 296.741 57.813 295.45 57.4504C294.347 57.0878 293.231 56.5221 292.491 55.971C291.751 55.2312 291.2 54.3029 290.823 53.2006C290.46 52.0983 290.272 50.6188 290.272 49.1394V35.0991C290.272 34.5479 290.46 34.3594 291.011 34.3594H294.71H295.073Z" fill="url(#paint11_linear_10015_342)"/>
<path d="M333.858 34.3594C334.409 34.3594 334.786 34.3594 335.149 34.5479C335.512 34.5479 335.889 34.7365 336.077 34.9105C336.266 35.0991 336.628 35.2732 336.817 35.6503C337.006 36.0129 337.18 36.39 337.557 36.9412L344.577 53.2006C344.765 53.3892 344.765 53.5632 345.128 53.5632H345.491C345.679 53.5632 345.853 53.3747 346.042 53.2006L353.062 36.9412C353.251 36.39 353.425 36.0129 353.802 35.6503C353.99 35.2877 354.164 35.0991 354.541 34.9105C354.73 34.722 355.093 34.5479 355.47 34.5479C355.847 34.5479 356.209 34.3594 356.761 34.3594H360.459C361.562 34.3594 362.49 34.5479 362.867 35.0991C363.23 35.6503 363.418 36.5786 363.418 37.8694V57.2619C363.418 57.813 363.23 58.0016 362.678 58.0016H359.168C358.617 58.0016 358.429 57.813 358.429 57.2619V39.5375C358.429 39.3489 358.24 39.1748 358.24 39.1748H357.877C357.689 39.1748 357.515 39.3634 357.515 39.3634L350.683 54.506C350.495 55.0572 350.132 55.6083 349.755 55.9855C349.378 56.3626 349.204 56.7252 348.827 57.0878C348.464 57.2764 348.087 57.639 347.724 57.639C347.362 57.8275 346.796 57.8275 346.245 57.8275H344.577C344.026 57.8275 343.475 57.8275 343.097 57.639C342.72 57.4504 342.358 57.2764 341.995 57.0878C341.633 56.8992 341.444 56.5366 341.067 55.9855C340.704 55.6229 340.516 55.0572 340.139 54.506L333.307 39.3634C333.307 39.1748 333.118 39.1748 332.944 39.1748H332.582C332.393 39.1748 332.393 39.3634 332.393 39.5375V57.2764C332.393 57.8275 332.205 58.0161 331.653 58.0161H328.129C327.578 58.0161 327.389 57.8275 327.389 57.2764V37.8694C327.389 36.5786 327.578 35.6503 327.94 35.0991C328.303 34.5479 329.231 34.3594 330.348 34.3594H334.047H333.858Z" fill="url(#paint12_linear_10015_342)"/>
</g>
<defs>
<linearGradient id="paint0_linear_10015_342" x1="52.2714" y1="52.6484" x2="52.2714" y2="87.5642" gradientUnits="userSpaceOnUse">
<stop offset="0.18" stop-color="#242124"/>
<stop offset="1" stop-color="#5C5C5C" stop-opacity="0.6"/>
</linearGradient>
<linearGradient id="paint1_linear_10015_342" x1="62.0539" y1="31.9678" x2="62.0539" y2="80.3726" gradientUnits="userSpaceOnUse">
<stop offset="0.18" stop-color="#242124"/>
<stop offset="1" stop-color="#5C5C5C" stop-opacity="0.6"/>
</linearGradient>
<linearGradient id="paint2_linear_10015_342" x1="41.4483" y1="0" x2="41.4483" y2="92.3641" gradientUnits="userSpaceOnUse">
<stop offset="0.18" stop-color="#242124"/>
<stop offset="1" stop-color="#5C5C5C" stop-opacity="0.6"/>
</linearGradient>
<linearGradient id="paint3_linear_10015_342" x1="24.6619" y1="23.833" x2="24.6619" y2="80.5453" gradientUnits="userSpaceOnUse">
<stop offset="0.18" stop-color="#242124"/>
<stop offset="1" stop-color="#5C5C5C" stop-opacity="0.6"/>
</linearGradient>
<linearGradient id="paint4_linear_10015_342" x1="38.3241" y1="23.6592" x2="38.3241" y2="87.5656" gradientUnits="userSpaceOnUse">
<stop offset="0.18" stop-color="#242124"/>
<stop offset="1" stop-color="#5C5C5C" stop-opacity="0.6"/>
</linearGradient>
<linearGradient id="paint5_linear_10015_342" x1="118.27" y1="34.3594" x2="118.27" y2="58.0016" gradientUnits="userSpaceOnUse">
<stop offset="0.18" stop-color="#242124"/>
<stop offset="1" stop-color="#5C5C5C" stop-opacity="0.6"/>
</linearGradient>
<linearGradient id="paint6_linear_10015_342" x1="153.234" y1="34.3594" x2="153.234" y2="58.1756" gradientUnits="userSpaceOnUse">
<stop offset="0.18" stop-color="#242124"/>
<stop offset="1" stop-color="#5C5C5C" stop-opacity="0.6"/>
</linearGradient>
<linearGradient id="paint7_linear_10015_342" x1="187.487" y1="34.3594" x2="187.487" y2="58.1901" gradientUnits="userSpaceOnUse">
<stop offset="0.18" stop-color="#242124"/>
<stop offset="1" stop-color="#5C5C5C" stop-opacity="0.6"/>
</linearGradient>
<linearGradient id="paint8_linear_10015_342" x1="211.754" y1="34.3594" x2="211.754" y2="58.0016" gradientUnits="userSpaceOnUse">
<stop offset="0.18" stop-color="#242124"/>
<stop offset="1" stop-color="#5C5C5C" stop-opacity="0.6"/>
</linearGradient>
<linearGradient id="paint9_linear_10015_342" x1="235.946" y1="34.3594" x2="235.946" y2="58.0016" gradientUnits="userSpaceOnUse">
<stop offset="0.18" stop-color="#242124"/>
<stop offset="1" stop-color="#5C5C5C" stop-opacity="0.6"/>
</linearGradient>
<linearGradient id="paint10_linear_10015_342" x1="270.531" y1="34.3594" x2="270.531" y2="58.1756" gradientUnits="userSpaceOnUse">
<stop offset="0.18" stop-color="#242124"/>
<stop offset="1" stop-color="#5C5C5C" stop-opacity="0.6"/>
</linearGradient>
<linearGradient id="paint11_linear_10015_342" x1="304.783" y1="34.3594" x2="304.783" y2="58.0016" gradientUnits="userSpaceOnUse">
<stop offset="0.18" stop-color="#242124"/>
<stop offset="1" stop-color="#5C5C5C" stop-opacity="0.6"/>
</linearGradient>
<linearGradient id="paint12_linear_10015_342" x1="345.404" y1="34.3594" x2="345.404" y2="58.0161" gradientUnits="userSpaceOnUse">
<stop offset="0.18" stop-color="#242124"/>
<stop offset="1" stop-color="#5C5C5C" stop-opacity="0.6"/>
</linearGradient>
</defs>
</svg>
