<svg width="372" height="101" viewBox="0 0 372 101" fill="none" xmlns="http://www.w3.org/2000/svg">
<g opacity="0.5">
<path d="M111.301 37.8674V100.161H90.3051V37.8674C90.3051 28.5674 82.7333 20.9956 73.4333 20.9956V0C94.3091 0 111.301 16.983 111.301 37.8674ZM0 80.466V100.153H20.9956V80.466C20.9956 71.166 28.5588 63.5943 37.8674 63.5943V42.5987C16.983 42.5987 0 59.5902 0 80.466ZM66.1439 20.9186H45.1482V100.153H66.1439V20.9186Z" fill="url(#paint0_linear_10561_12)"/>
<path d="M147.851 100.563C145.395 100.563 143.213 100.153 141.314 99.3227C139.415 98.4928 137.918 97.2437 136.822 95.5582C135.727 93.8813 135.18 91.768 135.18 89.227C135.18 87.0881 135.556 85.2828 136.309 83.8113C137.062 82.3397 138.097 81.1419 139.423 80.2264C140.741 79.3024 142.264 78.6094 143.983 78.1303C145.703 77.6512 147.543 77.3346 149.502 77.1635C151.692 76.9667 153.455 76.7528 154.789 76.5218C156.124 76.2994 157.099 75.9743 157.707 75.5465C158.314 75.1187 158.622 74.5198 158.622 73.7327V73.6043C158.622 72.321 158.177 71.32 157.296 70.6184C156.415 69.9169 155.217 69.5661 153.711 69.5661C152.086 69.5661 150.785 69.9169 149.801 70.6184C148.817 71.32 148.184 72.2868 147.919 73.5273L136.608 73.1252C136.942 70.781 137.806 68.6934 139.201 66.8454C140.595 64.9974 142.52 63.5429 144.967 62.482C147.414 61.4211 150.357 60.8906 153.805 60.8906C156.261 60.8906 158.528 61.1815 160.599 61.7548C162.669 62.3365 164.474 63.1664 166.014 64.2616C167.554 65.3567 168.744 66.6999 169.591 68.2827C170.429 69.8741 170.857 71.6879 170.857 73.7241V99.9045H159.332V94.5401H159.033C158.348 95.8405 157.476 96.9442 156.415 97.8511C155.354 98.758 154.105 99.4339 152.676 99.8788C151.247 100.332 149.639 100.563 147.851 100.563ZM151.632 92.538C152.95 92.538 154.148 92.2728 155.209 91.7338C156.269 91.2034 157.116 90.459 157.75 89.5179C158.383 88.5768 158.708 87.4731 158.708 86.224V82.5621C158.357 82.7418 157.929 82.9129 157.442 83.0584C156.945 83.2124 156.406 83.3493 155.825 83.4861C155.243 83.623 154.635 83.7343 154.019 83.8369C153.403 83.9396 152.804 84.0337 152.24 84.1107C151.085 84.2904 150.101 84.5813 149.297 84.9663C148.484 85.3513 147.868 85.8475 147.44 86.455C147.012 87.0624 146.798 87.7896 146.798 88.6281C146.798 89.8943 147.252 90.8697 148.167 91.537C149.074 92.2044 150.229 92.538 151.632 92.538Z" fill="url(#paint1_linear_10561_12)"/>
<path d="M174.416 99.9126V61.3949H186.326V68.4192H186.728C187.429 65.8781 188.576 63.9873 190.167 62.7382C191.758 61.4976 193.606 60.873 195.711 60.873C196.276 60.873 196.866 60.9073 197.465 60.9843C198.064 61.0613 198.629 61.1725 199.142 61.3265V71.9869C198.56 71.7901 197.79 71.6275 196.849 71.5077C195.908 71.388 195.061 71.3281 194.325 71.3281C192.871 71.3281 191.562 71.6532 190.398 72.2949C189.234 72.9365 188.328 73.8349 187.66 74.9813C187.001 76.1278 186.668 77.471 186.668 79.0025V99.9126H174.416Z" fill="url(#paint2_linear_10561_12)"/>
<path d="M225.364 90.5106C225.099 90.579 224.696 90.656 224.175 90.7501C223.644 90.8442 223.148 90.887 222.686 90.887C222.036 90.887 221.471 90.7929 221.009 90.5961C220.538 90.4079 220.188 90.0742 219.939 89.6122C219.7 89.1502 219.572 88.5513 219.572 87.7984V70.4218H226.519V61.3956H219.572V52.1641H207.311V61.3956H202.221V70.4218H207.311V89.1502C207.277 91.7597 207.799 93.9243 208.877 95.644C209.955 97.3637 211.521 98.6299 213.566 99.4427C215.61 100.255 218.074 100.589 220.949 100.461C222.421 100.392 223.687 100.23 224.748 99.9817C225.809 99.7336 226.63 99.5197 227.22 99.3571L225.364 90.5106Z" fill="url(#paint3_linear_10561_12)"/>
<path d="M242.323 77.9415V99.9124H230.062V48.5527H241.921V68.4618H242.348C243.221 66.0919 244.641 64.2353 246.626 62.892C248.611 61.5573 251.032 60.89 253.916 60.89C256.628 60.89 258.981 61.4889 260.991 62.6867C262.993 63.8845 264.559 65.5614 265.663 67.7345C266.775 69.9077 267.322 72.4487 267.305 75.3576V99.9124H255.045V77.7703C255.062 75.6314 254.523 73.9631 253.437 72.7567C252.35 71.5504 250.819 70.9515 248.851 70.9515C247.559 70.9515 246.429 71.2338 245.454 71.7899C244.479 72.346 243.717 73.1503 243.17 74.1855C242.622 75.2207 242.34 76.4699 242.323 77.9415Z" fill="url(#paint4_linear_10561_12)"/>
<path d="M307.681 83.6145V80.5515C307.681 77.3945 307.219 74.5883 306.303 72.1413C305.388 69.6944 304.096 67.6325 302.445 65.9556C300.793 64.2872 298.826 63.021 296.55 62.1654C294.274 61.3099 291.767 60.8906 289.029 60.8906C285.154 60.8906 281.783 61.7205 278.925 63.3889C276.068 65.0487 273.852 67.3758 272.277 70.3618C270.703 73.3477 269.916 76.8298 269.916 80.8082C269.916 84.9064 270.695 88.4313 272.26 91.4001C273.826 94.3689 276.059 96.6448 278.976 98.2447C281.894 99.8446 285.368 100.64 289.397 100.64C292.76 100.64 295.72 100.127 298.278 99.1002C300.836 98.0735 302.907 96.6276 304.489 94.7625C306.072 92.8974 307.09 90.7071 307.561 88.1832L296.302 87.8581C295.985 88.7137 295.506 89.4323 294.873 90.0141C294.24 90.5959 293.478 91.0408 292.589 91.3402C291.707 91.6397 290.715 91.7937 289.628 91.7937C288.054 91.7937 286.702 91.4686 285.564 90.8183C284.426 90.1681 283.545 89.2527 282.929 88.072C282.313 86.8913 282.005 85.5138 282.005 83.9481V83.623H307.681V83.6145ZM285.581 70.6612C286.668 70.0537 287.891 69.7457 289.269 69.7457C290.621 69.7457 291.819 70.0366 292.871 70.6099C293.915 71.1916 294.736 71.9873 295.343 73.0054C295.942 74.0236 296.259 75.1871 296.267 76.4876H282.014C282.074 75.247 282.399 74.1262 282.998 73.1423C283.639 72.0986 284.495 71.2686 285.581 70.6612Z" fill="url(#paint5_linear_10561_12)"/>
<path d="M310.443 99.9126V61.3949H322.353V68.4192H322.755C323.457 65.8781 324.603 63.9873 326.194 62.7382C327.786 61.4976 329.634 60.873 331.738 60.873C332.303 60.873 332.893 60.9073 333.492 60.9843C334.091 61.0613 334.656 61.1725 335.169 61.3265V71.9869C334.587 71.7901 333.817 71.6275 332.876 71.5077C331.935 71.388 331.088 71.3281 330.352 71.3281C328.898 71.3281 327.589 71.6532 326.425 72.2949C325.262 72.9365 324.355 73.8349 323.688 74.9813C323.029 76.1278 322.695 77.471 322.695 79.0025V99.9126H310.443Z" fill="url(#paint6_linear_10561_12)"/>
<path d="M348.995 100.563C346.54 100.563 344.358 100.153 342.459 99.3227C340.559 98.4928 339.062 97.2437 337.967 95.5582C336.872 93.8813 336.324 91.768 336.324 89.227C336.324 87.0881 336.701 85.2828 337.454 83.8113C338.206 82.3397 339.242 81.1419 340.568 80.2264C341.885 79.3024 343.408 78.6094 345.128 78.1303C346.848 77.6512 348.687 77.3346 350.646 77.1635C352.837 76.9667 354.599 76.7528 355.934 76.5218C357.268 76.2994 358.244 75.9743 358.851 75.5465C359.459 75.1187 359.767 74.5198 359.767 73.7327V73.6043C359.767 72.321 359.322 71.32 358.441 70.6184C357.559 69.9169 356.362 69.5661 354.856 69.5661C353.23 69.5661 351.93 69.9169 350.946 70.6184C349.962 71.32 349.329 72.2868 349.064 73.5273L337.753 73.1252C338.087 70.781 338.951 68.6934 340.345 66.8454C341.74 64.9974 343.665 63.5429 346.112 62.482C348.559 61.4211 351.511 60.8906 354.95 60.8906C357.405 60.8906 359.673 61.1815 361.743 61.7548C363.814 62.3365 365.619 63.1664 367.159 64.2616C368.699 65.3567 369.888 66.6999 370.735 68.2827C371.574 69.8741 372.001 71.6879 372.001 73.7241V99.9045H360.468V94.5401H360.169C359.484 95.8405 358.612 96.9442 357.551 97.8511C356.49 98.758 355.241 99.4339 353.812 99.8788C352.4 100.332 350.783 100.563 348.995 100.563ZM352.785 92.538C354.103 92.538 355.301 92.2728 356.362 91.7338C357.422 91.2034 358.269 90.459 358.903 89.5179C359.536 88.5768 359.861 87.4731 359.861 86.224V82.5621C359.51 82.7418 359.082 82.9129 358.595 83.0584C358.098 83.2124 357.559 83.3493 356.978 83.4861C356.396 83.623 355.788 83.7343 355.172 83.8369C354.556 83.9396 353.957 84.0337 353.393 84.1107C352.238 84.2904 351.254 84.5813 350.45 84.9663C349.637 85.3513 349.021 85.8475 348.593 86.455C348.165 87.0624 347.951 87.7896 347.951 88.6281C347.951 89.8943 348.405 90.8697 349.32 91.537C350.227 92.2044 351.382 92.538 352.785 92.538Z" fill="url(#paint7_linear_10561_12)"/>
</g>
<defs>
<linearGradient id="paint0_linear_10561_12" x1="55.6503" y1="0" x2="55.6503" y2="100.161" gradientUnits="userSpaceOnUse">
<stop offset="0.18" stop-color="#242124"/>
<stop offset="1" stop-color="#5C5C5C" stop-opacity="0.6"/>
</linearGradient>
<linearGradient id="paint1_linear_10561_12" x1="153.018" y1="60.8906" x2="153.018" y2="100.563" gradientUnits="userSpaceOnUse">
<stop offset="0.18" stop-color="#242124"/>
<stop offset="1" stop-color="#5C5C5C" stop-opacity="0.6"/>
</linearGradient>
<linearGradient id="paint2_linear_10561_12" x1="186.779" y1="60.873" x2="186.779" y2="99.9126" gradientUnits="userSpaceOnUse">
<stop offset="0.18" stop-color="#242124"/>
<stop offset="1" stop-color="#5C5C5C" stop-opacity="0.6"/>
</linearGradient>
<linearGradient id="paint3_linear_10561_12" x1="214.721" y1="52.1641" x2="214.721" y2="100.487" gradientUnits="userSpaceOnUse">
<stop offset="0.18" stop-color="#242124"/>
<stop offset="1" stop-color="#5C5C5C" stop-opacity="0.6"/>
</linearGradient>
<linearGradient id="paint4_linear_10561_12" x1="248.684" y1="48.5527" x2="248.684" y2="99.9124" gradientUnits="userSpaceOnUse">
<stop offset="0.18" stop-color="#242124"/>
<stop offset="1" stop-color="#5C5C5C" stop-opacity="0.6"/>
</linearGradient>
<linearGradient id="paint5_linear_10561_12" x1="288.798" y1="60.8906" x2="288.798" y2="100.64" gradientUnits="userSpaceOnUse">
<stop offset="0.18" stop-color="#242124"/>
<stop offset="1" stop-color="#5C5C5C" stop-opacity="0.6"/>
</linearGradient>
<linearGradient id="paint6_linear_10561_12" x1="322.806" y1="60.873" x2="322.806" y2="99.9126" gradientUnits="userSpaceOnUse">
<stop offset="0.18" stop-color="#242124"/>
<stop offset="1" stop-color="#5C5C5C" stop-opacity="0.6"/>
</linearGradient>
<linearGradient id="paint7_linear_10561_12" x1="354.163" y1="60.8906" x2="354.163" y2="100.563" gradientUnits="userSpaceOnUse">
<stop offset="0.18" stop-color="#242124"/>
<stop offset="1" stop-color="#5C5C5C" stop-opacity="0.6"/>
</linearGradient>
</defs>
</svg>
