<svg width="405" height="74" viewBox="0 0 405 74" fill="none" xmlns="http://www.w3.org/2000/svg">
<g opacity="0.5">
<mask id="mask0_10015_378" style="mask-type:luminance" maskUnits="userSpaceOnUse" x="0" y="0" width="405" height="74">
<path d="M404.178 0H0.741211V73.0527H404.178V0Z" fill="white"/>
</mask>
<g mask="url(#mask0_10015_378)">
<path d="M64.3677 44.1763C65.6653 41.966 68.888 41.966 70.1714 44.1763L83.9607 67.7334C85.2582 69.9438 83.6326 72.6958 81.0516 72.6958H53.4733C50.892 72.6958 49.2808 69.9438 50.5642 67.7334L64.3532 44.1763H64.3677Z" fill="url(#paint0_linear_10015_378)"/>
<path d="M56.0389 28.4916C57.2937 26.2956 57.2937 23.5863 56.0389 21.376L44.7308 1.65477C43.4618 -0.555495 40.2962 -0.555495 39.0269 1.65477L1.18157 67.7203C-0.0875508 69.9304 1.49528 72.6968 4.03352 72.6968H26.6352C29.1592 72.6968 31.4836 71.3422 32.7384 69.1463L56.0247 28.4916H56.0389Z" fill="url(#paint1_linear_10015_378)"/>
<path d="M134.256 67.1906V72.6951H130.977C127.055 72.6951 125.586 70.998 125.529 68.1176C123.533 71.0408 120.424 73.0374 115.747 73.0374C109.244 73.0374 104.724 69.8147 104.724 64.2532C104.724 58.0362 109.116 54.6422 117.444 54.6422H124.888V52.8311C124.888 49.4945 122.492 47.4409 118.385 47.4409C114.692 47.4409 112.239 49.195 111.768 51.833H105.494C106.193 46.0293 111.112 42.3359 118.684 42.3359C126.256 42.3359 131.162 46.1433 131.162 53.2303V65.2372C131.162 66.763 131.689 67.1765 133.03 67.1765H134.256V67.1906ZM124.888 59.3337H117.159C113.294 59.3337 111.127 60.8023 111.127 63.8398C111.127 66.3638 113.237 68.1176 116.631 68.1176C121.793 68.1176 124.888 65.0089 124.888 60.5028V59.3337Z" fill="url(#paint2_linear_10015_378)"/>
<path d="M148.03 72.6948L136.665 42.6924H143.467L152.023 65.8927L160.521 42.6924H167.195L155.773 72.6948H148.044H148.03Z" fill="url(#paint3_linear_10015_378)"/>
<path d="M199.51 67.1906V72.6951H196.23C192.309 72.6951 190.84 70.998 190.783 68.1176C188.787 71.0408 185.678 73.0374 181.001 73.0374C174.498 73.0374 169.978 69.8147 169.978 64.2532C169.978 58.0362 174.37 54.6422 182.698 54.6422H190.142V52.8311C190.142 49.4945 187.746 47.4409 183.639 47.4409C179.945 47.4409 177.493 49.195 177.022 51.833H170.748C171.447 46.0293 176.366 42.3359 183.938 42.3359C191.51 42.3359 196.416 46.1433 196.416 53.2303V65.2372C196.416 66.763 196.943 67.1765 198.284 67.1765H199.51V67.1906ZM190.127 59.3337H182.398C178.534 59.3337 176.366 60.8023 176.366 63.8398C176.366 66.3638 178.477 68.1176 181.871 68.1176C187.033 68.1176 190.127 65.0089 190.127 60.5028V59.3337Z" fill="url(#paint4_linear_10015_378)"/>
<path d="M228.484 67.1375V72.6987H204.114V67.1375H213.169V37.6483L204.114 40.6427V35.0528L211.857 32.0869H219.501V67.1517H228.498L228.484 67.1375Z" fill="url(#paint5_linear_10015_378)"/>
<path d="M262.239 67.1906V72.6951H258.959C255.038 72.6951 253.569 70.998 253.512 68.1176C251.516 71.0408 248.407 73.0374 243.73 73.0374C237.228 73.0374 232.707 69.8147 232.707 64.2532C232.707 58.0362 237.099 54.6422 245.427 54.6422H252.871V52.8311C252.871 49.4945 250.475 47.4409 246.368 47.4409C242.675 47.4409 240.222 49.195 239.752 51.833H233.477C234.176 46.0293 239.096 42.3359 246.668 42.3359C254.24 42.3359 259.145 46.1433 259.145 53.2303V65.2372C259.145 66.763 259.672 67.1765 261.013 67.1765H262.239V67.1906ZM252.871 59.3337H245.142C241.277 59.3337 239.11 60.8023 239.11 63.8398C239.11 66.3638 241.22 68.1176 244.614 68.1176C249.776 68.1176 252.871 65.0089 252.871 60.5028V59.3337Z" fill="url(#paint6_linear_10015_378)"/>
<path d="M296.12 55.5834V72.6951H289.732V56.1681C289.732 50.8348 287.45 47.9116 282.93 47.9116C278.181 47.9116 275.315 51.3626 275.315 57.1662V72.6951H268.984V42.6924H274.488L275.187 46.614C276.998 44.2752 279.821 42.3359 284.384 42.3359C290.773 42.3359 296.106 45.7869 296.106 55.5834H296.12Z" fill="url(#paint7_linear_10015_378)"/>
<path d="M303.892 57.7509C303.892 48.4963 309.81 42.3359 318.836 42.3359C326.508 42.3359 331.312 46.614 332.484 53.4158H325.867C325.04 49.8937 322.529 47.7262 318.722 47.7262C313.688 47.7262 310.337 51.89 310.337 57.7509C310.337 63.6115 313.674 67.6472 318.722 67.6472C322.472 67.6472 325.053 65.4226 325.809 61.9575H332.484C331.37 68.7593 326.266 73.0374 318.651 73.0374C309.624 73.0374 303.877 67.1195 303.877 57.7509H303.892Z" fill="url(#paint8_linear_10015_378)"/>
<path d="M367.516 55.5849V72.6966H361.128V56.1126C361.128 50.9503 358.848 47.9131 354.157 47.9131C349.466 47.9131 346.426 51.4352 346.426 57.1107V72.6966H340.096V31.6855H346.426V46.5157C348.48 43.9348 351.588 42.3519 355.625 42.3519C362.654 42.3519 367.516 46.5157 367.516 55.599V55.5849Z" fill="url(#paint9_linear_10015_378)"/>
<path d="M381.621 59.1639V59.4633C381.791 64.5541 384.956 67.9049 389.876 67.9049C393.627 67.9049 396.493 65.9657 397.32 62.629H403.65C402.594 68.5466 397.62 73.0527 390.233 73.0527C380.864 73.0527 375.004 66.9638 375.004 57.7665C375.004 48.5689 380.864 42.3516 389.589 42.3516C398.318 42.3516 404.008 47.8558 404.178 56.6541C404.178 57.2958 404.12 58.2939 404.008 59.1781H381.621V59.1639ZM381.849 54.4154H397.603C397.075 49.9663 394.026 47.4423 389.635 47.4423C385.713 47.4423 382.303 50.1373 381.833 54.4154H381.849Z" fill="url(#paint10_linear_10015_378)"/>
</g>
</g>
<defs>
<linearGradient id="paint0_linear_10015_378" x1="67.2654" y1="42.5186" x2="67.2654" y2="72.6958" gradientUnits="userSpaceOnUse">
<stop offset="0.18" stop-color="#242124"/>
<stop offset="1" stop-color="#5C5C5C" stop-opacity="0.4"/>
</linearGradient>
<linearGradient id="paint1_linear_10015_378" x1="28.8572" y1="-0.00292969" x2="28.8572" y2="72.6968" gradientUnits="userSpaceOnUse">
<stop offset="0.18" stop-color="#242124"/>
<stop offset="1" stop-color="#5C5C5C" stop-opacity="0.4"/>
</linearGradient>
<linearGradient id="paint2_linear_10015_378" x1="119.49" y1="42.3359" x2="119.49" y2="73.0374" gradientUnits="userSpaceOnUse">
<stop offset="0.18" stop-color="#242124"/>
<stop offset="1" stop-color="#5C5C5C" stop-opacity="0.4"/>
</linearGradient>
<linearGradient id="paint3_linear_10015_378" x1="151.93" y1="42.6924" x2="151.93" y2="72.6948" gradientUnits="userSpaceOnUse">
<stop offset="0.18" stop-color="#242124"/>
<stop offset="1" stop-color="#5C5C5C" stop-opacity="0.4"/>
</linearGradient>
<linearGradient id="paint4_linear_10015_378" x1="184.744" y1="42.3359" x2="184.744" y2="73.0374" gradientUnits="userSpaceOnUse">
<stop offset="0.18" stop-color="#242124"/>
<stop offset="1" stop-color="#5C5C5C" stop-opacity="0.4"/>
</linearGradient>
<linearGradient id="paint5_linear_10015_378" x1="216.306" y1="32.0869" x2="216.306" y2="72.6987" gradientUnits="userSpaceOnUse">
<stop offset="0.18" stop-color="#242124"/>
<stop offset="1" stop-color="#5C5C5C" stop-opacity="0.4"/>
</linearGradient>
<linearGradient id="paint6_linear_10015_378" x1="247.473" y1="42.3359" x2="247.473" y2="73.0374" gradientUnits="userSpaceOnUse">
<stop offset="0.18" stop-color="#242124"/>
<stop offset="1" stop-color="#5C5C5C" stop-opacity="0.4"/>
</linearGradient>
<linearGradient id="paint7_linear_10015_378" x1="282.552" y1="42.3359" x2="282.552" y2="72.6951" gradientUnits="userSpaceOnUse">
<stop offset="0.18" stop-color="#242124"/>
<stop offset="1" stop-color="#5C5C5C" stop-opacity="0.4"/>
</linearGradient>
<linearGradient id="paint8_linear_10015_378" x1="318.181" y1="42.3359" x2="318.181" y2="73.0374" gradientUnits="userSpaceOnUse">
<stop offset="0.18" stop-color="#242124"/>
<stop offset="1" stop-color="#5C5C5C" stop-opacity="0.4"/>
</linearGradient>
<linearGradient id="paint9_linear_10015_378" x1="353.806" y1="31.6855" x2="353.806" y2="72.6966" gradientUnits="userSpaceOnUse">
<stop offset="0.18" stop-color="#242124"/>
<stop offset="1" stop-color="#5C5C5C" stop-opacity="0.4"/>
</linearGradient>
<linearGradient id="paint10_linear_10015_378" x1="389.591" y1="42.3516" x2="389.591" y2="73.0527" gradientUnits="userSpaceOnUse">
<stop offset="0.18" stop-color="#242124"/>
<stop offset="1" stop-color="#5C5C5C" stop-opacity="0.4"/>
</linearGradient>
</defs>
</svg>
