<svg width="468" height="104" viewBox="0 0 468 104" fill="none" xmlns="http://www.w3.org/2000/svg">
<g opacity="0.5">
<path d="M177.601 81.1H161.301V35.5H177.701C182.301 35.5 186.301 36.4 189.601 38.2C192.901 40 195.501 42.6 197.301 46C199.101 49.4 200.001 53.4 200.001 58.2C200.001 63 199.101 67 197.301 70.4C195.501 73.8 192.901 76.4 189.501 78.3C186.201 80.2 182.201 81.1 177.601 81.1ZM171.001 72.8H177.201C181.501 72.8 184.801 71.7 187.001 69.3C189.201 67 190.301 63.3 190.301 58.2C190.301 53.2 189.201 49.5 187.001 47.2C184.801 44.9 181.501 43.8 177.201 43.8H171.001V72.8Z" fill="url(#paint0_linear_10539_196)"/>
<path d="M207.3 81.1006H196.9L212.8 35.6006H225.4L241.2 81.1006H230.8L227.4 70.7006H210.8L207.3 81.1006ZM213.2 63.2006H224.9L219.3 46.0006H218.9L213.2 63.2006Z" fill="url(#paint1_linear_10539_196)"/>
<path d="M281.001 58.3004C281.001 63.3004 280.001 67.5004 278.101 71.0004C276.201 74.5004 273.601 77.1004 270.401 79.0004C267.101 80.8004 263.501 81.8004 259.401 81.8004C255.301 81.8004 251.601 80.9004 248.401 79.0004C245.101 77.1004 242.601 74.5004 240.701 71.0004C238.801 67.5004 237.801 63.3004 237.801 58.4004C237.801 53.4004 238.801 49.2004 240.701 45.7004C242.601 42.2004 245.101 39.6004 248.401 37.7004C251.701 35.9004 255.301 34.9004 259.401 34.9004C263.501 34.9004 267.101 35.8004 270.401 37.7004C273.701 39.5004 276.201 42.2004 278.101 45.7004C280.101 49.1004 281.001 53.4004 281.001 58.3004ZM271.201 58.3004C271.201 53.5004 270.101 49.8004 268.001 47.3004C265.901 44.8004 263.001 43.5004 259.501 43.5004C256.001 43.5004 253.101 44.8004 251.001 47.3004C248.901 49.9004 247.801 53.5004 247.801 58.3004C247.801 63.1004 248.901 66.8004 251.001 69.3004C253.101 71.8004 256.001 73.1004 259.501 73.1004C263.001 73.1004 265.901 71.8004 268.001 69.3004C270.101 66.8004 271.201 63.1004 271.201 58.3004Z" fill="url(#paint2_linear_10539_196)"/>
<path d="M294.1 35.5H306.1L318.8 66.1H319.3L332 35.5H343.9V81.1H334.4V51.4H334L322.1 80.8H315.7L303.8 51.3H303.4V81.1H293.9V35.5H294.1Z" fill="url(#paint3_linear_10539_196)"/>
<path d="M358.1 81.7004C354.8 81.7004 352.1 80.9004 349.9 79.1004C347.7 77.4004 346.6 74.8004 346.6 71.5004C346.6 69.0004 347.2 66.9004 348.4 65.5004C349.6 64.1004 351.2 63.0004 353.2 62.3004C355.1 61.6004 357.3 61.2004 359.6 61.0004C362.6 60.7004 364.8 60.4004 366 60.0004C367.3 59.6004 367.9 59.0004 367.9 57.8004V57.7004C367.9 56.3004 367.5 55.2004 366.6 54.5004C365.7 53.7004 364.5 53.4004 362.8 53.4004C361.1 53.4004 359.7 53.8004 358.7 54.5004C357.7 55.2004 357 56.2004 356.7 57.3004L347.8 56.6004C348.5 53.5004 350.1 51.0004 352.7 49.2004C355.3 47.4004 358.7 46.4004 362.8 46.4004C365.3 46.4004 367.8 46.8004 370 47.6004C372.2 48.4004 374 49.6004 375.4 51.3004C376.8 53.0004 377.5 55.2004 377.5 57.9004V81.0004H368.4V76.3004H368.2C367.4 77.9004 366.1 79.2004 364.4 80.2004C362.8 81.2004 360.6 81.7004 358.1 81.7004ZM360.8 75.2004C362.9 75.2004 364.6 74.6004 366 73.4004C367.3 72.2004 368 70.7004 368 68.9004V65.3004C367.6 65.5004 367 65.8004 366.2 66.0004C365.4 66.2004 364.6 66.4004 363.7 66.5004C362.8 66.6004 362 66.7004 361.3 66.9004C359.6 67.1004 358.3 67.6004 357.2 68.3004C356.2 69.0004 355.7 70.0004 355.7 71.4004C355.7 72.7004 356.2 73.7004 357.2 74.3004C358.1 74.8004 359.4 75.2004 360.8 75.2004Z" fill="url(#paint4_linear_10539_196)"/>
<path d="M381.201 81.1V35.5H390.801V59.8H391.301L402.301 46.8H413.301L400.501 61.6L414.001 81H402.801L393.301 67.3L390.701 70.2V81.1H381.201Z" fill="url(#paint5_linear_10539_196)"/>
<path d="M427.8 81.8C424.3 81.8 421.2 81.1 418.6 79.6C416.1 78.2 414 76.1 412.7 73.5C411.3 70.9 410.6 67.7 410.6 64.1C410.6 60.6 411.3 57.5 412.7 54.9C414.1 52.3 416 50.2 418.5 48.7C421 47.2 424 46.5 427.4 46.5C430.4 46.5 433.2 47.2 435.6 48.4C438 49.7 440 51.6 441.4 54.2C442.9 56.8 443.6 60 443.6 63.9V66.5H420.1C420.1 69 420.8 71.1 422.2 72.5C423.6 73.9 425.5 74.7 427.9 74.7C429.5 74.7 430.9 74.3 432 73.7C433.2 73 434 72 434.5 70.8L443.4 71.4C442.7 74.6 441 77.1 438.3 79C435.7 80.8 432.2 81.8 427.8 81.8ZM420.2 60.6H434.7C434.7 58.6 434 56.9 432.7 55.6C431.4 54.3 429.7 53.6 427.6 53.6C425.5 53.6 423.7 54.3 422.4 55.6C421 57 420.3 58.6 420.2 60.6Z" fill="url(#paint6_linear_10539_196)"/>
<path d="M446.1 81.1004V46.9004H455.4V52.8004H455.8C456.4 50.7004 457.5 49.1004 459 48.0004C460.5 46.9004 462.2 46.4004 464.1 46.4004C465.2 46.4004 466.2 46.5004 467.1 46.8004V55.2004C466.7 55.1004 466 55.0004 465.2 54.8004C464.4 54.7004 463.7 54.7004 463 54.7004C460.9 54.7004 459.1 55.4004 457.8 56.7004C456.4 58.0004 455.7 59.7004 455.7 61.8004V81.1004H446.1Z" fill="url(#paint7_linear_10539_196)"/>
<path d="M0 103L46 17.9L86.5 0L40.5 85.1L0 103Z" fill="url(#paint8_linear_10539_196)"/>
<path d="M45.9004 83.4998L80.8004 18.7998L100.6 38.2998L66.2004 103.1L45.9004 83.4998Z" fill="url(#paint9_linear_10539_196)"/>
<path d="M104.5 40.2998L130.3 49.6998L117.4 73.2998L86.0996 74.3998L104.5 40.2998Z" fill="url(#paint10_linear_10539_196)"/>
</g>
<defs>
<linearGradient id="paint0_linear_10539_196" x1="180.651" y1="35.5" x2="180.651" y2="81.1" gradientUnits="userSpaceOnUse">
<stop stop-color="#242124"/>
<stop offset="0.956731" stop-color="#5C5C5C" stop-opacity="0.6"/>
</linearGradient>
<linearGradient id="paint1_linear_10539_196" x1="219.05" y1="35.6006" x2="219.05" y2="81.1006" gradientUnits="userSpaceOnUse">
<stop stop-color="#242124"/>
<stop offset="0.956731" stop-color="#5C5C5C" stop-opacity="0.6"/>
</linearGradient>
<linearGradient id="paint2_linear_10539_196" x1="259.401" y1="34.9004" x2="259.401" y2="81.8004" gradientUnits="userSpaceOnUse">
<stop stop-color="#242124"/>
<stop offset="0.956731" stop-color="#5C5C5C" stop-opacity="0.6"/>
</linearGradient>
<linearGradient id="paint3_linear_10539_196" x1="318.9" y1="35.5" x2="318.9" y2="81.1" gradientUnits="userSpaceOnUse">
<stop stop-color="#242124"/>
<stop offset="0.956731" stop-color="#5C5C5C" stop-opacity="0.6"/>
</linearGradient>
<linearGradient id="paint4_linear_10539_196" x1="362.05" y1="46.4004" x2="362.05" y2="81.7004" gradientUnits="userSpaceOnUse">
<stop stop-color="#242124"/>
<stop offset="0.956731" stop-color="#5C5C5C" stop-opacity="0.6"/>
</linearGradient>
<linearGradient id="paint5_linear_10539_196" x1="397.601" y1="35.5" x2="397.601" y2="81.1" gradientUnits="userSpaceOnUse">
<stop stop-color="#242124"/>
<stop offset="0.956731" stop-color="#5C5C5C" stop-opacity="0.6"/>
</linearGradient>
<linearGradient id="paint6_linear_10539_196" x1="427.1" y1="46.5" x2="427.1" y2="81.8" gradientUnits="userSpaceOnUse">
<stop stop-color="#242124"/>
<stop offset="0.956731" stop-color="#5C5C5C" stop-opacity="0.6"/>
</linearGradient>
<linearGradient id="paint7_linear_10539_196" x1="456.6" y1="46.4004" x2="456.6" y2="81.1004" gradientUnits="userSpaceOnUse">
<stop stop-color="#242124"/>
<stop offset="0.956731" stop-color="#5C5C5C" stop-opacity="0.6"/>
</linearGradient>
<linearGradient id="paint8_linear_10539_196" x1="87" y1="0" x2="87" y2="78.5" gradientUnits="userSpaceOnUse">
<stop offset="0.18" stop-color="#242124"/>
<stop offset="0.740501" stop-color="#5C5C5C" stop-opacity="0.6"/>
</linearGradient>
<linearGradient id="paint9_linear_10539_196" x1="91" y1="4" x2="92" y2="67.5" gradientUnits="userSpaceOnUse">
<stop offset="0.18" stop-color="#242124"/>
<stop offset="1" stop-color="#5C5C5C" stop-opacity="0.6"/>
</linearGradient>
<linearGradient id="paint10_linear_10539_196" x1="126" y1="46" x2="125" y2="65" gradientUnits="userSpaceOnUse">
<stop offset="0.0670565" stop-color="#242124"/>
<stop offset="1" stop-color="#5C5C5C" stop-opacity="0.6"/>
</linearGradient>
</defs>
</svg>
