<svg width="417" height="58" viewBox="0 0 417 58" fill="none" xmlns="http://www.w3.org/2000/svg">
<g opacity="0.5">
<path d="M71.6353 37.5653L68.7402 40.4564V40.4371L78.4342 30.7432V30.7625L74.9014 34.2992L71.6353 37.5653Z" fill="url(#paint0_linear_10539_214)"/>
<path d="M128.922 53.2482V54.0947C128.922 55.0571 128.581 55.8495 127.901 56.5259C127.225 57.2023 126.432 57.5425 125.528 57.5425H80.0112C79.0526 57.5425 78.2603 57.2023 77.58 56.5259L68.7905 47.6591C68.7596 47.6282 68.7402 47.5818 68.7402 47.5354V43.6393C68.7402 43.5929 68.7596 43.5504 68.7905 43.5156L76.7876 35.5185C77.3944 34.9117 78.4342 35.3407 78.4342 36.2026V42.3909C78.4342 43.3533 78.7705 44.1457 79.4507 44.8182L83.4628 48.8342C84.1392 49.4565 84.9316 49.7966 85.8399 49.7966H125.528C126.432 49.7966 127.221 50.1329 127.901 50.8131C128.578 51.4934 128.922 52.2858 128.922 53.2482Z" fill="url(#paint1_linear_10539_214)"/>
<path d="M264.863 57.792C263.919 57.792 263.143 57.4596 262.474 56.7909C261.809 56.1261 261.473 55.3454 261.473 54.4022V24.5821C261.473 23.639 261.14 22.8621 260.53 22.1934C259.865 21.5286 259.084 21.1924 258.141 21.1924H233.04C232.097 21.1924 231.32 21.5248 230.652 22.1934L226.709 26.136C226.044 26.8008 225.708 27.5815 225.708 28.5247V42.9071C225.708 43.8502 226.04 44.6271 226.709 45.2958L230.652 49.2383C231.316 49.849 232.097 50.1814 233.04 50.1814H250.422C251.365 50.1814 252.142 50.5138 252.811 51.1825C253.422 51.8473 253.754 52.6281 253.754 53.5712V54.4061C253.754 55.3492 253.422 56.1261 252.811 56.7948C252.146 57.4596 251.365 57.7959 250.422 57.7959H227.266C226.323 57.7959 225.546 57.4635 224.935 56.7948L211.716 43.5217C211.051 42.911 210.715 42.1341 210.715 41.1909V30.2524C210.715 29.3093 211.047 28.5324 211.716 27.8637L224.935 14.5906C225.546 13.9799 226.323 13.6475 227.266 13.6475H258.145C259.088 13.6475 259.865 13.9799 260.534 14.5906C261.144 15.2554 261.477 16.0362 261.477 16.9793V17.8683C261.477 18.8114 261.809 19.5883 262.478 20.199C263.143 20.8638 263.923 21.2001 264.866 21.2001H273.142C274.085 21.2001 274.862 21.5325 275.531 22.2012C276.141 22.866 276.474 23.6468 276.474 24.5899V54.4138C276.474 55.3569 276.141 56.1339 275.531 56.8025C274.866 57.4674 274.085 57.8036 273.142 57.8036H264.863V57.792Z" fill="url(#paint2_linear_10539_214)"/>
<path d="M336.071 57.8622C335.139 57.8622 334.374 57.5336 333.771 56.8765C333.114 56.2194 332.785 55.4541 332.785 54.5226V29.0161C332.785 28.0846 332.457 27.3193 331.8 26.6622L327.915 22.7776C327.258 22.1206 326.493 21.792 325.561 21.792H300.82C299.888 21.792 299.123 22.1206 298.52 22.7776C297.863 23.4347 297.534 24.2 297.534 25.1316V54.5226C297.534 55.4541 297.206 56.2194 296.549 56.8765C295.892 57.5336 295.126 57.8622 294.195 57.8622H286.039C285.108 57.8622 284.343 57.5336 283.74 56.8765C283.082 56.2194 282.754 55.4541 282.754 54.5226V25.1316C282.754 24.2 283.082 23.4347 283.74 22.7776C284.343 22.1206 285.108 21.792 286.039 21.792H294.195C295.126 21.792 295.892 21.4635 296.549 20.8064C297.206 20.2034 297.534 19.4381 297.534 18.5066V17.6292C297.534 16.6977 297.863 15.9324 298.52 15.2753C299.123 14.6723 299.888 14.3438 300.82 14.3438H331.251C332.182 14.3438 332.948 14.6723 333.55 15.2753L346.576 28.3551C347.233 29.0122 347.562 29.7775 347.562 30.7091V54.5187C347.562 55.4503 347.233 56.2156 346.576 56.8727C345.919 57.5297 345.154 57.8583 344.222 57.8583H336.071V57.8622Z" fill="url(#paint3_linear_10539_214)"/>
<path d="M369.949 57.792C369.045 57.792 368.303 57.475 367.665 56.8372L355.022 44.14C354.438 43.5023 354.117 42.7601 354.117 41.8557V26.0277C354.117 25.1232 354.434 24.3811 355.072 23.7433C355.656 23.1056 356.402 22.7886 357.302 22.7886H365.218C366.123 22.7886 366.865 22.4717 367.502 21.8339C368.14 21.2503 368.457 20.454 368.457 19.5496V18.7533C368.457 17.8489 368.774 17.1067 369.412 16.469C369.995 15.8312 370.741 15.5143 371.642 15.5143H399.421C400.326 15.5143 401.068 15.1973 401.706 14.5596C402.343 13.9759 402.66 13.2299 402.66 12.3293V3.45096C402.66 2.5465 402.977 1.80438 403.615 1.16662C404.199 0.528861 404.945 0.211914 405.845 0.211914H413.761C414.666 0.211914 415.408 0.528861 416.046 1.16662C416.683 1.80438 417 2.5465 417 3.45096V54.5529C417 55.4574 416.683 56.1995 416.046 56.8372C415.408 57.475 414.666 57.792 413.761 57.792H369.949ZM401.713 49.5591C402.351 48.9213 402.668 48.1792 402.668 47.2747V26.0277C402.668 25.1232 402.351 24.3811 401.713 23.7433C401.076 23.1056 400.334 22.7886 399.429 22.7886H371.65C370.745 22.7886 370.003 23.1056 369.42 23.7433C368.782 24.3811 368.465 25.1232 368.465 26.0277V43.5023C368.465 44.4067 368.782 45.1488 369.42 45.7866L373.138 49.5591C373.776 50.1968 374.518 50.5138 375.422 50.5138H399.433C400.334 50.5138 401.076 50.1968 401.713 49.5591Z" fill="url(#paint4_linear_10539_214)"/>
<path d="M191.838 57.6408C191.049 57.6408 190.419 57.378 189.894 56.7982C189.314 56.2726 189.051 55.6425 189.051 54.854V41.4533C189.051 40.6648 188.788 40.0348 188.263 39.455L187.107 38.3496C186.581 37.7698 185.951 37.507 185.163 37.507H156.893C156.104 37.507 155.474 37.7698 154.948 38.2955C154.369 38.8753 154.106 39.5053 154.106 40.2938V54.8502C154.106 55.6387 153.843 56.2687 153.317 56.7944C152.737 57.3741 152.107 57.637 151.319 57.637H141.648C140.86 57.637 140.23 57.3741 139.704 56.7944C139.124 56.2687 138.861 55.6387 138.861 54.8502V11.1888C138.861 10.4544 139.124 9.82433 139.704 9.24455C140.23 8.66477 140.86 8.40193 141.648 8.40193H151.265C152.053 8.40193 152.683 8.1391 153.263 7.55932C153.789 7.03365 154.052 6.40362 154.052 5.61512V3.51631C154.052 2.72781 154.314 2.09778 154.894 1.518C155.42 0.992327 156.05 0.729492 156.838 0.729492H185.476C186.264 0.729492 186.894 0.992327 187.474 1.518C188 2.09778 188.263 2.72781 188.263 3.51631V5.61898C188.263 6.40749 188.525 7.03752 189.105 7.56318C189.631 8.14297 190.261 8.4058 190.995 8.4058H200.666C201.455 8.4058 202.085 8.66863 202.664 9.24841C203.19 9.8282 203.453 10.4582 203.453 11.1926V23.2791C203.453 24.0676 203.19 24.6977 202.664 25.2233L194.416 33.5258H194.942L203.453 42.1452C204.033 42.725 204.295 43.355 204.295 44.0894V54.8618C204.295 55.6503 204.033 56.2803 203.507 56.806C202.927 57.3857 202.297 57.6486 201.509 57.6486H191.838V57.6408ZM186.318 29.0035L187.424 27.8981C188.004 27.3183 188.266 26.6882 188.266 25.8997V11.1888C188.266 10.4544 188.004 9.82433 187.478 9.24455C186.898 8.66477 186.268 8.40193 185.48 8.40193H156.893C156.104 8.40193 155.474 8.66477 154.948 9.24455C154.369 9.82433 154.106 10.4544 154.106 11.1888V27.0593C154.106 27.8478 154.369 28.4778 154.948 29.0035C155.474 29.5833 156.104 29.8461 156.893 29.8461H184.324C185.109 29.8461 185.742 29.5833 186.318 29.0035Z" fill="url(#paint5_linear_10539_214)"/>
<path d="M63.7927 10.405V27.7018C63.7927 28.1038 63.6342 28.4903 63.3482 28.7763L56.0584 36.0661C53.9325 38.192 50.2993 36.6845 50.2993 33.6813V13.3734C50.2954 13.3 50.2954 13.2266 50.2915 13.157C50.1756 11.607 50.021 10.2851 49.82 10.03C49.2827 9.38841 48.6913 9.10238 47.9531 9.10238H4.52356C1.99185 9.10238 -0.0528495 7.02677 0.159737 4.50278C0.341402 2.33053 2.16192 0.625977 4.38055 0.625977H52.6068C53.4378 0.973845 54.1761 1.2792 55.0109 1.6232L63.7927 10.405Z" fill="url(#paint6_linear_10539_214)"/>
<path d="M132.356 24.3384C132.356 25.2892 132.024 26.0661 131.351 26.7348L117.309 40.8312V40.9974H93.6888C92.7998 40.9974 92.0191 40.665 91.3465 39.9964C90.6817 39.3857 90.3454 38.601 90.3454 37.654V36.765C90.3454 35.8181 90.6817 35.0412 91.3465 34.3686C92.0191 33.6999 92.7998 33.3675 93.6888 33.3675H110.012C110.904 33.3675 111.685 33.0313 112.354 32.4205L116.327 28.4471C116.957 27.8171 117.309 26.9629 117.309 26.0661V24.2302C117.309 23.2793 116.981 22.5024 116.308 21.8337C115.643 21.1651 114.862 20.8326 113.915 20.8326H85.9468C84.996 20.8326 84.2191 21.1651 83.6084 21.8337C83.5852 21.8569 83.562 21.8801 83.5388 21.9033C83.0479 22.4135 82.8083 23.1209 82.8817 23.8243C82.8972 23.9828 82.9088 24.1451 82.9088 24.3113C82.9088 24.8988 82.8005 25.4632 82.6034 25.985C82.3638 26.6266 81.9888 27.2025 81.5134 27.6779L78.429 30.7624L74.8962 34.299L71.6301 37.5613L68.735 40.4563L61.3409 47.8466V47.8505L52.0141 57.1811C51.7822 57.413 51.473 57.5406 51.1445 57.5406H2.41576C1.7664 57.5406 1.20595 57.2661 0.74212 56.6632C0.235778 56.1143 0 55.4572 0 54.6339V30.743C0 28.192 2.06789 26.1203 4.62279 26.1203H11.0932C13.6442 26.1203 15.7159 28.1881 15.7159 30.743V46.5788C15.7159 47.406 15.9517 48.0631 16.4619 48.6622C16.9258 49.2651 17.4862 49.5396 18.1819 49.5396H45.6327C45.8646 49.5396 46.0772 49.5125 46.2782 49.4507H46.282L47.2483 48.4844L60.9234 34.8054L74.7841 20.9486C74.8227 20.91 74.8614 20.8752 74.9 20.8365C75.7465 20.0441 76.8906 19.5571 78.1468 19.5571C78.9083 19.5571 79.6311 19.7349 80.2688 20.0557C80.7249 20.2838 81.2854 20.2026 81.6448 19.8393C81.6487 19.8354 81.6487 19.8354 81.6526 19.8316C82.2671 19.2209 82.6034 18.4401 82.6034 17.4931V16.6002C82.6034 15.6571 82.9358 14.8725 83.6084 14.2038C84.2191 13.5892 84.996 13.2568 85.9468 13.2568H114.082C115.033 13.2568 115.809 13.5892 116.478 14.2038C117.147 14.8725 117.479 15.6571 117.479 16.6002V17.4931C117.479 18.4401 117.815 19.2209 118.484 19.8316C119.095 20.5002 119.876 20.8365 120.823 20.8365H129.013C129.96 20.8365 130.795 21.1689 131.406 21.8376C132.024 22.5565 132.356 23.3914 132.356 24.3384Z" fill="url(#paint7_linear_10539_214)"/>
</g>
<defs>
<linearGradient id="paint0_linear_10539_214" x1="73.5872" y1="30.7432" x2="73.5872" y2="40.4564" gradientUnits="userSpaceOnUse">
<stop offset="0.18" stop-color="#242124"/>
<stop offset="1" stop-color="#5C5C5C" stop-opacity="0.6"/>
</linearGradient>
<linearGradient id="paint1_linear_10539_214" x1="98.8309" y1="35.2344" x2="98.8309" y2="57.5425" gradientUnits="userSpaceOnUse">
<stop offset="0.18" stop-color="#242124"/>
<stop offset="1" stop-color="#5C5C5C" stop-opacity="0.6"/>
</linearGradient>
<linearGradient id="paint2_linear_10539_214" x1="243.594" y1="13.6475" x2="243.594" y2="57.8036" gradientUnits="userSpaceOnUse">
<stop offset="0.18" stop-color="#242124"/>
<stop offset="1" stop-color="#5C5C5C" stop-opacity="0.6"/>
</linearGradient>
<linearGradient id="paint3_linear_10539_214" x1="315.158" y1="14.3438" x2="315.158" y2="57.8622" gradientUnits="userSpaceOnUse">
<stop offset="0.18" stop-color="#242124"/>
<stop offset="1" stop-color="#5C5C5C" stop-opacity="0.6"/>
</linearGradient>
<linearGradient id="paint4_linear_10539_214" x1="385.559" y1="0.211914" x2="385.559" y2="57.792" gradientUnits="userSpaceOnUse">
<stop offset="0.18" stop-color="#242124"/>
<stop offset="1" stop-color="#5C5C5C" stop-opacity="0.6"/>
</linearGradient>
<linearGradient id="paint5_linear_10539_214" x1="171.578" y1="0.729492" x2="171.578" y2="57.6486" gradientUnits="userSpaceOnUse">
<stop offset="0.18" stop-color="#242124"/>
<stop offset="1" stop-color="#5C5C5C" stop-opacity="0.6"/>
</linearGradient>
<linearGradient id="paint6_linear_10539_214" x1="31.9686" y1="0.625977" x2="31.9686" y2="37.0609" gradientUnits="userSpaceOnUse">
<stop offset="0.18" stop-color="#242124"/>
<stop offset="1" stop-color="#5C5C5C" stop-opacity="0.6"/>
</linearGradient>
<linearGradient id="paint7_linear_10539_214" x1="66.1782" y1="13.2568" x2="66.1782" y2="57.5406" gradientUnits="userSpaceOnUse">
<stop offset="0.18" stop-color="#242124"/>
<stop offset="1" stop-color="#5C5C5C" stop-opacity="0.6"/>
</linearGradient>
</defs>
</svg>
