<svg width="221" height="93" viewBox="0 0 221 93" fill="none" xmlns="http://www.w3.org/2000/svg">
<g opacity="0.5">
<path d="M102.22 44.5948L102.041 43.0709C104.481 42.0999 104.909 40.7558 105.093 38.0766C105.273 36.0673 105.273 33.3836 105.273 31.2528V15.0519C105.273 12.9212 105.273 10.2375 105.093 8.22809C104.913 5.54442 104.481 4.20933 102.041 3.23386L102.22 1.70996C104.603 1.88977 106.244 1.88977 107.772 1.88977H118.992C121.492 1.88977 123.384 1.88977 125.762 1.70996C126.189 4.81619 126.432 7.07281 126.616 10.4218L124.845 10.7275C124.054 8.47084 123.38 7.19418 122.463 6.21871C121.545 5.24324 120.147 4.75326 118.983 4.57344C117.459 4.3262 116.115 4.26777 113.737 4.26777C110.869 4.26777 110.505 4.75325 110.321 7.18969C110.141 9.0777 110.141 11.2714 110.141 13.4651V21.2644C112.218 21.2644 116.488 21.143 118.435 20.9587C121.181 20.653 122.035 19.682 122.952 16.877L124.418 17.1827C124.234 19.5607 124.234 20.8958 124.234 22.4196C124.234 23.9435 124.234 25.3416 124.418 27.7196L122.952 28.0252C122.04 25.2247 121.181 24.3122 118.435 23.9435C116.484 23.6963 112.15 23.6379 110.141 23.6379V31.8642C110.141 33.9949 110.262 37.29 110.321 38.5082C110.442 41.4975 111.481 42.0415 114.227 42.0415C116.974 42.0415 119.051 41.983 120.691 41.7358C122.827 41.4301 123.802 40.576 124.715 39.2994C125.447 38.1396 126.059 36.8629 126.85 34.6063L128.5 34.912C128.194 38.5666 127.708 41.556 127.034 44.7207C122.579 44.4734 117.032 44.415 109.219 44.415C106.23 44.415 104.585 44.415 102.202 44.5948H102.22Z" fill="url(#paint0_linear_10015_394)"/>
<path d="M135.815 25.5241C136.669 23.2091 136.853 22.0493 136.853 21.4424C136.853 21.0783 136.673 20.894 136.368 20.894C135.756 20.894 134.538 21.865 131.733 25.16L130.573 24.1216C134.052 19.0644 136.552 16.7539 138.561 16.7539C139.842 16.7539 141.002 17.9136 141.002 19.7432C141.002 21.6941 140.027 24.3733 139.114 26.8727L135.149 38.0794C134.48 39.909 134.358 40.3944 134.358 40.6372C134.358 40.9429 134.605 41.2441 134.97 41.2441C135.639 41.2441 136.858 40.5743 139.851 36.3127L141.07 37.1668C137.837 43.4422 135.028 45.1459 132.893 45.1459C131.49 45.1459 130.272 43.9277 130.272 42.3454C130.272 40.9429 130.699 39.6033 132.16 35.643L135.819 25.5331V25.5241H135.815ZM140.512 0C142.342 0 143.744 1.39803 143.744 3.2276C143.744 5.05717 142.342 6.4552 140.512 6.4552C138.683 6.4552 137.28 5.05268 137.28 3.2276C137.28 1.39803 138.683 0 140.512 0Z" fill="url(#paint1_linear_10015_394)"/>
<path d="M163.654 5.93436C165.12 7.57963 165.668 9.64745 165.668 11.9041C165.668 17.8738 161.276 22.1398 155.909 22.1398C153.162 22.1398 151.153 21.3486 149.382 19.8832C147.494 21.3486 147.067 22.7467 147.067 24.1492C147.067 25.9203 148.469 27.0711 151.216 27.197L158.597 27.4442C164.517 27.624 167.381 31.1573 167.381 35.729C167.381 41.2132 161.951 46.0231 153.473 46.0231C146.581 46.0231 143.102 42.9753 143.102 38.8352C143.102 35.9717 144.505 33.7151 147.984 31.3416C145.363 30.4291 143.592 28.4197 143.592 25.5517C143.592 23.1737 144.689 20.7373 147.804 18.3638C146.402 16.4758 145.727 14.5248 145.727 11.9086C145.727 6.1816 150.303 1.67285 155.671 1.67285C159.209 1.67285 160.126 2.89107 163.6 2.89107C165.124 2.89107 167.26 2.83263 169.395 2.64383L169.88 3.68223L169.395 5.93886H163.659H163.654V5.93436ZM157.491 32.0653C154.745 32.0653 152.551 32.0653 150.047 31.8855C147.912 33.8949 147.058 35.9043 147.058 37.7968C147.058 40.4175 149.315 42.6112 154.439 42.6112C161.456 42.6112 164.019 39.6219 164.019 36.7629C164.019 33.9039 162.063 32.0698 157.491 32.0698V32.0653ZM150.416 11.5355C150.416 16.8938 152.493 19.7034 155.909 19.7034C159.083 19.7034 161.034 17.5726 161.034 12.2098C161.034 7.15258 158.898 4.10928 155.545 4.10928C152.551 4.10928 150.416 6.42435 150.416 11.5445V11.5355Z" fill="url(#paint2_linear_10015_394)"/>
<path d="M181.639 17.29C187.492 17.29 191.951 21.6145 191.951 27.4673C191.951 27.9528 191.951 28.3799 191.83 28.8653H173.04C172.918 29.5981 172.918 30.2679 172.918 31.1804C172.918 37.4558 176.703 41.7173 181.581 41.7173C185.487 41.7173 187.865 40.3777 190.364 36.786L191.83 37.6985C190 42.2702 186.4 46.0462 180.974 46.0462C173.35 46.0462 168.284 39.591 168.284 32.1559C168.284 23.6868 174.078 17.2945 181.644 17.2945V17.29H181.639ZM186.579 26.4289C186.521 22.2888 183.711 20.0322 180.295 20.0322C176.577 20.0322 174.195 22.8327 173.462 26.4289H186.579Z" fill="url(#paint3_linear_10015_394)"/>
<path d="M217.264 17.2209C217.264 19.1089 217.264 21.2397 217.385 23.1322C217.565 25.627 217.938 26.607 220.19 27.5195L220.01 28.9221C217.875 28.7423 216.531 28.7423 215.128 28.7423C213.726 28.7423 212.382 28.7423 210.247 28.9221L210.067 27.5195C212.323 26.607 212.629 25.6315 212.813 23.1322C212.993 21.2442 212.993 19.1134 212.993 17.2209V10.7657C212.993 7.35829 210.916 5.03873 207.684 5.03873C203.472 5.03873 200.851 7.90221 200.851 11.7996V17.2254C200.851 19.1134 200.851 21.2442 200.973 23.1367C201.157 25.6315 201.526 26.6115 203.778 27.524L203.594 28.9266C201.458 28.7468 200.114 28.7468 198.712 28.7468C197.309 28.7468 195.965 28.7468 193.83 28.9266L193.646 27.524C195.902 26.6115 196.208 25.636 196.392 23.1367C196.576 21.2487 196.576 19.1179 196.576 17.2254V15.7015C196.576 13.8135 196.576 11.8625 196.392 9.97453C196.212 7.47966 195.601 6.92674 193.403 6.49969V5.22304C196.208 3.88345 197.732 2.90798 199.867 0.957031L201.148 1.44252C200.968 3.39346 200.843 5.03873 200.784 6.56263L200.842 6.62106C202.497 3.51484 205.365 1.0784 209.024 1.0784C212.013 1.0784 214.513 2.48093 215.983 4.85443C216.774 6.25695 217.259 7.77635 217.259 10.2128V17.2209H217.264Z" fill="url(#paint4_linear_10015_394)"/>
<path d="M110.147 78.564C110.147 80.6948 110.205 83.9898 110.326 85.208C110.632 88.1929 111.486 88.7413 114.233 88.7413C116.979 88.7413 118.683 88.7413 120.459 88.4356C122.652 88.0086 123.812 87.0331 124.729 85.6351C125.52 84.4753 126.195 83.0728 126.986 80.7038L128.757 81.0094C128.451 84.9113 127.903 88.0175 127.233 91.425C122.41 91.1777 117.042 91.1193 109.234 91.1193C106.245 91.1193 104.599 91.1193 102.217 91.2991L102.037 89.7752C104.478 88.8042 104.905 87.4601 105.089 84.7765C105.269 82.7671 105.269 80.0834 105.269 77.9526V61.7472C105.269 59.6165 105.269 56.9328 105.089 54.9234C104.91 52.2397 104.478 50.9046 102.037 49.9292L102.217 48.4053C104.599 48.5851 106.24 48.5851 107.647 48.5851C109.171 48.5851 110.821 48.5851 113.199 48.4053L113.379 49.9292C110.938 50.9001 110.511 52.2442 110.326 54.9234C110.147 56.9328 110.147 59.6165 110.147 61.7472V78.5595V78.564Z" fill="url(#paint5_linear_10015_394)"/>
<path d="M131.768 67.9606C132.928 65.8299 135.98 63.5732 139.577 63.5732C142.566 63.5732 144.886 64.6116 146.346 66.7424C147.322 68.1404 148.176 70.5814 148.176 73.319V79.1673C148.176 81.0553 148.176 82.822 148.297 84.71C148.419 86.7194 149.394 88.2433 151.35 89.1558L150.559 91.5922C146.346 91.4124 144.764 89.5828 144.211 86.8407H144.09C142.44 90.5538 139.761 92.0777 137.014 92.0777C133.108 92.0777 130.667 89.5199 130.667 86.2878C130.667 83.4243 132.132 81.7206 134.51 80.1967C136.767 78.7313 140.795 77.2748 143.901 76.4836V73.4943C143.901 71.6063 143.416 70.1453 142.62 69.1069C141.703 67.8887 140.121 67.4032 138.776 67.4032C136.7 67.4032 134.991 68.2573 132.919 69.8981L131.759 67.9471L131.768 67.9606ZM143.906 78.6234C142.629 79.0504 141.523 79.5359 140.368 80.0214C136.219 81.7881 135 83.6176 135 85.2584C135 86.8992 135.917 88.3646 138.053 88.3646C140.552 88.3646 143.906 86.1709 143.906 81.9679V78.6189V78.6234Z" fill="url(#paint6_linear_10015_394)"/>
<path d="M168.636 69.3542L172.659 59.9097C174.309 56.0707 174.547 54.6727 174.547 53.5129C174.547 52.2363 174.241 51.2563 172.412 50.2853L172.659 48.8828C174.43 49.0626 175.464 49.0626 176.808 49.0626C178.152 49.0626 179.002 49.0626 180.773 48.8828L180.953 50.2853C179.856 51.2563 179.181 52.3577 178.026 54.6727C177.109 56.5023 176.376 58.3274 175.644 59.9726L164.846 84.3415C163.686 86.9577 162.531 88.8502 161.308 90.1314C160.27 91.1698 158.62 92.0823 156.674 92.0823C155.024 92.0823 153.806 90.9855 153.806 89.5245C153.806 88.1849 154.723 87.0296 156.125 87.0296C157.285 87.0296 157.708 87.3353 158.813 87.3353C160.095 87.3353 161.007 86.3643 161.924 84.4134L166.316 74.9104L160.274 59.9816C159.605 58.2779 158.809 56.0213 157.833 53.8321C156.916 51.8227 156.489 51.2743 155.028 50.2988L155.276 48.8963C157.047 49.0177 158.876 49.0761 160.216 49.0761C161.556 49.0761 162.657 49.0177 164.428 48.8963L164.608 50.2988C163.264 50.9057 162.778 51.7643 162.778 52.7353C162.778 54.1378 163.025 55.2976 164.855 59.8647L168.64 69.3677V69.3542H168.636Z" fill="url(#paint7_linear_10015_394)"/>
<path d="M186.97 63.4551C192.827 63.4551 197.277 67.7795 197.277 73.6324C197.277 74.1178 197.277 74.5449 197.156 75.0304H178.366C178.244 75.7631 178.244 76.4284 178.244 77.3454C178.244 83.6208 182.029 87.8823 186.907 87.8823C190.813 87.8823 193.191 86.5428 195.691 82.951L197.156 83.8636C195.326 88.4353 191.726 92.2113 186.3 92.2113C178.672 92.2113 173.61 85.7561 173.61 78.3209C173.61 69.8518 179.404 63.4596 186.965 63.4596L186.97 63.4551ZM191.91 72.594C191.852 68.4538 189.042 66.1972 185.626 66.1972C181.908 66.1972 179.526 68.9977 178.793 72.594H191.91Z" fill="url(#paint8_linear_10015_394)"/>
<path d="M214.328 67.6343C211.46 67.6343 209.082 70.9833 209.082 76.8316V79.6951C209.082 81.5831 209.082 83.7139 209.203 85.6064C209.383 88.1013 209.936 89.2026 212.615 89.9938L212.435 91.3918C210.3 91.212 208.345 91.212 206.947 91.212C205.544 91.212 204.2 91.212 202.065 91.3918L201.885 89.9938C204.142 89.0812 204.447 88.1058 204.632 85.6064C204.811 83.7184 204.811 81.5876 204.811 79.6951V78.1712C204.811 76.2832 204.811 74.3323 204.632 72.4443C204.447 69.9494 203.84 69.3965 201.638 68.9694V67.6928C204.443 66.3532 205.967 65.3777 208.102 63.4268L209.383 63.9122C209.199 65.8632 209.077 68.2996 209.019 69.8235L209.077 69.882C210.727 65.8632 213.532 63.5436 216.4 63.5436C218.9 63.5436 220.307 64.9417 220.307 66.5914C220.307 68.2367 219.389 68.7222 218.113 68.7222C216.526 68.7222 215.793 67.6253 214.328 67.6253V67.6343Z" fill="url(#paint9_linear_10015_394)"/>
<path d="M79.1132 1.34863H67.875V23.825H79.1132V1.34863Z" fill="url(#paint10_linear_10015_394)"/>
<path d="M56.6357 23.825H67.8738V46.3013H45.3975V12.5868H34.6089V1.34863H56.6357V23.825Z" fill="url(#paint11_linear_10015_394)"/>
<path d="M67.8733 68.7776V91.2539H0.444336V1.34863H22.9207V68.7776H34.1588V46.3013H45.397V68.7776H67.8733Z" fill="url(#paint12_linear_10015_394)"/>
</g>
<defs>
<linearGradient id="paint0_linear_10015_394" x1="115.27" y1="1.70996" x2="115.27" y2="44.7207" gradientUnits="userSpaceOnUse">
<stop offset="0.18" stop-color="#242124"/>
<stop offset="1" stop-color="#5C5C5C" stop-opacity="0.4"/>
</linearGradient>
<linearGradient id="paint1_linear_10015_394" x1="137.008" y1="0" x2="137.008" y2="45.1459" gradientUnits="userSpaceOnUse">
<stop offset="0.18" stop-color="#242124"/>
<stop offset="1" stop-color="#5C5C5C" stop-opacity="0.4"/>
</linearGradient>
<linearGradient id="paint2_linear_10015_394" x1="156.491" y1="1.67285" x2="156.491" y2="46.0231" gradientUnits="userSpaceOnUse">
<stop offset="0.18" stop-color="#242124"/>
<stop offset="1" stop-color="#5C5C5C" stop-opacity="0.4"/>
</linearGradient>
<linearGradient id="paint3_linear_10015_394" x1="180.117" y1="17.29" x2="180.117" y2="46.0462" gradientUnits="userSpaceOnUse">
<stop offset="0.18" stop-color="#242124"/>
<stop offset="1" stop-color="#5C5C5C" stop-opacity="0.4"/>
</linearGradient>
<linearGradient id="paint4_linear_10015_394" x1="206.796" y1="0.957031" x2="206.796" y2="28.9266" gradientUnits="userSpaceOnUse">
<stop offset="0.18" stop-color="#242124"/>
<stop offset="1" stop-color="#5C5C5C" stop-opacity="0.4"/>
</linearGradient>
<linearGradient id="paint5_linear_10015_394" x1="115.397" y1="48.4053" x2="115.397" y2="91.425" gradientUnits="userSpaceOnUse">
<stop offset="0.18" stop-color="#242124"/>
<stop offset="1" stop-color="#5C5C5C" stop-opacity="0.4"/>
</linearGradient>
<linearGradient id="paint6_linear_10015_394" x1="141.008" y1="63.5732" x2="141.008" y2="92.0777" gradientUnits="userSpaceOnUse">
<stop offset="0.18" stop-color="#242124"/>
<stop offset="1" stop-color="#5C5C5C" stop-opacity="0.4"/>
</linearGradient>
<linearGradient id="paint7_linear_10015_394" x1="167.379" y1="48.8828" x2="167.379" y2="92.0823" gradientUnits="userSpaceOnUse">
<stop offset="0.18" stop-color="#242124"/>
<stop offset="1" stop-color="#5C5C5C" stop-opacity="0.4"/>
</linearGradient>
<linearGradient id="paint8_linear_10015_394" x1="185.444" y1="63.4551" x2="185.444" y2="92.2113" gradientUnits="userSpaceOnUse">
<stop offset="0.18" stop-color="#242124"/>
<stop offset="1" stop-color="#5C5C5C" stop-opacity="0.4"/>
</linearGradient>
<linearGradient id="paint9_linear_10015_394" x1="210.972" y1="63.4268" x2="210.972" y2="91.3918" gradientUnits="userSpaceOnUse">
<stop offset="0.18" stop-color="#242124"/>
<stop offset="1" stop-color="#5C5C5C" stop-opacity="0.4"/>
</linearGradient>
<linearGradient id="paint10_linear_10015_394" x1="73.4941" y1="1.34863" x2="73.4941" y2="23.825" gradientUnits="userSpaceOnUse">
<stop offset="0.18" stop-color="#242124"/>
<stop offset="1" stop-color="#5C5C5C" stop-opacity="0.4"/>
</linearGradient>
<linearGradient id="paint11_linear_10015_394" x1="51.2414" y1="1.34863" x2="51.2414" y2="46.3013" gradientUnits="userSpaceOnUse">
<stop offset="0.18" stop-color="#242124"/>
<stop offset="1" stop-color="#5C5C5C" stop-opacity="0.4"/>
</linearGradient>
<linearGradient id="paint12_linear_10015_394" x1="34.1588" y1="1.34863" x2="34.1588" y2="91.2539" gradientUnits="userSpaceOnUse">
<stop offset="0.18" stop-color="#242124"/>
<stop offset="1" stop-color="#5C5C5C" stop-opacity="0.4"/>
</linearGradient>
</defs>
</svg>
