<svg width="202" height="115" viewBox="0 0 202 115" fill="none" xmlns="http://www.w3.org/2000/svg">
<g opacity="0.5">
<mask id="mask0_10539_150" style="mask-type:luminance" maskUnits="userSpaceOnUse" x="0" y="0" width="202" height="115">
<path d="M201.801 0H0V114.946H201.801V0Z" fill="white"/>
</mask>
<g mask="url(#mask0_10539_150)">
<path d="M10.5805 87.418C10.0155 84.5121 9.36971 81.6869 9.04683 78.7809C8.32035 72.2426 7.59387 65.6235 7.91675 58.9238C8.23963 53.1926 9.61187 47.7844 12.0335 42.699C12.1142 42.4568 12.3564 42.2147 12.5985 42.0532C16.5538 38.3401 20.5091 34.7077 24.4644 30.9138C25.433 30.0259 26.321 29.138 26.7246 27.7658C27.0474 26.6357 28.4197 25.9899 29.7112 25.9899C30.7606 25.9899 31.8099 25.9899 32.8593 26.0706C33.4243 26.0706 33.7472 25.9092 33.9894 25.4249C35.2002 23.0033 36.4917 20.6624 37.7832 18.3215C38.8326 16.3842 40.6084 15.3348 42.465 14.5276C45.4517 13.2361 48.4383 12.1867 51.4249 10.9759C53.0394 10.3302 54.573 9.36154 56.1067 8.55434C57.3175 7.90858 58.5283 7.34353 59.8199 6.77849C61.7571 5.89057 63.3715 6.45561 65.0667 7.5857C67.2461 9.03866 69.587 10.4109 71.7664 11.8639C72.8158 12.5096 73.7845 13.3976 74.8338 14.0433C75.7217 14.6084 76.6097 14.9312 77.4976 15.4156C78.3048 15.8999 79.0313 16.3842 79.7578 16.9492C81.2914 18.3215 82.8251 19.7745 84.3588 21.1467C84.8431 21.631 85.4082 22.0346 85.9732 22.5189C86.5382 21.3889 88.3141 21.4696 88.2334 19.7745C88.3141 19.6937 88.3141 19.613 88.3948 19.613C90.2514 18.8058 90.5743 19.048 91.0586 20.9853C91.22 21.631 91.4622 22.1961 91.7043 23.0033C91.7851 22.8418 91.7851 22.9225 91.7043 23.0033C91.0586 23.649 89.9285 24.3755 89.9285 25.0213C90.0092 26.2321 90.655 27.3622 91.22 28.573C92.1079 30.5102 93.238 32.3668 93.8838 34.3041C94.691 36.8871 95.0946 39.7123 95.5789 42.3761C95.9018 44.0712 96.144 45.7664 96.3861 47.3808C96.4668 47.7036 96.4668 48.0265 96.4668 48.3494C96.4668 49.8831 96.2247 50.1253 94.6103 50.1253C93.5609 50.0445 92.5116 50.0445 91.4622 50.0445C90.655 50.1253 90.1707 49.8024 90.0092 48.9952C89.6056 47.8651 89.0406 46.6543 88.8791 45.4435C88.7177 44.3941 89.0406 43.264 88.9599 42.2147C88.9599 40.2774 88.9599 38.2594 88.7177 36.2414C88.637 35.3535 88.2334 34.3848 87.7491 33.5776C86.9418 32.0439 86.0539 30.5102 85.166 29.0573C84.6817 28.2501 84.0359 27.5236 84.9238 26.3935C83.3094 28.2501 82.3408 26.3128 80.9686 25.9092C81.0493 26.1513 81.0493 26.3128 81.0493 26.4742C82.3408 30.591 83.7938 34.627 84.9238 38.7437C85.5696 41.3268 85.5696 43.9905 85.8925 46.6543C86.0539 48.0265 99.7764 49.2373 100.826 50.3674C99.4535 51.0939 86.7804 50.9325 82.9058 51.5782C82.4215 51.4168 81.8565 51.4168 81.3722 51.5782C79.9999 51.9011 69.9906 54.242 68.7798 53.9191C68.4569 53.8384 76.9325 49.8831 76.9325 49.3988C77.0133 47.3808 76.0446 46.0085 74.4302 44.8784C71.7664 43.0219 69.1027 41.246 65.7932 40.7617C64.098 40.5195 62.4836 40.6003 61.0307 41.4882C59.4163 42.4568 57.7211 42.8604 55.8646 42.699C53.9273 42.5376 52.0707 42.9412 50.6985 44.717C49.8913 45.7664 48.7612 46.6543 47.7118 47.4615C46.0167 48.8337 44.3216 50.1253 42.7879 51.5782C42.6264 52.0625 42.5457 52.5469 42.3036 52.9505C41.3349 54.9685 40.2048 56.9058 39.3169 59.0045C38.1868 61.6682 37.2989 64.332 36.2495 66.9958C36.0074 67.5608 36.0881 67.9644 36.411 68.5295C38.8326 71.9197 41.9 74.6642 45.1288 77.1665C41.1735 75.4714 38.3483 72.3233 35.5231 68.8523C34.4737 72.0004 32.6979 74.6642 32.6171 77.8123C32.4557 80.6375 31.7292 83.2206 30.5991 85.8036C30.2763 86.6108 30.357 87.1758 30.922 87.9023C37.0567 96.2165 44.7252 102.755 53.3622 108.325C53.6851 108.486 53.9273 108.728 54.2502 108.89C54.1694 108.97 54.1694 109.051 54.0887 109.132C51.99 108.002 49.8913 106.952 47.8733 105.741C43.5144 103.239 39.5591 100.253 35.8459 96.8623C32.94 94.1985 30.7606 91.0504 28.5004 87.9023C28.339 87.6602 28.2582 87.2566 28.339 87.0144C30.0341 83.4627 30.0341 79.5074 30.6798 75.7136C31.1642 72.9691 32.4557 70.5475 33.6665 68.1259C34.0701 67.3187 34.0701 66.8343 33.5051 66.0271C31.6485 63.6055 29.9534 61.1032 28.1775 58.6009C27.9354 58.278 27.8546 57.713 27.9354 57.2286C29.3076 49.6409 30.7606 42.0532 32.2135 34.4655C32.4557 33.3354 32.2943 32.1246 33.5051 31.3174C33.5051 31.2367 33.4243 31.0753 33.4243 30.9946C32.4557 30.9138 31.4871 30.8331 30.5184 30.7524C29.9534 30.6717 29.3076 30.591 28.5811 30.4295C28.5004 31.8825 27.1282 32.2861 25.9981 32.8511C23.0114 34.2234 20.832 36.645 18.5718 38.9051C18.2489 39.3087 17.8453 39.7123 17.4417 39.9545C12.76 43.1026 11.4684 48.1073 10.4998 53.1119C8.56251 64.1706 9.20827 75.31 10.9034 86.3686C10.9034 86.5301 10.9034 86.7722 10.9841 86.9337C10.8227 87.418 10.6612 87.418 10.5805 87.418ZM70.5556 40.3581C70.6364 40.1967 70.7171 40.1159 70.7978 39.9545C70.2328 39.5509 69.7484 38.9859 69.1834 38.7437C67.569 38.0172 66.3582 36.8871 65.551 35.3535C65.1474 34.627 64.5823 34.3848 63.7751 34.4655C63.0487 34.5463 62.2415 34.5463 61.4343 34.7077C59.3355 35.1113 57.2368 34.8691 55.1381 34.4655C54.0887 34.3041 52.9586 34.2234 51.9093 34.3041C48.9226 34.5463 46.2589 34.0619 43.8372 32.2054C43.1108 31.6403 42.1421 31.2367 41.2542 30.9946C40.7699 30.8331 39.9627 30.9946 39.5591 31.3174C38.2676 32.2054 36.976 33.174 35.7652 34.2234C35.4423 34.5463 35.1195 35.0306 34.958 35.5149C34.2315 38.5015 33.5051 41.5689 32.7786 44.6363C31.7292 48.9145 30.7606 53.2733 29.7112 57.5515C29.6305 57.9551 29.6305 58.5202 29.8726 58.9238C30.5184 60.0538 31.1642 61.1032 31.8907 62.1526C32.7786 63.5248 33.6665 64.8163 34.7966 66.35C35.4423 64.5742 36.0881 63.2019 36.411 61.6682C37.2182 58.5202 38.1868 55.4528 39.9627 52.789C40.6892 51.7397 40.7699 51.0132 39.8012 49.9638C38.7519 48.8337 38.8326 48.5108 40.0434 47.4615C40.2856 47.2193 40.7699 47.3 41.0928 47.2193C41.3349 47.1386 41.5771 47.1386 41.7385 46.9772C43.5951 45.1206 45.5324 43.4255 48.0347 42.4568C50.3756 41.5689 52.6358 40.2774 54.9766 39.228C56.026 38.7437 57.2368 38.1787 58.3669 38.0979C60.8692 38.0172 63.4523 38.1787 65.8739 39.1473C67.4076 39.5509 69.022 39.8738 70.5556 40.3581ZM74.8338 20.5817C74.1073 20.0166 73.5423 19.613 72.9772 19.2094C71.4436 17.8372 69.8292 16.5456 68.2955 15.0927C67.1654 14.0433 66.1968 12.9132 64.8245 12.0253C62.7258 10.6531 60.7885 10.8952 58.8512 11.7024C53.5237 13.8012 48.2769 16.2228 42.8686 18.3215C39.0748 19.7745 37.4604 23.1647 34.958 25.9092C36.8146 26.0706 38.6712 26.0706 40.5277 25.9899C40.7699 25.9899 41.012 25.8285 41.1735 25.667C44.2408 23.1647 47.3082 20.6624 49.8105 17.595C49.972 17.4336 50.2949 17.1914 50.3756 17.2721C51.3442 17.7564 51.6671 16.9492 52.0707 16.4649C52.3936 16.142 52.6358 15.7384 52.9586 15.3348C53.1201 15.8192 53.2008 16.142 53.2815 16.4649C53.7658 16.142 54.2502 15.8999 54.6538 15.577C54.8152 15.8999 54.9766 16.142 55.1381 16.3842C55.7031 17.6757 56.6718 18.4022 58.044 18.7251C60.3042 19.2901 62.5643 19.9359 64.7438 20.5817C64.8245 20.5817 64.9052 20.5009 64.9859 20.5009C64.9052 20.1781 64.9052 19.8552 64.8245 19.2901C66.9232 19.8552 68.9412 20.2588 70.7978 20.7431C72.2508 21.2274 73.3809 21.1467 74.8338 20.5817ZM45.936 26.555C51.99 27.6043 57.7211 28.6537 63.533 29.6223C63.3715 28.573 63.3715 27.4429 62.4029 26.7971C62.4029 26.7971 62.4029 26.6357 62.4029 26.3935C63.6944 27.2007 64.8245 27.8465 65.9546 28.6537C66.6811 29.138 67.1654 28.8958 67.4883 28.2501C67.8112 27.685 68.0533 27.12 68.3762 26.3935C67.4883 25.9899 66.5196 25.3441 65.551 25.1827C62.4029 24.6984 59.2548 24.3755 56.1067 23.9719C55.6224 23.8912 55.1381 23.649 54.7345 23.3261C53.8466 22.6804 52.9586 21.9539 52.0707 21.2274C51.99 21.4696 51.7478 21.631 51.8285 21.7925C51.9093 22.6804 51.3442 23.084 50.6985 23.4876C49.1648 24.3755 47.7118 25.3441 45.936 26.555ZM70.9592 26.9586C71.2821 29.2994 71.7664 31.5596 73.623 33.2547C74.6724 34.1427 75.8832 34.9499 76.4482 36.2414C76.6904 36.8871 77.1747 37.3715 77.4976 37.9365C78.7891 39.8738 80.0806 41.8111 81.3722 43.8291C81.4529 43.7484 81.5336 43.7484 81.6143 43.6676C81.5336 43.3448 81.4529 43.0219 81.3722 42.699C80.8071 41.1653 80.1613 39.6316 79.5963 38.0979C78.3048 34.7884 76.7711 31.6403 74.4302 28.9766C73.5423 27.7658 72.5737 26.8778 70.9592 26.9586Z" fill="url(#paint0_linear_10539_150)"/>
<path d="M117.369 58.8448C119.629 58.1183 121.889 57.3918 124.472 56.5039C124.23 57.1497 124.149 57.3918 123.988 57.8761C125.118 57.7147 126.248 57.5533 127.298 57.4725C127.782 57.3918 128.428 57.4725 128.751 57.7147C130.042 58.9255 131.334 60.217 132.544 61.5893C132.867 61.9929 132.948 62.7194 132.787 63.2844C132.302 65.3024 131.818 67.3204 131.172 69.2577C130.769 70.3071 129.961 71.195 129.235 72.3251C129.154 72.0829 129.154 72.2443 129.235 72.2443C131.656 72.9708 131.253 74.8274 130.93 76.6032C130.446 78.9441 130.203 81.3657 129.235 83.4645C128.266 85.6439 128.185 87.9848 127.459 90.0835C127.378 90.1642 127.298 90.3257 127.217 90.4064C127.055 90.4064 126.894 90.4064 126.732 90.4064C126.652 86.6933 126.571 82.9801 126.41 79.3477C126.329 78.0562 126.41 76.684 126.087 75.4732C125.925 74.9081 124.876 74.5852 124.23 74.1816C123.907 74.666 123.423 75.0696 123.423 75.5539C123.262 77.5719 123.181 79.6706 123.342 81.6886C123.423 82.3344 124.149 82.9801 124.795 83.9488C121.728 83.7873 118.822 83.7066 115.916 83.5452C115.835 83.4645 115.755 83.3837 115.674 83.2223C118.095 82.4958 117.611 80.0742 118.741 78.5405C118.822 78.3791 118.822 78.2176 118.822 77.9755C118.983 75.231 119.064 72.4058 119.226 69.6613C119.387 66.9975 119.468 64.253 119.629 61.5893C119.71 60.4592 119.468 59.7327 118.176 59.5713C117.934 59.5713 117.773 59.4098 117.611 59.3291C117.369 59.1677 117.369 59.0062 117.369 58.8448ZM125.037 69.8227C128.589 66.9168 129.073 64.0109 126.167 62.3965C126.006 63.2844 125.845 64.1723 125.683 64.9795C125.28 64.3338 125.199 63.688 124.957 63.123C124.795 62.7194 124.392 62.3965 124.149 62.0736C123.907 62.4772 123.584 62.8808 123.504 63.3651C123.342 64.8988 123.342 66.4325 123.262 67.9662C123.262 68.8541 123.262 69.8227 123.262 70.7107C123.342 70.7107 123.504 70.7107 123.584 70.7107C123.907 70.1456 124.149 69.5806 124.553 68.7734C124.795 69.177 124.957 69.4999 125.037 69.8227Z" fill="url(#paint1_linear_10539_150)"/>
<path d="M117.852 55.8594C117.529 56.263 117.368 56.5859 117.126 56.7473C115.43 57.6352 115.269 59.0882 115.188 60.7026C114.946 65.5458 114.704 70.3083 114.3 75.1515C114.139 76.8466 113.493 78.461 113.009 80.1562C112.767 79.9947 112.525 79.8333 112.202 79.5911C111.879 80.6405 111.637 81.6899 111.314 82.6585C111.152 82.6585 110.991 82.6585 110.829 82.6585C110.587 80.1562 110.264 77.5731 109.942 74.9901C109.699 75.1515 109.457 75.3937 109.054 75.7166C108.973 75.4744 108.811 75.1515 108.569 74.5058C107.924 75.6358 107.439 76.5238 106.793 77.5731C106.713 76.6045 106.713 75.7973 106.632 74.7479C105.663 77.0888 106.067 79.5104 104.21 81.6091C104.13 80.479 104.13 79.6718 104.049 78.461C102.838 80.0754 101.789 81.4477 100.659 82.9814C100.578 82.0935 100.497 81.4477 100.578 80.7212C100.578 79.7526 100.82 78.7032 99.125 78.7839C102.435 77.2502 102.435 74.1021 103.161 71.4384C103.726 69.5818 104.453 67.806 105.018 65.9494C105.26 65.1422 105.34 64.335 105.663 63.6085C106.148 62.2363 106.551 60.7833 107.116 59.4111C107.681 58.2003 107.601 57.5545 106.39 56.9895C105.905 56.7473 105.502 56.5051 105.018 56.263C105.098 56.1015 105.098 56.0208 105.098 55.8594C109.296 55.8594 113.493 55.8594 117.852 55.8594ZM111.637 60.0568C111.475 60.0568 111.314 59.9761 111.152 59.9761C110.103 63.5278 109.134 67.0795 108.085 70.6312C110.426 71.0348 110.91 70.7119 110.991 68.371C111.072 67.4831 111.152 66.5952 111.233 65.788C111.314 63.9314 111.475 61.9941 111.637 60.0568Z" fill="url(#paint2_linear_10539_150)"/>
<path d="M98.3175 54.7285C97.8332 57.6344 97.4296 60.2982 96.9452 62.962C96.8645 63.0427 96.7838 63.0427 96.6223 63.1234C96.2187 62.3162 95.8151 61.509 95.4115 60.7018C95.2501 60.944 95.0079 61.1861 94.7658 61.5897C94.3622 60.6211 93.9586 59.7332 93.4743 58.7645C93.2321 59.2488 93.0707 59.491 92.9092 59.8946C92.5863 59.5717 92.1827 59.3296 91.537 58.7645C91.1334 61.6705 91.4563 64.2535 91.7791 66.9173C93.9586 66.8365 93.3128 64.4957 94.8465 63.6885C95.0887 66.8365 95.2501 69.9039 95.4923 72.8098C95.3308 72.8906 95.2501 72.8906 95.0887 72.8906C94.7658 72.3255 94.4429 71.7605 94.0393 71.1954C93.6357 70.7111 93.1514 70.3882 92.5863 69.9846C91.4563 72.0834 92.0213 75.7965 93.6357 77.5723C95.0887 77.2495 95.8151 76.3615 95.9766 74.9086C96.0573 74.0207 96.3802 73.2134 96.7031 72.0834C97.9946 74.0207 98.3175 79.106 97.7524 82.4156C96.4609 81.8505 95.1694 81.2048 93.8779 80.559C92.3442 79.7518 92.3442 79.7518 91.6177 81.3662C91.537 81.5276 91.4563 81.6891 91.2948 81.9312C90.0033 79.5903 87.9853 80.8819 85.9673 80.8819C86.2094 80.3168 86.2902 79.8325 86.613 79.5903C87.6624 78.7831 87.6624 77.7338 87.5817 76.523C87.3395 71.4376 87.1781 66.4329 87.0166 61.3476C86.9359 59.491 86.2902 57.9573 84.4336 56.9887C88.8732 55.455 93.555 55.3743 98.3175 54.7285Z" fill="url(#paint3_linear_10539_150)"/>
<path d="M75.5546 86.6132C75.3124 85.6446 75.151 84.5952 74.8281 83.6266C73.0523 77.4111 72.1644 71.0342 71.5993 64.6573C71.4379 62.7201 71.4379 60.7828 69.1777 59.9756C69.097 59.9756 69.097 59.7334 68.9355 59.4105C73.5366 58.6033 77.9762 57.7154 82.658 56.9082C82.4158 59.4105 82.1737 61.6707 81.9315 64.173C81.5279 63.6887 81.0436 63.4465 80.8821 62.9622C80.3171 61.59 79.1063 61.1864 77.7341 61.9129C76.4425 62.5586 75.7968 63.5273 76.0389 64.9802C76.2004 66.3525 76.3618 67.7247 76.5232 69.097C78.622 68.7741 78.0569 66.5946 79.5906 65.7067C79.8328 68.8548 80.0749 71.8414 80.3171 74.8281C80.1557 74.8281 80.0749 74.9088 79.9135 74.9088C79.5099 74.2631 79.187 73.5366 78.622 72.9715C78.2991 72.6486 77.8148 72.4872 77.3305 72.3258C77.169 72.7294 76.8461 73.133 76.8461 73.5366C76.9268 75.0703 77.0076 76.6039 77.0883 78.0569C77.4112 80.9628 76.8461 83.788 75.5546 86.6132Z" fill="url(#paint4_linear_10539_150)"/>
<path d="M191.957 87.4262C191.957 87.2648 191.957 87.0226 192.038 86.8612C193.652 75.8025 194.378 64.6631 192.441 53.6044C191.553 48.519 190.262 43.5951 185.499 40.447C185.096 40.1241 184.692 39.7205 184.369 39.3977C182.109 37.1375 179.93 34.7159 176.943 33.3436C175.732 32.7786 174.36 32.375 174.36 30.922C173.633 31.0028 173.068 31.1642 172.423 31.2449C171.454 31.3256 170.485 31.4064 169.517 31.4871C169.517 31.5678 169.436 31.7292 169.436 31.81C170.566 32.5364 170.485 33.828 170.727 34.958C172.18 42.5457 173.633 50.1335 175.006 57.7212C175.086 58.1248 175.006 58.6898 174.763 59.0934C173.068 61.5957 171.292 64.0981 169.436 66.5197C168.871 67.2461 168.871 67.7305 169.274 68.6184C170.485 71.04 171.777 73.4616 172.261 76.2061C172.907 79.9999 172.907 83.9552 174.602 87.5069C174.683 87.7491 174.602 88.1527 174.441 88.3948C172.18 91.5429 170.001 94.691 167.095 97.3548C163.382 100.745 159.346 103.651 155.068 106.234C153.05 107.445 150.951 108.494 148.852 109.624C148.772 109.544 148.772 109.463 148.691 109.382C149.014 109.221 149.256 108.979 149.579 108.817C158.216 103.328 165.884 96.709 172.019 88.3948C172.584 87.6684 172.665 87.1033 172.342 86.2961C171.212 83.7938 170.485 81.13 170.324 78.3048C170.162 75.076 168.467 72.4122 167.418 69.3449C164.593 72.8158 161.767 75.9639 157.812 77.7398C161.041 75.1567 164.108 72.493 166.53 69.1027C166.934 68.5377 166.934 68.1341 166.691 67.569C165.642 64.9053 164.754 62.1608 163.624 59.5777C162.736 57.479 161.606 55.5417 160.637 53.5237C160.395 53.0394 160.315 52.5551 160.153 52.1515C158.7 50.6985 156.924 49.407 155.229 48.0347C154.18 47.1468 153.05 46.3396 152.243 45.2902C150.87 43.5144 149.094 43.0301 147.076 43.2722C145.139 43.4337 143.525 43.0301 141.91 42.0614C140.377 41.1735 138.843 41.0928 137.148 41.3349C133.838 41.8193 131.175 43.5951 128.511 45.4517C126.816 46.5818 125.928 47.954 126.008 49.972C126.008 50.4563 134.565 54.3309 134.161 54.4923C132.95 54.8959 123.022 52.4743 121.569 52.1515C121.084 52.0707 120.439 51.99 120.035 52.1515C116.161 51.5057 103.407 51.6671 102.115 50.9407C103.165 49.8106 116.887 48.5998 117.048 47.2275C117.291 44.5638 117.291 41.9 118.017 39.3169C119.066 35.2002 120.6 31.1642 121.892 27.0475C121.972 26.886 121.972 26.7246 121.972 26.4824C120.6 26.8053 119.632 28.8233 118.017 26.9668C118.824 28.0968 118.259 28.8233 117.775 29.6305C116.887 31.0835 115.999 32.6172 115.192 34.1508C114.788 34.958 114.304 35.9267 114.223 36.8146C114.062 38.7519 114.062 40.7699 113.981 42.7879C113.981 43.8373 114.223 44.9674 114.062 46.0167C113.9 47.2275 113.255 48.3576 112.932 49.5684C112.69 50.2949 112.286 50.6178 111.479 50.6178C110.429 50.5371 109.38 50.6178 108.331 50.6985C106.797 50.7792 106.555 50.5371 106.474 48.9226C106.474 48.5998 106.474 48.2769 106.555 47.954C106.797 46.2589 107.039 44.5638 107.362 42.9494C107.846 40.2856 108.25 37.5411 109.057 34.8773C109.622 32.8593 110.833 31.0835 111.721 29.1462C112.205 28.0161 112.932 26.8053 113.012 25.5945C113.012 24.9487 111.882 24.303 111.237 23.5765C111.156 23.4151 111.156 23.4958 111.237 23.5765C111.479 22.7693 111.802 22.2043 111.882 21.5585C112.286 19.6212 112.69 19.379 114.546 20.1863C114.627 20.267 114.708 20.3477 114.708 20.3477C114.546 22.0428 116.403 21.8814 116.968 23.0922C117.614 22.6079 118.098 22.2043 118.582 21.7199C120.116 20.3477 121.65 18.8947 123.183 17.5225C123.829 16.9574 124.636 16.3924 125.443 15.9888C126.331 15.5045 127.3 15.1009 128.107 14.6166C129.157 13.9708 130.125 13.0829 131.175 12.4371C133.354 10.9841 135.695 9.6119 137.874 8.15894C139.569 7.02885 141.184 6.46381 143.121 7.35174C144.332 7.91678 145.623 8.48182 146.834 9.12758C148.368 9.93478 149.902 10.8227 151.516 11.5492C154.503 12.8407 157.489 13.8094 160.476 15.1009C162.333 15.9081 164.189 16.9574 165.158 18.8947C166.449 21.2356 167.741 23.5765 168.952 25.9981C169.194 26.5631 169.517 26.7246 170.082 26.6439C171.131 26.5631 172.18 26.5632 173.23 26.5632C174.602 26.5632 175.894 27.2089 176.216 28.339C176.62 29.792 177.589 30.5992 178.477 31.4871C182.351 35.2002 186.387 38.9133 190.342 42.6265C190.504 42.7879 190.746 43.0301 190.907 43.2722C193.329 48.4383 194.701 53.8466 195.024 59.497C195.347 66.1968 194.621 72.8158 193.894 79.4349C193.571 82.3408 192.925 85.166 192.36 88.072C192.118 87.4262 192.038 87.4262 191.957 87.4262ZM136.906 38.9941C139.327 38.0254 141.83 37.864 144.413 37.9447C145.543 38.0254 146.754 38.5905 147.803 39.0748C150.144 40.1241 152.404 41.4157 154.745 42.3036C157.328 43.2722 159.184 44.9674 161.041 46.8239C161.202 46.9854 161.445 46.9854 161.687 47.0661C162.01 47.1468 162.494 47.1468 162.736 47.3082C163.947 48.3576 164.028 48.6805 162.978 49.8106C162.09 50.8599 162.171 51.5057 162.817 52.6358C164.593 55.3803 165.561 58.4476 166.369 61.515C166.772 62.968 167.418 64.4209 167.983 66.1968C169.032 64.6631 169.92 63.2909 170.889 61.9993C171.615 60.95 172.342 59.9006 172.907 58.7705C173.149 58.3669 173.149 57.8019 173.068 57.3983C172.1 53.1201 171.05 48.7612 170.001 44.483C169.274 41.4157 168.629 38.429 167.821 35.3617C167.741 34.8773 167.337 34.393 167.014 34.0701C165.803 33.0208 164.512 32.0521 163.22 31.1642C162.736 30.8413 162.01 30.6799 161.525 30.8413C160.637 31.0835 159.669 31.4871 158.942 32.0521C156.521 33.9087 153.857 34.393 150.87 34.1508C149.821 34.0701 148.691 34.1508 147.641 34.3123C145.543 34.6352 143.444 34.958 141.345 34.5544C140.619 34.393 139.812 34.393 139.004 34.3123C138.278 34.2316 137.632 34.4737 137.229 35.2002C136.421 36.7339 135.211 37.864 133.596 38.5905C133.031 38.8326 132.547 39.3977 131.982 39.8013C132.062 39.9627 132.143 40.0434 132.224 40.2049C133.838 39.882 135.453 39.5591 136.906 38.9941ZM131.82 20.832C133.758 20.267 135.695 19.8634 137.794 19.379C137.713 19.9441 137.713 20.267 137.632 20.5899C137.713 20.5899 137.794 20.6706 137.874 20.6706C140.134 20.0248 142.314 19.379 144.574 18.814C145.946 18.4911 146.915 17.7646 147.48 16.4731C147.561 16.231 147.722 15.9888 147.964 15.6659C148.449 15.9081 148.852 16.231 149.337 16.5538C149.498 16.1502 149.579 15.8274 149.659 15.4238C149.982 15.8274 150.224 16.231 150.547 16.5538C151.032 17.0382 151.355 17.8454 152.243 17.361C152.323 17.2803 152.646 17.5225 152.808 17.6839C155.31 20.832 158.297 23.3343 161.445 25.7559C161.606 25.9174 161.848 26.0788 162.09 26.0788C163.947 26.0788 165.723 26.0788 167.66 25.9981C165.158 23.2536 163.543 19.8634 159.749 18.4104C154.341 16.3117 149.094 13.8901 143.767 11.7913C141.83 10.9841 139.892 10.742 137.794 12.1142C136.421 13.0022 135.453 14.0515 134.323 15.1816C132.87 16.6346 131.255 17.9261 129.641 19.2983C129.076 19.7826 128.511 20.1863 127.784 20.6706C129.399 21.1549 130.609 21.2356 131.82 20.832ZM152.162 23.3343C151.516 22.9307 150.951 22.5271 151.032 21.6392C151.032 21.4778 150.87 21.3163 150.79 21.0742C149.902 21.8007 149.014 22.5271 148.126 23.1729C147.722 23.4958 147.238 23.7379 146.754 23.8187C143.605 24.2223 140.457 24.5451 137.309 25.0295C136.341 25.1909 135.372 25.8367 134.484 26.2403C134.807 26.9667 135.049 27.6125 135.372 28.0968C135.695 28.7426 136.179 28.9848 136.906 28.5004C138.036 27.774 139.166 27.0475 140.457 26.2403C140.457 26.5631 140.538 26.6439 140.457 26.6439C139.489 27.3703 139.489 28.4197 139.327 29.4691C145.058 28.5004 150.87 27.4511 156.924 26.4017C155.148 25.3523 153.695 24.3837 152.162 23.3343ZM128.349 28.8233C126.008 31.5678 124.394 34.6352 123.183 37.9447C122.618 39.4784 121.972 41.0121 121.407 42.5457C121.246 42.8686 121.246 43.1915 121.165 43.5144C121.246 43.5951 121.327 43.5951 121.407 43.6758C122.699 41.7385 123.99 39.8013 125.282 37.7833C125.605 37.2182 126.089 36.6532 126.331 36.0881C126.896 34.7159 128.107 33.9894 129.157 33.1015C131.013 31.4064 131.497 29.1462 131.82 26.8053C130.206 26.886 129.318 27.774 128.349 28.8233Z" fill="url(#paint5_linear_10539_150)"/>
</g>
</g>
<defs>
<linearGradient id="paint0_linear_10539_150" x1="54.3318" y1="6.3418" x2="54.3318" y2="109.132" gradientUnits="userSpaceOnUse">
<stop offset="0.0288462" stop-color="#242124"/>
<stop offset="0.754808" stop-color="#5C5C5C" stop-opacity="0.6"/>
</linearGradient>
<linearGradient id="paint1_linear_10539_150" x1="124.271" y1="56.5039" x2="124.271" y2="90.4064" gradientUnits="userSpaceOnUse">
<stop offset="0.0288462" stop-color="#242124"/>
<stop offset="0.754808" stop-color="#5C5C5C" stop-opacity="0.6"/>
</linearGradient>
<linearGradient id="paint2_linear_10539_150" x1="108.489" y1="55.8594" x2="108.489" y2="82.9814" gradientUnits="userSpaceOnUse">
<stop offset="0.0288462" stop-color="#242124"/>
<stop offset="0.754808" stop-color="#5C5C5C" stop-opacity="0.6"/>
</linearGradient>
<linearGradient id="paint3_linear_10539_150" x1="91.3755" y1="54.7285" x2="91.3755" y2="82.4156" gradientUnits="userSpaceOnUse">
<stop offset="0.0288462" stop-color="#242124"/>
<stop offset="0.754808" stop-color="#5C5C5C" stop-opacity="0.6"/>
</linearGradient>
<linearGradient id="paint4_linear_10539_150" x1="75.7968" y1="56.9082" x2="75.7968" y2="86.6132" gradientUnits="userSpaceOnUse">
<stop offset="0.0288462" stop-color="#242124"/>
<stop offset="0.754808" stop-color="#5C5C5C" stop-opacity="0.6"/>
</linearGradient>
<linearGradient id="paint5_linear_10539_150" x1="148.609" y1="6.91504" x2="148.609" y2="109.624" gradientUnits="userSpaceOnUse">
<stop offset="0.0288462" stop-color="#242124"/>
<stop offset="0.754808" stop-color="#5C5C5C" stop-opacity="0.6"/>
</linearGradient>
</defs>
</svg>
