<svg width="368" height="92" viewBox="0 0 368 92" fill="none" xmlns="http://www.w3.org/2000/svg">
<g opacity="0.5">
<path d="M28.4587 0C24.7683 0 21.1383 0.736918 17.6898 2.04069C14.3018 3.40115 11.2163 5.32846 8.61485 7.82263C6.01336 10.3168 3.95637 13.2078 2.56488 16.4389C1.17339 19.6699 0.447392 23.1278 0.507892 26.5856V35.3719H23.1953V22.6176C23.1953 21.9941 23.3163 21.4272 23.5583 20.8604C23.8003 20.2935 24.1633 19.7833 24.5868 19.3865C25.0103 18.9897 25.5548 18.6496 26.1598 18.4229C26.7648 18.1961 27.3697 18.0828 28.0352 18.0828H28.8822C29.4872 18.0828 30.1527 18.1961 30.7577 18.4229C31.3627 18.6496 31.9072 18.9897 32.3307 19.3865C32.7542 19.7833 33.1172 20.2935 33.3592 20.8604C33.6012 21.4272 33.7222 21.9941 33.7222 22.6176V56.7424C36.6867 56.7424 39.6512 56.1756 42.4342 55.0985C45.2172 54.0215 47.6976 52.4343 49.8151 50.4503C51.9326 48.4663 53.6266 46.0855 54.7156 43.5347C55.8651 40.9271 56.4701 38.1495 56.4701 35.3719V26.5856C56.4701 19.5566 53.5661 12.7543 48.3026 7.76595C45.7011 5.27178 42.6157 3.34446 39.2277 1.984C35.7792 0.680229 32.1492 0 28.4587 0Z" fill="url(#paint0_linear_10015_375)"/>
<path d="M28.8827 74.0306H28.0357C27.4307 74.0306 26.7652 73.9172 26.1602 73.6905C25.5552 73.4637 25.0712 73.1236 24.5872 72.7268C24.1637 72.33 23.8007 71.8199 23.5587 71.253C23.3167 70.6861 23.1957 70.1193 23.1957 69.4957V35.3709C20.2312 35.3709 17.2667 35.9378 14.4838 37.0148C11.7008 38.0919 9.22029 39.679 7.1028 41.663C4.98531 43.647 3.29132 46.0279 2.20232 48.5787C1.05283 51.1863 0.447833 53.9639 0.447833 56.7415V65.4144C0.387334 68.8722 1.11333 72.33 2.50482 75.5611C3.89632 78.7922 5.9533 81.7399 8.55479 84.1773C11.1563 86.6715 14.2418 88.5988 17.6297 89.9593C21.0177 91.3198 24.7082 92 28.3987 92C32.0892 92 35.7796 91.3198 39.1676 89.9593C42.5556 88.5988 45.7016 86.6715 48.2426 84.1773C50.8441 81.6832 52.9011 78.7922 54.2926 75.5611C55.684 72.33 56.3495 68.8722 56.3495 65.4144V56.7415H33.6622V69.4957C33.6622 70.1193 33.5412 70.6861 33.2992 71.253C33.0572 71.8199 32.6942 72.33 32.2707 72.7268C31.8472 73.1236 31.3027 73.4637 30.6977 73.6905C30.1532 73.9172 29.5482 74.0306 28.8827 74.0306ZM95.2508 26.9814H87.2649V65.0176H110.618V57.8185H95.1903C95.2508 57.8752 95.2508 26.9814 95.2508 26.9814ZM136.149 41.0962C134.999 39.7924 133.608 38.7154 131.974 38.0352C130.341 37.3549 128.526 37.0148 126.771 37.1282C124.896 37.1282 123.081 37.4683 121.326 38.2052C119.632 38.9421 118.12 39.9625 116.849 41.3229C114.187 44.1005 112.735 47.7284 112.735 51.5264C112.735 55.2676 114.187 58.8955 116.849 61.7298C118.059 63.0336 119.632 64.1106 121.326 64.8475C123.02 65.5844 124.896 65.9245 126.771 65.9245C130.825 65.9245 133.971 64.6208 136.149 61.9565V65.1876H143.59V38.0352H136.149V41.0962ZM133.91 57.0249C133.184 57.7051 132.277 58.272 131.248 58.6688C130.28 59.0656 129.191 59.2356 128.163 59.1789C127.134 59.2356 126.045 59.0089 125.077 58.6688C124.109 58.272 123.202 57.7618 122.476 57.0249C121.024 55.4944 120.237 53.567 120.237 51.5264C120.237 49.4857 121.024 47.5017 122.476 46.0279C123.202 45.3476 124.109 44.7808 125.077 44.384C126.045 43.9872 127.134 43.8171 128.163 43.8738C129.252 43.8171 130.28 44.0439 131.248 44.384C132.216 44.7808 133.124 45.2909 133.91 46.0279C135.362 47.5584 136.209 49.4857 136.209 51.5264C136.149 53.5104 135.362 55.4944 133.91 57.0249ZM162.768 56.1179L155.266 37.8651H147.099L158.896 64.1673C158.412 65.7545 157.445 67.115 156.114 68.192C154.722 69.0989 153.028 69.4957 151.334 69.3824V75.9012C154.601 76.1847 157.928 75.3344 160.59 73.5204C163.071 71.7632 165.067 68.9289 166.58 65.0743L177.107 37.8651H169.121L162.768 56.1179ZM193.26 37.1282C191.203 37.0715 189.207 37.4116 187.331 38.0919C185.456 38.7721 183.762 39.8491 182.31 41.2096C179.527 43.9872 178.014 47.6717 178.014 51.4697C178.014 55.2676 179.587 58.9522 182.37 61.7298C185.274 64.4507 189.086 65.8112 193.865 65.8112C199.431 65.8112 203.606 63.8839 206.449 59.9725L200.46 56.6848C199.673 57.5917 198.705 58.3287 197.556 58.7821C196.406 59.2356 195.196 59.4624 193.986 59.4057C189.57 59.4057 186.847 57.7051 185.879 54.304H207.659C207.841 53.3403 207.962 52.3767 207.962 51.413C208.083 47.6151 206.57 43.9305 203.848 41.2096C202.517 39.8491 200.883 38.7721 199.068 38.0919C197.132 37.4116 195.196 37.0715 193.26 37.1282ZM185.698 48.9188C186 47.3316 186.968 45.9145 188.299 44.8941C189.751 43.8738 191.506 43.3636 193.26 43.477C194.894 43.477 196.467 43.9305 197.798 44.8375C199.189 45.8578 200.157 47.3316 200.399 48.9755C200.399 48.9188 185.698 48.9188 185.698 48.9188ZM220.485 42.57V37.9218H213.044V65.0743H220.485V52.0932C220.485 49.4857 221.393 47.615 223.147 46.4813C224.962 45.3476 227.08 44.8941 229.258 45.1776V37.3549C227.382 37.3549 225.567 37.8084 223.934 38.6587C222.3 39.509 221.09 40.9261 220.485 42.57ZM265.497 32.8768V26.9814H239.059V34.1805H255.454L238.635 59.0656V65.0743H265.86V57.8752H248.739C248.678 57.8752 265.497 32.8768 265.497 32.8768ZM283.405 37.1282C281.348 37.0715 279.351 37.4116 277.476 38.0919C275.6 38.7721 273.906 39.8491 272.454 41.2096C269.671 43.9872 268.159 47.6717 268.159 51.4697C268.159 55.2676 269.732 58.9522 272.515 61.7298C275.419 64.4507 279.23 65.8112 284.01 65.8112C289.576 65.8112 293.75 63.8839 296.594 59.9725L290.604 56.6848C289.818 57.5917 288.85 58.3287 287.7 58.7821C286.551 59.2356 285.341 59.4624 284.131 59.4057C279.714 59.4057 276.992 57.7051 276.024 54.304H297.804C297.985 53.3403 298.106 52.3767 298.106 51.413C298.227 47.6151 296.715 43.9305 293.992 41.2096C292.661 39.8491 291.028 38.7721 289.213 38.0919C287.337 37.4116 285.341 37.0715 283.405 37.1282ZM275.842 48.9188C276.145 47.3316 277.113 45.9145 278.444 44.8941C279.896 43.8738 281.65 43.3636 283.405 43.477C285.038 43.477 286.611 43.9305 287.942 44.8375C289.334 45.8578 290.302 47.3316 290.544 48.9755L275.842 48.9188ZM310.63 42.57V37.9218H303.188V65.0743H310.63V52.0932C310.63 49.4857 311.537 47.615 313.292 46.4813C315.107 45.3476 317.224 44.8941 319.402 45.1776V37.3549C317.527 37.3549 315.712 37.8084 314.078 38.6587C312.445 39.509 311.235 40.9261 310.63 42.57ZM336.403 37.1282C332.894 37.1849 329.566 38.3186 326.844 40.4726C324.182 42.57 322.367 45.5177 321.701 48.7488C321.036 51.9798 321.58 55.3243 323.274 58.2153C324.968 61.1063 327.63 63.3737 330.837 64.6208C334.043 65.8679 337.673 65.9812 341.001 65.0176C344.328 64.0539 347.232 62.0132 349.168 59.2923C351.104 56.5714 351.951 53.2836 351.588 49.9959C351.225 46.7081 349.712 43.647 347.232 41.3229C345.84 39.9625 344.146 38.8854 342.271 38.2052C340.396 37.4116 338.399 37.0715 336.403 37.1282ZM341.968 56.8548C341.242 57.5351 340.396 58.1019 339.428 58.442C338.46 58.7821 337.431 59.0089 336.403 58.9522C335.374 58.9522 334.346 58.7821 333.378 58.442C332.41 58.1019 331.563 57.5351 330.837 56.8548C329.385 55.381 328.598 53.4537 328.598 51.4697C328.598 49.4857 329.385 47.5584 330.837 46.0845C331.563 45.4043 332.41 44.8374 333.378 44.4973C334.346 44.1572 335.374 43.9305 336.403 43.9872C337.431 43.9872 338.46 44.1572 339.428 44.4973C340.396 44.8374 341.242 45.4043 341.968 46.0845C343.42 47.5584 344.207 49.4857 344.207 51.4697C344.207 53.4537 343.42 55.381 341.968 56.8548ZM367.257 56.6848H358.182V65.0743H367.257V56.6848Z" fill="url(#paint1_linear_10015_375)"/>
</g>
<defs>
<linearGradient id="paint0_linear_10015_375" x1="28.4872" y1="0" x2="29.4684" y2="53.4489" gradientUnits="userSpaceOnUse">
<stop offset="0.18" stop-color="#242124"/>
<stop offset="1" stop-color="#5C5C5C" stop-opacity="0.2"/>
</linearGradient>
<linearGradient id="paint1_linear_10015_375" x1="183.851" y1="26.9814" x2="184.047" y2="88.2461" gradientUnits="userSpaceOnUse">
<stop offset="0.18" stop-color="#242124"/>
<stop offset="1" stop-color="#5C5C5C" stop-opacity="0.2"/>
</linearGradient>
</defs>
</svg>
