<svg width="178" height="84" viewBox="0 0 178 84" fill="none" xmlns="http://www.w3.org/2000/svg">
<g opacity="0.5">
<path d="M61.4707 0C81.0261 0 100.581 0 120.729 0C120.729 9.38056 120.729 18.7611 120.729 28.426C111.885 28.426 103.042 28.426 93.9296 28.426C93.9296 30.8301 93.9296 33.2343 93.9296 35.7113C102.044 35.7113 110.158 35.7113 118.518 35.7113C118.518 44.1689 118.518 52.6264 118.518 61.3402C110.404 61.3402 102.29 61.3402 93.9296 61.3402C93.9296 68.4883 93.9296 75.6364 93.9296 83.0012C83.2182 83.0012 72.5067 83.0012 61.4707 83.0012C61.4707 55.6108 61.4707 28.2204 61.4707 0Z" fill="url(#paint0_linear_10550_106)"/>
<path d="M125.608 0C142.566 0 159.524 0 176.996 0C177.007 14.9488 177.007 14.9488 177.009 20.6811C177.009 22.2255 177.01 23.7698 177.011 25.3141C177.011 25.4499 177.011 25.5857 177.011 25.7216C177.012 27.7995 177.013 29.8774 177.014 31.9553C177.014 31.9999 177.014 32.0445 177.014 32.0905C177.015 32.8098 177.015 33.5292 177.016 34.2486C177.019 37.2621 177.02 40.2757 177.021 43.2893C177.021 43.7091 177.021 44.129 177.021 44.5488C177.021 44.6728 177.021 44.6728 177.021 44.7992C177.021 46.1263 177.023 47.4534 177.024 48.7804C177.026 50.1164 177.026 51.4524 177.026 52.7884C177.026 53.5809 177.026 54.3735 177.028 55.166C177.029 55.6971 177.029 56.2281 177.028 56.7591C177.028 57.0607 177.028 57.3622 177.029 57.6637C177.034 59.0508 176.964 60.3944 176.767 61.7682C176.729 62.0417 176.698 62.3157 176.669 62.5904C176.575 63.4505 176.359 64.2771 176.137 65.1119C176.095 65.272 176.056 65.432 176.019 65.5932C175.889 66.1585 175.715 66.705 175.533 67.2555C175.508 67.3303 175.483 67.4052 175.458 67.4823C175.333 67.8515 175.201 68.2102 175.037 68.5639C174.955 68.7451 174.887 68.9312 174.817 69.1175C174.637 69.5801 174.421 70.0233 174.199 70.4672C174.167 70.5324 174.134 70.5976 174.101 70.6647C173.891 71.0808 173.662 71.4806 173.419 71.878C173.36 71.9799 173.36 71.9799 173.3 72.0838C173.269 72.1366 173.239 72.1894 173.207 72.2439C173.176 72.2984 173.145 72.3529 173.113 72.409C173.085 72.4484 173.057 72.4879 173.028 72.5285C172.985 72.5285 172.943 72.5285 172.898 72.5285C172.882 72.5852 172.866 72.642 172.85 72.7005C172.762 72.9352 172.654 73.0918 172.5 73.2887C172.448 73.3557 172.396 73.4227 172.343 73.4917C172.303 73.5429 172.303 73.5429 172.262 73.5951C172.091 73.8202 171.93 74.0539 171.768 74.2858C171.733 74.3284 171.698 74.371 171.662 74.4148C171.619 74.4148 171.577 74.4148 171.532 74.4148C171.52 74.4591 171.508 74.5034 171.496 74.549C171.386 74.773 171.25 74.9024 171.072 75.0732C170.949 75.1933 170.836 75.3177 170.723 75.4475C170.686 75.4905 170.649 75.5335 170.61 75.5778C170.526 75.6757 170.442 75.7738 170.359 75.8721C170.314 75.9238 170.269 75.9755 170.223 76.0288C170.183 76.0762 170.142 76.1236 170.101 76.1724C169.961 76.3118 169.815 76.3953 169.646 76.4964C169.54 76.6102 169.449 76.7292 169.355 76.8526C169.256 76.9517 169.256 76.9517 169.122 76.9817C169.08 76.9933 169.038 77.0048 168.995 77.0168C168.95 77.1025 168.907 77.1894 168.865 77.277C168.485 77.6382 168.046 77.9445 167.625 78.2567C167.561 78.3045 167.561 78.3045 167.496 78.3532C167.19 78.5779 167.19 78.5779 167.044 78.5779C167.044 78.6208 167.044 78.6638 167.044 78.708C166.978 78.7453 166.911 78.7826 166.843 78.8211C166.612 78.9531 166.389 79.095 166.166 79.2406C165.104 79.9273 164.022 80.513 162.859 81.0116C162.659 81.0983 162.461 81.1886 162.263 81.2815C161.606 81.5808 160.926 81.8188 160.236 82.0279C159.993 82.1018 159.752 82.1796 159.512 82.2633C158.695 82.5474 157.874 82.765 157.031 82.9557C156.84 82.9992 156.65 83.0447 156.46 83.0909C155.707 83.2722 154.959 83.3974 154.191 83.4928C153.931 83.5266 153.671 83.5636 153.411 83.6011C153.31 83.6156 153.209 83.6301 153.107 83.6445C152.958 83.6659 152.809 83.6873 152.659 83.7092C151.193 83.9232 149.742 83.9974 148.26 83.9965C148.127 83.9966 147.995 83.9968 147.862 83.9971C147.445 83.9978 147.028 83.9978 146.611 83.9974C146.236 83.9971 145.862 83.9975 145.487 83.9988C143.343 84.0056 141.209 83.9907 139.073 83.7817C138.996 83.7743 138.918 83.7669 138.838 83.7593C138.417 83.7183 137.997 83.6707 137.577 83.6191C137.457 83.6047 137.336 83.5903 137.215 83.576C137.038 83.555 136.86 83.5339 136.683 83.5125C136.369 83.4746 136.055 83.4395 135.74 83.4082C134.753 83.3088 133.788 83.1319 132.816 82.9412C132.766 82.9314 132.715 82.9216 132.664 82.9115C132.615 82.9018 132.566 82.8922 132.515 82.8823C132.168 82.815 131.821 82.7599 131.471 82.7125C130.836 82.6236 130.219 82.4496 129.601 82.2827C129.186 82.1716 128.774 82.0703 128.353 81.9891C127.964 81.9141 127.591 81.8174 127.214 81.6962C126.901 81.5964 126.594 81.5036 126.271 81.4443C125.874 81.3692 125.496 81.2419 125.112 81.1148C124.972 81.0686 124.832 81.0225 124.691 80.9766C124.63 80.9563 124.569 80.936 124.506 80.9151C124.269 80.8427 124.027 80.7846 123.787 80.7245C123.787 70.6141 123.787 60.5037 123.787 50.0869C124.107 50.1326 124.393 50.1846 124.703 50.2653C124.766 50.2818 124.766 50.2818 124.831 50.2986C124.966 50.3335 125.1 50.3688 125.234 50.404C125.323 50.4272 125.412 50.4503 125.501 50.4734C125.884 50.573 126.267 50.6742 126.647 50.7814C126.933 50.8595 127.214 50.9127 127.507 50.9529C127.909 51.0117 128.309 51.0797 128.707 51.1572C128.751 51.1656 128.795 51.1741 128.84 51.1829C128.884 51.1915 128.928 51.2001 128.974 51.209C129.785 51.3664 130.587 51.5031 131.411 51.5676C131.715 51.5934 132.018 51.6262 132.322 51.6578C134.968 51.933 138.049 52.1542 140.569 51.1277C140.611 51.1117 140.653 51.0957 140.696 51.0792C141.793 50.6572 142.794 49.9914 143.432 48.9811C143.475 48.9811 143.517 48.9811 143.562 48.9811C143.571 48.8962 143.571 48.8962 143.581 48.8096C143.631 48.5717 143.715 48.4213 143.838 48.2127C144.398 47.1836 144.482 45.8336 144.483 44.6807C144.483 44.5761 144.483 44.5761 144.484 44.4694C144.485 44.2367 144.485 44.0039 144.486 43.7711C144.486 43.6011 144.487 43.431 144.488 43.2609C144.489 42.8524 144.491 42.4439 144.492 42.0354C144.493 41.5625 144.495 41.0896 144.497 40.6167C144.501 39.3692 144.505 38.1216 144.509 36.8741C144.523 32.6922 144.523 32.6922 144.537 28.426C138.291 28.426 132.044 28.426 125.608 28.426C125.608 19.0454 125.608 9.66482 125.608 0Z" fill="url(#paint1_linear_10550_106)"/>
<path d="M0 0C10.7114 0 21.4229 0 32.4589 0C32.4589 17.7308 32.4589 35.4615 32.4589 53.7296C40.4013 53.7296 48.3436 53.7296 56.5267 53.7296C56.5267 63.3892 56.5267 73.0488 56.5267 83.0012C37.8729 83.0012 19.2191 83.0012 0 83.0012C0 55.6108 0 28.2204 0 0Z" fill="url(#paint2_linear_10550_106)"/>
</g>
<defs>
<linearGradient id="paint0_linear_10550_106" x1="90.7606" y1="0" x2="90.7606" y2="63.239" gradientUnits="userSpaceOnUse">
<stop offset="0.18" stop-color="#242124"/>
<stop offset="1" stop-color="#5C5C5C" stop-opacity="0.6"/>
</linearGradient>
<linearGradient id="paint1_linear_10550_106" x1="150.103" y1="0" x2="150.103" y2="64" gradientUnits="userSpaceOnUse">
<stop offset="0.18" stop-color="#242124"/>
<stop offset="1" stop-color="#5C5C5C" stop-opacity="0.6"/>
</linearGradient>
<linearGradient id="paint2_linear_10550_106" x1="27.9395" y1="0" x2="27.9395" y2="63.239" gradientUnits="userSpaceOnUse">
<stop offset="0.18" stop-color="#242124"/>
<stop offset="1" stop-color="#5C5C5C" stop-opacity="0.6"/>
</linearGradient>
</defs>
</svg>
