<svg width="205" height="59" viewBox="0 0 205 59" fill="none" xmlns="http://www.w3.org/2000/svg">
<g opacity="0.5">
<path d="M54.0006 58.1367H45.5103V16.8193H54.0006V58.1367Z" fill="url(#paint0_linear_10015_368)"/>
<path d="M84.6795 16.0059C89.3661 16.0059 93.1955 17.6497 96.1622 20.9363C99.1248 24.2235 100.61 28.4026 100.61 33.4694V58.1301H92.1195V34.763C92.1195 31.5828 91.0954 28.9531 89.0463 26.8788C86.9971 24.804 84.4661 23.7668 81.4479 23.7668C78.0501 23.7668 75.2752 24.804 73.1196 26.8788C70.964 28.9531 69.8839 31.5828 69.8839 34.763V58.1301H61.3936V16.817H69.8839V27.4892C71.0149 23.933 72.8889 21.1288 75.5059 19.0796C78.1183 17.0304 81.1789 16.0059 84.6837 16.0059H84.6795Z" fill="url(#paint1_linear_10015_368)"/>
<path d="M127.08 16.0059C133.709 16.0059 139.1 18.3796 143.25 23.1218C147.399 27.8688 149.098 33.6062 148.343 40.3462H114.141C114.735 43.689 116.271 46.3994 118.751 48.4742C121.231 50.5486 124.22 51.5862 127.725 51.5862C130.418 51.5862 132.83 50.9245 134.96 49.6052C137.09 48.2865 138.746 46.4932 139.933 44.227L147.049 47.3815C145.217 50.8857 142.601 53.6863 139.207 55.7905C135.814 57.8952 131.904 58.9455 127.481 58.9455C121.283 58.9455 116.079 56.8964 111.874 52.8027C107.67 48.7091 105.565 43.6119 105.565 37.5205C105.565 31.4291 107.627 26.3235 111.751 22.1958C115.874 18.0723 120.98 16.0106 127.075 16.0106L127.08 16.0059ZM127.08 23.3651C123.951 23.3651 121.245 24.3215 118.952 26.2381C116.66 28.1509 115.136 30.6437 114.384 33.7169H139.775C139.075 30.6437 137.577 28.1509 135.288 26.2381C132.996 24.3257 130.26 23.3651 127.08 23.3651Z" fill="url(#paint2_linear_10015_368)"/>
<path d="M171.818 16.0059C176.778 16.0059 180.82 17.2994 183.945 19.8866C187.07 22.4732 188.636 26.1956 188.636 31.0448V58.1343H180.146V47.1382C177.61 55.0097 172.518 58.9455 164.864 58.9455C161.304 58.9455 158.341 57.8827 155.968 55.7522C153.595 53.6223 152.412 50.8348 152.412 47.3857C152.412 43.3429 153.838 40.308 156.698 38.2887C159.554 36.2699 163.195 35.0146 167.613 34.528L175.617 33.7169C178.635 33.4484 180.146 32.0993 180.146 29.6747C180.146 27.6811 179.377 26.0886 177.841 24.9062C176.304 23.7196 174.298 23.1265 171.818 23.1265C169.338 23.1265 167.139 23.7752 165.389 25.0687C163.639 26.3618 162.521 28.2489 162.034 30.7291L153.624 28.7056C154.38 24.8254 156.399 21.7391 159.69 19.4467C162.977 17.1584 167.019 16.0106 171.818 16.0106V16.0059ZM167.613 52.0686C171.118 52.0686 174.08 50.8946 176.505 48.5508C178.93 46.2074 180.142 43.4714 180.142 40.3421V38.0795C179.497 39.1596 177.931 39.8298 175.451 40.0988L167.609 41.0678C165.56 41.3409 163.929 41.9429 162.717 42.8862C161.504 43.8295 160.898 45.1105 160.898 46.7281C160.898 48.3463 161.504 49.6393 162.717 50.6083C163.929 51.5773 165.56 52.0639 167.609 52.0639L167.613 52.0686Z" fill="url(#paint3_linear_10015_368)"/>
<path d="M39.6614 58.1367H0.444336V16.8193H9.4172V50.1324H39.6614V58.1367Z" fill="url(#paint4_linear_10015_368)"/>
<path d="M196.64 16.0076C201.061 16.0076 204.644 12.4241 204.644 8.00391C204.644 3.58347 201.061 0 196.64 0C192.22 0 188.636 3.58347 188.636 8.00391C188.636 12.4241 192.22 16.0076 196.64 16.0076Z" fill="url(#paint5_linear_10015_368)"/>
</g>
<defs>
<linearGradient id="paint0_linear_10015_368" x1="49.7554" y1="16.8193" x2="49.7554" y2="58.1367" gradientUnits="userSpaceOnUse">
<stop offset="0.18" stop-color="#242124"/>
<stop offset="1" stop-color="#5C5C5C" stop-opacity="0.4"/>
</linearGradient>
<linearGradient id="paint1_linear_10015_368" x1="81.0019" y1="16.0059" x2="81.0019" y2="58.1301" gradientUnits="userSpaceOnUse">
<stop offset="0.18" stop-color="#242124"/>
<stop offset="1" stop-color="#5C5C5C" stop-opacity="0.4"/>
</linearGradient>
<linearGradient id="paint2_linear_10015_368" x1="127.041" y1="16.0059" x2="127.041" y2="58.9455" gradientUnits="userSpaceOnUse">
<stop offset="0.18" stop-color="#242124"/>
<stop offset="1" stop-color="#5C5C5C" stop-opacity="0.4"/>
</linearGradient>
<linearGradient id="paint3_linear_10015_368" x1="170.524" y1="16.0059" x2="170.524" y2="58.9455" gradientUnits="userSpaceOnUse">
<stop offset="0.18" stop-color="#242124"/>
<stop offset="1" stop-color="#5C5C5C" stop-opacity="0.4"/>
</linearGradient>
<linearGradient id="paint4_linear_10015_368" x1="20.0528" y1="16.8193" x2="20.0528" y2="58.1367" gradientUnits="userSpaceOnUse">
<stop offset="0.18" stop-color="#242124"/>
<stop offset="1" stop-color="#5C5C5C" stop-opacity="0.4"/>
</linearGradient>
<linearGradient id="paint5_linear_10015_368" x1="196.64" y1="0" x2="196.64" y2="16.0076" gradientUnits="userSpaceOnUse">
<stop offset="0.18" stop-color="#242124"/>
<stop offset="1" stop-color="#5C5C5C" stop-opacity="0.4"/>
</linearGradient>
</defs>
</svg>
