<svg width="419" height="100" viewBox="0 0 419 100" fill="none" xmlns="http://www.w3.org/2000/svg">
<g opacity="0.8">
<path opacity="0.5" d="M70.7484 100L139.881 30.8651L109.244 0.229492L50.2148 17.7838H101.976L115.058 30.8659L70.7484 100Z" fill="url(#paint0_linear_10539_212)"/>
<path opacity="0.5" d="M89.2196 0.229492L30.5512 0.315611L0 30.865L70.1327 94.6007L24.8229 30.866L37.9051 17.7837L89.2196 0.229492Z" fill="url(#paint1_linear_10539_212)"/>
<path opacity="0.5" d="M163.149 25.2806C163.114 22.9672 163.511 20.8266 164.34 18.8585C165.168 16.8559 166.308 15.1468 167.758 13.7312C169.243 12.3155 170.969 11.1071 172.937 10.1058C174.905 9.06994 176.994 8.31034 179.204 7.82695C181.448 7.30903 183.761 7.01554 186.144 6.94649C189.182 6.91197 192.152 7.29176 195.052 8.08589C197.987 8.8455 200.594 9.9504 202.872 11.4005C205.186 12.8162 207.033 14.6116 208.414 16.7868C209.829 18.9621 210.503 21.2927 210.434 23.7787C210.399 26.5064 209.104 28.7333 206.55 30.4598C203.995 32.1862 200.852 33.0492 197.124 33.0492V33.8262C200.852 33.8952 205.03 33.5154 209.657 32.6867V43.4594H185.833C183.623 43.4249 181.465 43.166 179.359 42.6825C177.253 42.1645 175.216 41.4223 173.248 40.4555C171.314 39.4543 169.605 38.2631 168.12 36.8819C166.636 35.5009 165.445 33.8089 164.547 31.8062C163.649 29.8038 163.183 27.6286 163.149 25.2806ZM176.355 25.2806C176.424 27.1106 176.994 28.6988 178.064 30.0455C179.135 31.3575 180.429 32.3242 181.949 32.9457C183.468 33.5327 185.108 33.8262 186.869 33.8262C188.63 33.8262 190.27 33.5327 191.789 32.9457C193.308 32.3242 194.586 31.3575 195.622 30.0455C196.658 28.6988 197.21 27.1106 197.279 25.2806C197.314 23.3125 196.606 21.6552 195.156 20.3087C193.74 18.9276 191.979 18.0816 189.873 17.7709C187.767 17.4601 185.661 17.4774 183.554 17.8227C181.483 18.1334 179.739 18.9621 178.323 20.3087C176.908 21.6552 176.252 23.3125 176.355 25.2806Z" fill="url(#paint2_linear_10539_212)"/>
<path opacity="0.5" d="M212.004 25.28C211.935 21.9308 212.765 18.9441 214.49 16.32C216.217 13.696 218.479 11.7106 221.276 10.364C224.072 9.01747 227.163 8.03344 230.547 7.41193C233.964 6.75592 237.364 6.75592 240.748 7.41193C244.132 8.03344 247.223 9.01747 250.021 10.364C252.816 11.7106 255.078 13.696 256.805 16.32C258.53 18.9441 259.36 21.9308 259.291 25.28C259.256 27.6624 258.79 29.8549 257.892 31.8575C256.994 33.86 255.787 35.5692 254.267 36.9847C252.748 38.4004 250.987 39.6089 248.983 40.6101C246.982 41.6116 244.858 42.3538 242.613 42.8373C240.37 43.286 238.057 43.5105 235.674 43.5105C233.29 43.5105 230.96 43.286 228.682 42.8373C226.437 42.3538 224.313 41.6116 222.311 40.6101C220.308 39.6089 218.547 38.4004 217.028 36.9847C215.51 35.5692 214.301 33.86 213.403 31.8575C212.505 29.8549 212.039 27.6624 212.004 25.28ZM225.211 25.28C225.282 27.1099 225.851 28.6981 226.922 30.0448C227.992 31.3568 229.285 32.3235 230.804 32.945C232.324 33.532 233.964 33.8255 235.724 33.8255C237.487 33.8255 239.127 33.532 240.646 32.945C242.164 32.3235 243.442 31.3568 244.477 30.0448C245.514 28.6981 246.067 27.1099 246.136 25.28C246.169 23.3118 245.462 21.6545 244.012 20.308C242.596 18.9269 240.836 18.081 238.73 17.7702C236.622 17.4594 234.517 17.4767 232.411 17.822C230.339 18.1327 228.595 18.9614 227.179 20.308C225.764 21.6545 225.107 23.3118 225.211 25.28Z" fill="url(#paint3_linear_10539_212)"/>
<path opacity="0.5" d="M274.122 17.6152V24.2445H286.812C288.157 24.2098 289.211 23.8818 289.971 23.2604C290.765 22.6389 291.179 21.8794 291.214 20.9816C291.248 20.0839 290.919 19.2897 290.229 18.5992C289.574 17.9086 288.606 17.5806 287.329 17.6152H274.122ZM304.367 35.6903V43.4591H291.214V34.7063C291.144 32.0821 289.435 30.7184 286.086 30.6147H274.122V43.4591H260.863V7.15332H288.107C290.867 7.15332 293.251 7.34322 295.253 7.72301C297.257 8.10282 298.826 8.60346 299.967 9.22497C301.139 9.81193 302.056 10.5888 302.711 11.5556C303.401 12.5223 303.85 13.5064 304.058 14.5077C304.266 15.4745 304.367 16.6139 304.367 17.9259C304.367 20.9643 303.056 23.2776 300.433 24.866C297.843 26.4198 294.459 27.1965 290.281 27.1965V27.9735C292.318 27.9735 294.149 28.1115 295.77 28.3877C297.394 28.664 298.861 29.0955 300.173 29.6825C301.52 30.2349 302.555 31.0291 303.28 32.0649C304.006 33.0663 304.367 34.2746 304.367 35.6903Z" fill="url(#paint4_linear_10539_212)"/>
<path opacity="0.5" d="M319.642 17.6152V24.2445H331.656C333.211 24.3136 334.437 24.0373 335.335 23.4158C336.231 22.7598 336.699 21.9484 336.732 20.9816C336.767 20.0839 336.439 19.2897 335.749 18.5992C335.092 17.9086 334.125 17.5806 332.847 17.6152H319.642ZM319.642 31.5989V43.4591H306.383V7.15332H333.624C335.938 7.15332 337.975 7.30869 339.735 7.61944C341.531 7.89565 342.999 8.34452 344.138 8.966C345.312 9.55297 346.279 10.2263 347.039 10.9859C347.833 11.7109 348.419 12.6259 348.8 13.7308C349.213 14.8012 349.49 15.8715 349.629 16.9419C349.802 17.9777 349.887 19.2034 349.887 20.6191C349.887 23.7266 348.368 26.3333 345.329 28.4395C342.292 30.5457 338.442 31.5989 333.78 31.5989C332.606 31.5989 327.894 31.5989 319.642 31.5989Z" fill="url(#paint5_linear_10539_212)"/>
<path opacity="0.5" d="M351.398 25.28C351.33 21.9308 352.159 18.9441 353.884 16.32C355.612 13.696 357.873 11.7106 360.669 10.364C363.467 9.01747 366.557 8.03344 369.941 7.41193C373.358 6.75592 376.759 6.75592 380.143 7.41193C383.527 8.03344 386.617 9.01747 389.413 10.364C392.211 11.7106 394.472 13.696 396.2 16.32C397.925 18.9441 398.754 21.9308 398.686 25.28C398.65 27.6624 398.185 29.8549 397.287 31.8575C396.389 33.86 395.179 35.5692 393.662 36.9847C392.142 38.4004 390.38 39.6089 388.378 40.6101C386.376 41.6116 384.252 42.3538 382.007 42.8373C379.764 43.286 377.451 43.5105 375.067 43.5105C372.685 43.5105 370.355 43.286 368.077 42.8373C365.832 42.3538 363.708 41.6116 361.706 40.6101C359.702 39.6089 357.942 38.4004 356.422 36.9847C354.903 35.5692 353.695 33.86 352.797 31.8575C351.899 29.8549 351.434 27.6624 351.398 25.28ZM364.606 25.28C364.674 27.1099 365.244 28.6981 366.314 30.0448C367.385 31.3568 368.68 32.3235 370.199 32.945C371.718 33.532 373.358 33.8255 375.119 33.8255C376.879 33.8255 378.522 33.532 380.039 32.945C381.558 32.3235 382.837 31.3568 383.872 30.0448C384.909 28.6981 385.46 27.1099 385.53 25.28C385.564 23.3118 384.857 21.6545 383.406 20.308C381.991 18.9269 380.23 18.081 378.122 17.7702C376.017 17.4594 373.911 17.4767 371.806 17.822C369.733 18.1327 367.989 18.9614 366.574 20.308C365.158 21.6545 364.502 23.3118 364.606 25.28Z" fill="url(#paint6_linear_10539_212)"/>
<path opacity="0.5" d="M176.508 50.082L182.465 81.5193H183.242L189.249 50.082C205.995 50.082 214.369 50.082 214.369 50.082L220.324 81.5193H221.101L227.108 50.082H240.419L233.065 86.4394C216.63 86.4394 208.412 86.4394 208.412 86.4394L202.197 53.9147H201.368L195.205 86.4394C178.77 86.4394 170.553 86.4394 170.553 86.4394L163.146 50.082H176.508Z" fill="url(#paint7_linear_10539_212)"/>
<path opacity="0.5" d="M238.859 68.2087C238.791 64.8595 239.62 61.8728 241.345 59.2487C243.073 56.6245 245.334 54.6393 248.13 53.2928C250.927 51.9461 254.018 50.9621 257.402 50.3406C260.819 49.6846 264.22 49.6846 267.604 50.3406C270.988 50.9621 274.078 51.9461 276.874 53.2928C279.672 54.6393 281.933 56.6245 283.661 59.2487C285.386 61.8728 286.215 64.8595 286.146 68.2087C286.111 70.5909 285.646 72.7836 284.748 74.7861C283.85 76.7888 282.642 78.4977 281.123 79.9134C279.603 81.3291 277.843 82.5376 275.839 83.5388C273.837 84.5401 271.713 85.2825 269.468 85.7658C267.225 86.2148 264.912 86.4391 262.528 86.4391C260.146 86.4391 257.816 86.2148 255.538 85.7658C253.293 85.2825 251.169 84.5401 249.167 83.5388C247.163 82.5376 245.403 81.3291 243.883 79.9134C242.364 78.4977 241.156 76.7888 240.258 74.7861C239.36 72.7836 238.895 70.5909 238.859 68.2087ZM252.067 68.2087C252.135 70.0386 252.705 71.6269 253.775 72.9734C254.846 74.2855 256.14 75.2523 257.66 75.8738C259.179 76.4608 260.819 76.7542 262.58 76.7542C264.34 76.7542 265.982 76.4608 267.5 75.8738C269.019 75.2523 270.298 74.2855 271.333 72.9734C272.37 71.6269 272.921 70.0386 272.991 68.2087C273.025 66.2405 272.318 64.5833 270.867 63.2366C269.452 61.8556 267.691 61.0096 265.585 60.6989C263.478 60.3881 261.372 60.4054 259.267 60.7506C257.194 61.0614 255.45 61.8901 254.035 63.2366C252.619 64.5833 251.963 66.2405 252.067 68.2087Z" fill="url(#paint8_linear_10539_212)"/>
<path opacity="0.5" d="M300.976 60.5438V67.1731H313.663C315.01 67.1386 316.064 66.8106 316.823 66.1891C317.617 65.5677 318.032 64.8079 318.066 63.9102C318.101 63.0125 317.773 62.2185 317.083 61.528C316.426 60.8373 315.459 60.5093 314.183 60.5438H300.976ZM331.221 78.6191V86.3877H318.066V77.6351C317.997 75.0109 316.289 73.647 312.94 73.5435H300.976V86.3877H287.717V50.082H314.958C317.721 50.082 320.103 50.272 322.106 50.6518C324.108 51.0315 325.679 51.5322 326.819 52.1537C327.993 52.7407 328.907 53.5175 329.564 54.4842C330.254 55.4511 330.703 56.4351 330.911 57.4364C331.117 58.4031 331.221 59.5426 331.221 60.8545C331.221 63.893 329.909 66.2064 327.286 67.7946C324.696 69.3483 321.312 70.1253 317.135 70.1253V70.9021C319.172 70.9021 321.001 71.0403 322.624 71.3165C324.247 71.5928 325.715 72.0243 327.026 72.6112C328.373 73.1637 329.408 73.9577 330.134 74.9937C330.859 75.9949 331.221 77.2034 331.221 78.6191Z" fill="url(#paint9_linear_10539_212)"/>
<path opacity="0.5" d="M346.497 50.082V76.7546H370.579V86.3877C370.579 86.3877 358.133 86.3877 333.238 86.3877V50.082H346.497Z" fill="url(#paint10_linear_10539_212)"/>
<path opacity="0.5" d="M385.896 60.5438V76.8064H397.342C397.964 76.8064 398.619 76.7374 399.309 76.5992C400.001 76.4266 400.743 76.1504 401.537 75.7704C402.331 75.3907 403.021 74.9247 403.609 74.3722C404.231 73.7852 404.748 73.0255 405.162 72.0933C405.576 71.1265 405.783 70.039 405.783 68.8306C405.819 67.3459 405.646 66.0684 405.266 64.9979C404.921 63.893 404.505 63.0645 404.023 62.512C403.539 61.9595 402.917 61.528 402.158 61.2173C401.433 60.8718 400.795 60.682 400.242 60.6475C399.724 60.5783 399.136 60.5438 398.481 60.5438H385.896ZM372.637 86.3877V50.082H399.309C412.431 50.082 418.991 56.4179 418.991 69.0893C418.991 71.748 418.61 74.096 417.851 76.1332C417.091 78.1701 416.091 79.8276 414.848 81.105C413.638 82.3825 412.154 83.4357 410.394 84.2642C408.666 85.0585 406.906 85.6109 405.11 85.9217C403.349 86.2324 401.45 86.3877 399.413 86.3877C398.136 86.3877 389.211 86.3877 372.637 86.3877Z" fill="url(#paint11_linear_10539_212)"/>
</g>
<defs>
<linearGradient id="paint0_linear_10539_212" x1="95.0478" y1="0.229492" x2="95.0478" y2="100" gradientUnits="userSpaceOnUse">
<stop offset="0.177885" stop-color="#242124"/>
<stop offset="0.610577" stop-color="#5C5C5C" stop-opacity="0.6"/>
</linearGradient>
<linearGradient id="paint1_linear_10539_212" x1="44.6098" y1="0.229492" x2="44.6098" y2="94.6007" gradientUnits="userSpaceOnUse">
<stop offset="0.177885" stop-color="#242124"/>
<stop offset="0.610577" stop-color="#5C5C5C" stop-opacity="0.6"/>
</linearGradient>
<linearGradient id="paint2_linear_10539_212" x1="186.793" y1="6.94434" x2="186.793" y2="43.4594" gradientUnits="userSpaceOnUse">
<stop offset="0.177885" stop-color="#242124"/>
<stop offset="0.610577" stop-color="#5C5C5C" stop-opacity="0.6"/>
</linearGradient>
<linearGradient id="paint3_linear_10539_212" x1="235.647" y1="6.91992" x2="235.647" y2="43.5105" gradientUnits="userSpaceOnUse">
<stop offset="0.177885" stop-color="#242124"/>
<stop offset="0.610577" stop-color="#5C5C5C" stop-opacity="0.6"/>
</linearGradient>
<linearGradient id="paint4_linear_10539_212" x1="282.615" y1="7.15332" x2="282.615" y2="43.4591" gradientUnits="userSpaceOnUse">
<stop offset="0.177885" stop-color="#242124"/>
<stop offset="0.610577" stop-color="#5C5C5C" stop-opacity="0.6"/>
</linearGradient>
<linearGradient id="paint5_linear_10539_212" x1="328.135" y1="7.15332" x2="328.135" y2="43.4591" gradientUnits="userSpaceOnUse">
<stop offset="0.177885" stop-color="#242124"/>
<stop offset="0.610577" stop-color="#5C5C5C" stop-opacity="0.6"/>
</linearGradient>
<linearGradient id="paint6_linear_10539_212" x1="375.042" y1="6.91992" x2="375.042" y2="43.5105" gradientUnits="userSpaceOnUse">
<stop offset="0.177885" stop-color="#242124"/>
<stop offset="0.610577" stop-color="#5C5C5C" stop-opacity="0.6"/>
</linearGradient>
<linearGradient id="paint7_linear_10539_212" x1="201.783" y1="50.082" x2="201.783" y2="86.4394" gradientUnits="userSpaceOnUse">
<stop offset="0.177885" stop-color="#242124"/>
<stop offset="0.610577" stop-color="#5C5C5C" stop-opacity="0.6"/>
</linearGradient>
<linearGradient id="paint8_linear_10539_212" x1="262.503" y1="49.8486" x2="262.503" y2="86.4391" gradientUnits="userSpaceOnUse">
<stop offset="0.177885" stop-color="#242124"/>
<stop offset="0.610577" stop-color="#5C5C5C" stop-opacity="0.6"/>
</linearGradient>
<linearGradient id="paint9_linear_10539_212" x1="309.469" y1="50.082" x2="309.469" y2="86.3877" gradientUnits="userSpaceOnUse">
<stop offset="0.177885" stop-color="#242124"/>
<stop offset="0.610577" stop-color="#5C5C5C" stop-opacity="0.6"/>
</linearGradient>
<linearGradient id="paint10_linear_10539_212" x1="351.909" y1="50.082" x2="351.909" y2="86.3877" gradientUnits="userSpaceOnUse">
<stop offset="0.177885" stop-color="#242124"/>
<stop offset="0.610577" stop-color="#5C5C5C" stop-opacity="0.6"/>
</linearGradient>
<linearGradient id="paint11_linear_10539_212" x1="395.814" y1="50.082" x2="395.814" y2="86.3877" gradientUnits="userSpaceOnUse">
<stop offset="0.177885" stop-color="#242124"/>
<stop offset="0.610577" stop-color="#5C5C5C" stop-opacity="0.6"/>
</linearGradient>
</defs>
</svg>
