<svg width="324" height="67" viewBox="0 0 324 67" fill="none" xmlns="http://www.w3.org/2000/svg">
<path d="M109.763 49.9998C115.542 49.9998 119.909 48.8005 119.909 42.9471C119.909 38.7183 117.159 36.9132 113.06 36.3202L103.652 34.9534C96.6501 33.9609 93.1367 30.2733 93.1367 23.8783C93.1367 15.2401 100.495 11.6816 109.024 11.6816C114.447 11.6816 118.521 12.8935 121.271 15.3047C124.021 17.7155 125.535 20.9002 125.828 24.8713H119.718C118.979 19.0307 114.867 16.6455 108.961 16.6455C105.778 16.6455 103.41 17.2773 101.844 18.5278C100.278 19.7914 99.4892 21.5061 99.4892 23.6979C99.4892 27.1276 101.59 28.984 104.925 29.5126L114.88 30.9954C123.333 32.2203 126.248 36.4234 126.248 42.1348C126.248 50.6701 120.749 54.9506 109.75 54.9506C103.563 54.9506 99.0309 53.5581 96.1792 50.7731C93.3276 47.9884 91.9019 44.4556 91.9019 40.1623H98.0123C98.2161 46.7248 102.124 49.9998 109.75 49.9998H109.763Z" fill="url(#paint0_linear_10015_310)"/>
<path d="M200.674 27.1527C193.545 27.1527 191.992 33.6895 191.992 40.8968V53.9574H186.008V35.2109C186.008 30.2986 184.379 27.1656 179.529 27.1656C172.438 27.1656 170.847 33.741 170.847 40.9096V53.9701H164.736V23.0269H170.847V29.7701C172.883 24.6128 176.473 22.0342 181.604 22.0342C186.734 22.0342 190.363 24.4581 191.56 30.0149C193.596 24.6902 197.326 22.0342 202.736 22.0342C209.738 22.0342 213.251 26.2374 213.251 34.6565V53.9701H207.141V35.2238C207.141 30.2857 205.487 27.1785 200.661 27.1785L200.674 27.1527Z" fill="url(#paint1_linear_10015_310)"/>
<path d="M254.872 27.1527C247.743 27.1527 246.189 33.6895 246.189 40.8968V53.9574H240.193V35.2109C240.193 30.2986 238.565 27.1656 233.713 27.1656C226.637 27.1656 225.033 33.7283 225.033 40.9096V53.9701H218.921V23.0269H225.033V29.7701C227.069 24.6128 230.658 22.0342 235.789 22.0342C240.919 22.0342 244.548 24.484 245.744 30.0149C247.78 24.6902 251.51 22.0342 256.921 22.0342C263.923 22.0342 267.438 26.2374 267.438 34.6565V53.9701H261.326V35.2238C261.326 30.3115 259.697 27.1785 254.846 27.1785L254.872 27.1527Z" fill="url(#paint2_linear_10015_310)"/>
<path d="M282.831 38.4206C282.831 28.8797 288.406 22.0205 298.59 22.0205C308.775 22.0205 314.351 28.7637 314.351 38.4206C314.351 48.0775 308.839 54.9492 298.59 54.9492C288.342 54.9492 282.831 48 282.831 38.4206ZM298.59 49.9984C305.848 49.9984 308.19 45.8986 308.19 38.485C308.19 31.0715 305.859 26.9717 298.59 26.9717C291.322 26.9717 288.993 31.0586 288.993 38.485C288.993 45.9115 291.322 49.9984 298.59 49.9984Z" fill="url(#paint3_linear_10015_310)"/>
<path d="M272.67 12.8008H279.087V18.3707H272.67V12.8008ZM272.824 23.0123H278.934V53.9555H272.824V23.0123Z" fill="url(#paint4_linear_10015_310)"/>
<path d="M156.129 23.0131L156.103 23.0774L146.097 49.5597L145.028 52.6669L144.047 49.5597L134.283 23H127.995L139.541 53.9432H144.455L141.654 61.3568H132.616V66.3076H137.873C140.279 66.3076 142.151 65.9853 143.487 65.3279C144.837 64.6574 145.893 63.6904 146.67 62.4142C147.447 61.1376 148.325 59.2166 149.292 56.6638L162.074 23H156.141L156.129 23.0131Z" fill="url(#paint5_linear_10015_310)"/>
<path d="M316.328 12.8027V13.8084H314.419V18.3723H313.222V13.8084H311.312V12.8027H316.328ZM317.029 12.8027H318.734L320.261 16.6962H320.351L321.866 12.8027H323.571V18.3723H322.413V14.5561H322.324L320.822 18.3723H319.803L318.3 14.5561H318.212V18.3723H317.053V12.8027H317.029Z" fill="url(#paint6_linear_10015_310)"/>
<path d="M37.4156 0L30.0957 10.6368L37.4156 21.1446L44.7356 10.6368L37.4156 0ZM48.6693 16.3612L41.6802 27.2688L60.2411 53.9444H74.4993L48.6565 16.3612H48.6693ZM37.4156 33.9472L24.5962 53.9444H50.2353L37.4156 33.9472ZM26.162 16.3741L0.319336 53.9572H14.5773L33.1383 27.2815L26.1493 16.387L26.162 16.3741Z" fill="url(#paint7_linear_10015_310)"/>
<defs>
<linearGradient id="paint0_linear_10015_310" x1="106.838" y1="-29.8566" x2="106.95" y2="74.8542" gradientUnits="userSpaceOnUse">
<stop stop-color="#242124"/>
<stop offset="1" stop-color="#5C5C5C" stop-opacity="0"/>
</linearGradient>
<linearGradient id="paint1_linear_10015_310" x1="185.834" y1="-8.62432" x2="185.877" y2="68.6606" gradientUnits="userSpaceOnUse">
<stop stop-color="#242124"/>
<stop offset="1" stop-color="#5C5C5C" stop-opacity="0"/>
</linearGradient>
<linearGradient id="paint2_linear_10015_310" x1="240.019" y1="-8.62432" x2="240.063" y2="68.6606" gradientUnits="userSpaceOnUse">
<stop stop-color="#242124"/>
<stop offset="1" stop-color="#5C5C5C" stop-opacity="0"/>
</linearGradient>
<linearGradient id="paint3_linear_10015_310" x1="296.538" y1="-9.59105" x2="296.609" y2="70.0963" gradientUnits="userSpaceOnUse">
<stop stop-color="#242124"/>
<stop offset="1" stop-color="#5C5C5C" stop-opacity="0"/>
</linearGradient>
<linearGradient id="paint4_linear_10015_310" x1="275.461" y1="-26.7077" x2="276.004" y2="72.8836" gradientUnits="userSpaceOnUse">
<stop stop-color="#242124"/>
<stop offset="1" stop-color="#5C5C5C" stop-opacity="0"/>
</linearGradient>
<linearGradient id="paint5_linear_10015_310" x1="142.815" y1="-18.5753" x2="142.928" y2="86.229" gradientUnits="userSpaceOnUse">
<stop stop-color="#242124"/>
<stop offset="1" stop-color="#5C5C5C" stop-opacity="0"/>
</linearGradient>
<linearGradient id="paint6_linear_10015_310" x1="316.643" y1="7.45595" x2="316.648" y2="20.9343" gradientUnits="userSpaceOnUse">
<stop stop-color="#242124"/>
<stop offset="1" stop-color="#5C5C5C" stop-opacity="0"/>
</linearGradient>
<linearGradient id="paint7_linear_10015_310" x1="32.5781" y1="-51.7989" x2="32.6588" y2="78.7775" gradientUnits="userSpaceOnUse">
<stop stop-color="#242124"/>
<stop offset="1" stop-color="#5C5C5C" stop-opacity="0"/>
</linearGradient>
</defs>
</svg>
