<svg width="122" height="25" viewBox="0 0 122 25" fill="none" xmlns="http://www.w3.org/2000/svg">
<path d="M41.2633 18.8513C43.4423 18.8513 45.0886 18.3992 45.0886 16.1923C45.0886 14.5979 44.0519 13.9173 42.5064 13.6937L38.9594 13.1784C36.3195 12.8042 34.9949 11.4139 34.9949 9.00278C34.9949 5.74594 37.7691 4.4043 40.9849 4.4043C43.0296 4.4043 44.5655 4.8612 45.6022 5.77029C46.6389 6.67923 47.21 7.87995 47.3205 9.37716H45.0166C44.7382 7.17511 43.1879 6.2758 40.9609 6.2758C39.7609 6.2758 38.8682 6.51403 38.2779 6.9855C37.6875 7.46189 37.3899 8.1084 37.3899 8.93475C37.3899 10.2278 38.1819 10.9278 39.4394 11.1271L43.1927 11.6861C46.3797 12.148 47.4789 13.7326 47.4789 15.886C47.4789 19.1041 45.4054 20.7179 41.2585 20.7179C38.9258 20.7179 37.2172 20.1929 36.142 19.1429C35.0669 18.093 34.5293 16.761 34.5293 15.1423H36.8331C36.91 17.6166 38.3835 18.8513 41.2585 18.8513H41.2633Z" fill="url(#paint0_linear_6686_1537)"/>
<path d="M75.54 10.2384C72.8522 10.2384 72.2664 12.703 72.2664 15.4203V20.3446H70.0106V13.2766C70.0106 11.4245 69.3962 10.2433 67.5676 10.2433C64.8941 10.2433 64.2941 12.7224 64.2941 15.4252V20.3493H61.9902V8.68289H64.2941V11.2253C65.0621 9.28079 66.4156 8.30859 68.3499 8.30859C70.2842 8.30859 71.6525 9.22247 72.1036 11.3176C72.8712 9.30999 74.2775 8.30859 76.3175 8.30859C78.9574 8.30859 80.2819 9.89332 80.2819 13.0676V20.3493H77.9782V13.2815C77.9782 11.4197 77.3544 10.2481 75.5351 10.2481L75.54 10.2384Z" fill="url(#paint1_linear_6686_1537)"/>
<path d="M95.9725 10.2384C93.2847 10.2384 92.699 12.703 92.699 15.4203V20.3446H90.4383V13.2766C90.4383 11.4245 89.8244 10.2433 87.9952 10.2433C85.3271 10.2433 84.7223 12.7176 84.7223 15.4252V20.3493H82.418V8.68289H84.7223V11.2253C85.4899 9.28079 86.8433 8.30859 88.7776 8.30859C90.7118 8.30859 92.0801 9.23225 92.5312 11.3176C93.2988 9.30999 94.7051 8.30859 96.7451 8.30859C99.385 8.30859 100.71 9.89332 100.71 13.0676V20.3493H98.4058V13.2815C98.4058 11.4294 97.7919 10.2481 95.9627 10.2481L95.9725 10.2384Z" fill="url(#paint2_linear_6686_1537)"/>
<path d="M106.516 14.486C106.516 10.8889 108.618 8.30273 112.457 8.30273C116.298 8.30273 118.4 10.8451 118.4 14.486C118.4 18.1269 116.322 20.7178 112.457 20.7178C108.594 20.7178 106.516 18.0977 106.516 14.486ZM112.457 18.8512C115.194 18.8512 116.077 17.3055 116.077 14.5103C116.077 11.7152 115.198 10.1695 112.457 10.1695C109.717 10.1695 108.839 11.7104 108.839 14.5103C108.839 17.3103 109.717 18.8512 112.457 18.8512Z" fill="url(#paint3_linear_6686_1537)"/>
<path d="M102.684 4.82617H105.103V6.9262H102.684V4.82617ZM102.741 8.6762H105.045V20.3426H102.741V8.6762Z" fill="url(#paint4_linear_6686_1537)"/>
<path d="M58.7441 8.6768L58.7345 8.70107L54.9619 18.6856L54.5587 19.8572L54.1891 18.6856L50.5077 8.67188H48.1367L52.49 20.3383H54.3427L53.2868 23.1335H49.879V25.0001H51.8613C52.7684 25.0001 53.474 24.8786 53.978 24.6307C54.4868 24.3779 54.8851 24.0133 55.1778 23.5321C55.4707 23.0508 55.8019 22.3266 56.1666 21.3641L60.9855 8.67188H58.7489L58.7441 8.6768Z" fill="url(#paint5_linear_6686_1537)"/>
<path d="M119.145 4.82617V5.20533H118.425V6.92606H117.974V5.20533H117.254V4.82617H119.145ZM119.409 4.82617H120.052L120.628 6.29411H120.662L121.233 4.82617H121.876V6.92606H121.44V5.48725H121.406L120.84 6.92606H120.456L119.889 5.48725H119.856V6.92606H119.419V4.82617H119.409Z" fill="url(#paint6_linear_6686_1537)"/>
<path d="M13.9863 0L11.2265 4.01036L13.9863 7.97211L16.7462 4.01036L13.9863 0ZM18.2293 6.16864L15.5942 10.2811L22.5922 20.3385H27.9679L18.2245 6.16864H18.2293ZM13.9863 12.799L9.15305 20.3385H18.8197L13.9863 12.799ZM9.7434 6.17349L0 20.3434H5.37566L12.3737 10.2859L9.73861 6.17835L9.7434 6.17349Z" fill="url(#paint7_linear_6686_1537)"/>
<defs>
<linearGradient id="paint0_linear_6686_1537" x1="40.1607" y1="-11.2568" x2="40.203" y2="28.2221" gradientUnits="userSpaceOnUse">
<stop stop-color="#242124"/>
<stop offset="1" stop-color="#5C5C5C" stop-opacity="0"/>
</linearGradient>
<linearGradient id="paint1_linear_6686_1537" x1="69.9447" y1="-3.25053" x2="69.961" y2="25.8881" gradientUnits="userSpaceOnUse">
<stop stop-color="#242124"/>
<stop offset="1" stop-color="#5C5C5C" stop-opacity="0"/>
</linearGradient>
<linearGradient id="paint2_linear_6686_1537" x1="90.3727" y1="-3.25053" x2="90.389" y2="25.8881" gradientUnits="userSpaceOnUse">
<stop stop-color="#242124"/>
<stop offset="1" stop-color="#5C5C5C" stop-opacity="0"/>
</linearGradient>
<linearGradient id="paint3_linear_6686_1537" x1="111.684" y1="-3.61572" x2="111.71" y2="26.4287" gradientUnits="userSpaceOnUse">
<stop stop-color="#242124"/>
<stop offset="1" stop-color="#5C5C5C" stop-opacity="0"/>
</linearGradient>
<linearGradient id="paint4_linear_6686_1537" x1="103.736" y1="-10.0696" x2="103.94" y2="27.4791" gradientUnits="userSpaceOnUse">
<stop stop-color="#242124"/>
<stop offset="1" stop-color="#5C5C5C" stop-opacity="0"/>
</linearGradient>
<linearGradient id="paint5_linear_6686_1537" x1="53.7243" y1="-7.00319" x2="53.767" y2="32.511" gradientUnits="userSpaceOnUse">
<stop stop-color="#242124"/>
<stop offset="1" stop-color="#5C5C5C" stop-opacity="0"/>
</linearGradient>
<linearGradient id="paint6_linear_6686_1537" x1="119.264" y1="2.81028" x2="119.266" y2="7.892" gradientUnits="userSpaceOnUse">
<stop stop-color="#242124"/>
<stop offset="1" stop-color="#5C5C5C" stop-opacity="0"/>
</linearGradient>
<linearGradient id="paint7_linear_6686_1537" x1="12.1624" y1="-19.5297" x2="12.1929" y2="29.7013" gradientUnits="userSpaceOnUse">
<stop stop-color="#242124"/>
<stop offset="1" stop-color="#5C5C5C" stop-opacity="0"/>
</linearGradient>
</defs>
</svg>
