<svg width="166" height="59" viewBox="0 0 166 59" fill="none" xmlns="http://www.w3.org/2000/svg">
<g opacity="0.5">
<path d="M126.563 43.1562C123.915 40.4878 122.57 35.8933 122.57 29.4128C122.57 22.9324 123.875 18.3378 126.523 15.6493C129.171 12.9609 134.167 11.5966 141.51 11.5966L165.085 11.5766L155.896 0L141.069 0.0200634C129.211 0.0401268 120.584 2.40761 115.207 7.16262C112.739 9.28934 110.873 12.0581 109.549 15.3283C111.034 19.341 111.776 24.0559 111.776 29.4329C111.776 34.8099 111.034 39.5047 109.569 43.5374C110.914 46.8078 112.78 49.5564 115.247 51.7032C120.644 56.4181 129.272 58.7856 141.129 58.7655L154.852 58.7455L163.941 47.1488L141.55 47.1689C134.227 47.1689 129.231 45.8247 126.563 43.1562Z" fill="url(#paint0_linear_10015_337)"/>
<path d="M62.8013 0.0791016L52.3483 0.099165H49.4391C46.6703 0.139292 44.2828 1.42335 42.2765 3.99146L31.061 18.2566L19.8256 4.01152C17.759 1.42335 15.3715 0.139292 12.6429 0.139292H3.83504C2.33029 0.139292 1.58795 0.761256 1.58795 2.02525C1.58795 2.64721 1.86884 3.32937 2.45067 4.03159L21.9322 28.6694L1.30706 55.0528C0.725227 55.7951 0.444336 56.4572 0.444336 57.0591C0.604843 58.283 1.36725 58.9049 2.73156 58.9049H11.4591C14.1877 58.9049 16.5753 57.6209 18.5816 55.0528L31.061 39.1024L43.5806 55.0327C45.607 57.6008 47.9745 58.8849 50.7231 58.8849L63.965 58.8648L40.2099 28.6694L62.8013 0.0791016Z" fill="url(#paint1_linear_10015_337)"/>
<path d="M101.242 51.7022C103.71 49.5353 105.576 46.7867 106.9 43.5163C107.422 42.2323 107.883 40.888 108.224 39.4435C108.947 36.454 109.308 33.1235 109.308 29.4318C109.308 25.7402 108.926 22.3896 108.204 19.4202C107.843 17.9757 107.382 16.6113 106.86 15.3474C105.516 12.0771 103.65 9.32844 101.182 7.1616C95.785 2.42664 87.1577 0.0591646 75.3003 0.079228H65.9307L56.7617 11.6959L74.8589 11.6759C82.2021 11.6759 87.2179 13 89.8663 15.6884C92.5146 18.3769 93.8589 22.9714 93.8589 29.4519C93.8589 35.9324 92.5548 40.5269 89.9064 43.1953C87.258 45.8838 82.2623 47.2281 74.9191 47.2281L57.9856 47.2481L67.1144 58.8247H75.3805C87.238 58.8247 95.8452 56.4371 101.242 51.7022Z" fill="url(#paint2_linear_10015_337)"/>
<path d="M55.1961 43.5968L55.156 13.8027L43.439 28.7098L55.1961 43.5968Z" fill="url(#paint3_linear_10015_337)"/>
</g>
<defs>
<linearGradient id="paint0_linear_10015_337" x1="137.317" y1="0" x2="137.317" y2="58.7657" gradientUnits="userSpaceOnUse">
<stop offset="0.18" stop-color="#242124"/>
<stop offset="1" stop-color="#5C5C5C" stop-opacity="0.4"/>
</linearGradient>
<linearGradient id="paint1_linear_10015_337" x1="32.2047" y1="0.0791016" x2="32.2047" y2="58.9049" gradientUnits="userSpaceOnUse">
<stop offset="0.18" stop-color="#242124"/>
<stop offset="1" stop-color="#5C5C5C" stop-opacity="0.4"/>
</linearGradient>
<linearGradient id="paint2_linear_10015_337" x1="83.0347" y1="0.0791016" x2="83.0347" y2="58.8247" gradientUnits="userSpaceOnUse">
<stop stop-color="#242124"/>
<stop offset="1" stop-color="#5C5C5C" stop-opacity="0"/>
</linearGradient>
<linearGradient id="paint3_linear_10015_337" x1="49.3175" y1="13.8027" x2="49.3175" y2="43.5968" gradientUnits="userSpaceOnUse">
<stop offset="0.18" stop-color="#242124"/>
<stop offset="1" stop-color="#5C5C5C" stop-opacity="0.4"/>
</linearGradient>
</defs>
</svg>
