<svg width="321" height="51" viewBox="0 0 321 51" fill="none" xmlns="http://www.w3.org/2000/svg">
<path d="M45.2335 14.3477C45.3861 14.3477 45.5349 14.3964 45.6586 14.4869C45.7824 14.5774 45.8747 14.7052 45.9225 14.8519C45.9704 14.9986 45.9712 15.1568 45.925 15.3041C45.8788 15.4513 45.7878 15.5801 45.6651 15.672L29.0715 28.0998L23.4921 32.2819V28.0998H1.16989C0.97746 28.0998 0.792913 28.0224 0.656846 27.8847C0.520778 27.747 0.444336 27.5603 0.444336 27.3656V15.0818C0.444336 14.8871 0.520778 14.7004 0.656846 14.5627C0.792913 14.425 0.97746 14.3477 1.16989 14.3477H45.2335Z" fill="url(#paint0_linear_10015_319)"/>
<path d="M1.42499 50.2086C1.29516 50.2085 1.16868 50.1669 1.06352 50.0899C0.958365 50.0128 0.879873 49.9042 0.839199 49.7794C0.798525 49.6547 0.797737 49.5201 0.836948 49.3949C0.876158 49.2696 0.953373 49.1601 1.05762 49.0818L17.913 36.4565L23.4924 32.2744V36.4565H45.6516C45.8152 36.4571 45.972 36.5232 46.0877 36.6402C46.2034 36.7573 46.2686 36.9159 46.2692 37.0815V49.5836C46.2686 49.7492 46.2034 49.9078 46.0877 50.0249C45.972 50.142 45.8152 50.208 45.6516 50.2086H1.42499Z" fill="url(#paint1_linear_10015_319)"/>
<path d="M101.241 14.8965C107.156 14.8965 109.984 18.0191 109.984 22.7658C109.984 26.9943 107.734 29.7359 104.198 31.0277L84.7209 38.1814C83.5728 38.6461 82.9231 39.4175 82.9231 40.5234C82.9231 41.8245 83.7565 42.6145 85.4923 42.6145H109.277V49.25H85.1112C79.2631 49.25 76.3701 46.1274 76.3701 41.3784C76.3701 37.5425 78.2345 34.4849 82.1562 33.0537L101.7 25.9535C103.115 25.433 103.5 24.4572 103.5 23.5464C103.5 22.2453 102.665 21.5321 100.864 21.5321H77.5916V14.8965H101.241Z" fill="url(#paint2_linear_10015_319)"/>
<path d="M139.429 14.8965C147.465 14.8965 150.87 18.7998 150.87 25.433C150.87 31.7433 147.72 35.319 139.365 35.319H123.23V37.7911C123.23 40.5234 124.709 42.5401 128.435 42.5401H149.199V49.2407H128.435C119.94 49.2407 116.608 44.4267 116.608 37.9212V26.2137C116.608 19.7082 119.951 14.8965 128.435 14.8965H139.429ZM123.23 29.9218H139.172C142.845 29.9218 144.186 28.3605 144.186 25.8234C144.186 23.2212 142.708 21.5321 139.365 21.5321H128.435C124.709 21.5321 123.23 23.6231 123.23 26.2787V29.9218Z" fill="url(#paint3_linear_10015_319)"/>
<path d="M166.04 3.4479V39.1281C166.04 39.5808 165.952 40.029 165.781 40.4472C165.61 40.8654 165.359 41.2453 165.042 41.5653C164.726 41.8853 164.35 42.1391 163.937 42.3121C163.523 42.4851 163.08 42.574 162.633 42.5737C161.73 42.5737 160.863 42.2108 160.224 41.5646C159.585 40.9185 159.226 40.0422 159.226 39.1281V3.4479C159.226 2.53346 159.585 1.65648 160.224 1.00987C160.863 0.363261 161.729 7.8394e-07 162.633 7.8394e-07C163.08 -0.000304694 163.524 0.0886694 163.937 0.261835C164.351 0.435 164.727 0.688959 165.043 1.00919C165.359 1.32941 165.61 1.70963 165.782 2.12809C165.953 2.54654 166.041 2.99503 166.04 3.4479Z" fill="url(#paint4_linear_10015_319)"/>
<path d="M182.626 3.4479V39.1281C182.626 39.5808 182.538 40.029 182.366 40.4472C182.195 40.8654 181.944 41.2453 181.628 41.5653C181.311 41.8853 180.936 42.1391 180.522 42.3121C180.109 42.4851 179.666 42.574 179.218 42.5737C178.315 42.5737 177.449 42.2108 176.81 41.5646C176.171 40.9185 175.812 40.0422 175.811 39.1281V3.4479C175.811 2.53346 176.17 1.65648 176.809 1.00987C177.448 0.363261 178.315 7.8394e-07 179.218 7.8394e-07C179.666 -0.000304694 180.109 0.0886694 180.523 0.261835C180.936 0.435 181.312 0.688959 181.628 1.00919C181.945 1.32941 182.196 1.70963 182.367 2.12809C182.538 2.54654 182.626 2.99503 182.626 3.4479Z" fill="url(#paint5_linear_10015_319)"/>
<path d="M199.081 14.8965V35.4515C199.081 39.4825 202.038 42.5401 207.436 42.5401H212.965C218.365 42.5401 221.258 39.4825 221.258 35.4515V14.8965H227.942V35.7094C227.942 43.646 222.927 49.2407 213.222 49.2407H206.922C197.216 49.2407 192.202 43.646 192.202 35.7094V14.8965H199.081Z" fill="url(#paint6_linear_10015_319)"/>
<path d="M244.334 3.4479V39.1281C244.334 39.5808 244.246 40.029 244.074 40.4472C243.903 40.8654 243.652 41.2453 243.336 41.5653C243.019 41.8853 242.644 42.1391 242.23 42.3121C241.817 42.4851 241.374 42.574 240.927 42.5737C240.023 42.5737 239.157 42.2107 238.519 41.5645C237.88 40.9183 237.521 40.0419 237.521 39.1281V3.4479C237.521 2.99523 237.609 2.54693 237.78 2.12862C237.951 1.71032 238.202 1.33021 238.518 1.01001C238.834 0.689811 239.21 0.435804 239.623 0.262502C240.036 0.0892001 240.479 6.81026e-07 240.927 7.8394e-07C241.374 -0.000304694 241.817 0.0886694 242.231 0.261835C242.644 0.435 243.02 0.688959 243.337 1.00919C243.653 1.32941 243.904 1.70963 244.075 2.12809C244.246 2.54654 244.334 2.99503 244.334 3.4479Z" fill="url(#paint7_linear_10015_319)"/>
<path d="M275.83 14.8965C284.314 14.8965 287.657 19.7105 287.657 26.2137V42.3449C287.657 47.2891 286.371 49.2407 280.65 49.2407H264.775C256.739 49.2407 253.396 45.2724 253.396 38.7669C253.396 32.524 256.481 28.8809 264.837 28.8809H280.971V26.2787C280.971 23.6115 279.495 21.5321 275.766 21.5321H255.453V14.8965H275.83ZM280.971 40.7836V34.3455H264.968C261.367 34.3455 260.082 35.8418 260.082 38.3766C260.082 40.9114 261.432 42.5401 264.837 42.5401H279.109C280.459 42.5401 280.971 42.0197 280.971 40.7836Z" fill="url(#paint8_linear_10015_319)"/>
<path d="M320.377 14.8965V21.5321H308.421C305.4 21.5321 304.059 22.9609 304.059 25.9465V49.2407H297.244V24.9126C297.244 18.0191 299.754 14.8965 306.428 14.8965H320.377Z" fill="url(#paint9_linear_10015_319)"/>
<defs>
<linearGradient id="paint0_linear_10015_319" x1="17.4996" y1="-1.02452" x2="16.581" y2="43.7952" gradientUnits="userSpaceOnUse">
<stop stop-color="#242124"/>
<stop offset="1" stop-color="#5C5C5C" stop-opacity="0"/>
</linearGradient>
<linearGradient id="paint1_linear_10015_319" x1="17.8433" y1="16.9022" x2="16.9236" y2="61.7219" gradientUnits="userSpaceOnUse">
<stop stop-color="#242124"/>
<stop offset="1" stop-color="#5C5C5C" stop-opacity="0"/>
</linearGradient>
<linearGradient id="paint2_linear_10015_319" x1="88.9661" y1="-14.5494" x2="84.4129" y2="71.0982" gradientUnits="userSpaceOnUse">
<stop stop-color="#242124"/>
<stop offset="1" stop-color="#5C5C5C" stop-opacity="0"/>
</linearGradient>
<linearGradient id="paint3_linear_10015_319" x1="129.447" y1="-14.5415" x2="124.982" y2="71.0921" gradientUnits="userSpaceOnUse">
<stop stop-color="#242124"/>
<stop offset="1" stop-color="#5C5C5C" stop-opacity="0"/>
</linearGradient>
<linearGradient id="paint4_linear_10015_319" x1="161.779" y1="-36.4917" x2="130.493" y2="59.7826" gradientUnits="userSpaceOnUse">
<stop stop-color="#242124"/>
<stop offset="1" stop-color="#5C5C5C" stop-opacity="0"/>
</linearGradient>
<linearGradient id="paint5_linear_10015_319" x1="178.365" y1="-36.4917" x2="147.078" y2="59.7826" gradientUnits="userSpaceOnUse">
<stop stop-color="#242124"/>
<stop offset="1" stop-color="#5C5C5C" stop-opacity="0"/>
</linearGradient>
<linearGradient id="paint6_linear_10015_319" x1="205.594" y1="-14.5415" x2="201.313" y2="71.1109" gradientUnits="userSpaceOnUse">
<stop stop-color="#242124"/>
<stop offset="1" stop-color="#5C5C5C" stop-opacity="0"/>
</linearGradient>
<linearGradient id="paint7_linear_10015_319" x1="240.074" y1="-36.4917" x2="208.779" y2="59.7763" gradientUnits="userSpaceOnUse">
<stop stop-color="#242124"/>
<stop offset="1" stop-color="#5C5C5C" stop-opacity="0"/>
</linearGradient>
<linearGradient id="paint8_linear_10015_319" x1="266.234" y1="-14.5415" x2="261.769" y2="71.0921" gradientUnits="userSpaceOnUse">
<stop stop-color="#242124"/>
<stop offset="1" stop-color="#5C5C5C" stop-opacity="0"/>
</linearGradient>
<linearGradient id="paint9_linear_10015_319" x1="305.912" y1="-14.5415" x2="299.321" y2="70.8158" gradientUnits="userSpaceOnUse">
<stop stop-color="#242124"/>
<stop offset="1" stop-color="#5C5C5C" stop-opacity="0"/>
</linearGradient>
</defs>
</svg>
