<svg width="135" height="22" viewBox="0 0 135 22" fill="none" xmlns="http://www.w3.org/2000/svg">
<path d="M18.8799 6.04688C18.9442 6.04687 19.0069 6.06741 19.0591 6.10558C19.1112 6.14374 19.1502 6.19757 19.1703 6.25942C19.1905 6.32126 19.1909 6.38797 19.1714 6.45004C19.1519 6.51211 19.1136 6.56637 19.0618 6.60512L12.0672 11.8438L9.71529 13.6066V11.8438H0.305841C0.224727 11.8438 0.146935 11.8112 0.0895787 11.7531C0.0322224 11.6951 0 11.6164 0 11.5343L0 6.35636C0 6.27428 0.0322224 6.19556 0.0895787 6.13752C0.146935 6.07948 0.224727 6.04688 0.305841 6.04688H18.8799Z" fill="url(#paint0_linear_6686_1555)"/>
<path d="M0.414332 21.1633C0.359605 21.1632 0.306291 21.1457 0.261963 21.1132C0.217636 21.0807 0.184549 21.035 0.167404 20.9824C0.150258 20.9298 0.149926 20.8731 0.166455 20.8203C0.182983 20.7675 0.215531 20.7213 0.259476 20.6883L7.36447 15.3664L9.71635 13.6035V15.3664H19.0571C19.126 15.3666 19.1921 15.3945 19.2409 15.4438C19.2897 15.4932 19.3172 15.56 19.3174 15.6298V20.8998C19.3172 20.9696 19.2897 21.0365 19.2409 21.0858C19.1921 21.1352 19.126 21.163 19.0571 21.1633H0.414332Z" fill="url(#paint1_linear_6686_1555)"/>
<path d="M42.4896 6.2793C44.9828 6.2793 46.1752 7.59557 46.1752 9.59643C46.1752 11.3789 45.2267 12.5345 43.7362 13.0791L35.5259 16.0946C35.042 16.2904 34.7681 16.6156 34.7681 17.0818C34.7681 17.6302 35.1194 17.9632 35.8511 17.9632H45.8771V20.7603H35.6905C33.2254 20.7603 32.0059 19.444 32.0059 17.4422C32.0059 15.8252 32.7918 14.5364 34.4448 13.9331L42.6832 10.9401C43.2794 10.7207 43.442 10.3094 43.442 9.9255C43.442 9.37705 43.0897 9.07638 42.3309 9.07638H32.5208V6.2793H42.4896Z" fill="url(#paint2_linear_6686_1555)"/>
<path d="M58.5863 6.2793C61.9737 6.2793 63.4091 7.92464 63.4091 10.7207C63.4091 13.3807 62.0812 14.888 58.5592 14.888H51.7581V15.93C51.7581 17.0818 52.3814 17.9319 53.9522 17.9319H62.7045V20.7564H53.9522C50.3711 20.7564 48.9668 18.7271 48.9668 15.9849V11.0498C48.9668 8.30757 50.376 6.2793 53.9522 6.2793H58.5863ZM51.7581 12.6129H58.4779C60.0264 12.6129 60.5917 11.9548 60.5917 10.8853C60.5917 9.78838 59.9684 9.07638 58.5592 9.07638H53.9522C52.3814 9.07638 51.7581 9.95782 51.7581 11.0772V12.6129Z" fill="url(#paint3_linear_6686_1555)"/>
<path d="M69.8042 1.45339V16.4936C69.8042 16.6844 69.7671 16.8734 69.6949 17.0496C69.6227 17.2259 69.5169 17.3861 69.3835 17.5209C69.2501 17.6558 69.0918 17.7628 68.9175 17.8357C68.7433 17.9087 68.5565 17.9461 68.3679 17.946C67.9872 17.946 67.622 17.793 67.3527 17.5207C67.0833 17.2483 66.9319 16.8789 66.9316 16.4936V1.45339C66.9316 1.06793 67.083 0.698251 67.3523 0.425688C67.6217 0.153125 67.987 3.30453e-07 68.3679 3.30453e-07C68.5566 -0.000128437 68.7434 0.0373767 68.9177 0.110371C69.092 0.183365 69.2504 0.290415 69.3838 0.4254C69.5172 0.560386 69.623 0.720657 69.6952 0.897048C69.7673 1.07344 69.8043 1.26249 69.8042 1.45339Z" fill="url(#paint4_linear_6686_1555)"/>
<path d="M76.7945 1.45339V16.4936C76.7945 16.6844 76.7573 16.8734 76.6851 17.0496C76.6129 17.2259 76.5071 17.3861 76.3737 17.5209C76.2403 17.6558 76.082 17.7628 75.9077 17.8357C75.7335 17.9087 75.5467 17.9461 75.3582 17.946C74.9774 17.946 74.6122 17.793 74.3429 17.5207C74.0736 17.2483 73.9221 16.8789 73.9219 16.4936V1.45339C73.9219 1.06793 74.0732 0.698251 74.3426 0.425688C74.6119 0.153125 74.9772 3.30453e-07 75.3582 3.30453e-07C75.5468 -0.000128437 75.7336 0.0373767 75.908 0.110371C76.0823 0.183365 76.2407 0.290415 76.3741 0.4254C76.5075 0.560386 76.6132 0.720657 76.6854 0.897048C76.7575 1.07344 76.7946 1.26249 76.7945 1.45339Z" fill="url(#paint5_linear_6686_1555)"/>
<path d="M83.7298 6.2793V14.9438C83.7298 16.643 84.9764 17.9319 87.2518 17.9319H89.5824C91.8587 17.9319 93.0782 16.643 93.0782 14.9438V6.2793H95.8957V15.0525C95.8957 18.398 93.7819 20.7564 89.6908 20.7564H87.035C82.9439 20.7564 80.8301 18.398 80.8301 15.0525V6.2793H83.7298Z" fill="url(#paint6_linear_6686_1555)"/>
<path d="M102.807 1.45339V16.4936C102.807 16.6844 102.77 16.8734 102.698 17.0496C102.626 17.2259 102.52 17.3861 102.386 17.5209C102.253 17.6558 102.095 17.7628 101.92 17.8357C101.746 17.9087 101.559 17.9461 101.371 17.946C100.99 17.946 100.625 17.793 100.356 17.5206C100.087 17.2482 99.9355 16.8788 99.9355 16.4936V1.45339C99.9354 1.26257 99.9725 1.0736 100.045 0.897274C100.117 0.720947 100.222 0.560719 100.356 0.425747C100.489 0.290775 100.647 0.183703 100.821 0.110652C100.996 0.0376004 101.182 2.87071e-07 101.371 3.30453e-07C101.56 -0.000128437 101.746 0.0373767 101.921 0.110371C102.095 0.183365 102.253 0.290415 102.387 0.4254C102.52 0.560386 102.626 0.720657 102.698 0.897048C102.77 1.07344 102.807 1.26249 102.807 1.45339Z" fill="url(#paint7_linear_6686_1555)"/>
<path d="M116.084 6.2793C119.66 6.2793 121.069 8.30855 121.069 11.0498V17.8496C121.069 19.9337 120.527 20.7564 118.115 20.7564H111.424C108.036 20.7564 106.627 19.0836 106.627 16.3414C106.627 13.7098 107.928 12.1741 111.45 12.1741H118.251V11.0772C118.251 9.95292 117.629 9.07638 116.057 9.07638H107.494V6.2793H116.084ZM118.251 17.1915V14.4776H111.505C109.987 14.4776 109.445 15.1083 109.445 16.1768C109.445 17.2453 110.014 17.9319 111.45 17.9319H117.466C118.035 17.9319 118.251 17.7125 118.251 17.1915Z" fill="url(#paint8_linear_6686_1555)"/>
<path d="M134.86 6.2793V9.07638H129.821C128.547 9.07638 127.982 9.67869 127.982 10.9372V20.7564H125.109V10.5014C125.109 7.59557 126.167 6.2793 128.981 6.2793H134.86Z" fill="url(#paint9_linear_6686_1555)"/>
<defs>
<linearGradient id="paint0_linear_6686_1555" x1="7.18929" y1="-0.432926" x2="6.80206" y2="18.4598" gradientUnits="userSpaceOnUse">
<stop stop-color="#242124"/>
<stop offset="1" stop-color="#5C5C5C" stop-opacity="0"/>
</linearGradient>
<linearGradient id="paint1_linear_6686_1555" x1="7.33512" y1="7.12371" x2="6.94744" y2="26.0164" gradientUnits="userSpaceOnUse">
<stop stop-color="#242124"/>
<stop offset="1" stop-color="#5C5C5C" stop-opacity="0"/>
</linearGradient>
<linearGradient id="paint2_linear_6686_1555" x1="37.3154" y1="-6.13298" x2="35.3961" y2="29.9699" gradientUnits="userSpaceOnUse">
<stop stop-color="#242124"/>
<stop offset="1" stop-color="#5C5C5C" stop-opacity="0"/>
</linearGradient>
<linearGradient id="paint3_linear_6686_1555" x1="54.3786" y1="-6.12962" x2="52.4964" y2="29.9673" gradientUnits="userSpaceOnUse">
<stop stop-color="#242124"/>
<stop offset="1" stop-color="#5C5C5C" stop-opacity="0"/>
</linearGradient>
<linearGradient id="paint4_linear_6686_1555" x1="68.0081" y1="-15.3823" x2="54.8201" y2="25.2" gradientUnits="userSpaceOnUse">
<stop stop-color="#242124"/>
<stop offset="1" stop-color="#5C5C5C" stop-opacity="0"/>
</linearGradient>
<linearGradient id="paint5_linear_6686_1555" x1="74.9983" y1="-15.3823" x2="61.8103" y2="25.2" gradientUnits="userSpaceOnUse">
<stop stop-color="#242124"/>
<stop offset="1" stop-color="#5C5C5C" stop-opacity="0"/>
</linearGradient>
<linearGradient id="paint6_linear_6686_1555" x1="86.4755" y1="-6.12962" x2="84.6708" y2="29.9753" gradientUnits="userSpaceOnUse">
<stop stop-color="#242124"/>
<stop offset="1" stop-color="#5C5C5C" stop-opacity="0"/>
</linearGradient>
<linearGradient id="paint7_linear_6686_1555" x1="101.012" y1="-15.3823" x2="87.82" y2="25.1974" gradientUnits="userSpaceOnUse">
<stop stop-color="#242124"/>
<stop offset="1" stop-color="#5C5C5C" stop-opacity="0"/>
</linearGradient>
<linearGradient id="paint8_linear_6686_1555" x1="112.039" y1="-6.12962" x2="110.157" y2="29.9673" gradientUnits="userSpaceOnUse">
<stop stop-color="#242124"/>
<stop offset="1" stop-color="#5C5C5C" stop-opacity="0"/>
</linearGradient>
<linearGradient id="paint9_linear_6686_1555" x1="128.763" y1="-6.12962" x2="125.985" y2="29.8509" gradientUnits="userSpaceOnUse">
<stop stop-color="#242124"/>
<stop offset="1" stop-color="#5C5C5C" stop-opacity="0"/>
</linearGradient>
</defs>
</svg>
