<svg width="307" height="43" viewBox="0 0 307 43" fill="none" xmlns="http://www.w3.org/2000/svg">
<path d="M52.6321 27.4462L50.5049 29.5706V29.5564L57.6277 22.4336V22.4478L55.0319 25.0464L52.6321 27.4462Z" fill="#E3D8D8"/>
<path d="M94.726 38.9674V39.5894C94.726 40.2965 94.476 40.8787 93.9762 41.3757C93.4792 41.8727 92.897 42.1227 92.2324 42.1227H58.7883C58.084 42.1227 57.5018 41.8727 57.002 41.3757L50.5438 34.8607C50.521 34.838 50.5068 34.8039 50.5068 34.7698V31.9071C50.5068 31.873 50.521 31.8418 50.5438 31.8162L56.4198 25.9402C56.8656 25.4943 57.6296 25.8096 57.6296 26.4429V30.9898C57.6296 31.6969 57.8767 32.2791 58.3765 32.7733L61.3245 35.7241C61.8215 36.1813 62.4037 36.4313 63.0711 36.4313H92.2324C92.897 36.4313 93.4764 36.6783 93.9762 37.1782C94.4732 37.678 94.726 38.2602 94.726 38.9674Z" fill="#E3D8D8"/>
<path d="M194.616 42.3084C193.923 42.3084 193.352 42.0642 192.861 41.5729C192.372 41.0844 192.125 40.5107 192.125 39.8177V17.907C192.125 17.214 191.881 16.6432 191.432 16.1518C190.944 15.6634 190.37 15.4163 189.677 15.4163H171.234C170.541 15.4163 169.97 15.6605 169.479 16.1518L166.582 19.0487C166.094 19.5371 165.847 20.1108 165.847 20.8038V31.3715C165.847 32.0645 166.091 32.6353 166.582 33.1266L169.479 36.0235C169.967 36.4722 170.541 36.7164 171.234 36.7164H184.006C184.699 36.7164 185.269 36.9607 185.761 37.452C186.209 37.9405 186.454 38.5142 186.454 39.2071V39.8206C186.454 40.5135 186.209 41.0844 185.761 41.5757C185.272 42.0642 184.699 42.3113 184.006 42.3113H166.991C166.298 42.3113 165.727 42.067 165.279 41.5757L155.566 31.8231C155.077 31.3744 154.83 30.8035 154.83 30.1105V22.0733C154.83 21.3803 155.074 20.8095 155.566 20.3182L165.279 10.5655C165.727 10.1168 166.298 9.87256 166.991 9.87256H189.68C190.373 9.87256 190.944 10.1168 191.435 10.5655C191.884 11.054 192.128 11.6277 192.128 12.3207V12.9739C192.128 13.6668 192.372 14.2377 192.864 14.6864C193.352 15.1749 193.926 15.422 194.619 15.422H200.699C201.392 15.422 201.963 15.6662 202.454 16.1575C202.903 16.646 203.147 17.2197 203.147 17.9127V39.8263C203.147 40.5192 202.903 41.0901 202.454 41.5814C201.966 42.0699 201.392 42.317 200.699 42.317H194.616V42.3084Z" fill="#E3D8D8"/>
<path d="M246.93 42.3591C246.246 42.3591 245.683 42.1177 245.24 41.6349C244.758 41.1521 244.516 40.5898 244.516 39.9053V21.164C244.516 20.4796 244.275 19.9172 243.792 19.4344L240.938 16.5802C240.455 16.0974 239.893 15.856 239.208 15.856H221.029C220.345 15.856 219.782 16.0974 219.339 16.5802C218.857 17.063 218.615 17.6254 218.615 18.3098V39.9053C218.615 40.5898 218.374 41.1521 217.891 41.6349C217.408 42.1177 216.846 42.3591 216.161 42.3591H210.169C209.484 42.3591 208.922 42.1177 208.479 41.6349C207.996 41.1521 207.755 40.5898 207.755 39.9053V18.3098C207.755 17.6254 207.996 17.063 208.479 16.5802C208.922 16.0974 209.484 15.856 210.169 15.856H216.161C216.846 15.856 217.408 15.6146 217.891 15.1318C218.374 14.6888 218.615 14.1264 218.615 13.442V12.7973C218.615 12.1129 218.857 11.5505 219.339 11.0677C219.782 10.6247 220.345 10.3833 221.029 10.3833H243.389C244.073 10.3833 244.635 10.6247 245.078 11.0677L254.649 20.6784C255.132 21.1612 255.374 21.7235 255.374 22.4079V39.9025C255.374 40.5869 255.132 41.1492 254.649 41.632C254.167 42.1149 253.604 42.3563 252.92 42.3563H246.93V42.3591Z" fill="#E3D8D8"/>
<path d="M271.824 42.3078C271.16 42.3078 270.614 42.0749 270.146 41.6063L260.856 32.2768C260.427 31.8082 260.191 31.2629 260.191 30.5984V18.9685C260.191 18.3039 260.424 17.7586 260.893 17.29C261.322 16.8214 261.87 16.5886 262.532 16.5886H268.348C269.013 16.5886 269.558 16.3557 270.026 15.8871C270.495 15.4582 270.728 14.8732 270.728 14.2086V13.6236C270.728 12.959 270.961 12.4137 271.429 11.9451C271.858 11.4765 272.406 11.2436 273.068 11.2436H293.479C294.144 11.2436 294.689 11.0108 295.158 10.5422C295.626 10.1133 295.859 9.56519 295.859 8.90347V2.37994C295.859 1.71537 296.092 1.17009 296.561 0.701485C296.99 0.232882 297.538 0 298.199 0H304.016C304.68 0 305.226 0.232882 305.694 0.701485C306.163 1.17009 306.396 1.71537 306.396 2.37994V39.9278C306.396 40.5924 306.163 41.1377 305.694 41.6063C305.226 42.0749 304.68 42.3078 304.016 42.3078H271.824ZM295.163 36.2585C295.632 35.7899 295.865 35.2447 295.865 34.5801V18.9685C295.865 18.3039 295.632 17.7586 295.163 17.29C294.695 16.8214 294.15 16.5886 293.485 16.5886H273.074C272.409 16.5886 271.864 16.8214 271.435 17.29C270.966 17.7586 270.734 18.3039 270.734 18.9685V31.8082C270.734 32.4728 270.966 33.0181 271.435 33.4867L274.167 36.2585C274.636 36.7271 275.181 36.96 275.846 36.96H293.488C294.15 36.96 294.695 36.7271 295.163 36.2585Z" fill="#E3D8D8"/>
<path d="M140.953 42.1978C140.373 42.1978 139.91 42.0047 139.524 41.5787C139.098 41.1924 138.905 40.7295 138.905 40.1502V30.3038C138.905 29.7244 138.712 29.2615 138.326 28.8355L137.476 28.0233C137.09 27.5973 136.627 27.4041 136.048 27.4041H115.276C114.697 27.4041 114.234 27.5973 113.848 27.9835C113.422 28.4095 113.228 28.8724 113.228 29.4518V40.1473C113.228 40.7267 113.035 41.1896 112.649 41.5758C112.223 42.0019 111.76 42.195 111.181 42.195H104.075C103.496 42.195 103.033 42.0019 102.646 41.5758C102.22 41.1896 102.027 40.7267 102.027 40.1473V8.06644C102.027 7.52684 102.22 7.06392 102.646 6.63791C103.033 6.21191 103.496 6.01879 104.075 6.01879H111.141C111.72 6.01879 112.183 5.82567 112.609 5.39966C112.996 5.01342 113.189 4.5505 113.189 3.97113V2.429C113.189 1.84964 113.382 1.38672 113.808 0.960712C114.194 0.574469 114.657 0.381348 115.236 0.381348H136.278C136.857 0.381348 137.32 0.574469 137.746 0.960712C138.133 1.38672 138.326 1.84964 138.326 2.429V3.97397C138.326 4.55334 138.519 5.01626 138.945 5.4025C139.331 5.82851 139.794 6.02163 140.334 6.02163H147.439C148.019 6.02163 148.482 6.21475 148.908 6.64075C149.294 7.06676 149.487 7.52968 149.487 8.06928V16.95C149.487 17.5294 149.294 17.9923 148.908 18.3786L142.847 24.4789H143.233L149.487 30.8122C149.913 31.2382 150.106 31.7011 150.106 32.2407V40.1558C150.106 40.7352 149.913 41.1981 149.527 41.5844C149.101 42.0104 148.638 42.2035 148.058 42.2035H140.953V42.1978ZM136.897 21.1561L137.709 20.3439C138.135 19.9179 138.328 19.4549 138.328 18.8756V8.06644C138.328 7.52684 138.135 7.06392 137.749 6.63791C137.323 6.21191 136.86 6.01879 136.281 6.01879H115.276C114.697 6.01879 114.234 6.21191 113.848 6.63791C113.422 7.06392 113.228 7.52684 113.228 8.06644V19.7276C113.228 20.3069 113.422 20.7699 113.848 21.1561C114.234 21.5821 114.697 21.7752 115.276 21.7752H135.432C136.008 21.7752 136.474 21.5821 136.897 21.1561Z" fill="#E3D8D8"/>
<path d="M46.8719 7.48848V20.1976C46.8719 20.4929 46.7555 20.7769 46.5453 20.9871L41.189 26.3434C39.627 27.9054 36.9574 26.7978 36.9574 24.5911V9.66961C36.9546 9.61565 36.9546 9.56169 36.9517 9.51057C36.8665 8.37172 36.7529 7.40043 36.6052 7.21299C36.2105 6.74155 35.7759 6.53139 35.2335 6.53139H3.32302C1.46281 6.53139 -0.0395596 5.0063 0.116642 3.15176C0.250123 1.55567 1.58777 0.303223 3.21794 0.303223H38.6529C39.2635 0.558825 39.8059 0.783186 40.4194 1.03595L46.8719 7.48848Z" fill="#E3D8D8"/>
<path d="M97.2508 17.7273C97.2508 18.4259 97.0066 18.9968 96.5124 19.4881L86.1946 29.8457V29.9678H68.8393C68.1861 29.9678 67.6124 29.7235 67.1182 29.2322C66.6297 28.7835 66.3826 28.207 66.3826 27.5112V26.858C66.3826 26.1622 66.6297 25.5913 67.1182 25.0972C67.6124 24.6058 68.1861 24.3616 68.8393 24.3616H80.8327C81.4887 24.3616 82.0624 24.1145 82.5537 23.6658L85.4733 20.7462C85.9362 20.2833 86.1946 19.6557 86.1946 18.9968V17.6478C86.1946 16.9491 85.9532 16.3783 85.4591 15.887C84.9706 15.3956 84.3969 15.1514 83.7011 15.1514H63.1507C62.4521 15.1514 61.8812 15.3956 61.4325 15.887C61.4154 15.904 61.3984 15.921 61.3814 15.9381C61.0207 16.313 60.8446 16.8327 60.8986 17.3496C60.9099 17.466 60.9184 17.5853 60.9184 17.7074C60.9184 18.1391 60.8389 18.5537 60.6941 18.9371C60.518 19.4086 60.2425 19.8318 59.8932 20.1811L57.6269 22.4474L55.0311 25.046L52.6313 27.443L50.5041 29.5702L45.0711 35.0003V35.0031L38.2182 41.859C38.0478 42.0294 37.8206 42.1231 37.5792 42.1231H1.77501C1.29789 42.1231 0.886086 41.9214 0.545284 41.4784C0.173241 41.0751 0 40.5923 0 39.9874V22.4332C0 20.5588 1.51941 19.0365 3.39666 19.0365H8.15086C10.0253 19.0365 11.5475 20.556 11.5475 22.4332V34.0688C11.5475 34.6765 11.7208 35.1593 12.0956 35.5995C12.4365 36.0426 12.8483 36.2442 13.3595 36.2442H33.5293C33.6997 36.2442 33.8559 36.2244 34.0036 36.1789H34.0064L34.7164 35.4689L44.7644 25.4181L54.9487 15.2366C54.9771 15.2082 55.0055 15.1826 55.0339 15.1542C55.6559 14.572 56.4965 14.2142 57.4195 14.2142C57.979 14.2142 58.5101 14.3448 58.9787 14.5806C59.3138 14.7481 59.7256 14.6885 59.9898 14.4215C59.9926 14.4187 59.9926 14.4187 59.9954 14.4158C60.447 13.9671 60.6941 13.3934 60.6941 12.6976V12.0416C60.6941 11.3486 60.9383 10.7721 61.4325 10.2808C61.8812 9.8292 62.4521 9.58496 63.1507 9.58496H83.8232C84.5219 9.58496 85.0927 9.8292 85.584 10.2808C86.0753 10.7721 86.3196 11.3486 86.3196 12.0416V12.6976C86.3196 13.3934 86.5667 13.9671 87.058 14.4158C87.5067 14.9072 88.0804 15.1542 88.7762 15.1542H94.7942C95.49 15.1542 96.1035 15.3985 96.5522 15.8898C97.0066 16.4181 97.2508 17.0315 97.2508 17.7273Z" fill="#E3D8D8"/>
</svg>
