<svg width="450" height="156" viewBox="0 0 450 156" fill="none" xmlns="http://www.w3.org/2000/svg">
<path d="M30.0304 154.87C40.3906 154.87 50.6493 152.877 60.2209 149.004C69.7924 145.132 78.4894 139.455 85.8151 132.3C93.1409 125.144 98.952 116.649 102.917 107.3C106.881 97.9502 108.922 87.9297 108.922 77.81C108.922 67.6903 106.881 57.6698 102.917 48.3204C98.952 38.9711 93.1409 30.476 85.8151 23.3203C78.4894 16.1647 69.7924 10.4885 60.2209 6.61584C50.6493 2.74321 40.3906 0.749996 30.0304 0.749997" stroke="#EDEDED"/>
<path d="M175.278 79.1114C175.278 96.3447 160.85 110.342 143.018 110.342C125.186 110.342 110.758 96.3447 110.758 79.1114C110.758 61.8782 125.186 47.8809 143.018 47.8809C160.85 47.8809 175.278 61.8782 175.278 79.1114Z" stroke="#EDEDED"/>
<circle cx="410.085" cy="78.7787" r="39.308" stroke="#EDEDED"/>
<path d="M331.724 79.1114C331.724 96.3354 317.007 110.342 298.796 110.342C280.585 110.342 265.867 96.3354 265.867 79.1114C265.867 61.8875 280.585 47.8809 298.796 47.8809C317.007 47.8809 331.724 61.8875 331.724 79.1114Z" stroke="#EDEDED"/>
<path d="M176.278 77.8156C176.278 85.0137 182.602 90.9144 190.487 90.9144C198.372 90.9144 204.695 85.0137 204.695 77.8156C204.695 70.6175 198.372 64.7168 190.487 64.7168C182.602 64.7168 176.278 70.6175 176.278 77.8156Z" stroke="#EDEDED"/>
<path d="M211.044 79.0969C211.044 86.2949 217.368 92.1957 225.252 92.1957C233.137 92.1957 239.461 86.2949 239.461 79.0969C239.461 71.8988 233.137 65.998 225.252 65.998C217.368 65.998 211.044 71.8988 211.044 79.0969Z" stroke="#EDEDED"/>
<path d="M240.464 78.4565C240.464 83.1724 244.415 87.0224 249.324 87.0224C254.232 87.0224 258.184 83.1724 258.184 78.4565C258.184 73.7406 254.232 69.8906 249.324 69.8906C244.415 69.8906 240.464 73.7406 240.464 78.4565Z" fill="#EDEDED" stroke="#EDEDED"/>
<path d="M332.725 78.4565C332.725 83.1724 336.677 87.0224 341.585 87.0224C346.494 87.0224 350.445 83.1724 350.445 78.4565C350.445 73.7406 346.494 69.8906 341.585 69.8906C336.677 69.8906 332.725 73.7406 332.725 78.4565Z" fill="#EDEDED" stroke="#EDEDED"/>
<path d="M351.445 78.4565C351.445 83.2074 355.132 87.0224 359.637 87.0224C364.141 87.0224 367.828 83.2074 367.828 78.4565C367.828 73.7056 364.141 69.8906 359.637 69.8906C355.132 69.8906 351.445 73.7056 351.445 78.4565Z" stroke="#EDEDED"/>
<path d="M259.181 78.4537C259.181 80.3966 260.522 81.8391 262.024 81.8391C263.526 81.8391 264.867 80.3966 264.867 78.4537C264.867 76.5108 263.526 75.0684 262.024 75.0684C260.522 75.0684 259.181 76.5108 259.181 78.4537Z" fill="#EDEDED" stroke="#EDEDED"/>
<line x1="91.5391" y1="80.2568" x2="0.61335" y2="80.2568" stroke="#EDEDED"/>
<line x1="142.352" y1="80.2568" x2="119.62" y2="80.2568" stroke="#EDEDED"/>
<line x1="309.492" y1="78.9609" x2="264.029" y2="78.9609" stroke="#EDEDED"/>
</svg>
