<svg width="429" height="156" viewBox="0 0 429 156" fill="none" xmlns="http://www.w3.org/2000/svg">
<path d="M29.4172 155.12C39.7773 155.12 50.0361 153.127 59.6076 149.254C69.1792 145.382 77.8761 139.705 85.2018 132.55C92.5276 125.394 98.3387 116.899 102.303 107.55C106.268 98.2002 108.309 88.1797 108.309 78.06C108.309 67.9403 106.268 57.9198 102.303 48.5704C98.3387 39.2211 92.5276 30.726 85.2018 23.5703C77.8761 16.4147 69.1792 10.7385 59.6076 6.86584C50.0361 2.99321 39.7773 0.999996 29.4172 0.999997" stroke="#EDEDED"/>
<circle cx="139.887" cy="78.75" r="31" stroke="#EDEDED"/>
<circle cx="281.887" cy="78.75" r="31" stroke="#EDEDED"/>
<circle cx="388.887" cy="77.75" r="39" stroke="#EDEDED"/>
<circle cx="13.5" cy="13.5" r="13" transform="matrix(-1 0 0 1 198.387 67.25)" stroke="#EDEDED"/>
<circle cx="13.5" cy="13.5" r="13" transform="matrix(-1 0 0 1 225.387 67.25)" stroke="#EDEDED"/>
<circle cx="9" cy="9" r="8.5" transform="matrix(-1 0 0 1 243.387 71.25)" fill="#EDEDED" stroke="#EDEDED"/>
<circle cx="9" cy="9" r="8.5" transform="matrix(-1 0 0 1 331.387 69.25)" fill="#EDEDED" stroke="#EDEDED"/>
<circle cx="9" cy="9" r="8.5" transform="matrix(-1 0 0 1 349.387 69.25)" stroke="#FE3402"/>
<circle cx="3.5" cy="3.5" r="3" transform="matrix(-1 0 0 1 250.387 75.25)" fill="#EDEDED" stroke="#EDEDED"/>
<line x1="90.9258" y1="80.5068" x2="6.87097e-05" y2="80.5068" stroke="#EDEDED"/>
<line x1="141.738" y1="80.5068" x2="119.007" y2="80.5068" stroke="#FE3402"/>
<line x1="295.387" y1="78.75" x2="251.387" y2="78.75" stroke="#FE3402"/>
</svg>
