<svg width="164" height="26" viewBox="0 0 164 26" fill="none" xmlns="http://www.w3.org/2000/svg">
<path d="M101.873 25.2117C101.484 25.2117 101.164 25.0745 100.889 24.8003C100.615 24.5261 100.477 24.2052 100.477 23.8162V11.5326C100.477 11.1436 100.34 10.8237 100.088 10.5485C99.8142 10.2743 99.4933 10.1371 99.1044 10.1371H88.7655C88.3766 10.1371 88.0567 10.2743 87.7815 10.5485L86.1575 12.1724C85.8833 12.4467 85.7462 12.7676 85.7462 13.1565V19.0815C85.7462 19.4705 85.8833 19.7904 86.1575 20.0656L87.7815 21.6895C88.0557 21.9414 88.3766 22.0785 88.7655 22.0785H95.9255C96.3145 22.0785 96.6344 22.2156 96.9096 22.4898C97.1615 22.7641 97.2986 23.085 97.2986 23.4739V23.8172C97.2986 24.2062 97.1615 24.5261 96.9096 24.8013C96.6354 25.0755 96.3145 25.2126 95.9255 25.2126H86.387C85.998 25.2126 85.6781 25.0755 85.4262 24.8013L79.9816 19.3343C79.7074 19.0825 79.5703 18.7625 79.5703 18.3736V13.8654C79.5703 13.4764 79.7074 13.1565 79.9816 12.8813L85.4262 7.41436C85.6781 7.1625 85.998 7.02539 86.387 7.02539H99.1053C99.4943 7.02539 99.8142 7.1625 100.089 7.41436C100.341 7.68858 100.478 8.00948 100.478 8.39845V8.76408C100.478 9.15305 100.615 9.47298 100.89 9.72484C101.164 9.99906 101.485 10.1362 101.874 10.1362H105.282C105.671 10.1362 105.991 10.2733 106.266 10.5475C106.518 10.8217 106.655 11.1426 106.655 11.5316V23.8153C106.655 24.2042 106.518 24.5242 106.266 24.7993C105.992 25.0736 105.671 25.2107 105.282 25.2107H101.873V25.2117Z" fill="#E3D8D8"/>
<path d="M131.2 25.0809C130.816 25.0809 130.5 24.9458 130.252 24.6754C129.982 24.4051 129.847 24.0891 129.847 23.7059V13.1999C129.847 12.8167 129.712 12.5007 129.441 12.2304L127.841 10.6298C127.57 10.3594 127.254 10.2243 126.871 10.2243H116.68C116.297 10.2243 115.981 10.3594 115.733 10.6298C115.463 10.9001 115.328 11.2161 115.328 11.5993V23.7059C115.328 24.0891 115.192 24.4051 114.922 24.6754C114.652 24.9458 114.336 25.0809 113.953 25.0809H110.593C110.21 25.0809 109.894 24.9458 109.646 24.6754C109.375 24.4051 109.24 24.0891 109.24 23.7059V11.5993C109.24 11.2161 109.375 10.9001 109.646 10.6298C109.894 10.3594 110.21 10.2243 110.593 10.2243H113.953C114.336 10.2243 114.652 10.0891 114.922 9.81875C115.192 9.57079 115.328 9.25475 115.328 8.87161V8.51084C115.328 8.12771 115.463 7.81167 115.733 7.54134C115.981 7.29337 116.297 7.1582 116.68 7.1582H129.216C129.599 7.1582 129.915 7.29337 130.163 7.54134L135.529 12.9295C135.799 13.1999 135.934 13.5159 135.934 13.899V23.7059C135.934 24.0891 135.799 24.4051 135.529 24.6754C135.258 24.9458 134.942 25.0809 134.559 25.0809H131.2Z" fill="#E3D8D8"/>
<path d="M143.7 25.2135C143.327 25.2135 143.021 25.0822 142.758 24.8197L137.551 19.59C137.311 19.3274 137.18 19.0211 137.18 18.6496V12.1295C137.18 11.7571 137.311 11.4508 137.574 11.1882C137.814 10.9257 138.12 10.7944 138.492 10.7944H141.753C142.124 10.7944 142.431 10.6631 142.693 10.4006C142.956 10.1604 143.087 9.83171 143.087 9.45927V9.13059C143.087 8.75912 143.218 8.45281 143.481 8.19026C143.721 7.9277 144.027 7.79643 144.4 7.79643H155.843C156.215 7.79643 156.521 7.66515 156.784 7.40259C157.046 7.16241 157.178 6.85609 157.178 6.48365V2.83123C157.178 2.45879 157.309 2.15345 157.571 1.88993C157.813 1.62737 158.118 1.49609 158.49 1.49609H161.751C162.122 1.49609 162.429 1.62737 162.691 1.88993C162.954 2.15248 163.085 2.45879 163.085 2.83123V23.8793C163.085 24.2508 162.954 24.5581 162.691 24.8206C162.429 25.0832 162.122 25.2145 161.751 25.2145H143.7V25.2135ZM156.784 21.8227C157.046 21.5601 157.178 21.2538 157.178 20.8814V12.1295C157.178 11.7571 157.046 11.4508 156.784 11.1882C156.521 10.9257 156.215 10.7944 155.843 10.7944H144.4C144.028 10.7944 143.722 10.9257 143.481 11.1882C143.218 11.4508 143.087 11.7571 143.087 12.1295V19.3274C143.087 19.6989 143.218 20.0062 143.481 20.2687L145.013 21.8227C145.275 22.0852 145.581 22.2165 145.953 22.2165H155.842C156.215 22.2165 156.521 22.0852 156.784 21.8227Z" fill="#E3D8D8"/>
<path d="M21.1523 6.23633C21.1542 6.23817 21.1542 6.24001 21.1542 6.24001L21.1523 6.23633Z" fill="#E3D8D8"/>
<path d="M47.4867 23.3364C47.4867 23.3899 47.4818 23.4414 47.473 23.491C47.4594 23.5678 47.4371 23.6407 47.405 23.7098L47.3204 23.8576V23.8586L47.2192 24.0336C47.2115 24.0472 47.2027 24.0589 47.192 24.0705L45.5515 25.8968C45.5457 25.9036 45.5399 25.9104 45.5331 25.9172C45.4815 25.9687 45.4096 26.0008 45.3308 26.0008H32.277C32.1788 26.0008 32.0922 25.9512 32.0407 25.8754L31.747 25.4893L27.1737 19.4632C27.1115 19.3815 27.1144 19.2677 27.1805 19.189L29.2411 16.72C29.3286 16.615 29.4939 16.613 29.5775 16.721C29.5785 16.7219 29.5785 16.7219 29.5795 16.7229L33.5518 21.9594L33.5577 21.9672C33.5966 22.0353 33.6432 22.0975 33.6977 22.1529L33.6996 22.1549C33.8669 22.325 34.0993 22.4301 34.356 22.4301H46.5677C47.0753 22.431 47.4867 22.8365 47.4867 23.3364Z" fill="#E3D8D8"/>
<path d="M45.8866 10.416H43.2931C43.0257 10.416 42.8089 10.6329 42.8089 10.9003V13.3469C42.8089 13.4675 42.4782 13.8681 42.1262 14.26C42.1 14.2892 42.0737 14.3184 42.0474 14.3475C42.0134 14.3854 41.9638 14.4068 41.9133 14.4068H34.3235C33.8431 14.437 33.4629 14.8367 33.4629 15.3248V16.1057C33.4629 17.1394 34.3011 17.9776 35.3348 17.9776H42.0533C42.276 17.9776 42.4802 17.8988 42.6387 17.7675C42.6445 17.7627 42.6503 17.7578 42.6552 17.753L42.7486 17.6596C42.7534 17.6547 42.7583 17.6489 42.7632 17.6431L47.0681 13.3381C47.0846 13.3197 47.1002 13.3012 47.1167 13.2827C47.2266 13.132 47.2908 12.9463 47.2908 12.745V11.8202C47.2908 11.0452 46.6616 10.416 45.8866 10.416ZM41.2909 14.9232C41.2909 14.9213 41.2899 14.9203 41.289 14.9183C41.2899 14.9183 41.2909 14.9183 41.2919 14.9193C41.2909 14.9203 41.2909 14.9222 41.2909 14.9232Z" fill="#E3D8D8"/>
<path d="M41.2947 14.9192C41.2935 14.9204 41.2935 14.9229 41.2935 14.9241C41.2935 14.9217 41.2922 14.9204 41.291 14.918C41.2922 14.918 41.2935 14.918 41.2947 14.9192Z" fill="#E3D8D8"/>
<path d="M33.3079 21.4277C33.3103 21.4314 33.3115 21.4339 33.314 21.4375L33.3066 21.4277H33.3079Z" fill="#E3D8D8"/>
<path d="M24.9847 11.7514L23.1079 14.0006C22.964 14.1718 22.6936 14.1766 22.5585 13.9987C22.5575 13.9967 22.5565 13.9958 22.5556 13.9948L21.2175 12.2318L17.9278 7.89576C17.9229 7.88993 17.9181 7.88409 17.9142 7.87826L17.8792 7.83255C17.8743 7.82672 17.8704 7.82088 17.8665 7.81505C17.7722 7.67697 17.71 7.51457 17.6925 7.33953V6.51978C17.6925 6.26792 17.5379 6.0608 17.2286 5.88382C16.9379 5.71656 16.6014 5.6271 16.1979 5.61737C16.1735 5.6164 16.1483 5.6164 16.123 5.6164H2.30387C1.86725 5.6164 1.50648 5.52791 1.19822 5.36552C0.88899 5.18756 0.734375 4.98044 0.734375 4.72858V1.5011C0.734375 1.25022 0.88899 1.04309 1.19822 0.879725C1.50648 0.701772 1.86725 0.613281 2.30387 0.613281H16.123C16.5596 0.613281 16.9204 0.701772 17.2286 0.879725C17.25 0.890422 17.2704 0.902091 17.2899 0.91376C17.5583 1.07129 17.6925 1.26772 17.6925 1.5011V4.72858C17.6925 4.98044 17.8461 5.18756 18.1553 5.36552C18.4383 5.52791 18.8244 5.6164 19.262 5.6164H19.648C20.0856 5.6164 20.4454 5.70586 20.7546 5.88382C20.7789 5.8984 20.8023 5.91202 20.8246 5.9266C20.846 5.94022 20.8655 5.95578 20.884 5.97425L21.1339 6.22028C21.1465 6.23292 21.1572 6.24556 21.1679 6.25917L24.9954 11.3031C25.0965 11.4373 25.0926 11.6231 24.9847 11.7514Z" fill="#E3D8D8"/>
<path d="M42.8112 8.35833V10.311C42.8112 10.5618 42.607 10.7661 42.3561 10.7661H32.3547C32.3051 10.7661 32.2584 10.7894 32.2283 10.8283L32.1923 10.874L28.5827 15.2003L27.7892 16.1504L26.739 17.4087L26.2343 18.0135L22.437 22.5635L20.321 25.0996C20.321 25.1005 20.321 25.1005 20.32 25.1005L20.2646 25.1676C20.2636 25.1686 20.2626 25.1696 20.2616 25.1706C20.0934 25.3544 19.8523 25.4691 19.5839 25.4691H2.31168C1.87506 25.4691 1.51429 25.3806 1.20603 25.2027C0.896803 25.0393 0.742188 24.8322 0.742188 24.5813V22.3748C0.742188 22.123 0.896803 21.9159 1.20603 21.7379C1.51429 21.5755 1.87506 21.487 2.31168 21.487H16.6656C16.6909 21.487 16.7162 21.487 16.7405 21.4861C17.0244 21.4792 18.0863 21.4403 18.7904 21.3596L19.0977 20.9921L24.0201 15.0943L24.8982 14.0412L25.2628 13.6036L25.8385 12.9141L26.3675 12.2811L27.6316 10.7661L28.2277 10.0513C28.467 9.76446 28.5982 9.40271 28.5982 9.02833V8.11523C28.5982 7.60665 29.0096 7.19531 29.5172 7.19531H41.6482C42.29 7.19531 42.8112 7.71653 42.8112 8.35833Z" fill="#E3D8D8"/>
<path d="M17.6855 7.23197C17.6855 7.19599 17.6875 7.16001 17.6914 7.125V7.33893C17.6875 7.30393 17.6855 7.26795 17.6855 7.23197Z" fill="#E3D8D8"/>
<path d="M41.2947 14.9192C41.2935 14.9204 41.2935 14.9229 41.2935 14.9241C41.2935 14.9217 41.2922 14.9204 41.291 14.918C41.2922 14.918 41.2935 14.918 41.2947 14.9192Z" fill="#E3D8D8"/>
<path d="M72.2665 25.075C71.9417 25.075 71.6821 24.9671 71.4652 24.7288C71.227 24.512 71.119 24.2524 71.119 23.9276V18.4081C71.119 18.0833 71.0111 17.8237 70.7943 17.5854L70.3178 17.1313C70.1009 16.8931 69.8413 16.7851 69.5165 16.7851H57.8727C57.5479 16.7851 57.2883 16.8931 57.0714 17.1099C56.8332 17.3481 56.7252 17.6078 56.7252 17.9326V23.9285C56.7252 24.2533 56.6173 24.513 56.4004 24.7298C56.1622 24.9681 55.9026 25.076 55.5778 25.076H51.5947C51.2699 25.076 51.0103 24.9681 50.7934 24.7298C50.5552 24.513 50.4473 24.2533 50.4473 23.9285V5.94065C50.4473 5.63725 50.5552 5.37762 50.7934 5.13937C51.0103 4.90113 51.2699 4.79319 51.5947 4.79319H55.5554C55.8802 4.79319 56.1398 4.68525 56.3781 4.44701C56.5949 4.23016 56.7029 3.97052 56.7029 3.64573V2.78027C56.7029 2.45548 56.8108 2.19585 57.0491 1.9576C57.2659 1.74075 57.5255 1.63281 57.8503 1.63281H69.6468C69.9716 1.63281 70.2312 1.74075 70.4695 1.9576C70.6863 2.19585 70.7943 2.45548 70.7943 2.78027V3.64573C70.7943 3.97052 70.9022 4.23016 71.1404 4.44701C71.3573 4.68525 71.6169 4.79319 71.9193 4.79319H75.9024C76.2272 4.79319 76.4868 4.90113 76.7251 5.13937C76.9419 5.37762 77.0499 5.63725 77.0499 5.94065V10.9185C77.0499 11.2433 76.9419 11.5029 76.7251 11.7198L73.3265 15.1398H73.5433L77.0499 18.6891C77.2881 18.9274 77.396 19.187 77.396 19.4904V23.9276C77.396 24.2524 77.2881 24.512 77.0713 24.7288C76.833 24.9671 76.5734 25.075 76.2486 25.075H72.2665ZM69.993 13.2786L70.4471 12.8244C70.6853 12.5862 70.7933 12.3266 70.7933 12.0018V5.94065C70.7933 5.63725 70.6853 5.37762 70.4685 5.13937C70.2303 4.90113 69.9706 4.79319 69.6458 4.79319H57.8727C57.5479 4.79319 57.2883 4.90113 57.0714 5.13937C56.8332 5.37762 56.7252 5.63725 56.7252 5.94065V12.4773C56.7252 12.8021 56.8332 13.0617 57.0714 13.2786C57.2883 13.5168 57.5479 13.6247 57.8727 13.6247H69.1713C69.4951 13.6247 69.7557 13.5168 69.993 13.2786Z" fill="#E3D8D8"/>
</svg>
