<svg width="451" height="124" viewBox="0 0 451 124" fill="none" xmlns="http://www.w3.org/2000/svg">
<circle cx="169.826" cy="61.9998" r="40.4348" transform="rotate(180 169.826 61.9998)" fill="#EDEDED" fill-opacity="0.6"/>
<circle cx="280.348" cy="61.9998" r="40.4348" transform="rotate(180 280.348 61.9998)" fill="#EDEDED" fill-opacity="0.6"/>
<circle cx="390.869" cy="61.9998" r="40.4348" transform="rotate(180 390.869 61.9998)" fill="#EDEDED" fill-opacity="0.6"/>
<circle cx="59.3045" cy="61.9998" r="40.4348" transform="rotate(180 59.3045 61.9998)" fill="#EDEDED" fill-opacity="0.6"/>
<line x1="1.34766" y1="61.5" x2="450.174" y2="61.5" stroke="#FE3402"/>
<circle cx="58.6305" cy="61.3258" r="4.71739" fill="#FE3402"/>
<circle cx="169.152" cy="61.3258" r="4.71739" fill="#FE3402"/>
<circle cx="279.674" cy="61.3258" r="4.71739" fill="#FE3402"/>
<circle cx="390.196" cy="61.3258" r="4.71739" fill="#FE3402"/>
<rect x="0.5" y="0.5" width="449.174" height="123" stroke="#FE3402" stroke-dasharray="4 4"/>
<line x1="58.8042" y1="124" x2="58.8042" y2="2.18557e-08" stroke="#FE3402" stroke-dasharray="4 4"/>
<line x1="169.326" y1="124" x2="169.326" y2="2.18557e-08" stroke="#FE3402" stroke-dasharray="4 4"/>
<line x1="279.848" y1="124" x2="279.848" y2="2.18557e-08" stroke="#FE3402" stroke-dasharray="4 4"/>
<line x1="390.37" y1="124" x2="390.37" y2="2.18557e-08" stroke="#FE3402" stroke-dasharray="4 4"/>
</svg>
