<svg width="444" height="238" viewBox="0 0 444 238" fill="none" xmlns="http://www.w3.org/2000/svg">
<path d="M416.581 40.9797C417.683 43.6404 417.529 46.7977 416.139 50.4188C414.749 54.0428 412.135 58.0914 408.383 62.487C400.881 71.277 388.903 81.3699 373.346 92.1269C342.24 113.636 296.919 137.739 244.757 159.327C192.596 180.915 143.497 195.889 106.288 202.653C87.68 206.036 72.0724 207.36 60.5525 206.443C54.7917 205.984 50.0811 204.967 46.5364 203.386C42.9944 201.805 40.6543 199.68 39.5532 197.02C38.452 194.359 38.6059 191.202 39.9952 187.581C41.3855 183.956 43.9995 179.908 47.7512 175.512C55.2536 166.722 67.2321 156.629 82.7886 145.872C113.895 124.363 159.216 100.261 211.377 78.6728C263.539 57.0847 312.638 42.1099 349.846 35.3459C368.455 31.9631 384.062 30.6391 395.582 31.5563C401.343 32.015 406.054 33.0322 409.598 34.6137C413.14 36.194 415.48 38.3191 416.581 40.9797Z" stroke="#EDEDED"/>
<g style="mix-blend-mode:overlay">
<circle cx="222.54" cy="122.119" r="20.5819" fill="#FE3402"/>
</g>
<g style="mix-blend-mode:overlay">
<circle cx="222.54" cy="122.119" r="31.0588" stroke="#FE3402"/>
</g>
<path d="M3 202.997C4.47276 202.997 5.66667 201.803 5.66667 200.33C5.66667 198.857 4.47276 197.663 3 197.663C1.52724 197.663 0.333333 198.857 0.333333 200.33C0.333333 201.803 1.52724 202.997 3 202.997ZM3.5 200.33L3.5 198.375L2.5 198.375L2.5 200.33L3.5 200.33ZM3.5 194.464L3.5 190.554L2.5 190.554L2.5 194.464L3.5 194.464ZM3.5 186.643L3.5 182.733L2.5 182.733L2.5 186.643L3.5 186.643ZM3.5 178.822L3.5 174.911L2.5 174.911L2.5 178.822L3.5 178.822ZM3.5 171.001L3.5 167.09L2.5 167.09L2.5 171.001L3.5 171.001ZM3.5 163.18L3.5 159.269L2.5 159.269L2.5 163.18L3.5 163.18ZM3.5 155.359L3.5 151.448L2.5 151.448L2.5 155.359L3.5 155.359ZM3.5 147.538L3.5 143.627L2.5 143.627L2.5 147.538L3.5 147.538ZM3.5 139.717L3.5 135.806L2.5 135.806L2.5 139.717L3.5 139.717ZM3.5 131.895L3.5 127.985L2.5 127.985L2.5 131.895L3.5 131.895ZM3.5 124.074L3.5 122.119L2.5 122.119L2.5 124.074L3.5 124.074Z" fill="#EDEDED"/>
<path d="M440.708 47.9468C442.18 47.9468 443.374 46.7529 443.374 45.2802C443.374 43.8074 442.18 42.6135 440.708 42.6135C439.235 42.6135 438.041 43.8074 438.041 45.2802C438.041 46.7529 439.235 47.9468 440.708 47.9468ZM441.208 123.491L441.208 121.536L440.208 121.536L440.208 123.491L441.208 123.491ZM441.208 117.625L441.208 113.715L440.208 113.715L440.208 117.625L441.208 117.625ZM441.208 109.804L441.208 105.894L440.208 105.894L440.208 109.804L441.208 109.804ZM441.208 101.983L441.208 98.0726L440.208 98.0726L440.208 101.983L441.208 101.983ZM441.208 94.1621L441.208 90.2515L440.208 90.2515L440.208 94.1621L441.208 94.1621ZM441.208 86.341L441.208 82.4304L440.208 82.4304L440.208 86.341L441.208 86.341ZM441.208 78.5199L441.208 74.6093L440.208 74.6093L440.208 78.5199L441.208 78.5199ZM441.208 70.6987L441.208 66.7882L440.208 66.7882L440.208 70.6987L441.208 70.6987ZM441.208 62.8776L441.208 58.9671L440.208 58.9671L440.208 62.8776L441.208 62.8776ZM441.208 55.0565L441.208 51.146L440.208 51.146L440.208 55.0565L441.208 55.0565ZM441.208 47.2354L441.208 45.2802L440.208 45.2802L440.208 47.2354L441.208 47.2354Z" fill="#EDEDED"/>
<line x1="3" y1="122.991" x2="440.707" y2="122.991" stroke="#EDEDED" stroke-dasharray="4 4"/>
</svg>
