<svg width="159" height="153" viewBox="0 0 159 153" fill="none" xmlns="http://www.w3.org/2000/svg">
<path d="M52.9363 0.316205C52.9363 14.2183 55.6745 27.9842 60.9946 40.828C66.3147 53.6719 74.1125 65.3421 83.9427 75.1723C93.773 85.0026 105.443 92.8003 118.287 98.1204C131.131 103.44 144.897 106.179 158.799 106.179" stroke="#EDEDED"/>
<path d="M18.7964 81.7177C13.5652 69.0886 10.8422 55.5636 10.7773 41.8973L115.639 41.8973L115.639 146.759C101.972 146.694 88.4473 143.971 75.8182 138.74C63.035 133.445 51.4199 125.684 41.6361 115.9C31.8523 106.116 24.0914 94.5009 18.7964 81.7177Z" stroke="#EDEDED"/>
<line x1="154.035" y1="5.76341" x2="23.6203" y2="128.322" stroke="#EDEDED" stroke-linecap="round" stroke-linejoin="round"/>
<path d="M48.9892 129.88L26.8655 152" stroke="#EDEDED" stroke-linecap="round" stroke-linejoin="round"/>
<path d="M23.2156 106.179L0.843809 127.296" stroke="#EDEDED" stroke-linecap="round" stroke-linejoin="round"/>
</svg>
