<svg width="370" height="356" viewBox="0 0 370 356" fill="none" xmlns="http://www.w3.org/2000/svg">
<path d="M123.399 0.8335C123.399 33.202 129.774 65.2535 142.161 95.1581C154.548 125.063 172.704 152.235 195.592 175.123C218.48 198.011 245.652 216.166 275.556 228.553C305.461 240.94 337.512 247.315 369.881 247.315" stroke="#EDEDED"/>
<path d="M43.2971 190.615C30.9991 160.925 24.6386 129.115 24.5733 96.9819L270.055 96.9819L270.055 342.463C237.922 342.398 206.111 336.038 176.421 323.74C146.578 311.378 119.461 293.259 96.6192 270.417C73.7777 247.576 55.6588 220.459 43.2971 190.615Z" stroke="#EDEDED"/>
<line x1="358.789" y1="13.6341" x2="55.2674" y2="298.871" stroke="#FE3402" stroke-width="2.5" stroke-linecap="round" stroke-linejoin="round"/>
<path d="M114.21 302.498L62.6989 354" stroke="#FE3402" stroke-width="2.5" stroke-linecap="round" stroke-linejoin="round"/>
<path d="M54.1954 247.313L2.10664 296.479" stroke="#FE3402" stroke-width="2.5" stroke-linecap="round" stroke-linejoin="round"/>
</svg>
