<svg width="159" height="153" viewBox="0 0 159 153" fill="none" xmlns="http://www.w3.org/2000/svg">
<path d="M52.9363 0.782026C52.9363 14.6841 55.6745 28.45 60.9946 41.2939C66.3147 54.1377 74.1125 65.8079 83.9427 75.6381C93.773 85.4684 105.443 93.2661 118.287 98.5862C131.131 103.906 144.897 106.645 158.799 106.645" stroke="#EDEDED"/>
<path d="M18.7964 82.1836C13.5652 69.5544 10.8422 56.0295 10.7773 42.3631L115.639 42.3631L115.639 147.224C101.972 147.16 88.4473 144.437 75.8182 139.205C63.035 133.91 51.4199 126.149 41.6361 116.366C31.8523 106.582 24.0914 94.9667 18.7964 82.1836Z" stroke="#EDEDED"/>
<line x1="154.035" y1="6.22923" x2="23.6203" y2="128.787" stroke="#FE3402" stroke-linecap="round" stroke-linejoin="round"/>
<path d="M48.9892 130.346L26.8655 152.466" stroke="#FE3402" stroke-linecap="round" stroke-linejoin="round"/>
<path d="M23.2156 106.645L0.843809 127.762" stroke="#FE3402" stroke-linecap="round" stroke-linejoin="round"/>
</svg>
