<svg width="168" height="158" viewBox="0 0 168 158" fill="none" xmlns="http://www.w3.org/2000/svg">
<circle cx="69.1671" cy="85.796" r="67.9093" stroke="#EDEDED"/>
<path d="M167.435 17.3865C149.291 17.3865 131.891 24.5939 119.062 37.4231C106.233 50.2524 99.0254 67.6525 99.0254 85.7958C99.0254 103.939 106.233 121.339 119.062 134.168C131.891 146.998 149.291 154.205 167.435 154.205" stroke="#EDEDED"/>
<line x1="167.813" y1="85.918" x2="0.757797" y2="85.918" stroke="#EDEDED"/>
<line x1="69.0449" y1="86.1738" x2="69.0449" y2="0.000816367" stroke="#EDEDED"/>
<circle cx="88.0619" cy="150.804" r="6.42518" fill="#EDEDED"/>
<circle cx="19.2748" cy="131.15" r="6.42518" fill="#EDEDED"/>
<circle cx="154.583" cy="86.5678" r="6.42518" fill="#EDEDED"/>
<circle cx="103.923" cy="28.3627" r="6.42518" fill="#EDEDED"/>
<circle cx="26.8256" cy="31.3568" r="6.42518" fill="#EDEDED"/>
<path d="M74.9974 85.5397C74.9974 88.7912 72.3616 91.4271 69.11 91.4271C65.8585 91.4271 63.2227 88.7912 63.2227 85.5397C63.2227 82.2882 65.8585 79.6523 69.11 79.6523C72.3616 79.6523 74.9974 82.2882 74.9974 85.5397Z" fill="#EDEDED"/>
</svg>
