<svg width="333" height="312" viewBox="0 0 333 312" fill="none" xmlns="http://www.w3.org/2000/svg">
<circle cx="136.306" cy="170.249" r="135.249" stroke="#EDEDED"/>
<path d="M331.306 34.503C295.303 34.503 260.775 48.8051 235.317 74.2631C209.859 99.721 195.557 134.249 195.557 170.252C195.557 206.255 209.859 240.784 235.317 266.242C260.775 291.7 295.303 306.002 331.306 306.002" stroke="#EDEDED"/>
<line x1="332.055" y1="170.502" x2="0.555939" y2="170.502" stroke="#EDEDED" stroke-width="2"/>
<line x1="136.057" y1="171" x2="136.057" y2="0.000640913" stroke="#EDEDED" stroke-width="2"/>
<circle cx="173.801" cy="299.25" r="12.75" fill="#EDEDED"/>
<circle cx="37.3007" cy="260.25" r="12.75" fill="#FE3402"/>
<circle cx="305.805" cy="170.783" r="12.75" fill="#FE3402"/>
<circle cx="205.275" cy="56.2812" r="12.75" fill="#EDEDED"/>
<circle cx="52.2851" cy="62.2226" r="12.75" fill="#EDEDED"/>
<path d="M147.875 169.743C147.875 176.196 142.645 181.426 136.193 181.426C129.74 181.426 124.51 176.196 124.51 169.743C124.51 163.291 129.74 158.061 136.193 158.061C142.645 158.061 147.875 163.291 147.875 169.743Z" fill="#FE3402"/>
</svg>
