<svg width="168" height="158" viewBox="0 0 168 158" fill="none" xmlns="http://www.w3.org/2000/svg">
<circle cx="69.1671" cy="86.548" r="67.9093" stroke="#EDEDED"/>
<path d="M167.435 18.1385C149.291 18.1385 131.891 25.3459 119.062 38.1751C106.233 51.0043 99.0254 68.4045 99.0254 86.5477C99.0254 104.691 106.233 122.091 119.062 134.92C131.891 147.75 149.291 154.957 167.435 154.957" stroke="#EDEDED"/>
<line x1="167.813" y1="86.6699" x2="0.757797" y2="86.6699" stroke="#EDEDED"/>
<line x1="69.0449" y1="86.9258" x2="69.0449" y2="0.752769" stroke="#EDEDED"/>
<circle cx="88.0619" cy="151.556" r="6.42518" fill="#EDEDED"/>
<circle cx="19.2748" cy="131.902" r="6.42518" fill="#FE3402"/>
<circle cx="154.583" cy="87.3197" r="6.42518" fill="#FE3402"/>
<circle cx="103.923" cy="29.1146" r="6.42518" fill="#EDEDED"/>
<circle cx="26.8256" cy="32.1088" r="6.42518" fill="#EDEDED"/>
<path d="M74.9974 86.2917C74.9974 89.5432 72.3616 92.1791 69.11 92.1791C65.8585 92.1791 63.2227 89.5432 63.2227 86.2917C63.2227 83.0402 65.8585 80.4043 69.11 80.4043C72.3616 80.4043 74.9974 83.0402 74.9974 86.2917Z" fill="#FE3402"/>
</svg>
