<svg width="453" height="220" viewBox="0 0 453 220" fill="none" xmlns="http://www.w3.org/2000/svg">
<path d="M389.378 151.188C429.476 111.09 452.002 56.7069 452.002 0.000992879" stroke="#EDEDED"/>
<path d="M231.454 219.186C288.16 219.186 342.543 196.659 382.641 156.562" stroke="#EDEDED"/>
<path d="M69.8369 156.562C109.934 196.659 164.317 219.186 221.023 219.186" stroke="#EDEDED"/>
<path d="M0.815931 0.000964099C0.815936 56.7069 23.3423 111.09 63.4395 151.188" stroke="#EDEDED"/>
<path d="M49.6394 1.25912C49.6394 47.6955 68.1749 92.23 101.168 125.065C134.162 157.901 178.91 176.348 225.57 176.348C272.229 176.348 316.978 157.901 349.971 125.065C382.965 92.2299 401.5 47.6955 401.5 1.25912" stroke="#FE3402" stroke-width="2"/>
</svg>
