<svg width="196" height="95" viewBox="0 0 196 95" fill="none" xmlns="http://www.w3.org/2000/svg">
<path d="M168.075 65.0078C185.316 47.7668 195.002 24.383 195.002 0.000466437" stroke="#EDEDED"/>
<path d="M100.17 94.2461C124.553 94.2461 147.937 84.5602 165.178 67.3192" stroke="#EDEDED"/>
<path d="M30.6782 67.3192C47.9192 84.5602 71.3031 94.2461 95.6855 94.2461" stroke="#EDEDED"/>
<path d="M1.00081 0.000457915C1.00081 24.3829 10.6867 47.7668 27.9277 65.0078" stroke="#EDEDED"/>
<path d="M21.9937 0.54141C21.9937 20.5082 29.9636 39.6571 44.1501 53.7758C58.3366 67.8944 77.5776 75.8262 97.6404 75.8262C117.703 75.8262 136.944 67.8944 151.131 53.7758C165.317 39.6571 173.287 20.5082 173.287 0.54141" stroke="#FE3402" stroke-width="2"/>
</svg>
