<svg width="342" height="350" viewBox="0 0 342 350" fill="none" xmlns="http://www.w3.org/2000/svg">
<line x1="171.999" y1="1" x2="171.999" y2="139" stroke="#EDEDED" stroke-width="2" stroke-linecap="round"/>
<line x1="62.7275" y1="178.521" x2="1.00169" y2="178.521" stroke="#EDEDED" stroke-width="2" stroke-linecap="round"/>
<line x1="340.391" y1="178.521" x2="278.665" y2="178.521" stroke="#EDEDED" stroke-width="2" stroke-linecap="round"/>
<line x1="172.001" y1="213" x2="172.001" y2="349" stroke="#EDEDED" stroke-width="2" stroke-linecap="round"/>
<circle cx="171.834" cy="176.385" r="36.5527" stroke="#FE3402" stroke-width="2"/>
<path d="M198.007 127.451C204.881 127.451 211.688 128.746 218.039 131.263C224.39 133.779 230.161 137.467 235.022 142.116C239.882 146.766 243.738 152.286 246.369 158.36C249 164.435 250.354 170.946 250.354 177.521C250.354 184.097 249 190.608 246.369 196.683C243.738 202.757 239.882 208.277 235.022 212.927C230.161 217.576 224.39 221.264 218.039 223.78C211.688 226.297 204.881 227.592 198.007 227.592" stroke="#FE3402" stroke-width="2" stroke-linecap="round"/>
<path d="M143.385 127.451C136.511 127.451 129.704 128.746 123.353 131.263C117.002 133.779 111.232 137.467 106.371 142.116C101.51 146.766 97.6543 152.286 95.0237 158.36C92.393 164.435 91.0391 170.946 91.0391 177.521C91.0391 184.097 92.393 190.608 95.0237 196.683C97.6543 202.757 101.51 208.277 106.371 212.927C111.232 217.576 117.002 221.264 123.353 223.78C129.704 226.297 136.511 227.592 143.385 227.592" stroke="#FE3402" stroke-width="2" stroke-linecap="round"/>
<path d="M198.008 102.416C208.468 102.416 218.827 104.359 228.491 108.133C238.156 111.907 246.937 117.44 254.334 124.414C261.731 131.388 267.598 139.668 271.601 148.78C275.605 157.892 277.665 167.658 277.665 177.521C277.665 187.384 275.605 197.151 271.601 206.263C267.598 215.375 261.731 223.655 254.334 230.629C246.937 237.603 238.156 243.135 228.491 246.91C218.827 250.684 208.468 252.627 198.008 252.627" stroke="#FE3402" stroke-width="2" stroke-linecap="round"/>
<path d="M143.385 102.416C132.924 102.416 122.566 104.359 112.901 108.133C103.237 111.907 94.4555 117.44 87.0586 124.414C79.6618 131.388 73.7942 139.668 69.7911 148.78C65.7879 157.892 63.7275 167.658 63.7275 177.521C63.7275 187.384 65.7879 197.151 69.7911 206.263C73.7942 215.375 79.6618 223.655 87.0586 230.629C94.4555 237.603 103.237 243.135 112.901 246.91C122.566 250.684 132.924 252.627 143.385 252.627" stroke="#FE3402" stroke-width="2" stroke-linecap="round"/>
</svg>
