<svg width="150" height="154" viewBox="0 0 150 154" fill="none" xmlns="http://www.w3.org/2000/svg">
<line x1="76" y1="1" x2="76" y2="61" stroke="#EDEDED" stroke-width="2" stroke-linecap="round"/>
<line x1="27" y1="79" x2="1" y2="79" stroke="#EDEDED" stroke-width="2" stroke-linecap="round"/>
<line x1="149" y1="79" x2="123" y2="79" stroke="#EDEDED" stroke-width="2" stroke-linecap="round"/>
<line x1="76" y1="93" x2="76" y2="153" stroke="#EDEDED" stroke-width="2" stroke-linecap="round"/>
<circle cx="75.5" cy="77.5" r="15.5" stroke="#FE3402" stroke-width="2"/>
<path d="M87 56C90.0204 56 93.0112 56.569 95.8017 57.6746C98.5922 58.7803 101.128 60.4008 103.263 62.4437C105.399 64.4865 107.093 66.9118 108.249 69.581C109.405 72.2501 110 75.1109 110 78C110 80.8891 109.405 83.7499 108.249 86.419C107.093 89.0882 105.399 91.5135 103.263 93.5563C101.128 95.5992 98.5922 97.2197 95.8017 98.3253C93.0112 99.431 90.0204 100 87 100" stroke="#FE3402" stroke-width="2" stroke-linecap="round"/>
<path d="M63 56C59.9796 56 56.9888 56.569 54.1983 57.6746C51.4078 58.7803 48.8723 60.4008 46.7365 62.4437C44.6008 64.4865 42.9066 66.9118 41.7508 69.581C40.5949 72.2501 40 75.1109 40 78C40 80.8891 40.5949 83.7499 41.7508 86.419C42.9066 89.0882 44.6008 91.5135 46.7365 93.5563C48.8723 95.5992 51.4078 97.2197 54.1983 98.3253C56.9888 99.431 59.9796 100 63 100" stroke="#FE3402" stroke-width="2" stroke-linecap="round"/>
<path d="M87 45C91.5963 45 96.1475 45.8536 100.394 47.512C104.64 49.1704 108.499 51.6011 111.749 54.6655C114.999 57.7298 117.577 61.3677 119.336 65.3714C121.095 69.3752 122 73.6664 122 78C122 82.3336 121.095 86.6248 119.336 90.6286C117.577 94.6323 114.999 98.2702 111.749 101.335C108.499 104.399 104.64 106.83 100.394 108.488C96.1475 110.146 91.5963 111 87 111" stroke="#FE3402" stroke-width="2" stroke-linecap="round"/>
<path d="M63 45C58.4037 45 53.8525 45.8536 49.6061 47.512C45.3597 49.1704 41.5013 51.6011 38.2513 54.6655C35.0012 57.7298 32.4231 61.3677 30.6642 65.3714C28.9053 69.3752 28 73.6664 28 78C28 82.3336 28.9053 86.6248 30.6642 90.6286C32.4231 94.6323 35.0012 98.2702 38.2513 101.335C41.5013 104.399 45.3597 106.83 49.6061 108.488C53.8525 110.146 58.4037 111 63 111" stroke="#FE3402" stroke-width="2" stroke-linecap="round"/>
</svg>
