<svg width="238" height="600" viewBox="0 0 238 600" fill="none" xmlns="http://www.w3.org/2000/svg">
<path d="M4.26826 453.841C4.26826 483.552 16.5281 512.046 38.3509 533.055C60.1736 554.064 89.7716 565.867 120.634 565.867C151.496 565.867 181.094 554.064 202.916 533.055C224.739 512.046 236.999 483.552 236.999 453.841" stroke="#242124"/>
<path d="M236.21 146.163C236.21 116.242 223.95 87.5474 202.128 66.3905C180.305 45.2335 150.707 33.3476 119.845 33.3476C88.9829 33.3476 59.3849 45.2335 37.5621 66.3905C15.7394 87.5474 3.47951 116.242 3.47951 146.163" stroke="#242124"/>
<path d="M4.76826 412.425C4.76826 407.364 7.88748 402.46 13.7197 397.926C19.5455 393.397 28.0068 389.297 38.5071 385.844C59.5023 378.941 88.5384 374.662 120.634 374.662C152.729 374.662 181.765 378.941 202.76 385.844C213.261 389.297 221.722 393.397 227.548 397.926C233.38 402.46 236.499 407.364 236.499 412.425C236.499 417.486 233.38 422.39 227.548 426.924C221.722 431.453 213.261 435.553 202.76 439.006C181.765 445.909 152.729 450.188 120.634 450.188C88.5385 450.188 59.5023 445.909 38.5071 439.006C28.0068 435.553 19.5455 431.453 13.7197 426.924C7.88748 422.39 4.76826 417.486 4.76826 412.425Z" stroke="#242124"/>
<path d="M235.71 187.579C235.71 192.64 232.591 197.544 226.759 202.078C220.933 206.607 212.472 210.707 201.971 214.16C180.976 221.063 151.94 225.341 119.845 225.341C87.7497 225.341 58.7135 221.063 37.7183 214.16C27.218 210.707 18.7567 206.607 12.9309 202.078C7.09872 197.544 3.9795 192.64 3.9795 187.579C3.9795 182.518 7.09872 177.614 12.9309 173.08C18.7567 168.551 27.218 164.451 37.7183 160.998C58.7135 154.095 87.7497 149.816 119.845 149.816C151.94 149.816 180.976 154.095 201.971 160.998C212.472 164.451 220.933 168.551 226.759 173.08C232.591 177.614 235.71 182.518 235.71 187.579Z" stroke="#242124"/>
<path d="M219.043 298.276L121.445 367.695L23.8457 298.276L121.445 228.875L219.043 298.276Z" stroke="#242124" stroke-miterlimit="10" stroke-linejoin="round"/>
<path d="M192.02 298.399L121.447 348.185L50.873 298.399L121.447 248.625L192.02 298.399Z" stroke="#EDEDED" stroke-miterlimit="10" stroke-linejoin="round" stroke-dasharray="6 6"/>
<path d="M4.26758 450.688V599.004H236.998V450.688" stroke="#242124"/>
<path d="M236.211 149.316V0.999865H3.48019V149.316" stroke="#242124"/>
<path d="M120.241 565.867L120.241 450.685" stroke="#242124"/>
<path d="M121.025 149.316L121.025 33.3455" stroke="#242124"/>
<path d="M4.26758 364.693L4.26757 235.311" stroke="#242124"/>
<path d="M234.635 364.693L234.635 235.311" stroke="#242124"/>
<g style="mix-blend-mode:overlay">
<circle cx="38.1936" cy="158.783" r="9.46701" fill="#242124"/>
<circle cx="224.377" cy="170.615" r="10.2559" fill="#242124"/>
<circle cx="195.977" cy="158.783" r="9.46701" fill="#EDEDED"/>
<circle cx="217.278" cy="207.698" r="4.73351" fill="#242124"/>
<circle cx="170.734" cy="217.954" r="14.9894" fill="#EDEDED"/>
<circle cx="6.63556" cy="194.286" r="6.31134" fill="#242124"/>
<circle cx="46.079" cy="215.586" r="11.0448" fill="#EDEDED"/>
<circle cx="120.239" cy="149.314" r="21.3008" fill="#EDEDED"/>
<circle cx="120.241" cy="149.316" r="25.5343" stroke="#FE3402"/>
<circle cx="170.731" cy="217.951" r="19.2229" stroke="#FE3402"/>
<circle cx="46.0833" cy="215.585" r="13.7005" stroke="#FE3402"/>
<circle cx="195.977" cy="158.783" r="12.1227" stroke="#FE3402"/>
</g>
<g style="mix-blend-mode:overlay">
<circle cx="120.239" cy="246.357" r="11.0448" fill="#EDEDED"/>
</g>
<g style="mix-blend-mode:overlay">
<circle cx="121.027" cy="349.703" r="11.0448" fill="#EDEDED"/>
</g>
<g style="mix-blend-mode:overlay">
<circle cx="53.9706" cy="297.635" r="11.0448" fill="#EDEDED"/>
</g>
<g style="mix-blend-mode:overlay">
<circle cx="119.45" cy="409.66" r="20.5119" fill="#EDEDED"/>
</g>
<g style="mix-blend-mode:overlay">
<circle cx="186.508" cy="297.635" r="11.0448" fill="#EDEDED"/>
</g>
<path d="M95.7822 385.996H145.484V432.542" stroke="#242124"/>
<path d="M143.908 435.697L94.2064 435.697L94.2064 389.151" stroke="#242124"/>
<path d="M99.5771 431.57C99.5771 431.846 99.801 432.07 100.077 432.07L104.577 432.07C104.853 432.07 105.077 431.846 105.077 431.57C105.077 431.294 104.853 431.07 104.577 431.07L100.577 431.07L100.577 427.07C100.577 426.794 100.353 426.57 100.077 426.57C99.801 426.57 99.5771 426.794 99.5771 427.07L99.5771 431.57ZM141.343 390.804C141.343 390.528 141.12 390.304 140.843 390.304L136.343 390.304C136.067 390.304 135.843 390.528 135.843 390.804C135.843 391.08 136.067 391.304 136.343 391.304L140.343 391.304L140.343 395.304C140.343 395.58 140.567 395.804 140.843 395.804C141.12 395.804 141.343 395.58 141.343 395.304L141.343 390.804ZM100.431 431.924L141.197 391.158L140.49 390.45L99.7236 431.217L100.431 431.924Z" fill="#242124"/>
<g style="mix-blend-mode:overlay">
<path d="M74.624 297.465L87.227 288.503L122.377 314.865L129.163 310.039L117.739 301.471L123.556 297.335L105.981 284.154L100.164 288.29L94.0132 283.677L105.647 275.404L117.07 283.972L123.857 279.146L112.433 270.578L118.25 266.442L129.673 275.01L123.857 279.146L136.159 288.373L123.556 297.335L134.98 305.903L147.583 296.941L159.006 305.508L121.197 332.395L74.624 297.465Z" fill="#1A0C6D"/>
</g>
</svg>
