<svg width="257" height="600" viewBox="0 0 257 600" fill="none" xmlns="http://www.w3.org/2000/svg">
<path d="M23.2692 453.841C23.2692 483.552 35.5291 512.046 57.3519 533.055C79.1746 554.064 108.773 565.867 139.635 565.867C170.497 565.867 200.095 554.064 221.917 533.055C243.74 512.046 256 483.552 256 453.841" stroke="#242124"/>
<path d="M255.211 146.159C255.211 116.239 242.951 87.5435 221.129 66.3866C199.306 45.2296 169.708 33.3437 138.846 33.3437C107.984 33.3437 78.3858 45.2296 56.5631 66.3866C34.7404 87.5435 22.4805 116.239 22.4805 146.159" stroke="#242124"/>
<path d="M23.7692 412.425C23.7692 407.364 26.8885 402.46 32.7207 397.926C38.5465 393.397 47.0077 389.297 57.5081 385.844C78.5032 378.941 107.539 374.662 139.635 374.662C171.73 374.662 200.766 378.941 221.761 385.844C232.261 389.297 240.723 393.397 246.549 397.926C252.381 402.46 255.5 407.364 255.5 412.425C255.5 417.486 252.381 422.39 246.549 426.924C240.723 431.453 232.261 435.553 221.761 439.006C200.766 445.909 171.73 450.188 139.635 450.188C107.539 450.188 78.5032 445.909 57.5081 439.006C47.0078 435.553 38.5465 431.453 32.7207 426.924C26.8885 422.39 23.7692 417.486 23.7692 412.425Z" stroke="#242124"/>
<path d="M254.711 187.583C254.711 192.644 251.592 197.548 245.76 202.082C239.934 206.611 231.473 210.711 220.972 214.164C199.977 221.067 170.941 225.345 138.846 225.345C106.751 225.345 77.7145 221.067 56.7193 214.164C46.219 210.711 37.7577 206.611 31.9319 202.082C26.0997 197.548 22.9805 192.644 22.9805 187.583C22.9805 182.522 26.0997 177.618 31.9319 173.084C37.7577 168.555 46.219 164.455 56.7193 161.002C77.7145 154.099 106.751 149.82 138.846 149.82C170.941 149.82 199.977 154.099 220.972 161.002C231.473 164.455 239.934 168.555 245.76 173.084C251.592 177.618 254.711 182.522 254.711 187.583Z" stroke="#242124"/>
<path d="M238.041 298.276L140.443 367.695L42.8438 298.276L140.443 228.875L238.041 298.276Z" stroke="#242124" stroke-miterlimit="10" stroke-linejoin="round"/>
<path d="M211.018 298.399L140.445 348.185L69.8711 298.399L140.445 248.625L211.018 298.399Z" stroke="#EDEDED" stroke-miterlimit="10" stroke-linejoin="round" stroke-dasharray="6 6"/>
<path d="M23.2695 450.688V599.004H256V450.688" stroke="#242124"/>
<path d="M255.211 149.32V1.00377H22.4802V149.32" stroke="#242124"/>
<path d="M139.242 565.867L139.242 450.685" stroke="#242124"/>
<path d="M140.023 149.32L140.023 33.3494" stroke="#242124"/>
<path d="M23.2695 364.695L23.2695 235.313" stroke="#242124"/>
<path d="M253.637 364.695L253.637 235.313" stroke="#242124"/>
<g style="mix-blend-mode:overlay">
<circle cx="57.1936" cy="158.78" r="9.46701" fill="#242124"/>
<circle cx="243.377" cy="170.615" r="10.2559" fill="#242124"/>
<circle cx="214.979" cy="158.78" r="9.46701" fill="#EDEDED"/>
<circle cx="236.276" cy="207.702" r="4.73351" fill="#242124"/>
<circle cx="189.732" cy="217.958" r="14.9894" fill="#EDEDED"/>
<circle cx="25.6356" cy="194.288" r="6.31134" fill="#242124"/>
<circle cx="65.08" cy="215.584" r="11.0448" fill="#EDEDED"/>
<circle cx="139.238" cy="149.316" r="21.3008" fill="#EDEDED"/>
<circle cx="139.241" cy="149.316" r="25.5343" stroke="#FE3402"/>
<circle cx="189.731" cy="217.95" r="19.2229" stroke="#FE3402"/>
<circle cx="65.0833" cy="215.583" r="13.7005" stroke="#FE3402"/>
<circle cx="214.978" cy="158.779" r="12.1227" stroke="#FE3402"/>
</g>
<g style="mix-blend-mode:overlay">
<circle cx="139.24" cy="246.357" r="11.0448" fill="#EDEDED"/>
</g>
<g style="mix-blend-mode:overlay">
<circle cx="140.025" cy="349.701" r="11.0448" fill="#EDEDED"/>
</g>
<g style="mix-blend-mode:overlay">
<circle cx="72.9706" cy="297.631" r="11.0448" fill="#EDEDED"/>
</g>
<g style="mix-blend-mode:overlay">
<circle cx="138.449" cy="409.66" r="20.5119" fill="#EDEDED"/>
</g>
<g style="mix-blend-mode:overlay">
<circle cx="205.506" cy="297.631" r="11.0448" fill="#EDEDED"/>
</g>
<path d="M114.781 385.992H164.483V432.538" stroke="#242124"/>
<path d="M162.906 435.695L113.204 435.695L113.204 389.149" stroke="#242124"/>
<path d="M118.578 431.57C118.578 431.846 118.802 432.07 119.078 432.07L123.578 432.07C123.854 432.07 124.078 431.846 124.078 431.57C124.078 431.294 123.854 431.07 123.578 431.07L119.578 431.07L119.578 427.07C119.578 426.794 119.354 426.57 119.078 426.57C118.802 426.57 118.578 426.794 118.578 427.07L118.578 431.57ZM160.344 390.804C160.344 390.528 160.121 390.304 159.844 390.304L155.344 390.304C155.068 390.304 154.844 390.528 154.844 390.804C154.844 391.08 155.068 391.304 155.344 391.304L159.344 391.304L159.344 395.304C159.344 395.58 159.568 395.804 159.844 395.804C160.121 395.804 160.344 395.58 160.344 395.304L160.344 390.804ZM119.432 431.924L160.198 391.158L159.491 390.45L118.725 431.217L119.432 431.924Z" fill="#242124"/>
<g style="mix-blend-mode:overlay">
<path d="M93.625 297.469L106.228 288.507L141.378 314.869L148.164 310.043L136.74 301.475L142.557 297.339L124.982 284.158L119.165 288.294L113.014 283.681L124.648 275.408L136.071 283.976L142.858 279.15L131.434 270.582L137.251 266.446L148.674 275.014L142.858 279.15L155.16 288.377L142.557 297.339L153.981 305.907L166.584 296.945L178.007 305.512L140.198 332.399L93.625 297.469Z" fill="#1A0C6D"/>
</g>
<path d="M4.242 149V143.288L4.34 141.272L2.73 142.574L1.008 143.946V141.916L4.718 139.228H6.006V149H4.242ZM1.008 149V147.53H8.204V149H1.008ZM12.6615 149V147.04H14.6495V149H12.6615Z" fill="#EDEDED"/>
<path d="M0.994 365V363.768C2.254 362.844 3.26667 362.041 4.032 361.36C4.80667 360.669 5.36667 360.058 5.712 359.526C6.06667 358.994 6.244 358.504 6.244 358.056C6.244 357.599 6.09467 357.235 5.796 356.964C5.50667 356.684 5.11467 356.544 4.62 356.544C4.07867 356.544 3.63067 356.712 3.276 357.048C2.93067 357.384 2.75333 357.855 2.744 358.462H0.98C1.01733 357.743 1.19467 357.132 1.512 356.628C1.82933 356.115 2.25867 355.727 2.8 355.466C3.34133 355.195 3.962 355.06 4.662 355.06C5.34333 355.06 5.936 355.181 6.44 355.424C6.95333 355.667 7.35 356.012 7.63 356.46C7.91933 356.899 8.064 357.412 8.064 358C8.064 358.616 7.91467 359.213 7.616 359.792C7.31733 360.361 6.84133 360.949 6.188 361.556C5.544 362.163 4.69 362.821 3.626 363.53H8.078V365H0.994ZM12.6615 365V363.04H14.6495V365H12.6615Z" fill="#EDEDED"/>
<path d="M4.62 599.168C3.948 599.168 3.332 599.037 2.772 598.776C2.22133 598.505 1.78267 598.113 1.456 597.6C1.12933 597.087 0.970667 596.461 0.98 595.724H2.73C2.73 596.116 2.80933 596.461 2.968 596.76C3.12667 597.049 3.346 597.273 3.626 597.432C3.91533 597.591 4.24667 597.67 4.62 597.67C5.152 597.67 5.58133 597.535 5.908 597.264C6.23467 596.984 6.398 596.625 6.398 596.186C6.398 595.841 6.30467 595.561 6.118 595.346C5.93133 595.122 5.67933 594.959 5.362 594.856C5.04467 594.744 4.69 594.688 4.298 594.688H3.794V593.232H4.326C4.67133 593.232 4.97 593.167 5.222 593.036C5.474 592.905 5.66533 592.733 5.796 592.518C5.936 592.294 6.006 592.056 6.006 591.804C6.006 591.412 5.87067 591.104 5.6 590.88C5.33867 590.656 4.998 590.544 4.578 590.544C4.05533 590.544 3.63533 590.698 3.318 591.006C3.00067 591.305 2.83733 591.734 2.828 592.294H1.064C1.092 591.594 1.26467 591.006 1.582 590.53C1.89933 590.054 2.324 589.69 2.856 589.438C3.388 589.186 3.97133 589.06 4.606 589.06C5.25 589.06 5.81 589.167 6.286 589.382C6.77133 589.597 7.14467 589.895 7.406 590.278C7.67667 590.661 7.812 591.113 7.812 591.636C7.812 591.981 7.742 592.303 7.602 592.602C7.462 592.901 7.266 593.157 7.014 593.372C6.77133 593.587 6.49133 593.745 6.174 593.848C6.58467 593.923 6.93933 594.072 7.238 594.296C7.546 594.511 7.784 594.786 7.952 595.122C8.12933 595.449 8.218 595.813 8.218 596.214C8.218 596.793 8.07333 597.306 7.784 597.754C7.49467 598.193 7.07933 598.538 6.538 598.79C5.99667 599.042 5.35733 599.168 4.62 599.168ZM12.6615 599V597.04H14.6495V599H12.6615Z" fill="#EDEDED"/>
</svg>
