<svg width="238" height="309" viewBox="0 0 238 309" fill="none" xmlns="http://www.w3.org/2000/svg">
<path d="M119.679 238.552L116.468 240.836L123.095 245.806L119.348 248.47L98.9573 233.177L92 238.124L119.018 258.388L139.89 243.546L133.263 238.575L126.306 243.523L119.679 238.552ZM119.679 238.552L109.483 230.906L106.272 233.189L102.704 230.513L109.126 225.946L115.753 230.916L119.499 228.252M119.679 238.552L126.636 233.605L119.499 228.252M119.499 228.252L112.872 223.282L116.083 220.998L122.71 225.969L119.499 228.252Z" stroke="#242124"/>
<path d="M237.16 154.045C237.16 122.782 224.741 92.7996 202.635 70.6933C180.529 48.5871 150.546 36.1679 119.283 36.1679C88.0203 36.168 58.0379 48.5871 35.9316 70.6933C13.8254 92.7996 1.40627 122.782 1.40627 154.045" stroke="#242124"/>
<path fill-rule="evenodd" clip-rule="evenodd" d="M119.425 272.748C150.833 272.748 180.955 260.224 203.163 237.932C221.714 219.311 233.475 195.148 236.845 169.32V307.348H2V169.278C5.36295 195.122 17.126 219.301 35.6872 237.932C57.8956 260.224 88.017 272.748 119.425 272.748ZM1.00274 153.881C1.00274 153.881 1.00274 153.881 1.00274 153.881L2.00274 153.881C2.00274 185.142 14.3745 215.122 36.3956 237.226C58.4168 259.331 88.2834 271.748 119.425 271.748C150.567 271.748 180.434 259.331 202.455 237.226C224.287 215.312 236.635 185.656 236.845 154.685V153.881H236.848C236.848 153.881 236.848 153.881 236.848 153.881H237.848C237.848 154.15 237.847 154.42 237.845 154.689V307.848V308.348H237.345H1.5H1V307.848V153.881H1.00274Z" fill="#242124"/>
<path d="M237.16 154.045L237.16 1.00015L1.40615 1.00017L1.40616 154.045" stroke="#242124"/>
<path d="M119.281 307.742L119.281 271.923" stroke="#242124"/>
<path d="M119.281 36.168L119.281 1.00024" stroke="#242124"/>
<path d="M210.5 153.499L119 208.999L27.5 153.499" stroke="#242124" stroke-miterlimit="10" stroke-linejoin="round"/>
<path d="M185.5 153.499L118 193.999L50 153.499" stroke="#242124" stroke-miterlimit="10" stroke-linejoin="round"/>
<path d="M73 153.499L119 180.999L164.5 153.499" stroke="#242124" stroke-miterlimit="10" stroke-linejoin="round"/>
<line x1="80.5" y1="264.999" x2="80.5" y2="209.999" stroke="#242124"/>
<line x1="153.5" y1="266.999" x2="153.5" y2="209.999" stroke="#242124"/>
<circle cx="179" cy="230.999" r="10.5" stroke="#242124"/>
<circle cx="67" cy="222.999" r="5.5" stroke="#242124"/>
<g style="mix-blend-mode:overlay">
<circle cx="69" cy="248.999" r="3.5" stroke="#242124"/>
</g>
<circle cx="40" cy="219.999" r="5.5" stroke="#242124"/>
<circle cx="72.5" cy="65.499" r="7" stroke="#242124"/>
<circle cx="84.5" cy="84.499" r="4" stroke="#242124"/>
<circle cx="159.5" cy="76.499" r="7" stroke="#242124"/>
<g style="mix-blend-mode:overlay">
<circle cx="75" cy="125.999" r="10" fill="#EDEDED"/>
</g>
<g style="mix-blend-mode:overlay">
<circle cx="118" cy="125.999" r="14" fill="#EDEDED"/>
</g>
<g style="mix-blend-mode:overlay">
<circle cx="158" cy="125.999" r="7" fill="#EDEDED"/>
</g>
<line x1="1" y1="153.499" x2="237" y2="153.499" stroke="#242124"/>
<line x1="15" y1="98.499" x2="223" y2="98.499" stroke="#242124"/>
<line x1="15" y1="209.499" x2="224" y2="209.499" stroke="#242124"/>
<path d="M168 46.999C168 53.6964 166.72 60.3283 164.232 66.5159C161.744 72.7035 158.098 78.3257 153.502 83.0615C148.905 87.7973 143.448 91.5539 137.443 94.1169C131.437 96.6799 125 97.999 118.5 97.999C112 97.999 105.563 96.6799 99.5572 94.1169C93.5516 91.5539 88.0947 87.7973 83.4982 83.0615C78.9017 78.3257 75.2556 72.7035 72.768 66.5159C70.2804 60.3283 69 53.6964 69 46.999" stroke="#242124"/>
<path d="M232.5 125.999C232.5 129.575 229.536 133.129 223.79 136.466C218.081 139.781 209.785 142.784 199.491 145.312C178.91 150.367 150.452 153.499 119 153.499C87.5478 153.499 59.0897 150.367 38.5091 145.312C28.2149 142.784 19.9195 139.781 14.2098 136.466C8.464 133.129 5.5 129.575 5.5 125.999C5.5 122.423 8.464 118.869 14.2098 115.533C19.9195 112.217 28.2149 109.214 38.5091 106.686C59.0897 101.631 87.5478 98.499 119 98.499C150.452 98.499 178.91 101.631 199.491 106.686C209.785 109.214 218.081 112.217 223.79 115.533C229.536 118.869 232.5 122.423 232.5 125.999Z" stroke="#242124"/>
<line x1="5" y1="125.499" x2="233" y2="125.499" stroke="#EDEDED"/>
<path d="M60.9313 256.999C64.1822 255.419 66.9835 253.026 69.0716 250.045C71.1598 247.064 72.4661 243.593 72.8677 239.958C73.2693 236.324 72.753 232.645 71.3673 229.269C69.9816 225.893 67.7721 222.93 64.9467 220.659C62.1214 218.388 58.773 216.883 55.2167 216.287C51.6604 215.691 48.013 216.023 44.6179 217.251C41.2228 218.48 38.1914 220.564 35.8091 223.309C33.4268 226.053 31.7719 229.368 31 232.94" stroke="#242124"/>
<line x1="153.322" y1="209.616" x2="178.322" y2="230.616" stroke="#242124"/>
<line x1="180.312" y1="232.609" x2="195.312" y2="244.609" stroke="#242124"/>
</svg>
