<svg width="395" height="513" viewBox="0 0 395 513" fill="none" xmlns="http://www.w3.org/2000/svg">
<path d="M319.664 334.828L198.849 404.612L78.0332 334.828L198.849 265.057L319.664 334.828Z" stroke="#EDEDED" stroke-miterlimit="10" stroke-linejoin="round"/>
<path d="M319.664 231.954L198.849 301.738L78.0332 231.954L198.849 162.183L319.664 231.954Z" stroke="#EDEDED" stroke-miterlimit="10" stroke-linejoin="round"/>
<path d="M319.664 296.549L198.849 366.333L78.0332 296.549L198.849 226.777L319.664 296.549Z" stroke="#EDEDED" stroke-miterlimit="10" stroke-linejoin="round"/>
<path d="M319.664 193.679L198.849 263.463L78.0332 193.679L198.849 123.907L319.664 193.679Z" stroke="#EDEDED" stroke-miterlimit="10" stroke-linejoin="round"/>
<path d="M319.664 258.273L198.849 328.058L78.0332 258.273L198.849 188.502L319.664 258.273Z" stroke="#EDEDED" stroke-miterlimit="10" stroke-linejoin="round"/>
<path d="M319.664 155.399L198.849 225.184L78.0332 155.399L198.849 85.6279L319.664 155.399Z" stroke="#EDEDED" stroke-miterlimit="10" stroke-linejoin="round"/>
<path d="M394.149 255.971C394.149 203.887 373.459 153.936 336.63 117.108C299.802 80.279 249.851 59.5888 197.767 59.5888C145.684 59.5888 95.7333 80.279 58.9046 117.108C22.0759 153.936 1.38578 203.887 1.38578 255.971" stroke="#242124"/>
<path fill-rule="evenodd" clip-rule="evenodd" d="M2.04297 275.588V511.702H393.958V275.61C389.409 320.728 369.502 363.138 337.272 395.49C300.336 432.566 250.239 453.395 198.002 453.395C145.765 453.395 95.6675 432.566 58.731 395.49C26.4952 363.132 6.58792 320.714 2.04297 275.588ZM2.04297 255.696V255.695H1.04297V512.202V512.702H1.54297H394.458H394.958V512.202V256.366C394.959 256.143 394.959 255.92 394.959 255.696L394.958 255.696V255.695H393.958V256.364C393.782 308.292 373.156 358.053 336.564 394.784C299.814 431.672 249.972 452.395 198.002 452.395C146.031 452.395 96.1887 431.672 59.4394 394.784C22.69 357.896 2.04412 307.865 2.04411 255.696L2.04297 255.696Z" fill="#242124"/>
<path d="M394.149 255.971L394.149 0.999929L1.38598 0.999964L1.386 255.971" stroke="#242124"/>
<path d="M197.768 512.026L197.768 452.352" stroke="#242124"/>
<path d="M197.768 59.5889L197.768 0.999846" stroke="#242124"/>
<path d="M180.259 76.6934L23.71 166.951L180.259 257.218" stroke="#242124" stroke-miterlimit="10" stroke-linejoin="round"/>
<path d="M216.926 257.218L372.064 166.951L216.926 76.6934" stroke="#242124" stroke-miterlimit="10" stroke-linejoin="round"/>
<path d="M372.064 166.954V346.544L216.926 436.33V256.749L372.064 166.954Z" stroke="#242124" stroke-miterlimit="10" stroke-linejoin="round"/>
<path d="M180.259 256.749V436.33L23.71 346.544V166.954L180.259 256.749Z" stroke="#242124" stroke-miterlimit="10" stroke-linejoin="round"/>
</svg>
