<svg width="396" height="513" viewBox="0 0 396 513" fill="none" xmlns="http://www.w3.org/2000/svg">
<path d="M394.231 256.118C394.231 204.004 373.537 154.025 336.701 117.175C299.864 80.3251 249.903 59.623 197.809 59.623C145.715 59.623 95.7538 80.3251 58.9175 117.175C22.0812 154.025 1.38675 204.004 1.38675 256.118" stroke="#242124"/>
<path fill-rule="evenodd" clip-rule="evenodd" d="M2.043 275.757V511.999H394.039V275.756C389.492 320.905 369.581 363.345 337.34 395.719C300.396 432.816 250.289 453.657 198.041 453.657C145.793 453.657 95.6858 432.816 58.7417 395.719C26.5016 363.345 6.59076 320.906 2.043 275.757ZM1.043 255.962V512.499V512.999H1.543H394.539H395.039V512.499V255.844H394.039L394.039 255.845C394.039 308.043 373.389 358.104 336.632 395.013C299.875 431.922 250.022 452.657 198.041 452.657C146.06 452.657 96.2071 431.922 59.4502 395.013C22.7206 358.131 2.07378 308.118 2.043 255.961V255.844H1.043V255.845H1.04297C1.04297 255.884 1.04298 255.923 1.043 255.962Z" fill="#242124"/>
<path d="M394.23 256.118L394.23 1.00019L1.3858 1.00023L1.38582 256.118" stroke="#242124"/>
<path d="M197.809 512.322L197.809 452.614" stroke="#242124"/>
<path d="M197.809 59.623L197.809 1.0002" stroke="#242124"/>
<circle cx="195.255" cy="253.943" r="123.236" stroke="#EDEDED"/>
<line x1="318.965" y1="262.131" x2="393.844" y2="262.131" stroke="#EDEDED"/>
<line x1="2.08594" y1="262.131" x2="72.6243" y2="262.131" stroke="#EDEDED"/>
<path d="M318.466 261.547C318.466 265.77 315.206 269.924 308.98 273.799C302.78 277.658 293.775 281.152 282.604 284.092C260.269 289.972 229.385 293.615 195.253 293.615C161.12 293.615 130.237 289.972 107.901 284.092C96.7298 281.152 87.7252 277.658 81.5253 273.799C75.2988 269.924 72.0391 265.77 72.0391 261.547C72.0391 257.323 75.2988 253.17 81.5253 249.294C87.7252 245.435 96.7298 241.942 107.901 239.001C130.237 233.121 161.12 229.479 195.253 229.479C229.385 229.479 260.269 233.121 282.604 239.001C293.775 241.942 302.78 245.435 308.98 249.294C315.206 253.17 318.466 257.323 318.466 261.547Z" stroke="#EDEDED"/>
<g style="mix-blend-mode:overlay" opacity="0.8">
<circle cx="240.83" cy="290.857" r="16.2811" fill="#EDEDED"/>
</g>
<g style="mix-blend-mode:overlay" opacity="0.8">
<circle cx="287.494" cy="278.914" r="16.2811" fill="#EDEDED"/>
</g>
<g style="mix-blend-mode:overlay" opacity="0.8">
<circle cx="195.252" cy="226.806" r="16.2811" fill="#EDEDED"/>
</g>
<g style="mix-blend-mode:overlay" opacity="0.8">
<ellipse cx="101.383" cy="238.747" rx="9.22596" ry="9.76867" fill="#EDEDED"/>
</g>
<g style="mix-blend-mode:overlay" opacity="0.8">
<circle cx="128.785" cy="234.132" r="10.5827" fill="#EDEDED"/>
</g>
<g style="mix-blend-mode:overlay" opacity="0.8">
<circle cx="152.929" cy="290.857" r="14.1103" fill="#EDEDED"/>
</g>
<g style="mix-blend-mode:overlay" opacity="0.8">
<circle cx="276.099" cy="238.205" r="4.88433" fill="#EDEDED"/>
</g>
<g style="mix-blend-mode:overlay" opacity="0.8">
<circle cx="106.806" cy="283.799" r="4.88433" fill="#EDEDED"/>
</g>
<g style="mix-blend-mode:overlay" opacity="0.8">
<circle cx="298.888" cy="244.717" r="4.88433" fill="#EDEDED"/>
</g>
</svg>
