<svg width="374" height="478" viewBox="0 0 374 478" fill="none" xmlns="http://www.w3.org/2000/svg">
<path d="M187.54 369.9L182.466 373.446L192.939 381.165L187.019 385.302L154.795 361.552L143.801 369.235L186.497 400.703L219.48 377.654L209.007 369.936L198.013 377.619L187.54 369.9ZM187.54 369.9L171.429 358.026L166.354 361.572L160.715 357.416L170.864 350.324L181.336 358.042L187.257 353.905M187.54 369.9L198.535 362.217L187.257 353.905M187.257 353.905L176.784 346.187L181.858 342.641L192.331 350.359L187.257 353.905Z" stroke="#242124"/>
<path fill-rule="evenodd" clip-rule="evenodd" d="M187.151 422.713C236.704 422.713 284.229 403.296 319.271 368.731C349.7 338.715 368.551 299.412 372.987 257.574V476.997H1.28906V257.321C5.67501 299.253 24.5408 338.655 55.0316 368.731C90.073 403.296 137.598 422.713 187.151 422.713ZM0.302382 238.399C0.302382 238.399 0.302382 238.399 0.302382 238.398L1.30238 238.398C1.30239 287.014 20.8812 333.64 55.7338 368.019C90.5867 402.398 137.859 421.713 187.151 421.713C236.444 421.713 283.716 402.398 318.569 368.019C352.896 334.158 372.407 288.416 372.987 240.593V238.399H373C373 238.399 373 238.399 373 238.398H374C374 239.133 373.996 239.866 373.987 240.599V477.497V477.997H373.487H0.789062H0.289062V477.497V238.399H0.302382Z" fill="#242124"/>
<path d="M373.195 238.676L373.195 1.01047L0.641412 1.0105L0.641433 238.676" stroke="#242124"/>
<path d="M186.914 477.358L186.914 421.735" stroke="#242124"/>
<path d="M186.914 55.6113L186.914 0.998879" stroke="#242124"/>
<path d="M331.664 238.208L186.502 324.637L41.3398 238.208" stroke="#242124" stroke-miterlimit="10" stroke-linejoin="round"/>
<path d="M292.25 238.208L185.06 301.589L77.8711 238.208" stroke="#242124" stroke-miterlimit="10" stroke-linejoin="round"/>
<path d="M113.439 238.208L186.501 281.423L259.562 238.208" stroke="#242124" stroke-miterlimit="10" stroke-linejoin="round"/>
<line x1="125.496" y1="411.549" x2="125.496" y2="325.643" stroke="#242124"/>
<line x1="241.281" y1="414.069" x2="241.281" y2="325.553" stroke="#242124"/>
<circle cx="280" cy="357.999" r="16.5" stroke="#242124"/>
<circle cx="104" cy="344.999" r="8.5" stroke="#242124"/>
<circle cx="107" cy="385.999" r="5.5" stroke="#242124"/>
<circle cx="61" cy="339.999" r="8.5" stroke="#242124"/>
<circle cx="116" cy="194.999" r="14.5" stroke="#242124"/>
<circle cx="184" cy="195.999" r="21.5" stroke="#242124"/>
<circle cx="248.5" cy="195.499" r="11" stroke="#242124"/>
<line x1="4.44813e-08" y1="238.113" x2="372.943" y2="238.113" stroke="#242124"/>
<line x1="22.1172" y1="152.692" x2="350.812" y2="152.692" stroke="#242124"/>
<line x1="22.1172" y1="325.072" x2="352.393" y2="325.072" stroke="#242124"/>
<path d="M263.907 72.4453C263.907 82.8458 261.884 93.1445 257.953 102.753C254.022 112.362 248.26 121.093 240.996 128.447C233.732 135.801 225.109 141.635 215.619 145.615C206.128 149.595 195.956 151.644 185.684 151.644C175.412 151.644 165.24 149.595 155.749 145.615C146.259 141.635 137.636 135.801 130.372 128.447C123.108 121.093 117.346 112.362 113.415 102.753C109.484 93.1445 107.461 82.8458 107.461 72.4453" stroke="#FE3402"/>
<path d="M366.121 195.105C366.121 200.814 361.312 206.405 352.216 211.595C343.158 216.764 330.019 221.435 313.739 225.365C281.186 233.222 236.19 238.086 186.471 238.086C136.751 238.086 91.7547 233.222 59.2024 225.365C42.9224 221.435 29.7827 216.764 20.7252 211.595C11.6291 206.405 6.82031 200.814 6.82031 195.105C6.82031 189.396 11.6291 183.805 20.7252 178.614C29.7827 173.445 42.9224 168.774 59.2024 164.845C91.7547 156.988 136.751 152.123 186.471 152.123C236.19 152.123 281.186 156.988 313.739 164.845C330.019 168.774 343.158 173.445 352.216 178.614C361.312 183.805 366.121 189.396 366.121 195.105Z" stroke="#242124"/>
<line x1="6.32031" y1="194.614" x2="366.621" y2="194.614" stroke="#242124"/>
<path d="M94.7057 398.552C99.8429 396.099 104.27 392.383 107.57 387.753C110.869 383.124 112.934 377.734 113.568 372.09C114.203 366.446 113.387 360.733 111.197 355.49C109.008 350.247 105.516 345.646 101.051 342.119C96.5863 338.592 91.295 336.256 85.675 335.331C80.0551 334.405 74.2914 334.92 68.9261 336.827C63.5609 338.735 58.7706 341.972 55.0059 346.234C51.2412 350.496 48.626 355.643 47.4062 361.191" stroke="#242124"/>
<line y1="-0.5" x2="51.2276" y2="-0.5" transform="matrix(0.771199 0.636595 -0.649762 0.760138 240.195 325.572)" stroke="#242124"/>
<line y1="-0.5" x2="30.1527" y2="-0.5" transform="matrix(0.786151 0.618035 -0.631335 0.77551 282.867 361.283)" stroke="#242124"/>
<path d="M373.195 238.664C373.195 190.116 353.569 143.555 318.635 109.226C283.702 74.8972 236.321 55.6113 186.918 55.6113C137.514 55.6113 90.1336 74.8972 55.1999 109.226C20.2662 143.555 0.640656 190.116 0.640658 238.664" stroke="#242124"/>
<g style="mix-blend-mode:overlay" opacity="0.8">
<circle cx="131.496" cy="130.358" r="6.49643" fill="url(#paint0_radial_10396_2167)"/>
</g>
<g style="mix-blend-mode:overlay" opacity="0.8">
<circle cx="112.496" cy="100.39" r="11.4937" fill="url(#paint1_radial_10396_2167)"/>
</g>
<g style="mix-blend-mode:overlay" opacity="0.8">
<circle cx="249.488" cy="118.371" r="11.4937" fill="url(#paint2_radial_10396_2167)"/>
</g>
<defs>
<radialGradient id="paint0_radial_10396_2167" cx="0" cy="0" r="1" gradientUnits="userSpaceOnUse" gradientTransform="translate(131.496 130.358) rotate(84.0972) scale(8.60117)">
<stop/>
<stop offset="1" stop-color="#3D3B3B"/>
</radialGradient>
<radialGradient id="paint1_radial_10396_2167" cx="0" cy="0" r="1" gradientUnits="userSpaceOnUse" gradientTransform="translate(112.496 100.39) rotate(84.0972) scale(15.2175)">
<stop/>
<stop offset="1" stop-color="#3D3B3B"/>
</radialGradient>
<radialGradient id="paint2_radial_10396_2167" cx="0" cy="0" r="1" gradientUnits="userSpaceOnUse" gradientTransform="translate(249.488 118.371) rotate(84.0972) scale(15.2175)">
<stop/>
<stop offset="1" stop-color="#3D3B3B"/>
</radialGradient>
</defs>
</svg>
